<?xml version="1.0" encoding="utf-8" standalone="no"?>
<!DOCTYPE svg PUBLIC "-//W3C//DTD SVG 1.1//EN"
  "http://www.w3.org/Graphics/SVG/1.1/DTD/svg11.dtd">
<svg height="363.730312pt" version="1.1" viewBox="0 0 363.446094 363.730312" width="363.446094pt" xmlns="http://www.w3.org/2000/svg" xmlns:xlink="http://www.w3.org/1999/xlink">
 <metadata>
  <rdf:RDF xmlns:cc="http://creativecommons.org/ns#" xmlns:dc="http://purl.org/dc/elements/1.1/" xmlns:rdf="http://www.w3.org/1999/02/22-rdf-syntax-ns#">
   <cc:Work>
    <dc:type rdf:resource="http://purl.org/dc/dcmitype/StillImage"/>
    <dc:date>2021-08-16T16:57:10.433287</dc:date>
    <dc:format>image/svg+xml</dc:format>
    <dc:creator>
     <cc:Agent>
      <dc:title>Matplotlib v3.4.2, https://matplotlib.org/</dc:title>
     </cc:Agent>
    </dc:creator>
   </cc:Work>
  </rdf:RDF>
 </metadata>
 <defs>
  <style type="text/css">*{stroke-linecap:butt;stroke-linejoin:round;}</style>
 </defs>
 <g id="figure_1">
  <g id="patch_1">
   <path d="M 0 363.730312 
L 363.446094 363.730312 
L 363.446094 0 
L 0 0 
z
" style="fill:#ffffff;"/>
  </g>
  <g id="axes_1">
   <g id="patch_2">
    <path d="M 50.166094 321.733125 
L 356.246094 321.733125 
L 356.246094 7.2 
L 50.166094 7.2 
z
" style="fill:#eaeaf2;"/>
   </g>
   <g id="matplotlib.axis_1">
    <g id="xtick_1">
     <g id="text_1">
      <!-- PrototypeCMR -->
      <g style="fill:#262626;" transform="translate(90.620703 339.240781)scale(0.11 -0.11)">
       <defs>
        <path d="M 494 0 
L 494 4581 
L 2222 4581 
Q 2678 4581 2919 4538 
Q 3256 4481 3484 4323 
Q 3713 4166 3852 3881 
Q 3991 3597 3991 3256 
Q 3991 2672 3619 2267 
Q 3247 1863 2275 1863 
L 1100 1863 
L 1100 0 
L 494 0 
z
M 1100 2403 
L 2284 2403 
Q 2872 2403 3119 2622 
Q 3366 2841 3366 3238 
Q 3366 3525 3220 3729 
Q 3075 3934 2838 4000 
Q 2684 4041 2272 4041 
L 1100 4041 
L 1100 2403 
z
" id="ArialMT-50" transform="scale(0.015625)"/>
        <path d="M 416 0 
L 416 3319 
L 922 3319 
L 922 2816 
Q 1116 3169 1280 3281 
Q 1444 3394 1641 3394 
Q 1925 3394 2219 3213 
L 2025 2691 
Q 1819 2813 1613 2813 
Q 1428 2813 1281 2702 
Q 1134 2591 1072 2394 
Q 978 2094 978 1738 
L 978 0 
L 416 0 
z
" id="ArialMT-72" transform="scale(0.015625)"/>
        <path d="M 213 1659 
Q 213 2581 725 3025 
Q 1153 3394 1769 3394 
Q 2453 3394 2887 2945 
Q 3322 2497 3322 1706 
Q 3322 1066 3130 698 
Q 2938 331 2570 128 
Q 2203 -75 1769 -75 
Q 1072 -75 642 372 
Q 213 819 213 1659 
z
M 791 1659 
Q 791 1022 1069 705 
Q 1347 388 1769 388 
Q 2188 388 2466 706 
Q 2744 1025 2744 1678 
Q 2744 2294 2464 2611 
Q 2184 2928 1769 2928 
Q 1347 2928 1069 2612 
Q 791 2297 791 1659 
z
" id="ArialMT-6f" transform="scale(0.015625)"/>
        <path d="M 1650 503 
L 1731 6 
Q 1494 -44 1306 -44 
Q 1000 -44 831 53 
Q 663 150 594 308 
Q 525 466 525 972 
L 525 2881 
L 113 2881 
L 113 3319 
L 525 3319 
L 525 4141 
L 1084 4478 
L 1084 3319 
L 1650 3319 
L 1650 2881 
L 1084 2881 
L 1084 941 
Q 1084 700 1114 631 
Q 1144 563 1211 522 
Q 1278 481 1403 481 
Q 1497 481 1650 503 
z
" id="ArialMT-74" transform="scale(0.015625)"/>
        <path d="M 397 -1278 
L 334 -750 
Q 519 -800 656 -800 
Q 844 -800 956 -737 
Q 1069 -675 1141 -563 
Q 1194 -478 1313 -144 
Q 1328 -97 1363 -6 
L 103 3319 
L 709 3319 
L 1400 1397 
Q 1534 1031 1641 628 
Q 1738 1016 1872 1384 
L 2581 3319 
L 3144 3319 
L 1881 -56 
Q 1678 -603 1566 -809 
Q 1416 -1088 1222 -1217 
Q 1028 -1347 759 -1347 
Q 597 -1347 397 -1278 
z
" id="ArialMT-79" transform="scale(0.015625)"/>
        <path d="M 422 -1272 
L 422 3319 
L 934 3319 
L 934 2888 
Q 1116 3141 1344 3267 
Q 1572 3394 1897 3394 
Q 2322 3394 2647 3175 
Q 2972 2956 3137 2557 
Q 3303 2159 3303 1684 
Q 3303 1175 3120 767 
Q 2938 359 2589 142 
Q 2241 -75 1856 -75 
Q 1575 -75 1351 44 
Q 1128 163 984 344 
L 984 -1272 
L 422 -1272 
z
M 931 1641 
Q 931 1000 1190 694 
Q 1450 388 1819 388 
Q 2194 388 2461 705 
Q 2728 1022 2728 1688 
Q 2728 2322 2467 2637 
Q 2206 2953 1844 2953 
Q 1484 2953 1207 2617 
Q 931 2281 931 1641 
z
" id="ArialMT-70" transform="scale(0.015625)"/>
        <path d="M 2694 1069 
L 3275 997 
Q 3138 488 2766 206 
Q 2394 -75 1816 -75 
Q 1088 -75 661 373 
Q 234 822 234 1631 
Q 234 2469 665 2931 
Q 1097 3394 1784 3394 
Q 2450 3394 2872 2941 
Q 3294 2488 3294 1666 
Q 3294 1616 3291 1516 
L 816 1516 
Q 847 969 1125 678 
Q 1403 388 1819 388 
Q 2128 388 2347 550 
Q 2566 713 2694 1069 
z
M 847 1978 
L 2700 1978 
Q 2663 2397 2488 2606 
Q 2219 2931 1791 2931 
Q 1403 2931 1139 2672 
Q 875 2413 847 1978 
z
" id="ArialMT-65" transform="scale(0.015625)"/>
        <path d="M 3763 1606 
L 4369 1453 
Q 4178 706 3683 314 
Q 3188 -78 2472 -78 
Q 1731 -78 1267 223 
Q 803 525 561 1097 
Q 319 1669 319 2325 
Q 319 3041 592 3573 
Q 866 4106 1370 4382 
Q 1875 4659 2481 4659 
Q 3169 4659 3637 4309 
Q 4106 3959 4291 3325 
L 3694 3184 
Q 3534 3684 3231 3912 
Q 2928 4141 2469 4141 
Q 1941 4141 1586 3887 
Q 1231 3634 1087 3207 
Q 944 2781 944 2328 
Q 944 1744 1114 1308 
Q 1284 872 1643 656 
Q 2003 441 2422 441 
Q 2931 441 3284 734 
Q 3638 1028 3763 1606 
z
" id="ArialMT-43" transform="scale(0.015625)"/>
        <path d="M 475 0 
L 475 4581 
L 1388 4581 
L 2472 1338 
Q 2622 884 2691 659 
Q 2769 909 2934 1394 
L 4031 4581 
L 4847 4581 
L 4847 0 
L 4263 0 
L 4263 3834 
L 2931 0 
L 2384 0 
L 1059 3900 
L 1059 0 
L 475 0 
z
" id="ArialMT-4d" transform="scale(0.015625)"/>
        <path d="M 503 0 
L 503 4581 
L 2534 4581 
Q 3147 4581 3465 4457 
Q 3784 4334 3975 4021 
Q 4166 3709 4166 3331 
Q 4166 2844 3850 2509 
Q 3534 2175 2875 2084 
Q 3116 1969 3241 1856 
Q 3506 1613 3744 1247 
L 4541 0 
L 3778 0 
L 3172 953 
Q 2906 1366 2734 1584 
Q 2563 1803 2427 1890 
Q 2291 1978 2150 2013 
Q 2047 2034 1813 2034 
L 1109 2034 
L 1109 0 
L 503 0 
z
M 1109 2559 
L 2413 2559 
Q 2828 2559 3062 2645 
Q 3297 2731 3419 2920 
Q 3541 3109 3541 3331 
Q 3541 3656 3305 3865 
Q 3069 4075 2559 4075 
L 1109 4075 
L 1109 2559 
z
" id="ArialMT-52" transform="scale(0.015625)"/>
       </defs>
       <use xlink:href="#ArialMT-50"/>
       <use x="66.699219" xlink:href="#ArialMT-72"/>
       <use x="100" xlink:href="#ArialMT-6f"/>
       <use x="155.615234" xlink:href="#ArialMT-74"/>
       <use x="183.398438" xlink:href="#ArialMT-6f"/>
       <use x="239.013672" xlink:href="#ArialMT-74"/>
       <use x="266.796875" xlink:href="#ArialMT-79"/>
       <use x="316.796875" xlink:href="#ArialMT-70"/>
       <use x="372.412109" xlink:href="#ArialMT-65"/>
       <use x="428.027344" xlink:href="#ArialMT-43"/>
       <use x="500.244141" xlink:href="#ArialMT-4d"/>
       <use x="583.544922" xlink:href="#ArialMT-52"/>
      </g>
     </g>
    </g>
    <g id="xtick_2">
     <g id="text_2">
      <!-- InstanceCMR -->
      <g style="fill:#262626;" transform="translate(246.410703 339.106719)scale(0.11 -0.11)">
       <defs>
        <path d="M 597 0 
L 597 4581 
L 1203 4581 
L 1203 0 
L 597 0 
z
" id="ArialMT-49" transform="scale(0.015625)"/>
        <path d="M 422 0 
L 422 3319 
L 928 3319 
L 928 2847 
Q 1294 3394 1984 3394 
Q 2284 3394 2536 3286 
Q 2788 3178 2913 3003 
Q 3038 2828 3088 2588 
Q 3119 2431 3119 2041 
L 3119 0 
L 2556 0 
L 2556 2019 
Q 2556 2363 2490 2533 
Q 2425 2703 2258 2804 
Q 2091 2906 1866 2906 
Q 1506 2906 1245 2678 
Q 984 2450 984 1813 
L 984 0 
L 422 0 
z
" id="ArialMT-6e" transform="scale(0.015625)"/>
        <path d="M 197 991 
L 753 1078 
Q 800 744 1014 566 
Q 1228 388 1613 388 
Q 2000 388 2187 545 
Q 2375 703 2375 916 
Q 2375 1106 2209 1216 
Q 2094 1291 1634 1406 
Q 1016 1563 777 1677 
Q 538 1791 414 1992 
Q 291 2194 291 2438 
Q 291 2659 392 2848 
Q 494 3038 669 3163 
Q 800 3259 1026 3326 
Q 1253 3394 1513 3394 
Q 1903 3394 2198 3281 
Q 2494 3169 2634 2976 
Q 2775 2784 2828 2463 
L 2278 2388 
Q 2241 2644 2061 2787 
Q 1881 2931 1553 2931 
Q 1166 2931 1000 2803 
Q 834 2675 834 2503 
Q 834 2394 903 2306 
Q 972 2216 1119 2156 
Q 1203 2125 1616 2013 
Q 2213 1853 2448 1751 
Q 2684 1650 2818 1456 
Q 2953 1263 2953 975 
Q 2953 694 2789 445 
Q 2625 197 2315 61 
Q 2006 -75 1616 -75 
Q 969 -75 630 194 
Q 291 463 197 991 
z
" id="ArialMT-73" transform="scale(0.015625)"/>
        <path d="M 2588 409 
Q 2275 144 1986 34 
Q 1697 -75 1366 -75 
Q 819 -75 525 192 
Q 231 459 231 875 
Q 231 1119 342 1320 
Q 453 1522 633 1644 
Q 813 1766 1038 1828 
Q 1203 1872 1538 1913 
Q 2219 1994 2541 2106 
Q 2544 2222 2544 2253 
Q 2544 2597 2384 2738 
Q 2169 2928 1744 2928 
Q 1347 2928 1158 2789 
Q 969 2650 878 2297 
L 328 2372 
Q 403 2725 575 2942 
Q 747 3159 1072 3276 
Q 1397 3394 1825 3394 
Q 2250 3394 2515 3294 
Q 2781 3194 2906 3042 
Q 3031 2891 3081 2659 
Q 3109 2516 3109 2141 
L 3109 1391 
Q 3109 606 3145 398 
Q 3181 191 3288 0 
L 2700 0 
Q 2613 175 2588 409 
z
M 2541 1666 
Q 2234 1541 1622 1453 
Q 1275 1403 1131 1340 
Q 988 1278 909 1158 
Q 831 1038 831 891 
Q 831 666 1001 516 
Q 1172 366 1500 366 
Q 1825 366 2078 508 
Q 2331 650 2450 897 
Q 2541 1088 2541 1459 
L 2541 1666 
z
" id="ArialMT-61" transform="scale(0.015625)"/>
        <path d="M 2588 1216 
L 3141 1144 
Q 3050 572 2676 248 
Q 2303 -75 1759 -75 
Q 1078 -75 664 370 
Q 250 816 250 1647 
Q 250 2184 428 2587 
Q 606 2991 970 3192 
Q 1334 3394 1763 3394 
Q 2303 3394 2647 3120 
Q 2991 2847 3088 2344 
L 2541 2259 
Q 2463 2594 2264 2762 
Q 2066 2931 1784 2931 
Q 1359 2931 1093 2626 
Q 828 2322 828 1663 
Q 828 994 1084 691 
Q 1341 388 1753 388 
Q 2084 388 2306 591 
Q 2528 794 2588 1216 
z
" id="ArialMT-63" transform="scale(0.015625)"/>
       </defs>
       <use xlink:href="#ArialMT-49"/>
       <use x="27.783203" xlink:href="#ArialMT-6e"/>
       <use x="83.398438" xlink:href="#ArialMT-73"/>
       <use x="133.398438" xlink:href="#ArialMT-74"/>
       <use x="161.181641" xlink:href="#ArialMT-61"/>
       <use x="216.796875" xlink:href="#ArialMT-6e"/>
       <use x="272.412109" xlink:href="#ArialMT-63"/>
       <use x="322.412109" xlink:href="#ArialMT-65"/>
       <use x="378.027344" xlink:href="#ArialMT-43"/>
       <use x="450.244141" xlink:href="#ArialMT-4d"/>
       <use x="533.544922" xlink:href="#ArialMT-52"/>
      </g>
     </g>
    </g>
    <g id="text_3">
     <!-- Model -->
     <g style="fill:#262626;" transform="translate(186.865469 354.145312)scale(0.12 -0.12)">
      <defs>
       <path d="M 2575 0 
L 2575 419 
Q 2259 -75 1647 -75 
Q 1250 -75 917 144 
Q 584 363 401 755 
Q 219 1147 219 1656 
Q 219 2153 384 2558 
Q 550 2963 881 3178 
Q 1213 3394 1622 3394 
Q 1922 3394 2156 3267 
Q 2391 3141 2538 2938 
L 2538 4581 
L 3097 4581 
L 3097 0 
L 2575 0 
z
M 797 1656 
Q 797 1019 1065 703 
Q 1334 388 1700 388 
Q 2069 388 2326 689 
Q 2584 991 2584 1609 
Q 2584 2291 2321 2609 
Q 2059 2928 1675 2928 
Q 1300 2928 1048 2622 
Q 797 2316 797 1656 
z
" id="ArialMT-64" transform="scale(0.015625)"/>
       <path d="M 409 0 
L 409 4581 
L 972 4581 
L 972 0 
L 409 0 
z
" id="ArialMT-6c" transform="scale(0.015625)"/>
      </defs>
      <use xlink:href="#ArialMT-4d"/>
      <use x="83.300781" xlink:href="#ArialMT-6f"/>
      <use x="138.916016" xlink:href="#ArialMT-64"/>
      <use x="194.53125" xlink:href="#ArialMT-65"/>
      <use x="250.146484" xlink:href="#ArialMT-6c"/>
     </g>
    </g>
   </g>
   <g id="matplotlib.axis_2">
    <g id="ytick_1">
     <g id="line2d_1">
      <path clip-path="url(#pa349ad9768)" d="M 50.166094 313.94613 
L 356.246094 313.94613 
" style="fill:none;stroke:#ffffff;stroke-linecap:round;"/>
     </g>
     <g id="text_4">
      <!-- 100 -->
      <g style="fill:#262626;" transform="translate(22.315 317.882927)scale(0.11 -0.11)">
       <defs>
        <path d="M 2384 0 
L 1822 0 
L 1822 3584 
Q 1619 3391 1289 3197 
Q 959 3003 697 2906 
L 697 3450 
Q 1169 3672 1522 3987 
Q 1875 4303 2022 4600 
L 2384 4600 
L 2384 0 
z
" id="ArialMT-31" transform="scale(0.015625)"/>
        <path d="M 266 2259 
Q 266 3072 433 3567 
Q 600 4063 929 4331 
Q 1259 4600 1759 4600 
Q 2128 4600 2406 4451 
Q 2684 4303 2865 4023 
Q 3047 3744 3150 3342 
Q 3253 2941 3253 2259 
Q 3253 1453 3087 958 
Q 2922 463 2592 192 
Q 2263 -78 1759 -78 
Q 1097 -78 719 397 
Q 266 969 266 2259 
z
M 844 2259 
Q 844 1131 1108 757 
Q 1372 384 1759 384 
Q 2147 384 2411 759 
Q 2675 1134 2675 2259 
Q 2675 3391 2411 3762 
Q 2147 4134 1753 4134 
Q 1366 4134 1134 3806 
Q 844 3388 844 2259 
z
" id="ArialMT-30" transform="scale(0.015625)"/>
       </defs>
       <use xlink:href="#ArialMT-31"/>
       <use x="55.615234" xlink:href="#ArialMT-30"/>
       <use x="111.230469" xlink:href="#ArialMT-30"/>
      </g>
     </g>
    </g>
    <g id="ytick_2">
     <g id="line2d_2">
      <path clip-path="url(#pa349ad9768)" d="M 50.166094 274.245263 
L 356.246094 274.245263 
" style="fill:none;stroke:#ffffff;stroke-linecap:round;"/>
     </g>
     <g id="text_5">
      <!-- 150 -->
      <g style="fill:#262626;" transform="translate(22.315 278.18206)scale(0.11 -0.11)">
       <defs>
        <path d="M 266 1200 
L 856 1250 
Q 922 819 1161 601 
Q 1400 384 1738 384 
Q 2144 384 2425 690 
Q 2706 997 2706 1503 
Q 2706 1984 2436 2262 
Q 2166 2541 1728 2541 
Q 1456 2541 1237 2417 
Q 1019 2294 894 2097 
L 366 2166 
L 809 4519 
L 3088 4519 
L 3088 3981 
L 1259 3981 
L 1013 2750 
Q 1425 3038 1878 3038 
Q 2478 3038 2890 2622 
Q 3303 2206 3303 1553 
Q 3303 931 2941 478 
Q 2500 -78 1738 -78 
Q 1113 -78 717 272 
Q 322 622 266 1200 
z
" id="ArialMT-35" transform="scale(0.015625)"/>
       </defs>
       <use xlink:href="#ArialMT-31"/>
       <use x="55.615234" xlink:href="#ArialMT-35"/>
       <use x="111.230469" xlink:href="#ArialMT-30"/>
      </g>
     </g>
    </g>
    <g id="ytick_3">
     <g id="line2d_3">
      <path clip-path="url(#pa349ad9768)" d="M 50.166094 234.544397 
L 356.246094 234.544397 
" style="fill:none;stroke:#ffffff;stroke-linecap:round;"/>
     </g>
     <g id="text_6">
      <!-- 200 -->
      <g style="fill:#262626;" transform="translate(22.315 238.481193)scale(0.11 -0.11)">
       <defs>
        <path d="M 3222 541 
L 3222 0 
L 194 0 
Q 188 203 259 391 
Q 375 700 629 1000 
Q 884 1300 1366 1694 
Q 2113 2306 2375 2664 
Q 2638 3022 2638 3341 
Q 2638 3675 2398 3904 
Q 2159 4134 1775 4134 
Q 1369 4134 1125 3890 
Q 881 3647 878 3216 
L 300 3275 
Q 359 3922 746 4261 
Q 1134 4600 1788 4600 
Q 2447 4600 2831 4234 
Q 3216 3869 3216 3328 
Q 3216 3053 3103 2787 
Q 2991 2522 2730 2228 
Q 2469 1934 1863 1422 
Q 1356 997 1212 845 
Q 1069 694 975 541 
L 3222 541 
z
" id="ArialMT-32" transform="scale(0.015625)"/>
       </defs>
       <use xlink:href="#ArialMT-32"/>
       <use x="55.615234" xlink:href="#ArialMT-30"/>
       <use x="111.230469" xlink:href="#ArialMT-30"/>
      </g>
     </g>
    </g>
    <g id="ytick_4">
     <g id="line2d_4">
      <path clip-path="url(#pa349ad9768)" d="M 50.166094 194.84353 
L 356.246094 194.84353 
" style="fill:none;stroke:#ffffff;stroke-linecap:round;"/>
     </g>
     <g id="text_7">
      <!-- 250 -->
      <g style="fill:#262626;" transform="translate(22.315 198.780327)scale(0.11 -0.11)">
       <use xlink:href="#ArialMT-32"/>
       <use x="55.615234" xlink:href="#ArialMT-35"/>
       <use x="111.230469" xlink:href="#ArialMT-30"/>
      </g>
     </g>
    </g>
    <g id="ytick_5">
     <g id="line2d_5">
      <path clip-path="url(#pa349ad9768)" d="M 50.166094 155.142663 
L 356.246094 155.142663 
" style="fill:none;stroke:#ffffff;stroke-linecap:round;"/>
     </g>
     <g id="text_8">
      <!-- 300 -->
      <g style="fill:#262626;" transform="translate(22.315 159.07946)scale(0.11 -0.11)">
       <defs>
        <path d="M 269 1209 
L 831 1284 
Q 928 806 1161 595 
Q 1394 384 1728 384 
Q 2125 384 2398 659 
Q 2672 934 2672 1341 
Q 2672 1728 2419 1979 
Q 2166 2231 1775 2231 
Q 1616 2231 1378 2169 
L 1441 2663 
Q 1497 2656 1531 2656 
Q 1891 2656 2178 2843 
Q 2466 3031 2466 3422 
Q 2466 3731 2256 3934 
Q 2047 4138 1716 4138 
Q 1388 4138 1169 3931 
Q 950 3725 888 3313 
L 325 3413 
Q 428 3978 793 4289 
Q 1159 4600 1703 4600 
Q 2078 4600 2393 4439 
Q 2709 4278 2876 4000 
Q 3044 3722 3044 3409 
Q 3044 3113 2884 2869 
Q 2725 2625 2413 2481 
Q 2819 2388 3044 2092 
Q 3269 1797 3269 1353 
Q 3269 753 2831 336 
Q 2394 -81 1725 -81 
Q 1122 -81 723 278 
Q 325 638 269 1209 
z
" id="ArialMT-33" transform="scale(0.015625)"/>
       </defs>
       <use xlink:href="#ArialMT-33"/>
       <use x="55.615234" xlink:href="#ArialMT-30"/>
       <use x="111.230469" xlink:href="#ArialMT-30"/>
      </g>
     </g>
    </g>
    <g id="ytick_6">
     <g id="line2d_6">
      <path clip-path="url(#pa349ad9768)" d="M 50.166094 115.441796 
L 356.246094 115.441796 
" style="fill:none;stroke:#ffffff;stroke-linecap:round;"/>
     </g>
     <g id="text_9">
      <!-- 350 -->
      <g style="fill:#262626;" transform="translate(22.315 119.378593)scale(0.11 -0.11)">
       <use xlink:href="#ArialMT-33"/>
       <use x="55.615234" xlink:href="#ArialMT-35"/>
       <use x="111.230469" xlink:href="#ArialMT-30"/>
      </g>
     </g>
    </g>
    <g id="ytick_7">
     <g id="line2d_7">
      <path clip-path="url(#pa349ad9768)" d="M 50.166094 75.740929 
L 356.246094 75.740929 
" style="fill:none;stroke:#ffffff;stroke-linecap:round;"/>
     </g>
     <g id="text_10">
      <!-- 400 -->
      <g style="fill:#262626;" transform="translate(22.315 79.677726)scale(0.11 -0.11)">
       <defs>
        <path d="M 2069 0 
L 2069 1097 
L 81 1097 
L 81 1613 
L 2172 4581 
L 2631 4581 
L 2631 1613 
L 3250 1613 
L 3250 1097 
L 2631 1097 
L 2631 0 
L 2069 0 
z
M 2069 1613 
L 2069 3678 
L 634 1613 
L 2069 1613 
z
" id="ArialMT-34" transform="scale(0.015625)"/>
       </defs>
       <use xlink:href="#ArialMT-34"/>
       <use x="55.615234" xlink:href="#ArialMT-30"/>
       <use x="111.230469" xlink:href="#ArialMT-30"/>
      </g>
     </g>
    </g>
    <g id="ytick_8">
     <g id="line2d_8">
      <path clip-path="url(#pa349ad9768)" d="M 50.166094 36.040062 
L 356.246094 36.040062 
" style="fill:none;stroke:#ffffff;stroke-linecap:round;"/>
     </g>
     <g id="text_11">
      <!-- 450 -->
      <g style="fill:#262626;" transform="translate(22.315 39.976859)scale(0.11 -0.11)">
       <use xlink:href="#ArialMT-34"/>
       <use x="55.615234" xlink:href="#ArialMT-35"/>
       <use x="111.230469" xlink:href="#ArialMT-30"/>
      </g>
     </g>
    </g>
    <g id="text_12">
     <!-- Individual-Level Fitted Model Log-Likelihoods -->
     <g style="fill:#262626;" transform="translate(15.789375 284.528437)rotate(-90)scale(0.12 -0.12)">
      <defs>
       <path d="M 425 3934 
L 425 4581 
L 988 4581 
L 988 3934 
L 425 3934 
z
M 425 0 
L 425 3319 
L 988 3319 
L 988 0 
L 425 0 
z
" id="ArialMT-69" transform="scale(0.015625)"/>
       <path d="M 1344 0 
L 81 3319 
L 675 3319 
L 1388 1331 
Q 1503 1009 1600 663 
Q 1675 925 1809 1294 
L 2547 3319 
L 3125 3319 
L 1869 0 
L 1344 0 
z
" id="ArialMT-76" transform="scale(0.015625)"/>
       <path d="M 2597 0 
L 2597 488 
Q 2209 -75 1544 -75 
Q 1250 -75 995 37 
Q 741 150 617 320 
Q 494 491 444 738 
Q 409 903 409 1263 
L 409 3319 
L 972 3319 
L 972 1478 
Q 972 1038 1006 884 
Q 1059 663 1231 536 
Q 1403 409 1656 409 
Q 1909 409 2131 539 
Q 2353 669 2445 892 
Q 2538 1116 2538 1541 
L 2538 3319 
L 3100 3319 
L 3100 0 
L 2597 0 
z
" id="ArialMT-75" transform="scale(0.015625)"/>
       <path d="M 203 1375 
L 203 1941 
L 1931 1941 
L 1931 1375 
L 203 1375 
z
" id="ArialMT-2d" transform="scale(0.015625)"/>
       <path d="M 469 0 
L 469 4581 
L 1075 4581 
L 1075 541 
L 3331 541 
L 3331 0 
L 469 0 
z
" id="ArialMT-4c" transform="scale(0.015625)"/>
       <path id="ArialMT-20" transform="scale(0.015625)"/>
       <path d="M 525 0 
L 525 4581 
L 3616 4581 
L 3616 4041 
L 1131 4041 
L 1131 2622 
L 3281 2622 
L 3281 2081 
L 1131 2081 
L 1131 0 
L 525 0 
z
" id="ArialMT-46" transform="scale(0.015625)"/>
       <path d="M 319 -275 
L 866 -356 
Q 900 -609 1056 -725 
Q 1266 -881 1628 -881 
Q 2019 -881 2231 -725 
Q 2444 -569 2519 -288 
Q 2563 -116 2559 434 
Q 2191 0 1641 0 
Q 956 0 581 494 
Q 206 988 206 1678 
Q 206 2153 378 2554 
Q 550 2956 876 3175 
Q 1203 3394 1644 3394 
Q 2231 3394 2613 2919 
L 2613 3319 
L 3131 3319 
L 3131 450 
Q 3131 -325 2973 -648 
Q 2816 -972 2473 -1159 
Q 2131 -1347 1631 -1347 
Q 1038 -1347 672 -1080 
Q 306 -813 319 -275 
z
M 784 1719 
Q 784 1066 1043 766 
Q 1303 466 1694 466 
Q 2081 466 2343 764 
Q 2606 1063 2606 1700 
Q 2606 2309 2336 2618 
Q 2066 2928 1684 2928 
Q 1309 2928 1046 2623 
Q 784 2319 784 1719 
z
" id="ArialMT-67" transform="scale(0.015625)"/>
       <path d="M 425 0 
L 425 4581 
L 988 4581 
L 988 1969 
L 2319 3319 
L 3047 3319 
L 1778 2088 
L 3175 0 
L 2481 0 
L 1384 1697 
L 988 1316 
L 988 0 
L 425 0 
z
" id="ArialMT-6b" transform="scale(0.015625)"/>
       <path d="M 422 0 
L 422 4581 
L 984 4581 
L 984 2938 
Q 1378 3394 1978 3394 
Q 2347 3394 2619 3248 
Q 2891 3103 3008 2847 
Q 3125 2591 3125 2103 
L 3125 0 
L 2563 0 
L 2563 2103 
Q 2563 2525 2380 2717 
Q 2197 2909 1863 2909 
Q 1613 2909 1392 2779 
Q 1172 2650 1078 2428 
Q 984 2206 984 1816 
L 984 0 
L 422 0 
z
" id="ArialMT-68" transform="scale(0.015625)"/>
      </defs>
      <use xlink:href="#ArialMT-49"/>
      <use x="27.783203" xlink:href="#ArialMT-6e"/>
      <use x="83.398438" xlink:href="#ArialMT-64"/>
      <use x="139.013672" xlink:href="#ArialMT-69"/>
      <use x="161.230469" xlink:href="#ArialMT-76"/>
      <use x="211.230469" xlink:href="#ArialMT-69"/>
      <use x="233.447266" xlink:href="#ArialMT-64"/>
      <use x="289.0625" xlink:href="#ArialMT-75"/>
      <use x="344.677734" xlink:href="#ArialMT-61"/>
      <use x="400.292969" xlink:href="#ArialMT-6c"/>
      <use x="422.509766" xlink:href="#ArialMT-2d"/>
      <use x="455.810547" xlink:href="#ArialMT-4c"/>
      <use x="511.425781" xlink:href="#ArialMT-65"/>
      <use x="567.041016" xlink:href="#ArialMT-76"/>
      <use x="617.041016" xlink:href="#ArialMT-65"/>
      <use x="672.65625" xlink:href="#ArialMT-6c"/>
      <use x="694.873047" xlink:href="#ArialMT-20"/>
      <use x="722.65625" xlink:href="#ArialMT-46"/>
      <use x="783.740234" xlink:href="#ArialMT-69"/>
      <use x="805.957031" xlink:href="#ArialMT-74"/>
      <use x="833.740234" xlink:href="#ArialMT-74"/>
      <use x="861.523438" xlink:href="#ArialMT-65"/>
      <use x="917.138672" xlink:href="#ArialMT-64"/>
      <use x="972.753906" xlink:href="#ArialMT-20"/>
      <use x="1000.537109" xlink:href="#ArialMT-4d"/>
      <use x="1083.837891" xlink:href="#ArialMT-6f"/>
      <use x="1139.453125" xlink:href="#ArialMT-64"/>
      <use x="1195.068359" xlink:href="#ArialMT-65"/>
      <use x="1250.683594" xlink:href="#ArialMT-6c"/>
      <use x="1272.900391" xlink:href="#ArialMT-20"/>
      <use x="1300.683594" xlink:href="#ArialMT-4c"/>
      <use x="1356.298828" xlink:href="#ArialMT-6f"/>
      <use x="1411.914062" xlink:href="#ArialMT-67"/>
      <use x="1467.529297" xlink:href="#ArialMT-2d"/>
      <use x="1500.830078" xlink:href="#ArialMT-4c"/>
      <use x="1556.445312" xlink:href="#ArialMT-69"/>
      <use x="1578.662109" xlink:href="#ArialMT-6b"/>
      <use x="1628.662109" xlink:href="#ArialMT-65"/>
      <use x="1684.277344" xlink:href="#ArialMT-6c"/>
      <use x="1706.494141" xlink:href="#ArialMT-69"/>
      <use x="1728.710938" xlink:href="#ArialMT-68"/>
      <use x="1784.326172" xlink:href="#ArialMT-6f"/>
      <use x="1839.941406" xlink:href="#ArialMT-6f"/>
      <use x="1895.556641" xlink:href="#ArialMT-64"/>
      <use x="1951.171875" xlink:href="#ArialMT-73"/>
     </g>
    </g>
   </g>
   <g id="PolyCollection_1">
    <defs>
     <path d="M 126.982695 -56.294148 
L 126.389492 -56.294148 
L 126.290387 -58.965997 
L 126.168546 -61.637846 
L 126.022276 -64.309696 
L 125.850781 -66.981545 
L 125.654352 -69.653394 
L 125.434445 -72.325244 
L 125.193602 -74.997093 
L 124.935215 -77.668942 
L 124.6631 -80.340792 
L 124.380939 -83.012641 
L 124.091624 -85.68449 
L 123.796579 -88.35634 
L 123.495137 -91.028189 
L 123.184053 -93.700038 
L 122.857199 -96.371888 
L 122.505473 -99.043737 
L 122.116938 -101.715586 
L 121.677159 -104.387436 
L 121.169717 -107.059285 
L 120.576866 -109.731134 
L 119.880316 -112.402984 
L 119.062118 -115.074833 
L 118.105673 -117.746682 
L 116.99684 -120.418532 
L 115.725142 -123.090381 
L 114.285025 -125.76223 
L 112.677068 -128.43408 
L 110.909044 -131.105929 
L 108.996643 -133.777778 
L 106.963713 -136.449628 
L 104.841834 -139.121477 
L 102.669135 -141.793326 
L 100.488313 -144.465176 
L 98.343921 -147.137025 
L 96.279102 -149.808874 
L 94.33205 -152.480724 
L 92.532542 -155.152573 
L 90.898941 -157.824422 
L 89.436034 -160.496272 
L 88.134042 -163.168121 
L 86.968992 -165.83997 
L 85.90455 -168.51182 
L 84.89523 -171.183669 
L 83.890752 -173.855518 
L 82.841188 -176.527368 
L 81.702421 -179.199217 
L 80.441371 -181.871066 
L 79.040439 -184.542916 
L 77.500651 -187.214765 
L 75.843089 -189.886614 
L 74.108352 -192.558464 
L 72.354026 -195.230313 
L 70.650326 -197.902162 
L 69.074358 -200.574012 
L 67.703596 -203.245861 
L 66.609301 -205.91771 
L 65.850635 -208.58956 
L 65.470094 -211.261409 
L 65.490739 -213.933258 
L 65.9154 -216.605108 
L 66.727779 -219.276957 
L 67.895101 -221.948806 
L 69.371805 -224.620656 
L 71.103679 -227.292505 
L 73.031897 -229.964354 
L 75.096545 -232.636204 
L 77.239421 -235.308053 
L 79.406117 -237.979902 
L 81.547532 -240.651752 
L 83.621087 -243.323601 
L 85.591858 -245.99545 
L 87.433809 -248.6673 
L 89.131086 -251.339149 
L 90.679219 -254.010998 
L 92.085904 -256.682848 
L 93.371025 -259.354697 
L 94.565596 -262.026546 
L 95.709444 -264.698396 
L 96.847711 -267.370245 
L 98.026423 -270.042094 
L 99.287637 -272.713944 
L 100.664778 -275.385793 
L 102.178794 -278.057642 
L 103.83568 -280.729492 
L 105.625696 -283.401341 
L 107.524388 -286.07319 
L 109.495221 -288.74504 
L 111.493428 -291.416889 
L 113.47052 -294.088738 
L 115.378854 -296.760588 
L 117.175704 -299.432437 
L 118.826399 -302.104286 
L 120.306284 -304.776136 
L 121.601435 -307.447985 
L 122.708245 -310.119834 
L 123.632116 -312.791684 
L 124.385561 -315.463533 
L 124.986043 -318.135382 
L 125.453836 -320.807232 
L 127.918351 -320.807232 
L 127.918351 -320.807232 
L 128.386144 -318.135382 
L 128.986627 -315.463533 
L 129.740072 -312.791684 
L 130.663943 -310.119834 
L 131.770753 -307.447985 
L 133.065903 -304.776136 
L 134.545788 -302.104286 
L 136.196483 -299.432437 
L 137.993333 -296.760588 
L 139.901668 -294.088738 
L 141.878759 -291.416889 
L 143.876966 -288.74504 
L 145.8478 -286.07319 
L 147.746492 -283.401341 
L 149.536508 -280.729492 
L 151.193393 -278.057642 
L 152.70741 -275.385793 
L 154.08455 -272.713944 
L 155.345764 -270.042094 
L 156.524476 -267.370245 
L 157.662743 -264.698396 
L 158.806592 -262.026546 
L 160.001162 -259.354697 
L 161.286284 -256.682848 
L 162.692968 -254.010998 
L 164.241101 -251.339149 
L 165.938379 -248.6673 
L 167.78033 -245.99545 
L 169.751101 -243.323601 
L 171.824655 -240.651752 
L 173.966071 -237.979902 
L 176.132766 -235.308053 
L 178.275642 -232.636204 
L 180.34029 -229.964354 
L 182.268509 -227.292505 
L 184.000383 -224.620656 
L 185.477086 -221.948806 
L 186.644408 -219.276957 
L 187.456787 -216.605108 
L 187.881449 -213.933258 
L 187.902094 -211.261409 
L 187.521553 -208.58956 
L 186.762886 -205.91771 
L 185.668592 -203.245861 
L 184.29783 -200.574012 
L 182.721862 -197.902162 
L 181.018162 -195.230313 
L 179.263836 -192.558464 
L 177.529099 -189.886614 
L 175.871536 -187.214765 
L 174.331749 -184.542916 
L 172.930817 -181.871066 
L 171.669766 -179.199217 
L 170.530999 -176.527368 
L 169.481436 -173.855518 
L 168.476957 -171.183669 
L 167.467637 -168.51182 
L 166.403195 -165.83997 
L 165.238145 -163.168121 
L 163.936153 -160.496272 
L 162.473247 -157.824422 
L 160.839645 -155.152573 
L 159.040137 -152.480724 
L 157.093085 -149.808874 
L 155.028266 -147.137025 
L 152.883874 -144.465176 
L 150.703053 -141.793326 
L 148.530354 -139.121477 
L 146.408474 -136.449628 
L 144.375544 -133.777778 
L 142.463144 -131.105929 
L 140.695119 -128.43408 
L 139.087163 -125.76223 
L 137.647045 -123.090381 
L 136.375348 -120.418532 
L 135.266514 -117.746682 
L 134.310069 -115.074833 
L 133.491871 -112.402984 
L 132.795321 -109.731134 
L 132.202471 -107.059285 
L 131.695029 -104.387436 
L 131.25525 -101.715586 
L 130.866715 -99.043737 
L 130.514989 -96.371888 
L 130.188134 -93.700038 
L 129.877051 -91.028189 
L 129.575609 -88.35634 
L 129.280563 -85.68449 
L 128.991248 -83.012641 
L 128.709087 -80.340792 
L 128.436972 -77.668942 
L 128.178585 -74.997093 
L 127.937743 -72.325244 
L 127.717835 -69.653394 
L 127.521407 -66.981545 
L 127.349912 -64.309696 
L 127.203641 -61.637846 
L 127.081801 -58.965997 
L 126.982695 -56.294148 
z
" id="mfd2f194e37" style="stroke:#4c4c4c;stroke-width:1.5;"/>
    </defs>
    <g clip-path="url(#pa349ad9768)">
     <use style="fill:#5875a4;stroke:#4c4c4c;stroke-width:1.5;" x="0" xlink:href="#mfd2f194e37" y="363.730312"/>
    </g>
   </g>
   <g id="PolyCollection_2">
    <defs>
     <path d="M 280.020534 -58.904624 
L 279.431654 -58.904624 
L 279.327312 -61.766531 
L 279.197173 -64.628437 
L 279.038756 -67.490343 
L 278.850461 -70.35225 
L 278.631762 -73.214156 
L 278.38329 -76.076062 
L 278.106719 -78.937969 
L 277.804464 -81.799875 
L 277.47918 -84.661781 
L 277.133094 -87.523688 
L 276.76725 -90.385594 
L 276.380749 -93.2475 
L 275.970073 -96.109407 
L 275.528592 -98.971313 
L 275.046318 -101.833219 
L 274.509943 -104.695126 
L 273.903198 -107.557032 
L 273.207522 -110.418939 
L 272.40304 -113.280845 
L 271.469837 -116.142751 
L 270.389487 -119.004658 
L 269.146795 -121.866564 
L 267.731655 -124.72847 
L 266.140886 -127.590377 
L 264.379835 -130.452283 
L 262.463523 -133.314189 
L 260.417064 -136.176096 
L 258.275144 -139.038002 
L 256.080435 -141.899908 
L 253.880913 -144.761815 
L 251.726267 -147.623721 
L 249.6637 -150.485627 
L 247.733558 -153.347534 
L 245.965332 -156.20944 
L 244.374511 -159.071346 
L 242.960728 -161.933253 
L 241.707489 -164.795159 
L 240.58356 -167.657065 
L 239.545941 -170.518972 
L 238.544146 -173.380878 
L 237.525385 -176.242784 
L 236.44017 -179.104691 
L 235.247799 -181.966597 
L 233.921215 -184.828503 
L 232.450739 -187.69041 
L 230.846309 -190.552316 
L 229.137942 -193.414222 
L 227.37432 -196.276129 
L 225.619581 -199.138035 
L 223.948591 -201.999941 
L 222.441157 -204.861848 
L 221.175773 -207.723754 
L 220.22354 -210.585661 
L 219.642862 -213.447567 
L 219.475393 -216.309473 
L 219.743534 -219.17138 
L 220.449523 -222.033286 
L 221.576008 -224.895192 
L 223.087831 -227.757099 
L 224.934689 -230.619005 
L 227.054383 -233.480911 
L 229.376413 -236.342818 
L 231.825804 -239.204724 
L 234.327079 -242.06663 
L 236.808343 -244.928537 
L 239.205369 -247.790443 
L 241.465482 -250.652349 
L 243.55092 -253.514256 
L 245.44128 -256.376162 
L 247.134616 -259.238068 
L 248.646894 -262.099975 
L 250.00966 -264.961881 
L 251.266043 -267.823787 
L 252.465515 -270.685694 
L 253.658016 -273.5476 
L 254.888219 -276.409506 
L 256.190672 -279.271413 
L 257.586453 -282.133319 
L 259.081679 -284.995225 
L 260.667946 -287.857132 
L 262.324455 -290.719038 
L 264.021357 -293.580944 
L 265.723723 -296.442851 
L 267.395518 -299.304757 
L 269.003071 -302.166663 
L 270.517696 -305.02857 
L 271.917297 -307.890476 
L 273.186996 -310.752383 
L 274.318925 -313.614289 
L 275.311448 -316.476195 
L 276.168036 -319.338102 
L 276.89603 -322.200008 
L 277.505458 -325.061914 
L 278.007991 -327.923821 
L 278.416091 -330.785727 
L 278.742349 -333.647633 
L 278.99898 -336.50954 
L 279.197469 -339.371446 
L 279.348315 -342.233352 
L 280.103873 -342.233352 
L 280.103873 -342.233352 
L 280.254719 -339.371446 
L 280.453207 -336.50954 
L 280.709839 -333.647633 
L 281.036096 -330.785727 
L 281.444197 -327.923821 
L 281.946729 -325.061914 
L 282.556157 -322.200008 
L 283.284152 -319.338102 
L 284.140739 -316.476195 
L 285.133263 -313.614289 
L 286.265192 -310.752383 
L 287.53489 -307.890476 
L 288.934492 -305.02857 
L 290.449117 -302.166663 
L 292.05667 -299.304757 
L 293.728464 -296.442851 
L 295.43083 -293.580944 
L 297.127733 -290.719038 
L 298.784241 -287.857132 
L 300.370508 -284.995225 
L 301.865734 -282.133319 
L 303.261515 -279.271413 
L 304.563969 -276.409506 
L 305.794171 -273.5476 
L 306.986673 -270.685694 
L 308.186145 -267.823787 
L 309.442528 -264.961881 
L 310.805293 -262.099975 
L 312.317572 -259.238068 
L 314.010908 -256.376162 
L 315.901267 -253.514256 
L 317.986706 -250.652349 
L 320.246819 -247.790443 
L 322.643845 -244.928537 
L 325.125109 -242.06663 
L 327.626384 -239.204724 
L 330.075774 -236.342818 
L 332.397805 -233.480911 
L 334.517498 -230.619005 
L 336.364356 -227.757099 
L 337.876179 -224.895192 
L 339.002665 -222.033286 
L 339.708653 -219.17138 
L 339.976794 -216.309473 
L 339.809326 -213.447567 
L 339.228647 -210.585661 
L 338.276414 -207.723754 
L 337.011031 -204.861848 
L 335.503597 -201.999941 
L 333.832607 -199.138035 
L 332.077868 -196.276129 
L 330.314246 -193.414222 
L 328.605879 -190.552316 
L 327.001448 -187.69041 
L 325.530973 -184.828503 
L 324.204388 -181.966597 
L 323.012018 -179.104691 
L 321.926802 -176.242784 
L 320.908041 -173.380878 
L 319.906246 -170.518972 
L 318.868627 -167.657065 
L 317.744698 -164.795159 
L 316.491459 -161.933253 
L 315.077677 -159.071346 
L 313.486855 -156.20944 
L 311.71863 -153.347534 
L 309.788488 -150.485627 
L 307.72592 -147.623721 
L 305.571275 -144.761815 
L 303.371753 -141.899908 
L 301.177043 -139.038002 
L 299.035124 -136.176096 
L 296.988664 -133.314189 
L 295.072352 -130.452283 
L 293.311302 -127.590377 
L 291.720533 -124.72847 
L 290.305393 -121.866564 
L 289.0627 -119.004658 
L 287.98235 -116.142751 
L 287.049147 -113.280845 
L 286.244666 -110.418939 
L 285.548989 -107.557032 
L 284.942244 -104.695126 
L 284.405869 -101.833219 
L 283.923595 -98.971313 
L 283.482115 -96.109407 
L 283.071439 -93.2475 
L 282.684937 -90.385594 
L 282.319093 -87.523688 
L 281.973007 -84.661781 
L 281.647723 -81.799875 
L 281.345469 -78.937969 
L 281.068897 -76.076062 
L 280.820425 -73.214156 
L 280.601727 -70.35225 
L 280.413431 -67.490343 
L 280.255014 -64.628437 
L 280.124875 -61.766531 
L 280.020534 -58.904624 
z
" id="m44c95f7f3d" style="stroke:#4c4c4c;stroke-width:1.5;"/>
    </defs>
    <g clip-path="url(#pa349ad9768)">
     <use style="fill:#cc8963;stroke:#4c4c4c;stroke-width:1.5;" x="0" xlink:href="#m44c95f7f3d" y="363.730312"/>
    </g>
   </g>
   <g id="line2d_9">
    <path clip-path="url(#pa349ad9768)" d="M 67.210069 157.316581 
L 186.162118 157.316581 
" style="fill:none;stroke:#4c4c4c;stroke-linecap:round;stroke-width:0.75;"/>
   </g>
   <g id="line2d_10">
    <path clip-path="url(#pa349ad9768)" d="M 88.519563 199.435065 
L 164.852625 199.435065 
" style="fill:none;stroke:#4c4c4c;stroke-linecap:round;stroke-width:0.75;"/>
   </g>
   <g id="line2d_11">
    <path clip-path="url(#pa349ad9768)" d="M 81.998918 124.152519 
L 171.373269 124.152519 
" style="fill:none;stroke:#4c4c4c;stroke-linecap:round;stroke-width:0.75;"/>
   </g>
   <g id="line2d_12">
    <path clip-path="url(#pa349ad9768)" d="M 81.998918 124.045325 
L 171.373269 124.045325 
" style="fill:none;stroke:#4c4c4c;stroke-linecap:round;stroke-width:0.75;"/>
   </g>
   <g id="line2d_13">
    <path clip-path="url(#pa349ad9768)" d="M 86.0028 117.76106 
L 167.369387 117.76106 
" style="fill:none;stroke:#4c4c4c;stroke-linecap:round;stroke-width:0.75;"/>
   </g>
   <g id="line2d_14">
    <path clip-path="url(#pa349ad9768)" d="M 66.102692 149.193195 
L 187.269495 149.193195 
" style="fill:none;stroke:#4c4c4c;stroke-linecap:round;stroke-width:0.75;"/>
   </g>
   <g id="line2d_15">
    <path clip-path="url(#pa349ad9768)" d="M 82.152258 184.917599 
L 171.219929 184.917599 
" style="fill:none;stroke:#4c4c4c;stroke-linecap:round;stroke-width:0.75;"/>
   </g>
   <g id="line2d_16">
    <path clip-path="url(#pa349ad9768)" d="M 69.650475 164.008466 
L 183.721712 164.008466 
" style="fill:none;stroke:#4c4c4c;stroke-linecap:round;stroke-width:0.75;"/>
   </g>
   <g id="line2d_17">
    <path clip-path="url(#pa349ad9768)" d="M 92.874078 208.383539 
L 160.49811 208.383539 
" style="fill:none;stroke:#4c4c4c;stroke-linecap:round;stroke-width:0.75;"/>
   </g>
   <g id="line2d_18">
    <path clip-path="url(#pa349ad9768)" d="M 91.039288 108.421411 
L 162.3329 108.421411 
" style="fill:none;stroke:#4c4c4c;stroke-linecap:round;stroke-width:0.75;"/>
   </g>
   <g id="line2d_19">
    <path clip-path="url(#pa349ad9768)" d="M 118.191477 246.641343 
L 135.18071 246.641343 
" style="fill:none;stroke:#4c4c4c;stroke-linecap:round;stroke-width:0.75;"/>
   </g>
   <g id="line2d_20">
    <path clip-path="url(#pa349ad9768)" d="M 68.483011 141.229375 
L 184.889177 141.229375 
" style="fill:none;stroke:#4c4c4c;stroke-linecap:round;stroke-width:0.75;"/>
   </g>
   <g id="line2d_21">
    <path clip-path="url(#pa349ad9768)" d="M 99.561622 91.610552 
L 153.810566 91.610552 
" style="fill:none;stroke:#4c4c4c;stroke-linecap:round;stroke-width:0.75;"/>
   </g>
   <g id="line2d_22">
    <path clip-path="url(#pa349ad9768)" d="M 79.516896 178.919172 
L 173.855292 178.919172 
" style="fill:none;stroke:#4c4c4c;stroke-linecap:round;stroke-width:0.75;"/>
   </g>
   <g id="line2d_23">
    <path clip-path="url(#pa349ad9768)" d="M 69.650475 162.932356 
L 183.721712 162.932356 
" style="fill:none;stroke:#4c4c4c;stroke-linecap:round;stroke-width:0.75;"/>
   </g>
   <g id="line2d_24">
    <path clip-path="url(#pa349ad9768)" d="M 77.733888 127.153178 
L 175.6383 127.153178 
" style="fill:none;stroke:#4c4c4c;stroke-linecap:round;stroke-width:0.75;"/>
   </g>
   <g id="line2d_25">
    <path clip-path="url(#pa349ad9768)" d="M 67.327362 145.525449 
L 186.044825 145.525449 
" style="fill:none;stroke:#4c4c4c;stroke-linecap:round;stroke-width:0.75;"/>
   </g>
   <g id="line2d_26">
    <path clip-path="url(#pa349ad9768)" d="M 69.650475 163.500447 
L 183.721712 163.500447 
" style="fill:none;stroke:#4c4c4c;stroke-linecap:round;stroke-width:0.75;"/>
   </g>
   <g id="line2d_27">
    <path clip-path="url(#pa349ad9768)" d="M 105.8363 79.494023 
L 147.535888 79.494023 
" style="fill:none;stroke:#4c4c4c;stroke-linecap:round;stroke-width:0.75;"/>
   </g>
   <g id="line2d_28">
    <path clip-path="url(#pa349ad9768)" d="M 105.8363 80.011337 
L 147.535888 80.011337 
" style="fill:none;stroke:#4c4c4c;stroke-linecap:round;stroke-width:0.75;"/>
   </g>
   <g id="line2d_29">
    <path clip-path="url(#pa349ad9768)" d="M 67.327362 144.811524 
L 186.044825 144.811524 
" style="fill:none;stroke:#4c4c4c;stroke-linecap:round;stroke-width:0.75;"/>
   </g>
   <g id="line2d_30">
    <path clip-path="url(#pa349ad9768)" d="M 79.878916 125.688048 
L 173.493271 125.688048 
" style="fill:none;stroke:#4c4c4c;stroke-linecap:round;stroke-width:0.75;"/>
   </g>
   <g id="line2d_31">
    <path clip-path="url(#pa349ad9768)" d="M 102.423867 86.120806 
L 150.94832 86.120806 
" style="fill:none;stroke:#4c4c4c;stroke-linecap:round;stroke-width:0.75;"/>
   </g>
   <g id="line2d_32">
    <path clip-path="url(#pa349ad9768)" d="M 67.210069 156.951286 
L 186.162118 156.951286 
" style="fill:none;stroke:#4c4c4c;stroke-linecap:round;stroke-width:0.75;"/>
   </g>
   <g id="line2d_33">
    <path clip-path="url(#pa349ad9768)" d="M 77.992506 176.247778 
L 175.379682 176.247778 
" style="fill:none;stroke:#4c4c4c;stroke-linecap:round;stroke-width:0.75;"/>
   </g>
   <g id="line2d_34">
    <path clip-path="url(#pa349ad9768)" d="M 96.019211 98.001535 
L 157.352977 98.001535 
" style="fill:none;stroke:#4c4c4c;stroke-linecap:round;stroke-width:0.75;"/>
   </g>
   <g id="line2d_35">
    <path clip-path="url(#pa349ad9768)" d="M 73.568439 133.345262 
L 179.803748 133.345262 
" style="fill:none;stroke:#4c4c4c;stroke-linecap:round;stroke-width:0.75;"/>
   </g>
   <g id="line2d_36">
    <path clip-path="url(#pa349ad9768)" d="M 68.293421 161.457582 
L 185.078767 161.457582 
" style="fill:none;stroke:#4c4c4c;stroke-linecap:round;stroke-width:0.75;"/>
   </g>
   <g id="line2d_37">
    <path clip-path="url(#pa349ad9768)" d="M 86.0028 116.696923 
L 167.369387 116.696923 
" style="fill:none;stroke:#4c4c4c;stroke-linecap:round;stroke-width:0.75;"/>
   </g>
   <g id="line2d_38">
    <path clip-path="url(#pa349ad9768)" d="M 66.458989 154.845238 
L 186.913198 154.845238 
" style="fill:none;stroke:#4c4c4c;stroke-linecap:round;stroke-width:0.75;"/>
   </g>
   <g id="line2d_39">
    <path clip-path="url(#pa349ad9768)" d="M 86.0028 117.354423 
L 167.369387 117.354423 
" style="fill:none;stroke:#4c4c4c;stroke-linecap:round;stroke-width:0.75;"/>
   </g>
   <g id="line2d_40">
    <path clip-path="url(#pa349ad9768)" d="M 66.523107 147.060232 
L 186.849081 147.060232 
" style="fill:none;stroke:#4c4c4c;stroke-linecap:round;stroke-width:0.75;"/>
   </g>
   <g id="line2d_41">
    <path clip-path="url(#pa349ad9768)" d="M 79.878916 126.058432 
L 173.493271 126.058432 
" style="fill:none;stroke:#4c4c4c;stroke-linecap:round;stroke-width:0.75;"/>
   </g>
   <g id="line2d_42">
    <path clip-path="url(#pa349ad9768)" d="M 102.423867 84.540895 
L 150.94832 84.540895 
" style="fill:none;stroke:#4c4c4c;stroke-linecap:round;stroke-width:0.75;"/>
   </g>
   <g id="line2d_43">
    <path clip-path="url(#pa349ad9768)" d="M 67.327362 143.328708 
L 186.044825 143.328708 
" style="fill:none;stroke:#4c4c4c;stroke-linecap:round;stroke-width:0.75;"/>
   </g>
   <g id="line2d_44">
    <path clip-path="url(#pa349ad9768)" d="M 102.423867 85.819975 
L 150.94832 85.819975 
" style="fill:none;stroke:#4c4c4c;stroke-linecap:round;stroke-width:0.75;"/>
   </g>
   <g id="line2d_45">
    <path clip-path="url(#pa349ad9768)" d="M 66.458989 155.847657 
L 186.913198 155.847657 
" style="fill:none;stroke:#4c4c4c;stroke-linecap:round;stroke-width:0.75;"/>
   </g>
   <g id="line2d_46">
    <path clip-path="url(#pa349ad9768)" d="M 66.458989 156.308531 
L 186.913198 156.308531 
" style="fill:none;stroke:#4c4c4c;stroke-linecap:round;stroke-width:0.75;"/>
   </g>
   <g id="line2d_47">
    <path clip-path="url(#pa349ad9768)" d="M 89.808535 204.352568 
L 163.563652 204.352568 
" style="fill:none;stroke:#4c4c4c;stroke-linecap:round;stroke-width:0.75;"/>
   </g>
   <g id="line2d_48">
    <path clip-path="url(#pa349ad9768)" d="M 92.874078 208.097548 
L 160.49811 208.097548 
" style="fill:none;stroke:#4c4c4c;stroke-linecap:round;stroke-width:0.75;"/>
   </g>
   <g id="line2d_49">
    <path clip-path="url(#pa349ad9768)" d="M 105.060276 224.27744 
L 148.311911 224.27744 
" style="fill:none;stroke:#4c4c4c;stroke-linecap:round;stroke-width:0.75;"/>
   </g>
   <g id="line2d_50">
    <path clip-path="url(#pa349ad9768)" d="M 79.516896 178.32016 
L 173.855292 178.32016 
" style="fill:none;stroke:#4c4c4c;stroke-linecap:round;stroke-width:0.75;"/>
   </g>
   <g id="line2d_51">
    <path clip-path="url(#pa349ad9768)" d="M 66.458989 155.501323 
L 186.913198 155.501323 
" style="fill:none;stroke:#4c4c4c;stroke-linecap:round;stroke-width:0.75;"/>
   </g>
   <g id="line2d_52">
    <path clip-path="url(#pa349ad9768)" d="M 85.313139 193.243241 
L 168.059049 193.243241 
" style="fill:none;stroke:#4c4c4c;stroke-linecap:round;stroke-width:0.75;"/>
   </g>
   <g id="line2d_53">
    <path clip-path="url(#pa349ad9768)" d="M 68.293421 160.283361 
L 185.078767 160.283361 
" style="fill:none;stroke:#4c4c4c;stroke-linecap:round;stroke-width:0.75;"/>
   </g>
   <g id="line2d_54">
    <path clip-path="url(#pa349ad9768)" d="M 66.082254 152.663627 
L 187.289934 152.663627 
" style="fill:none;stroke:#4c4c4c;stroke-linecap:round;stroke-width:0.75;"/>
   </g>
   <g id="line2d_55">
    <path clip-path="url(#pa349ad9768)" d="M 111.066814 231.740984 
L 142.305373 231.740984 
" style="fill:none;stroke:#4c4c4c;stroke-linecap:round;stroke-width:0.75;"/>
   </g>
   <g id="line2d_56">
    <path clip-path="url(#pa349ad9768)" d="M 86.312366 194.287646 
L 167.059822 194.287646 
" style="fill:none;stroke:#4c4c4c;stroke-linecap:round;stroke-width:0.75;"/>
   </g>
   <g id="line2d_57">
    <path clip-path="url(#pa349ad9768)" d="M 98.627343 215.850009 
L 154.744845 215.850009 
" style="fill:none;stroke:#4c4c4c;stroke-linecap:round;stroke-width:0.75;"/>
   </g>
   <g id="line2d_58">
    <path clip-path="url(#pa349ad9768)" d="M 88.519563 201.828052 
L 164.852625 201.828052 
" style="fill:none;stroke:#4c4c4c;stroke-linecap:round;stroke-width:0.75;"/>
   </g>
   <g id="line2d_59">
    <path clip-path="url(#pa349ad9768)" d="M 123.219074 270.865222 
L 130.153114 270.865222 
" style="fill:none;stroke:#4c4c4c;stroke-linecap:round;stroke-width:0.75;"/>
   </g>
   <g id="line2d_60">
    <path clip-path="url(#pa349ad9768)" d="M 82.152258 185.276195 
L 171.219929 185.276195 
" style="fill:none;stroke:#4c4c4c;stroke-linecap:round;stroke-width:0.75;"/>
   </g>
   <g id="line2d_61">
    <path clip-path="url(#pa349ad9768)" d="M 68.293421 159.691656 
L 185.078767 159.691656 
" style="fill:none;stroke:#4c4c4c;stroke-linecap:round;stroke-width:0.75;"/>
   </g>
   <g id="line2d_62">
    <path clip-path="url(#pa349ad9768)" d="M 79.516896 179.405734 
L 173.855292 179.405734 
" style="fill:none;stroke:#4c4c4c;stroke-linecap:round;stroke-width:0.75;"/>
   </g>
   <g id="line2d_63">
    <path clip-path="url(#pa349ad9768)" d="M 68.483011 142.261301 
L 184.889177 142.261301 
" style="fill:none;stroke:#4c4c4c;stroke-linecap:round;stroke-width:0.75;"/>
   </g>
   <g id="line2d_64">
    <path clip-path="url(#pa349ad9768)" d="M 84.318705 189.518123 
L 169.053482 189.518123 
" style="fill:none;stroke:#4c4c4c;stroke-linecap:round;stroke-width:0.75;"/>
   </g>
   <g id="line2d_65">
    <path clip-path="url(#pa349ad9768)" d="M 89.808535 204.534409 
L 163.563652 204.534409 
" style="fill:none;stroke:#4c4c4c;stroke-linecap:round;stroke-width:0.75;"/>
   </g>
   <g id="line2d_66">
    <path clip-path="url(#pa349ad9768)" d="M 67.327362 144.145231 
L 186.044825 144.145231 
" style="fill:none;stroke:#4c4c4c;stroke-linecap:round;stroke-width:0.75;"/>
   </g>
   <g id="line2d_67">
    <path clip-path="url(#pa349ad9768)" d="M 71.659503 137.517143 
L 181.712685 137.517143 
" style="fill:none;stroke:#4c4c4c;stroke-linecap:round;stroke-width:0.75;"/>
   </g>
   <g id="line2d_68">
    <path clip-path="url(#pa349ad9768)" d="M 68.293421 161.649191 
L 185.078767 161.649191 
" style="fill:none;stroke:#4c4c4c;stroke-linecap:round;stroke-width:0.75;"/>
   </g>
   <g id="line2d_69">
    <path clip-path="url(#pa349ad9768)" d="M 97.146095 95.571458 
L 156.226092 95.571458 
" style="fill:none;stroke:#4c4c4c;stroke-linecap:round;stroke-width:0.75;"/>
   </g>
   <g id="line2d_70">
    <path clip-path="url(#pa349ad9768)" d="M 66.523107 147.115124 
L 186.849081 147.115124 
" style="fill:none;stroke:#4c4c4c;stroke-linecap:round;stroke-width:0.75;"/>
   </g>
   <g id="line2d_71">
    <path clip-path="url(#pa349ad9768)" d="M 79.878916 126.971474 
L 173.493271 126.971474 
" style="fill:none;stroke:#4c4c4c;stroke-linecap:round;stroke-width:0.75;"/>
   </g>
   <g id="line2d_72">
    <path clip-path="url(#pa349ad9768)" d="M 98.31302 93.76395 
L 155.059167 93.76395 
" style="fill:none;stroke:#4c4c4c;stroke-linecap:round;stroke-width:0.75;"/>
   </g>
   <g id="line2d_73">
    <path clip-path="url(#pa349ad9768)" d="M 76.351519 173.943836 
L 177.020669 173.943836 
" style="fill:none;stroke:#4c4c4c;stroke-linecap:round;stroke-width:0.75;"/>
   </g>
   <g id="line2d_74">
    <path clip-path="url(#pa349ad9768)" d="M 87.366163 197.72669 
L 166.006024 197.72669 
" style="fill:none;stroke:#4c4c4c;stroke-linecap:round;stroke-width:0.75;"/>
   </g>
   <g id="line2d_75">
    <path clip-path="url(#pa349ad9768)" d="M 71.659503 137.741159 
L 181.712685 137.741159 
" style="fill:none;stroke:#4c4c4c;stroke-linecap:round;stroke-width:0.75;"/>
   </g>
   <g id="line2d_76">
    <path clip-path="url(#pa349ad9768)" d="M 89.808535 203.353579 
L 163.563652 203.353579 
" style="fill:none;stroke:#4c4c4c;stroke-linecap:round;stroke-width:0.75;"/>
   </g>
   <g id="line2d_77">
    <path clip-path="url(#pa349ad9768)" d="M 96.583172 213.200419 
L 156.789015 213.200419 
" style="fill:none;stroke:#4c4c4c;stroke-linecap:round;stroke-width:0.75;"/>
   </g>
   <g id="line2d_78">
    <path clip-path="url(#pa349ad9768)" d="M 99.561622 89.940106 
L 153.810566 89.940106 
" style="fill:none;stroke:#4c4c4c;stroke-linecap:round;stroke-width:0.75;"/>
   </g>
   <g id="line2d_79">
    <path clip-path="url(#pa349ad9768)" d="M 100.750291 218.252887 
L 152.621897 218.252887 
" style="fill:none;stroke:#4c4c4c;stroke-linecap:round;stroke-width:0.75;"/>
   </g>
   <g id="line2d_80">
    <path clip-path="url(#pa349ad9768)" d="M 89.506637 112.816557 
L 163.865551 112.816557 
" style="fill:none;stroke:#4c4c4c;stroke-linecap:round;stroke-width:0.75;"/>
   </g>
   <g id="line2d_81">
    <path clip-path="url(#pa349ad9768)" d="M 220.818566 153.230922 
L 338.633622 153.230922 
" style="fill:none;stroke:#4c4c4c;stroke-linecap:round;stroke-width:0.75;"/>
   </g>
   <g id="line2d_82">
    <path clip-path="url(#pa349ad9768)" d="M 244.728027 204.272322 
L 314.724161 204.272322 
" style="fill:none;stroke:#4c4c4c;stroke-linecap:round;stroke-width:0.75;"/>
   </g>
   <g id="line2d_83">
    <path clip-path="url(#pa349ad9768)" d="M 227.5811 130.478981 
L 331.871087 130.478981 
" style="fill:none;stroke:#4c4c4c;stroke-linecap:round;stroke-width:0.75;"/>
   </g>
   <g id="line2d_84">
    <path clip-path="url(#pa349ad9768)" d="M 229.87991 126.138335 
L 329.572278 126.138335 
" style="fill:none;stroke:#4c4c4c;stroke-linecap:round;stroke-width:0.75;"/>
   </g>
   <g id="line2d_85">
    <path clip-path="url(#pa349ad9768)" d="M 239.610576 116.458229 
L 319.841611 116.458229 
" style="fill:none;stroke:#4c4c4c;stroke-linecap:round;stroke-width:0.75;"/>
   </g>
   <g id="line2d_86">
    <path clip-path="url(#pa349ad9768)" d="M 262.498471 72.853998 
L 296.953716 72.853998 
" style="fill:none;stroke:#4c4c4c;stroke-linecap:round;stroke-width:0.75;"/>
   </g>
   <g id="line2d_87">
    <path clip-path="url(#pa349ad9768)" d="M 237.947392 187.96611 
L 321.504795 187.96611 
" style="fill:none;stroke:#4c4c4c;stroke-linecap:round;stroke-width:0.75;"/>
   </g>
   <g id="line2d_88">
    <path clip-path="url(#pa349ad9768)" d="M 226.160646 165.160877 
L 333.291541 165.160877 
" style="fill:none;stroke:#4c4c4c;stroke-linecap:round;stroke-width:0.75;"/>
   </g>
   <g id="line2d_89">
    <path clip-path="url(#pa349ad9768)" d="M 248.053483 209.337895 
L 311.398704 209.337895 
" style="fill:none;stroke:#4c4c4c;stroke-linecap:round;stroke-width:0.75;"/>
   </g>
   <g id="line2d_90">
    <path clip-path="url(#pa349ad9768)" d="M 241.848088 113.221586 
L 317.6041 113.221586 
" style="fill:none;stroke:#4c4c4c;stroke-linecap:round;stroke-width:0.75;"/>
   </g>
   <g id="line2d_91">
    <path clip-path="url(#pa349ad9768)" d="M 270.482853 245.034539 
L 288.969334 245.034539 
" style="fill:none;stroke:#4c4c4c;stroke-linecap:round;stroke-width:0.75;"/>
   </g>
   <g id="line2d_92">
    <path clip-path="url(#pa349ad9768)" d="M 220.34336 144.111412 
L 339.108828 144.111412 
" style="fill:none;stroke:#4c4c4c;stroke-linecap:round;stroke-width:0.75;"/>
   </g>
   <g id="line2d_93">
    <path clip-path="url(#pa349ad9768)" d="M 256.426026 85.77521 
L 303.026161 85.77521 
" style="fill:none;stroke:#4c4c4c;stroke-linecap:round;stroke-width:0.75;"/>
   </g>
   <g id="line2d_94">
    <path clip-path="url(#pa349ad9768)" d="M 235.692582 182.994175 
L 323.759605 182.994175 
" style="fill:none;stroke:#4c4c4c;stroke-linecap:round;stroke-width:0.75;"/>
   </g>
   <g id="line2d_95">
    <path clip-path="url(#pa349ad9768)" d="M 224.506366 162.524366 
L 334.945822 162.524366 
" style="fill:none;stroke:#4c4c4c;stroke-linecap:round;stroke-width:0.75;"/>
   </g>
   <g id="line2d_96">
    <path clip-path="url(#pa349ad9768)" d="M 229.87991 127.291606 
L 329.572278 127.291606 
" style="fill:none;stroke:#4c4c4c;stroke-linecap:round;stroke-width:0.75;"/>
   </g>
   <g id="line2d_97">
    <path clip-path="url(#pa349ad9768)" d="M 220.34336 145.592533 
L 339.108828 145.592533 
" style="fill:none;stroke:#4c4c4c;stroke-linecap:round;stroke-width:0.75;"/>
   </g>
   <g id="line2d_98">
    <path clip-path="url(#pa349ad9768)" d="M 226.160646 165.186064 
L 333.291541 165.186064 
" style="fill:none;stroke:#4c4c4c;stroke-linecap:round;stroke-width:0.75;"/>
   </g>
   <g id="line2d_99">
    <path clip-path="url(#pa349ad9768)" d="M 259.288124 79.725161 
L 300.164064 79.725161 
" style="fill:none;stroke:#4c4c4c;stroke-linecap:round;stroke-width:0.75;"/>
   </g>
   <g id="line2d_100">
    <path clip-path="url(#pa349ad9768)" d="M 256.426026 84.800642 
L 303.026161 84.800642 
" style="fill:none;stroke:#4c4c4c;stroke-linecap:round;stroke-width:0.75;"/>
   </g>
   <g id="line2d_101">
    <path clip-path="url(#pa349ad9768)" d="M 220.34336 145.361134 
L 339.108828 145.361134 
" style="fill:none;stroke:#4c4c4c;stroke-linecap:round;stroke-width:0.75;"/>
   </g>
   <g id="line2d_102">
    <path clip-path="url(#pa349ad9768)" d="M 232.304807 125.599432 
L 327.147381 125.599432 
" style="fill:none;stroke:#4c4c4c;stroke-linecap:round;stroke-width:0.75;"/>
   </g>
   <g id="line2d_103">
    <path clip-path="url(#pa349ad9768)" d="M 270.60978 59.121074 
L 288.842408 59.121074 
" style="fill:none;stroke:#4c4c4c;stroke-linecap:round;stroke-width:0.75;"/>
   </g>
   <g id="line2d_104">
    <path clip-path="url(#pa349ad9768)" d="M 221.761276 156.407508 
L 337.690911 156.407508 
" style="fill:none;stroke:#4c4c4c;stroke-linecap:round;stroke-width:0.75;"/>
   </g>
   <g id="line2d_105">
    <path clip-path="url(#pa349ad9768)" d="M 229.643823 171.464791 
L 329.808364 171.464791 
" style="fill:none;stroke:#4c4c4c;stroke-linecap:round;stroke-width:0.75;"/>
   </g>
   <g id="line2d_106">
    <path clip-path="url(#pa349ad9768)" d="M 248.957686 101.227687 
L 310.494501 101.227687 
" style="fill:none;stroke:#4c4c4c;stroke-linecap:round;stroke-width:0.75;"/>
   </g>
   <g id="line2d_107">
    <path clip-path="url(#pa349ad9768)" d="M 225.482604 134.44091 
L 333.969584 134.44091 
" style="fill:none;stroke:#4c4c4c;stroke-linecap:round;stroke-width:0.75;"/>
   </g>
   <g id="line2d_108">
    <path clip-path="url(#pa349ad9768)" d="M 221.761276 155.731774 
L 337.690911 155.731774 
" style="fill:none;stroke:#4c4c4c;stroke-linecap:round;stroke-width:0.75;"/>
   </g>
   <g id="line2d_109">
    <path clip-path="url(#pa349ad9768)" d="M 239.610576 115.838362 
L 319.841611 115.838362 
" style="fill:none;stroke:#4c4c4c;stroke-linecap:round;stroke-width:0.75;"/>
   </g>
   <g id="line2d_110">
    <path clip-path="url(#pa349ad9768)" d="M 220.818566 153.375125 
L 338.633622 153.375125 
" style="fill:none;stroke:#4c4c4c;stroke-linecap:round;stroke-width:0.75;"/>
   </g>
   <g id="line2d_111">
    <path clip-path="url(#pa349ad9768)" d="M 234.781069 122.997373 
L 324.671119 122.997373 
" style="fill:none;stroke:#4c4c4c;stroke-linecap:round;stroke-width:0.75;"/>
   </g>
   <g id="line2d_112">
    <path clip-path="url(#pa349ad9768)" d="M 220.34336 143.817466 
L 339.108828 143.817466 
" style="fill:none;stroke:#4c4c4c;stroke-linecap:round;stroke-width:0.75;"/>
   </g>
   <g id="line2d_113">
    <path clip-path="url(#pa349ad9768)" d="M 227.5811 130.122024 
L 331.871087 130.122024 
" style="fill:none;stroke:#4c4c4c;stroke-linecap:round;stroke-width:0.75;"/>
   </g>
   <g id="line2d_114">
    <path clip-path="url(#pa349ad9768)" d="M 255.136598 86.052872 
L 304.31559 86.052872 
" style="fill:none;stroke:#4c4c4c;stroke-linecap:round;stroke-width:0.75;"/>
   </g>
   <g id="line2d_115">
    <path clip-path="url(#pa349ad9768)" d="M 220.34336 145.014518 
L 339.108828 145.014518 
" style="fill:none;stroke:#4c4c4c;stroke-linecap:round;stroke-width:0.75;"/>
   </g>
   <g id="line2d_116">
    <path clip-path="url(#pa349ad9768)" d="M 256.426026 84.584244 
L 303.026161 84.584244 
" style="fill:none;stroke:#4c4c4c;stroke-linecap:round;stroke-width:0.75;"/>
   </g>
   <g id="line2d_117">
    <path clip-path="url(#pa349ad9768)" d="M 220.818566 154.439173 
L 338.633622 154.439173 
" style="fill:none;stroke:#4c4c4c;stroke-linecap:round;stroke-width:0.75;"/>
   </g>
   <g id="line2d_118">
    <path clip-path="url(#pa349ad9768)" d="M 221.761276 156.882334 
L 337.690911 156.882334 
" style="fill:none;stroke:#4c4c4c;stroke-linecap:round;stroke-width:0.75;"/>
   </g>
   <g id="line2d_119">
    <path clip-path="url(#pa349ad9768)" d="M 243.328382 203.188942 
L 316.123805 203.188942 
" style="fill:none;stroke:#4c4c4c;stroke-linecap:round;stroke-width:0.75;"/>
   </g>
   <g id="line2d_120">
    <path clip-path="url(#pa349ad9768)" d="M 246.30294 206.190771 
L 313.149247 206.190771 
" style="fill:none;stroke:#4c4c4c;stroke-linecap:round;stroke-width:0.75;"/>
   </g>
   <g id="line2d_121">
    <path clip-path="url(#pa349ad9768)" d="M 256.316891 223.04555 
L 303.135296 223.04555 
" style="fill:none;stroke:#4c4c4c;stroke-linecap:round;stroke-width:0.75;"/>
   </g>
   <g id="line2d_122">
    <path clip-path="url(#pa349ad9768)" d="M 232.923493 175.07434 
L 326.528695 175.07434 
" style="fill:none;stroke:#4c4c4c;stroke-linecap:round;stroke-width:0.75;"/>
   </g>
   <g id="line2d_123">
    <path clip-path="url(#pa349ad9768)" d="M 221.761276 155.415459 
L 337.690911 155.415459 
" style="fill:none;stroke:#4c4c4c;stroke-linecap:round;stroke-width:0.75;"/>
   </g>
   <g id="line2d_124">
    <path clip-path="url(#pa349ad9768)" d="M 238.955966 191.545427 
L 320.496222 191.545427 
" style="fill:none;stroke:#4c4c4c;stroke-linecap:round;stroke-width:0.75;"/>
   </g>
   <g id="line2d_125">
    <path clip-path="url(#pa349ad9768)" d="M 221.042289 142.682116 
L 338.409899 142.682116 
" style="fill:none;stroke:#4c4c4c;stroke-linecap:round;stroke-width:0.75;"/>
   </g>
   <g id="line2d_126">
    <path clip-path="url(#pa349ad9768)" d="M 220.243694 151.70606 
L 339.208494 151.70606 
" style="fill:none;stroke:#4c4c4c;stroke-linecap:round;stroke-width:0.75;"/>
   </g>
   <g id="line2d_127">
    <path clip-path="url(#pa349ad9768)" d="M 264.533298 232.835466 
L 294.91889 232.835466 
" style="fill:none;stroke:#4c4c4c;stroke-linecap:round;stroke-width:0.75;"/>
   </g>
   <g id="line2d_128">
    <path clip-path="url(#pa349ad9768)" d="M 239.947743 192.847393 
L 319.504445 192.847393 
" style="fill:none;stroke:#4c4c4c;stroke-linecap:round;stroke-width:0.75;"/>
   </g>
   <g id="line2d_129">
    <path clip-path="url(#pa349ad9768)" d="M 249.964324 214.663305 
L 309.487864 214.663305 
" style="fill:none;stroke:#4c4c4c;stroke-linecap:round;stroke-width:0.75;"/>
   </g>
   <g id="line2d_130">
    <path clip-path="url(#pa349ad9768)" d="M 242.087675 199.050346 
L 317.364512 199.050346 
" style="fill:none;stroke:#4c4c4c;stroke-linecap:round;stroke-width:0.75;"/>
   </g>
   <g id="line2d_131">
    <path clip-path="url(#pa349ad9768)" d="M 276.007633 267.201574 
L 283.444555 267.201574 
" style="fill:none;stroke:#4c4c4c;stroke-linecap:round;stroke-width:0.75;"/>
   </g>
   <g id="line2d_132">
    <path clip-path="url(#pa349ad9768)" d="M 235.692582 182.708474 
L 323.759605 182.708474 
" style="fill:none;stroke:#4c4c4c;stroke-linecap:round;stroke-width:0.75;"/>
   </g>
   <g id="line2d_133">
    <path clip-path="url(#pa349ad9768)" d="M 223.014006 158.96257 
L 336.438181 158.96257 
" style="fill:none;stroke:#4c4c4c;stroke-linecap:round;stroke-width:0.75;"/>
   </g>
   <g id="line2d_134">
    <path clip-path="url(#pa349ad9768)" d="M 234.379264 180.264109 
L 325.072924 180.264109 
" style="fill:none;stroke:#4c4c4c;stroke-linecap:round;stroke-width:0.75;"/>
   </g>
   <g id="line2d_135">
    <path clip-path="url(#pa349ad9768)" d="M 222.157509 137.914326 
L 337.294678 137.914326 
" style="fill:none;stroke:#4c4c4c;stroke-linecap:round;stroke-width:0.75;"/>
   </g>
   <g id="line2d_136">
    <path clip-path="url(#pa349ad9768)" d="M 235.692582 180.415502 
L 323.759605 180.415502 
" style="fill:none;stroke:#4c4c4c;stroke-linecap:round;stroke-width:0.75;"/>
   </g>
   <g id="line2d_137">
    <path clip-path="url(#pa349ad9768)" d="M 244.728027 205.037591 
L 314.724161 205.037591 
" style="fill:none;stroke:#4c4c4c;stroke-linecap:round;stroke-width:0.75;"/>
   </g>
   <g id="line2d_138">
    <path clip-path="url(#pa349ad9768)" d="M 221.042289 141.101536 
L 338.409899 141.101536 
" style="fill:none;stroke:#4c4c4c;stroke-linecap:round;stroke-width:0.75;"/>
   </g>
   <g id="line2d_139">
    <path clip-path="url(#pa349ad9768)" d="M 222.157509 138.510464 
L 337.294678 138.510464 
" style="fill:none;stroke:#4c4c4c;stroke-linecap:round;stroke-width:0.75;"/>
   </g>
   <g id="line2d_140">
    <path clip-path="url(#pa349ad9768)" d="M 224.506366 160.60831 
L 334.945822 160.60831 
" style="fill:none;stroke:#4c4c4c;stroke-linecap:round;stroke-width:0.75;"/>
   </g>
   <g id="line2d_141">
    <path clip-path="url(#pa349ad9768)" d="M 251.550643 95.583546 
L 307.901544 95.583546 
" style="fill:none;stroke:#4c4c4c;stroke-linecap:round;stroke-width:0.75;"/>
   </g>
   <g id="line2d_142">
    <path clip-path="url(#pa349ad9768)" d="M 220.0779 146.038394 
L 339.374287 146.038394 
" style="fill:none;stroke:#4c4c4c;stroke-linecap:round;stroke-width:0.75;"/>
   </g>
   <g id="line2d_143">
    <path clip-path="url(#pa349ad9768)" d="M 234.781069 122.007596 
L 324.671119 122.007596 
" style="fill:none;stroke:#4c4c4c;stroke-linecap:round;stroke-width:0.75;"/>
   </g>
   <g id="line2d_144">
    <path clip-path="url(#pa349ad9768)" d="M 252.738121 93.877995 
L 306.714067 93.877995 
" style="fill:none;stroke:#4c4c4c;stroke-linecap:round;stroke-width:0.75;"/>
   </g>
   <g id="line2d_145">
    <path clip-path="url(#pa349ad9768)" d="M 232.923493 174.692349 
L 326.528695 174.692349 
" style="fill:none;stroke:#4c4c4c;stroke-linecap:round;stroke-width:0.75;"/>
   </g>
   <g id="line2d_146">
    <path clip-path="url(#pa349ad9768)" d="M 240.974985 196.196156 
L 318.477202 196.196156 
" style="fill:none;stroke:#4c4c4c;stroke-linecap:round;stroke-width:0.75;"/>
   </g>
   <g id="line2d_147">
    <path clip-path="url(#pa349ad9768)" d="M 227.5811 131.443295 
L 331.871087 131.443295 
" style="fill:none;stroke:#4c4c4c;stroke-linecap:round;stroke-width:0.75;"/>
   </g>
   <g id="line2d_148">
    <path clip-path="url(#pa349ad9768)" d="M 244.728027 203.494427 
L 314.724161 203.494427 
" style="fill:none;stroke:#4c4c4c;stroke-linecap:round;stroke-width:0.75;"/>
   </g>
   <g id="line2d_149">
    <path clip-path="url(#pa349ad9768)" d="M 249.964324 212.577508 
L 309.487864 212.577508 
" style="fill:none;stroke:#4c4c4c;stroke-linecap:round;stroke-width:0.75;"/>
   </g>
   <g id="line2d_150">
    <path clip-path="url(#pa349ad9768)" d="M 253.918697 90.595559 
L 305.53349 90.595559 
" style="fill:none;stroke:#4c4c4c;stroke-linecap:round;stroke-width:0.75;"/>
   </g>
   <g id="line2d_151">
    <path clip-path="url(#pa349ad9768)" d="M 252.006266 217.442988 
L 307.445922 217.442988 
" style="fill:none;stroke:#4c4c4c;stroke-linecap:round;stroke-width:0.75;"/>
   </g>
   <g id="line2d_152">
    <path clip-path="url(#pa349ad9768)" d="M 239.610576 114.542029 
L 319.841611 114.542029 
" style="fill:none;stroke:#4c4c4c;stroke-linecap:round;stroke-width:0.75;"/>
   </g>
   <g id="patch_3">
    <path d="M 50.166094 321.733125 
L 50.166094 7.2 
" style="fill:none;stroke:#ffffff;stroke-linecap:square;stroke-linejoin:miter;stroke-width:1.25;"/>
   </g>
   <g id="patch_4">
    <path d="M 50.166094 321.733125 
L 356.246094 321.733125 
" style="fill:none;stroke:#ffffff;stroke-linecap:square;stroke-linejoin:miter;stroke-width:1.25;"/>
   </g>
   <g id="PathCollection_1">
    <defs>
     <path d="M 0 1.5 
C 0.397805 1.5 0.77937 1.341951 1.06066 1.06066 
C 1.341951 0.77937 1.5 0.397805 1.5 -0 
C 1.5 -0.397805 1.341951 -0.77937 1.06066 -1.06066 
C 0.77937 -1.341951 0.397805 -1.5 0 -1.5 
C -0.397805 -1.5 -0.77937 -1.341951 -1.06066 -1.06066 
C -1.341951 -0.77937 -1.5 -0.397805 -1.5 0 
C -1.5 0.397805 -1.341951 0.77937 -1.06066 1.06066 
C -0.77937 1.341951 -0.397805 1.5 0 1.5 
z
" id="C0_0_6890bc38a4"/>
    </defs>
    <g clip-path="url(#pa349ad9768)">
     <use style="fill:#1a1a1a;" x="126.686094" xlink:href="#C0_0_6890bc38a4" y="270.865222"/>
    </g>
    <g clip-path="url(#pa349ad9768)">
     <use style="fill:#1a1a1a;" x="126.686094" xlink:href="#C0_0_6890bc38a4" y="246.641343"/>
    </g>
    <g clip-path="url(#pa349ad9768)">
     <use style="fill:#1a1a1a;" x="126.686094" xlink:href="#C0_0_6890bc38a4" y="231.740984"/>
    </g>
    <g clip-path="url(#pa349ad9768)">
     <use style="fill:#1a1a1a;" x="126.686094" xlink:href="#C0_0_6890bc38a4" y="224.27744"/>
    </g>
    <g clip-path="url(#pa349ad9768)">
     <use style="fill:#1a1a1a;" x="126.686094" xlink:href="#C0_0_6890bc38a4" y="218.252887"/>
    </g>
    <g clip-path="url(#pa349ad9768)">
     <use style="fill:#1a1a1a;" x="124.80013" xlink:href="#C0_0_6890bc38a4" y="215.850009"/>
    </g>
    <g clip-path="url(#pa349ad9768)">
     <use style="fill:#1a1a1a;" x="126.686094" xlink:href="#C0_0_6890bc38a4" y="213.200419"/>
    </g>
    <g clip-path="url(#pa349ad9768)">
     <use style="fill:#1a1a1a;" x="126.686094" xlink:href="#C0_0_6890bc38a4" y="208.383539"/>
    </g>
    <g clip-path="url(#pa349ad9768)">
     <use style="fill:#1a1a1a;" x="123.55044" xlink:href="#C0_0_6890bc38a4" y="208.097548"/>
    </g>
    <g clip-path="url(#pa349ad9768)">
     <use style="fill:#1a1a1a;" x="126.686094" xlink:href="#C0_0_6890bc38a4" y="204.534409"/>
    </g>
    <g clip-path="url(#pa349ad9768)">
     <use style="fill:#1a1a1a;" x="123.541886" xlink:href="#C0_0_6890bc38a4" y="204.352568"/>
    </g>
    <g clip-path="url(#pa349ad9768)">
     <use style="fill:#1a1a1a;" x="129.581818" xlink:href="#C0_0_6890bc38a4" y="203.353579"/>
    </g>
    <g clip-path="url(#pa349ad9768)">
     <use style="fill:#1a1a1a;" x="125.32691" xlink:href="#C0_0_6890bc38a4" y="201.828052"/>
    </g>
    <g clip-path="url(#pa349ad9768)">
     <use style="fill:#1a1a1a;" x="127.226688" xlink:href="#C0_0_6890bc38a4" y="199.435065"/>
    </g>
    <g clip-path="url(#pa349ad9768)">
     <use style="fill:#1a1a1a;" x="124.637325" xlink:href="#C0_0_6890bc38a4" y="197.72669"/>
    </g>
    <g clip-path="url(#pa349ad9768)">
     <use style="fill:#1a1a1a;" x="126.686094" xlink:href="#C0_0_6890bc38a4" y="194.287646"/>
    </g>
    <g clip-path="url(#pa349ad9768)">
     <use style="fill:#1a1a1a;" x="123.733144" xlink:href="#C0_0_6890bc38a4" y="193.243241"/>
    </g>
    <g clip-path="url(#pa349ad9768)">
     <use style="fill:#1a1a1a;" x="126.686094" xlink:href="#C0_0_6890bc38a4" y="189.518123"/>
    </g>
    <g clip-path="url(#pa349ad9768)">
     <use style="fill:#1a1a1a;" x="126.686094" xlink:href="#C0_0_6890bc38a4" y="185.276195"/>
    </g>
    <g clip-path="url(#pa349ad9768)">
     <use style="fill:#1a1a1a;" x="123.558678" xlink:href="#C0_0_6890bc38a4" y="184.917599"/>
    </g>
    <g clip-path="url(#pa349ad9768)">
     <use style="fill:#1a1a1a;" x="126.686094" xlink:href="#C0_0_6890bc38a4" y="179.405734"/>
    </g>
    <g clip-path="url(#pa349ad9768)">
     <use style="fill:#1a1a1a;" x="123.5778" xlink:href="#C0_0_6890bc38a4" y="178.919172"/>
    </g>
    <g clip-path="url(#pa349ad9768)">
     <use style="fill:#1a1a1a;" x="129.622629" xlink:href="#C0_0_6890bc38a4" y="178.32016"/>
    </g>
    <g clip-path="url(#pa349ad9768)">
     <use style="fill:#1a1a1a;" x="126.686094" xlink:href="#C0_0_6890bc38a4" y="176.247778"/>
    </g>
    <g clip-path="url(#pa349ad9768)">
     <use style="fill:#1a1a1a;" x="124.668603" xlink:href="#C0_0_6890bc38a4" y="173.943836"/>
    </g>
    <g clip-path="url(#pa349ad9768)">
     <use style="fill:#1a1a1a;" x="126.686094" xlink:href="#C0_0_6890bc38a4" y="164.008466"/>
    </g>
    <g clip-path="url(#pa349ad9768)">
     <use style="fill:#1a1a1a;" x="123.581587" xlink:href="#C0_0_6890bc38a4" y="163.500447"/>
    </g>
    <g clip-path="url(#pa349ad9768)">
     <use style="fill:#1a1a1a;" x="129.626466" xlink:href="#C0_0_6890bc38a4" y="162.932356"/>
    </g>
    <g clip-path="url(#pa349ad9768)">
     <use style="fill:#1a1a1a;" x="121.102864" xlink:href="#C0_0_6890bc38a4" y="161.649191"/>
    </g>
    <g clip-path="url(#pa349ad9768)">
     <use style="fill:#1a1a1a;" x="132.369569" xlink:href="#C0_0_6890bc38a4" y="161.457582"/>
    </g>
    <g clip-path="url(#pa349ad9768)">
     <use style="fill:#1a1a1a;" x="126.686094" xlink:href="#C0_0_6890bc38a4" y="160.283361"/>
    </g>
    <g clip-path="url(#pa349ad9768)">
     <use style="fill:#1a1a1a;" x="123.597972" xlink:href="#C0_0_6890bc38a4" y="159.691656"/>
    </g>
    <g clip-path="url(#pa349ad9768)">
     <use style="fill:#1a1a1a;" x="126.218612" xlink:href="#C0_0_6890bc38a4" y="157.316581"/>
    </g>
    <g clip-path="url(#pa349ad9768)">
     <use style="fill:#1a1a1a;" x="129.345173" xlink:href="#C0_0_6890bc38a4" y="156.951286"/>
    </g>
    <g clip-path="url(#pa349ad9768)">
     <use style="fill:#1a1a1a;" x="123.251766" xlink:href="#C0_0_6890bc38a4" y="156.308531"/>
    </g>
    <g clip-path="url(#pa349ad9768)">
     <use style="fill:#1a1a1a;" x="132.274278" xlink:href="#C0_0_6890bc38a4" y="155.847657"/>
    </g>
    <g clip-path="url(#pa349ad9768)">
     <use style="fill:#1a1a1a;" x="120.217935" xlink:href="#C0_0_6890bc38a4" y="155.501323"/>
    </g>
    <g clip-path="url(#pa349ad9768)">
     <use style="fill:#1a1a1a;" x="135.243228" xlink:href="#C0_0_6890bc38a4" y="154.845238"/>
    </g>
    <g clip-path="url(#pa349ad9768)">
     <use style="fill:#1a1a1a;" x="126.686094" xlink:href="#C0_0_6890bc38a4" y="152.663627"/>
    </g>
    <g clip-path="url(#pa349ad9768)">
     <use style="fill:#1a1a1a;" x="126.686094" xlink:href="#C0_0_6890bc38a4" y="149.193195"/>
    </g>
    <g clip-path="url(#pa349ad9768)">
     <use style="fill:#1a1a1a;" x="124.414203" xlink:href="#C0_0_6890bc38a4" y="147.115124"/>
    </g>
    <g clip-path="url(#pa349ad9768)">
     <use style="fill:#1a1a1a;" x="128.901188" xlink:href="#C0_0_6890bc38a4" y="147.060232"/>
    </g>
    <g clip-path="url(#pa349ad9768)">
     <use style="fill:#1a1a1a;" x="131.607753" xlink:href="#C0_0_6890bc38a4" y="145.525449"/>
    </g>
    <g clip-path="url(#pa349ad9768)">
     <use style="fill:#1a1a1a;" x="126.686094" xlink:href="#C0_0_6890bc38a4" y="144.811524"/>
    </g>
    <g clip-path="url(#pa349ad9768)">
     <use style="fill:#1a1a1a;" x="123.614767" xlink:href="#C0_0_6890bc38a4" y="144.145231"/>
    </g>
    <g clip-path="url(#pa349ad9768)">
     <use style="fill:#1a1a1a;" x="129.424412" xlink:href="#C0_0_6890bc38a4" y="143.328708"/>
    </g>
    <g clip-path="url(#pa349ad9768)">
     <use style="fill:#1a1a1a;" x="121.163335" xlink:href="#C0_0_6890bc38a4" y="142.261301"/>
    </g>
    <g clip-path="url(#pa349ad9768)">
     <use style="fill:#1a1a1a;" x="126.686094" xlink:href="#C0_0_6890bc38a4" y="141.229375"/>
    </g>
    <g clip-path="url(#pa349ad9768)">
     <use style="fill:#1a1a1a;" x="126.686094" xlink:href="#C0_0_6890bc38a4" y="137.741159"/>
    </g>
    <g clip-path="url(#pa349ad9768)">
     <use style="fill:#1a1a1a;" x="123.544888" xlink:href="#C0_0_6890bc38a4" y="137.517143"/>
    </g>
    <g clip-path="url(#pa349ad9768)">
     <use style="fill:#1a1a1a;" x="126.686094" xlink:href="#C0_0_6890bc38a4" y="133.345262"/>
    </g>
    <g clip-path="url(#pa349ad9768)">
     <use style="fill:#1a1a1a;" x="126.686094" xlink:href="#C0_0_6890bc38a4" y="127.153178"/>
    </g>
    <g clip-path="url(#pa349ad9768)">
     <use style="fill:#1a1a1a;" x="123.541877" xlink:href="#C0_0_6890bc38a4" y="126.971474"/>
    </g>
    <g clip-path="url(#pa349ad9768)">
     <use style="fill:#1a1a1a;" x="129.618872" xlink:href="#C0_0_6890bc38a4" y="126.058432"/>
    </g>
    <g clip-path="url(#pa349ad9768)">
     <use style="fill:#1a1a1a;" x="120.694689" xlink:href="#C0_0_6890bc38a4" y="125.688048"/>
    </g>
    <g clip-path="url(#pa349ad9768)">
     <use style="fill:#1a1a1a;" x="126.686094" xlink:href="#C0_0_6890bc38a4" y="124.152519"/>
    </g>
    <g clip-path="url(#pa349ad9768)">
     <use style="fill:#1a1a1a;" x="131.954361" xlink:href="#C0_0_6890bc38a4" y="124.045325"/>
    </g>
    <g clip-path="url(#pa349ad9768)">
     <use style="fill:#1a1a1a;" x="126.686094" xlink:href="#C0_0_6890bc38a4" y="117.76106"/>
    </g>
    <g clip-path="url(#pa349ad9768)">
     <use style="fill:#1a1a1a;" x="123.565165" xlink:href="#C0_0_6890bc38a4" y="117.354423"/>
    </g>
    <g clip-path="url(#pa349ad9768)">
     <use style="fill:#1a1a1a;" x="129.631267" xlink:href="#C0_0_6890bc38a4" y="116.696923"/>
    </g>
    <g clip-path="url(#pa349ad9768)">
     <use style="fill:#1a1a1a;" x="126.686094" xlink:href="#C0_0_6890bc38a4" y="112.816557"/>
    </g>
    <g clip-path="url(#pa349ad9768)">
     <use style="fill:#1a1a1a;" x="126.686094" xlink:href="#C0_0_6890bc38a4" y="108.421411"/>
    </g>
    <g clip-path="url(#pa349ad9768)">
     <use style="fill:#1a1a1a;" x="126.686094" xlink:href="#C0_0_6890bc38a4" y="98.001535"/>
    </g>
    <g clip-path="url(#pa349ad9768)">
     <use style="fill:#1a1a1a;" x="124.838951" xlink:href="#C0_0_6890bc38a4" y="95.571458"/>
    </g>
    <g clip-path="url(#pa349ad9768)">
     <use style="fill:#1a1a1a;" x="127.353019" xlink:href="#C0_0_6890bc38a4" y="93.76395"/>
    </g>
    <g clip-path="url(#pa349ad9768)">
     <use style="fill:#1a1a1a;" x="125.159831" xlink:href="#C0_0_6890bc38a4" y="91.610552"/>
    </g>
    <g clip-path="url(#pa349ad9768)">
     <use style="fill:#1a1a1a;" x="127.776335" xlink:href="#C0_0_6890bc38a4" y="89.940106"/>
    </g>
    <g clip-path="url(#pa349ad9768)">
     <use style="fill:#1a1a1a;" x="126.686094" xlink:href="#C0_0_6890bc38a4" y="86.120806"/>
    </g>
    <g clip-path="url(#pa349ad9768)">
     <use style="fill:#1a1a1a;" x="123.551971" xlink:href="#C0_0_6890bc38a4" y="85.819975"/>
    </g>
    <g clip-path="url(#pa349ad9768)">
     <use style="fill:#1a1a1a;" x="129.363878" xlink:href="#C0_0_6890bc38a4" y="84.540895"/>
    </g>
    <g clip-path="url(#pa349ad9768)">
     <use style="fill:#1a1a1a;" x="126.686094" xlink:href="#C0_0_6890bc38a4" y="80.011337"/>
    </g>
    <g clip-path="url(#pa349ad9768)">
     <use style="fill:#1a1a1a;" x="123.58328" xlink:href="#C0_0_6890bc38a4" y="79.494023"/>
    </g>
   </g>
   <g id="PathCollection_2">
    <defs>
     <path d="M 0 1.5 
C 0.397805 1.5 0.77937 1.341951 1.06066 1.06066 
C 1.341951 0.77937 1.5 0.397805 1.5 -0 
C 1.5 -0.397805 1.341951 -0.77937 1.06066 -1.06066 
C 0.77937 -1.341951 0.397805 -1.5 0 -1.5 
C -0.397805 -1.5 -0.77937 -1.341951 -1.06066 -1.06066 
C -1.341951 -0.77937 -1.5 -0.397805 -1.5 0 
C -1.5 0.397805 -1.341951 0.77937 -1.06066 1.06066 
C -0.77937 1.341951 -0.397805 1.5 0 1.5 
z
" id="C1_0_a2ed4dbbec"/>
    </defs>
    <g clip-path="url(#pa349ad9768)">
     <use style="fill:#1a1a1a;" x="279.726094" xlink:href="#C1_0_a2ed4dbbec" y="267.201574"/>
    </g>
    <g clip-path="url(#pa349ad9768)">
     <use style="fill:#1a1a1a;" x="279.726094" xlink:href="#C1_0_a2ed4dbbec" y="245.034539"/>
    </g>
    <g clip-path="url(#pa349ad9768)">
     <use style="fill:#1a1a1a;" x="279.726094" xlink:href="#C1_0_a2ed4dbbec" y="232.835466"/>
    </g>
    <g clip-path="url(#pa349ad9768)">
     <use style="fill:#1a1a1a;" x="279.726094" xlink:href="#C1_0_a2ed4dbbec" y="223.04555"/>
    </g>
    <g clip-path="url(#pa349ad9768)">
     <use style="fill:#1a1a1a;" x="279.726094" xlink:href="#C1_0_a2ed4dbbec" y="217.442988"/>
    </g>
    <g clip-path="url(#pa349ad9768)">
     <use style="fill:#1a1a1a;" x="278.541236" xlink:href="#C1_0_a2ed4dbbec" y="214.663305"/>
    </g>
    <g clip-path="url(#pa349ad9768)">
     <use style="fill:#1a1a1a;" x="280.805308" xlink:href="#C1_0_a2ed4dbbec" y="212.577508"/>
    </g>
    <g clip-path="url(#pa349ad9768)">
     <use style="fill:#1a1a1a;" x="279.726094" xlink:href="#C1_0_a2ed4dbbec" y="209.337895"/>
    </g>
    <g clip-path="url(#pa349ad9768)">
     <use style="fill:#1a1a1a;" x="279.726094" xlink:href="#C1_0_a2ed4dbbec" y="206.190771"/>
    </g>
    <g clip-path="url(#pa349ad9768)">
     <use style="fill:#1a1a1a;" x="276.81811" xlink:href="#C1_0_a2ed4dbbec" y="205.037591"/>
    </g>
    <g clip-path="url(#pa349ad9768)">
     <use style="fill:#1a1a1a;" x="282.147831" xlink:href="#C1_0_a2ed4dbbec" y="204.272322"/>
    </g>
    <g clip-path="url(#pa349ad9768)">
     <use style="fill:#1a1a1a;" x="285.190092" xlink:href="#C1_0_a2ed4dbbec" y="203.494427"/>
    </g>
    <g clip-path="url(#pa349ad9768)">
     <use style="fill:#1a1a1a;" x="279.298977" xlink:href="#C1_0_a2ed4dbbec" y="203.188942"/>
    </g>
    <g clip-path="url(#pa349ad9768)">
     <use style="fill:#1a1a1a;" x="279.726094" xlink:href="#C1_0_a2ed4dbbec" y="199.050346"/>
    </g>
    <g clip-path="url(#pa349ad9768)">
     <use style="fill:#1a1a1a;" x="278.755993" xlink:href="#C1_0_a2ed4dbbec" y="196.196156"/>
    </g>
    <g clip-path="url(#pa349ad9768)">
     <use style="fill:#1a1a1a;" x="279.726094" xlink:href="#C1_0_a2ed4dbbec" y="192.847393"/>
    </g>
    <g clip-path="url(#pa349ad9768)">
     <use style="fill:#1a1a1a;" x="276.888201" xlink:href="#C1_0_a2ed4dbbec" y="191.545427"/>
    </g>
    <g clip-path="url(#pa349ad9768)">
     <use style="fill:#1a1a1a;" x="279.726094" xlink:href="#C1_0_a2ed4dbbec" y="187.96611"/>
    </g>
    <g clip-path="url(#pa349ad9768)">
     <use style="fill:#1a1a1a;" x="279.726094" xlink:href="#C1_0_a2ed4dbbec" y="182.994175"/>
    </g>
    <g clip-path="url(#pa349ad9768)">
     <use style="fill:#1a1a1a;" x="276.590411" xlink:href="#C1_0_a2ed4dbbec" y="182.708474"/>
    </g>
    <g clip-path="url(#pa349ad9768)">
     <use style="fill:#1a1a1a;" x="281.335866" xlink:href="#C1_0_a2ed4dbbec" y="180.415502"/>
    </g>
    <g clip-path="url(#pa349ad9768)">
     <use style="fill:#1a1a1a;" x="284.481853" xlink:href="#C1_0_a2ed4dbbec" y="180.264109"/>
    </g>
    <g clip-path="url(#pa349ad9768)">
     <use style="fill:#1a1a1a;" x="279.726094" xlink:href="#C1_0_a2ed4dbbec" y="175.07434"/>
    </g>
    <g clip-path="url(#pa349ad9768)">
     <use style="fill:#1a1a1a;" x="276.601734" xlink:href="#C1_0_a2ed4dbbec" y="174.692349"/>
    </g>
    <g clip-path="url(#pa349ad9768)">
     <use style="fill:#1a1a1a;" x="279.726094" xlink:href="#C1_0_a2ed4dbbec" y="171.464791"/>
    </g>
    <g clip-path="url(#pa349ad9768)">
     <use style="fill:#1a1a1a;" x="279.726094" xlink:href="#C1_0_a2ed4dbbec" y="165.186064"/>
    </g>
    <g clip-path="url(#pa349ad9768)">
     <use style="fill:#1a1a1a;" x="276.576205" xlink:href="#C1_0_a2ed4dbbec" y="165.160877"/>
    </g>
    <g clip-path="url(#pa349ad9768)">
     <use style="fill:#1a1a1a;" x="278.272929" xlink:href="#C1_0_a2ed4dbbec" y="162.524366"/>
    </g>
    <g clip-path="url(#pa349ad9768)">
     <use style="fill:#1a1a1a;" x="280.696753" xlink:href="#C1_0_a2ed4dbbec" y="160.60831"/>
    </g>
    <g clip-path="url(#pa349ad9768)">
     <use style="fill:#1a1a1a;" x="278.063044" xlink:href="#C1_0_a2ed4dbbec" y="158.96257"/>
    </g>
    <g clip-path="url(#pa349ad9768)">
     <use style="fill:#1a1a1a;" x="280.33275" xlink:href="#C1_0_a2ed4dbbec" y="156.882334"/>
    </g>
    <g clip-path="url(#pa349ad9768)">
     <use style="fill:#1a1a1a;" x="276.412287" xlink:href="#C1_0_a2ed4dbbec" y="156.407508"/>
    </g>
    <g clip-path="url(#pa349ad9768)">
     <use style="fill:#1a1a1a;" x="283.241877" xlink:href="#C1_0_a2ed4dbbec" y="155.731774"/>
    </g>
    <g clip-path="url(#pa349ad9768)">
     <use style="fill:#1a1a1a;" x="273.4395" xlink:href="#C1_0_a2ed4dbbec" y="155.415459"/>
    </g>
    <g clip-path="url(#pa349ad9768)">
     <use style="fill:#1a1a1a;" x="286.084486" xlink:href="#C1_0_a2ed4dbbec" y="154.439173"/>
    </g>
    <g clip-path="url(#pa349ad9768)">
     <use style="fill:#1a1a1a;" x="279.726094" xlink:href="#C1_0_a2ed4dbbec" y="153.375125"/>
    </g>
    <g clip-path="url(#pa349ad9768)">
     <use style="fill:#1a1a1a;" x="276.579735" xlink:href="#C1_0_a2ed4dbbec" y="153.230922"/>
    </g>
    <g clip-path="url(#pa349ad9768)">
     <use style="fill:#1a1a1a;" x="282.34357" xlink:href="#C1_0_a2ed4dbbec" y="151.70606"/>
    </g>
    <g clip-path="url(#pa349ad9768)">
     <use style="fill:#1a1a1a;" x="279.726094" xlink:href="#C1_0_a2ed4dbbec" y="146.038394"/>
    </g>
    <g clip-path="url(#pa349ad9768)">
     <use style="fill:#1a1a1a;" x="276.611077" xlink:href="#C1_0_a2ed4dbbec" y="145.592533"/>
    </g>
    <g clip-path="url(#pa349ad9768)">
     <use style="fill:#1a1a1a;" x="282.794775" xlink:href="#C1_0_a2ed4dbbec" y="145.361134"/>
    </g>
    <g clip-path="url(#pa349ad9768)">
     <use style="fill:#1a1a1a;" x="285.923679" xlink:href="#C1_0_a2ed4dbbec" y="145.014518"/>
    </g>
    <g clip-path="url(#pa349ad9768)">
     <use style="fill:#1a1a1a;" x="273.871748" xlink:href="#C1_0_a2ed4dbbec" y="144.111412"/>
    </g>
    <g clip-path="url(#pa349ad9768)">
     <use style="fill:#1a1a1a;" x="270.736905" xlink:href="#C1_0_a2ed4dbbec" y="143.817466"/>
    </g>
    <g clip-path="url(#pa349ad9768)">
     <use style="fill:#1a1a1a;" x="279.726094" xlink:href="#C1_0_a2ed4dbbec" y="142.682116"/>
    </g>
    <g clip-path="url(#pa349ad9768)">
     <use style="fill:#1a1a1a;" x="282.403443" xlink:href="#C1_0_a2ed4dbbec" y="141.101536"/>
    </g>
    <g clip-path="url(#pa349ad9768)">
     <use style="fill:#1a1a1a;" x="279.726094" xlink:href="#C1_0_a2ed4dbbec" y="138.510464"/>
    </g>
    <g clip-path="url(#pa349ad9768)">
     <use style="fill:#1a1a1a;" x="276.638912" xlink:href="#C1_0_a2ed4dbbec" y="137.914326"/>
    </g>
    <g clip-path="url(#pa349ad9768)">
     <use style="fill:#1a1a1a;" x="279.726094" xlink:href="#C1_0_a2ed4dbbec" y="134.44091"/>
    </g>
    <g clip-path="url(#pa349ad9768)">
     <use style="fill:#1a1a1a;" x="279.600517" xlink:href="#C1_0_a2ed4dbbec" y="131.443295"/>
    </g>
    <g clip-path="url(#pa349ad9768)">
     <use style="fill:#1a1a1a;" x="282.583348" xlink:href="#C1_0_a2ed4dbbec" y="130.478981"/>
    </g>
    <g clip-path="url(#pa349ad9768)">
     <use style="fill:#1a1a1a;" x="276.772478" xlink:href="#C1_0_a2ed4dbbec" y="130.122024"/>
    </g>
    <g clip-path="url(#pa349ad9768)">
     <use style="fill:#1a1a1a;" x="279.726094" xlink:href="#C1_0_a2ed4dbbec" y="127.291606"/>
    </g>
    <g clip-path="url(#pa349ad9768)">
     <use style="fill:#1a1a1a;" x="276.81815" xlink:href="#C1_0_a2ed4dbbec" y="126.138335"/>
    </g>
    <g clip-path="url(#pa349ad9768)">
     <use style="fill:#1a1a1a;" x="282.32716" xlink:href="#C1_0_a2ed4dbbec" y="125.599432"/>
    </g>
    <g clip-path="url(#pa349ad9768)">
     <use style="fill:#1a1a1a;" x="279.726094" xlink:href="#C1_0_a2ed4dbbec" y="122.997373"/>
    </g>
    <g clip-path="url(#pa349ad9768)">
     <use style="fill:#1a1a1a;" x="276.752472" xlink:href="#C1_0_a2ed4dbbec" y="122.007596"/>
    </g>
    <g clip-path="url(#pa349ad9768)">
     <use style="fill:#1a1a1a;" x="279.726094" xlink:href="#C1_0_a2ed4dbbec" y="116.458229"/>
    </g>
    <g clip-path="url(#pa349ad9768)">
     <use style="fill:#1a1a1a;" x="276.644068" xlink:href="#C1_0_a2ed4dbbec" y="115.838362"/>
    </g>
    <g clip-path="url(#pa349ad9768)">
     <use style="fill:#1a1a1a;" x="282.149793" xlink:href="#C1_0_a2ed4dbbec" y="114.542029"/>
    </g>
    <g clip-path="url(#pa349ad9768)">
     <use style="fill:#1a1a1a;" x="279.321327" xlink:href="#C1_0_a2ed4dbbec" y="113.221586"/>
    </g>
    <g clip-path="url(#pa349ad9768)">
     <use style="fill:#1a1a1a;" x="279.726094" xlink:href="#C1_0_a2ed4dbbec" y="101.227687"/>
    </g>
    <g clip-path="url(#pa349ad9768)">
     <use style="fill:#1a1a1a;" x="279.726094" xlink:href="#C1_0_a2ed4dbbec" y="95.583546"/>
    </g>
    <g clip-path="url(#pa349ad9768)">
     <use style="fill:#1a1a1a;" x="277.134679" xlink:href="#C1_0_a2ed4dbbec" y="93.877995"/>
    </g>
    <g clip-path="url(#pa349ad9768)">
     <use style="fill:#1a1a1a;" x="279.726094" xlink:href="#C1_0_a2ed4dbbec" y="90.595559"/>
    </g>
    <g clip-path="url(#pa349ad9768)">
     <use style="fill:#1a1a1a;" x="279.726094" xlink:href="#C1_0_a2ed4dbbec" y="86.052872"/>
    </g>
    <g clip-path="url(#pa349ad9768)">
     <use style="fill:#1a1a1a;" x="276.589615" xlink:href="#C1_0_a2ed4dbbec" y="85.77521"/>
    </g>
    <g clip-path="url(#pa349ad9768)">
     <use style="fill:#1a1a1a;" x="282.588556" xlink:href="#C1_0_a2ed4dbbec" y="84.800642"/>
    </g>
    <g clip-path="url(#pa349ad9768)">
     <use style="fill:#1a1a1a;" x="285.730351" xlink:href="#C1_0_a2ed4dbbec" y="84.584244"/>
    </g>
    <g clip-path="url(#pa349ad9768)">
     <use style="fill:#1a1a1a;" x="279.726094" xlink:href="#C1_0_a2ed4dbbec" y="79.725161"/>
    </g>
    <g clip-path="url(#pa349ad9768)">
     <use style="fill:#1a1a1a;" x="279.726094" xlink:href="#C1_0_a2ed4dbbec" y="72.853998"/>
    </g>
    <g clip-path="url(#pa349ad9768)">
     <use style="fill:#1a1a1a;" x="279.726094" xlink:href="#C1_0_a2ed4dbbec" y="59.121074"/>
    </g>
   </g>
  </g>
 </g>
 <defs>
  <clipPath id="pa349ad9768">
   <rect height="314.533125" width="306.08" x="50.166094" y="7.2"/>
  </clipPath>
 </defs>
</svg>
