<?xml version="1.0" encoding="utf-8" standalone="no"?>
<!DOCTYPE svg PUBLIC "-//W3C//DTD SVG 1.1//EN"
  "http://www.w3.org/Graphics/SVG/1.1/DTD/svg11.dtd">
<svg height="363.730312pt" version="1.1" viewBox="0 0 363.438125 363.730312" width="363.438125pt" xmlns="http://www.w3.org/2000/svg" xmlns:xlink="http://www.w3.org/1999/xlink">
 <metadata>
  <rdf:RDF xmlns:cc="http://creativecommons.org/ns#" xmlns:dc="http://purl.org/dc/elements/1.1/" xmlns:rdf="http://www.w3.org/1999/02/22-rdf-syntax-ns#">
   <cc:Work>
    <dc:type rdf:resource="http://purl.org/dc/dcmitype/StillImage"/>
    <dc:date>2021-08-17T00:16:45.779851</dc:date>
    <dc:format>image/svg+xml</dc:format>
    <dc:creator>
     <cc:Agent>
      <dc:title>Matplotlib v3.4.2, https://matplotlib.org/</dc:title>
     </cc:Agent>
    </dc:creator>
   </cc:Work>
  </rdf:RDF>
 </metadata>
 <defs>
  <style type="text/css">*{stroke-linecap:butt;stroke-linejoin:round;}</style>
 </defs>
 <g id="figure_1">
  <g id="patch_1">
   <path d="M 0 363.730312 
L 363.438125 363.730312 
L 363.438125 0 
L 0 0 
z
" style="fill:#ffffff;"/>
  </g>
  <g id="axes_1">
   <g id="patch_2">
    <path d="M 56.283125 321.733125 
L 356.238125 321.733125 
L 356.238125 7.2 
L 56.283125 7.2 
z
" style="fill:#eaeaf2;"/>
   </g>
   <g id="matplotlib.axis_1">
    <g id="xtick_1">
     <g id="text_1">
      <!-- PrototypeCMR -->
      <g style="fill:#262626;" transform="translate(95.206484 339.240781)scale(0.11 -0.11)">
       <defs>
        <path d="M 494 0 
L 494 4581 
L 2222 4581 
Q 2678 4581 2919 4538 
Q 3256 4481 3484 4323 
Q 3713 4166 3852 3881 
Q 3991 3597 3991 3256 
Q 3991 2672 3619 2267 
Q 3247 1863 2275 1863 
L 1100 1863 
L 1100 0 
L 494 0 
z
M 1100 2403 
L 2284 2403 
Q 2872 2403 3119 2622 
Q 3366 2841 3366 3238 
Q 3366 3525 3220 3729 
Q 3075 3934 2838 4000 
Q 2684 4041 2272 4041 
L 1100 4041 
L 1100 2403 
z
" id="ArialMT-50" transform="scale(0.015625)"/>
        <path d="M 416 0 
L 416 3319 
L 922 3319 
L 922 2816 
Q 1116 3169 1280 3281 
Q 1444 3394 1641 3394 
Q 1925 3394 2219 3213 
L 2025 2691 
Q 1819 2813 1613 2813 
Q 1428 2813 1281 2702 
Q 1134 2591 1072 2394 
Q 978 2094 978 1738 
L 978 0 
L 416 0 
z
" id="ArialMT-72" transform="scale(0.015625)"/>
        <path d="M 213 1659 
Q 213 2581 725 3025 
Q 1153 3394 1769 3394 
Q 2453 3394 2887 2945 
Q 3322 2497 3322 1706 
Q 3322 1066 3130 698 
Q 2938 331 2570 128 
Q 2203 -75 1769 -75 
Q 1072 -75 642 372 
Q 213 819 213 1659 
z
M 791 1659 
Q 791 1022 1069 705 
Q 1347 388 1769 388 
Q 2188 388 2466 706 
Q 2744 1025 2744 1678 
Q 2744 2294 2464 2611 
Q 2184 2928 1769 2928 
Q 1347 2928 1069 2612 
Q 791 2297 791 1659 
z
" id="ArialMT-6f" transform="scale(0.015625)"/>
        <path d="M 1650 503 
L 1731 6 
Q 1494 -44 1306 -44 
Q 1000 -44 831 53 
Q 663 150 594 308 
Q 525 466 525 972 
L 525 2881 
L 113 2881 
L 113 3319 
L 525 3319 
L 525 4141 
L 1084 4478 
L 1084 3319 
L 1650 3319 
L 1650 2881 
L 1084 2881 
L 1084 941 
Q 1084 700 1114 631 
Q 1144 563 1211 522 
Q 1278 481 1403 481 
Q 1497 481 1650 503 
z
" id="ArialMT-74" transform="scale(0.015625)"/>
        <path d="M 397 -1278 
L 334 -750 
Q 519 -800 656 -800 
Q 844 -800 956 -737 
Q 1069 -675 1141 -563 
Q 1194 -478 1313 -144 
Q 1328 -97 1363 -6 
L 103 3319 
L 709 3319 
L 1400 1397 
Q 1534 1031 1641 628 
Q 1738 1016 1872 1384 
L 2581 3319 
L 3144 3319 
L 1881 -56 
Q 1678 -603 1566 -809 
Q 1416 -1088 1222 -1217 
Q 1028 -1347 759 -1347 
Q 597 -1347 397 -1278 
z
" id="ArialMT-79" transform="scale(0.015625)"/>
        <path d="M 422 -1272 
L 422 3319 
L 934 3319 
L 934 2888 
Q 1116 3141 1344 3267 
Q 1572 3394 1897 3394 
Q 2322 3394 2647 3175 
Q 2972 2956 3137 2557 
Q 3303 2159 3303 1684 
Q 3303 1175 3120 767 
Q 2938 359 2589 142 
Q 2241 -75 1856 -75 
Q 1575 -75 1351 44 
Q 1128 163 984 344 
L 984 -1272 
L 422 -1272 
z
M 931 1641 
Q 931 1000 1190 694 
Q 1450 388 1819 388 
Q 2194 388 2461 705 
Q 2728 1022 2728 1688 
Q 2728 2322 2467 2637 
Q 2206 2953 1844 2953 
Q 1484 2953 1207 2617 
Q 931 2281 931 1641 
z
" id="ArialMT-70" transform="scale(0.015625)"/>
        <path d="M 2694 1069 
L 3275 997 
Q 3138 488 2766 206 
Q 2394 -75 1816 -75 
Q 1088 -75 661 373 
Q 234 822 234 1631 
Q 234 2469 665 2931 
Q 1097 3394 1784 3394 
Q 2450 3394 2872 2941 
Q 3294 2488 3294 1666 
Q 3294 1616 3291 1516 
L 816 1516 
Q 847 969 1125 678 
Q 1403 388 1819 388 
Q 2128 388 2347 550 
Q 2566 713 2694 1069 
z
M 847 1978 
L 2700 1978 
Q 2663 2397 2488 2606 
Q 2219 2931 1791 2931 
Q 1403 2931 1139 2672 
Q 875 2413 847 1978 
z
" id="ArialMT-65" transform="scale(0.015625)"/>
        <path d="M 3763 1606 
L 4369 1453 
Q 4178 706 3683 314 
Q 3188 -78 2472 -78 
Q 1731 -78 1267 223 
Q 803 525 561 1097 
Q 319 1669 319 2325 
Q 319 3041 592 3573 
Q 866 4106 1370 4382 
Q 1875 4659 2481 4659 
Q 3169 4659 3637 4309 
Q 4106 3959 4291 3325 
L 3694 3184 
Q 3534 3684 3231 3912 
Q 2928 4141 2469 4141 
Q 1941 4141 1586 3887 
Q 1231 3634 1087 3207 
Q 944 2781 944 2328 
Q 944 1744 1114 1308 
Q 1284 872 1643 656 
Q 2003 441 2422 441 
Q 2931 441 3284 734 
Q 3638 1028 3763 1606 
z
" id="ArialMT-43" transform="scale(0.015625)"/>
        <path d="M 475 0 
L 475 4581 
L 1388 4581 
L 2472 1338 
Q 2622 884 2691 659 
Q 2769 909 2934 1394 
L 4031 4581 
L 4847 4581 
L 4847 0 
L 4263 0 
L 4263 3834 
L 2931 0 
L 2384 0 
L 1059 3900 
L 1059 0 
L 475 0 
z
" id="ArialMT-4d" transform="scale(0.015625)"/>
        <path d="M 503 0 
L 503 4581 
L 2534 4581 
Q 3147 4581 3465 4457 
Q 3784 4334 3975 4021 
Q 4166 3709 4166 3331 
Q 4166 2844 3850 2509 
Q 3534 2175 2875 2084 
Q 3116 1969 3241 1856 
Q 3506 1613 3744 1247 
L 4541 0 
L 3778 0 
L 3172 953 
Q 2906 1366 2734 1584 
Q 2563 1803 2427 1890 
Q 2291 1978 2150 2013 
Q 2047 2034 1813 2034 
L 1109 2034 
L 1109 0 
L 503 0 
z
M 1109 2559 
L 2413 2559 
Q 2828 2559 3062 2645 
Q 3297 2731 3419 2920 
Q 3541 3109 3541 3331 
Q 3541 3656 3305 3865 
Q 3069 4075 2559 4075 
L 1109 4075 
L 1109 2559 
z
" id="ArialMT-52" transform="scale(0.015625)"/>
       </defs>
       <use xlink:href="#ArialMT-50"/>
       <use x="66.699219" xlink:href="#ArialMT-72"/>
       <use x="100" xlink:href="#ArialMT-6f"/>
       <use x="155.615234" xlink:href="#ArialMT-74"/>
       <use x="183.398438" xlink:href="#ArialMT-6f"/>
       <use x="239.013672" xlink:href="#ArialMT-74"/>
       <use x="266.796875" xlink:href="#ArialMT-79"/>
       <use x="316.796875" xlink:href="#ArialMT-70"/>
       <use x="372.412109" xlink:href="#ArialMT-65"/>
       <use x="428.027344" xlink:href="#ArialMT-43"/>
       <use x="500.244141" xlink:href="#ArialMT-4d"/>
       <use x="583.544922" xlink:href="#ArialMT-52"/>
      </g>
     </g>
    </g>
    <g id="xtick_2">
     <g id="text_2">
      <!-- InstanceCMR -->
      <g style="fill:#262626;" transform="translate(247.933984 339.106719)scale(0.11 -0.11)">
       <defs>
        <path d="M 597 0 
L 597 4581 
L 1203 4581 
L 1203 0 
L 597 0 
z
" id="ArialMT-49" transform="scale(0.015625)"/>
        <path d="M 422 0 
L 422 3319 
L 928 3319 
L 928 2847 
Q 1294 3394 1984 3394 
Q 2284 3394 2536 3286 
Q 2788 3178 2913 3003 
Q 3038 2828 3088 2588 
Q 3119 2431 3119 2041 
L 3119 0 
L 2556 0 
L 2556 2019 
Q 2556 2363 2490 2533 
Q 2425 2703 2258 2804 
Q 2091 2906 1866 2906 
Q 1506 2906 1245 2678 
Q 984 2450 984 1813 
L 984 0 
L 422 0 
z
" id="ArialMT-6e" transform="scale(0.015625)"/>
        <path d="M 197 991 
L 753 1078 
Q 800 744 1014 566 
Q 1228 388 1613 388 
Q 2000 388 2187 545 
Q 2375 703 2375 916 
Q 2375 1106 2209 1216 
Q 2094 1291 1634 1406 
Q 1016 1563 777 1677 
Q 538 1791 414 1992 
Q 291 2194 291 2438 
Q 291 2659 392 2848 
Q 494 3038 669 3163 
Q 800 3259 1026 3326 
Q 1253 3394 1513 3394 
Q 1903 3394 2198 3281 
Q 2494 3169 2634 2976 
Q 2775 2784 2828 2463 
L 2278 2388 
Q 2241 2644 2061 2787 
Q 1881 2931 1553 2931 
Q 1166 2931 1000 2803 
Q 834 2675 834 2503 
Q 834 2394 903 2306 
Q 972 2216 1119 2156 
Q 1203 2125 1616 2013 
Q 2213 1853 2448 1751 
Q 2684 1650 2818 1456 
Q 2953 1263 2953 975 
Q 2953 694 2789 445 
Q 2625 197 2315 61 
Q 2006 -75 1616 -75 
Q 969 -75 630 194 
Q 291 463 197 991 
z
" id="ArialMT-73" transform="scale(0.015625)"/>
        <path d="M 2588 409 
Q 2275 144 1986 34 
Q 1697 -75 1366 -75 
Q 819 -75 525 192 
Q 231 459 231 875 
Q 231 1119 342 1320 
Q 453 1522 633 1644 
Q 813 1766 1038 1828 
Q 1203 1872 1538 1913 
Q 2219 1994 2541 2106 
Q 2544 2222 2544 2253 
Q 2544 2597 2384 2738 
Q 2169 2928 1744 2928 
Q 1347 2928 1158 2789 
Q 969 2650 878 2297 
L 328 2372 
Q 403 2725 575 2942 
Q 747 3159 1072 3276 
Q 1397 3394 1825 3394 
Q 2250 3394 2515 3294 
Q 2781 3194 2906 3042 
Q 3031 2891 3081 2659 
Q 3109 2516 3109 2141 
L 3109 1391 
Q 3109 606 3145 398 
Q 3181 191 3288 0 
L 2700 0 
Q 2613 175 2588 409 
z
M 2541 1666 
Q 2234 1541 1622 1453 
Q 1275 1403 1131 1340 
Q 988 1278 909 1158 
Q 831 1038 831 891 
Q 831 666 1001 516 
Q 1172 366 1500 366 
Q 1825 366 2078 508 
Q 2331 650 2450 897 
Q 2541 1088 2541 1459 
L 2541 1666 
z
" id="ArialMT-61" transform="scale(0.015625)"/>
        <path d="M 2588 1216 
L 3141 1144 
Q 3050 572 2676 248 
Q 2303 -75 1759 -75 
Q 1078 -75 664 370 
Q 250 816 250 1647 
Q 250 2184 428 2587 
Q 606 2991 970 3192 
Q 1334 3394 1763 3394 
Q 2303 3394 2647 3120 
Q 2991 2847 3088 2344 
L 2541 2259 
Q 2463 2594 2264 2762 
Q 2066 2931 1784 2931 
Q 1359 2931 1093 2626 
Q 828 2322 828 1663 
Q 828 994 1084 691 
Q 1341 388 1753 388 
Q 2084 388 2306 591 
Q 2528 794 2588 1216 
z
" id="ArialMT-63" transform="scale(0.015625)"/>
       </defs>
       <use xlink:href="#ArialMT-49"/>
       <use x="27.783203" xlink:href="#ArialMT-6e"/>
       <use x="83.398438" xlink:href="#ArialMT-73"/>
       <use x="133.398438" xlink:href="#ArialMT-74"/>
       <use x="161.181641" xlink:href="#ArialMT-61"/>
       <use x="216.796875" xlink:href="#ArialMT-6e"/>
       <use x="272.412109" xlink:href="#ArialMT-63"/>
       <use x="322.412109" xlink:href="#ArialMT-65"/>
       <use x="378.027344" xlink:href="#ArialMT-43"/>
       <use x="450.244141" xlink:href="#ArialMT-4d"/>
       <use x="533.544922" xlink:href="#ArialMT-52"/>
      </g>
     </g>
    </g>
    <g id="text_3">
     <!-- Model -->
     <g style="fill:#262626;" transform="translate(189.92 354.145312)scale(0.12 -0.12)">
      <defs>
       <path d="M 2575 0 
L 2575 419 
Q 2259 -75 1647 -75 
Q 1250 -75 917 144 
Q 584 363 401 755 
Q 219 1147 219 1656 
Q 219 2153 384 2558 
Q 550 2963 881 3178 
Q 1213 3394 1622 3394 
Q 1922 3394 2156 3267 
Q 2391 3141 2538 2938 
L 2538 4581 
L 3097 4581 
L 3097 0 
L 2575 0 
z
M 797 1656 
Q 797 1019 1065 703 
Q 1334 388 1700 388 
Q 2069 388 2326 689 
Q 2584 991 2584 1609 
Q 2584 2291 2321 2609 
Q 2059 2928 1675 2928 
Q 1300 2928 1048 2622 
Q 797 2316 797 1656 
z
" id="ArialMT-64" transform="scale(0.015625)"/>
       <path d="M 409 0 
L 409 4581 
L 972 4581 
L 972 0 
L 409 0 
z
" id="ArialMT-6c" transform="scale(0.015625)"/>
      </defs>
      <use xlink:href="#ArialMT-4d"/>
      <use x="83.300781" xlink:href="#ArialMT-6f"/>
      <use x="138.916016" xlink:href="#ArialMT-64"/>
      <use x="194.53125" xlink:href="#ArialMT-65"/>
      <use x="250.146484" xlink:href="#ArialMT-6c"/>
     </g>
    </g>
   </g>
   <g id="matplotlib.axis_2">
    <g id="ytick_1">
     <g id="line2d_1">
      <path clip-path="url(#p5f6a2c05e1)" d="M 56.283125 293.286223 
L 356.238125 293.286223 
" style="fill:none;stroke:#ffffff;stroke-linecap:round;"/>
     </g>
     <g id="text_4">
      <!-- 4000 -->
      <g style="fill:#262626;" transform="translate(22.315 297.223019)scale(0.11 -0.11)">
       <defs>
        <path d="M 2069 0 
L 2069 1097 
L 81 1097 
L 81 1613 
L 2172 4581 
L 2631 4581 
L 2631 1613 
L 3250 1613 
L 3250 1097 
L 2631 1097 
L 2631 0 
L 2069 0 
z
M 2069 1613 
L 2069 3678 
L 634 1613 
L 2069 1613 
z
" id="ArialMT-34" transform="scale(0.015625)"/>
        <path d="M 266 2259 
Q 266 3072 433 3567 
Q 600 4063 929 4331 
Q 1259 4600 1759 4600 
Q 2128 4600 2406 4451 
Q 2684 4303 2865 4023 
Q 3047 3744 3150 3342 
Q 3253 2941 3253 2259 
Q 3253 1453 3087 958 
Q 2922 463 2592 192 
Q 2263 -78 1759 -78 
Q 1097 -78 719 397 
Q 266 969 266 2259 
z
M 844 2259 
Q 844 1131 1108 757 
Q 1372 384 1759 384 
Q 2147 384 2411 759 
Q 2675 1134 2675 2259 
Q 2675 3391 2411 3762 
Q 2147 4134 1753 4134 
Q 1366 4134 1134 3806 
Q 844 3388 844 2259 
z
" id="ArialMT-30" transform="scale(0.015625)"/>
       </defs>
       <use xlink:href="#ArialMT-34"/>
       <use x="55.615234" xlink:href="#ArialMT-30"/>
       <use x="111.230469" xlink:href="#ArialMT-30"/>
       <use x="166.845703" xlink:href="#ArialMT-30"/>
      </g>
     </g>
    </g>
    <g id="ytick_2">
     <g id="line2d_2">
      <path clip-path="url(#p5f6a2c05e1)" d="M 56.283125 248.404912 
L 356.238125 248.404912 
" style="fill:none;stroke:#ffffff;stroke-linecap:round;"/>
     </g>
     <g id="text_5">
      <!-- 4500 -->
      <g style="fill:#262626;" transform="translate(22.315 252.341709)scale(0.11 -0.11)">
       <defs>
        <path d="M 266 1200 
L 856 1250 
Q 922 819 1161 601 
Q 1400 384 1738 384 
Q 2144 384 2425 690 
Q 2706 997 2706 1503 
Q 2706 1984 2436 2262 
Q 2166 2541 1728 2541 
Q 1456 2541 1237 2417 
Q 1019 2294 894 2097 
L 366 2166 
L 809 4519 
L 3088 4519 
L 3088 3981 
L 1259 3981 
L 1013 2750 
Q 1425 3038 1878 3038 
Q 2478 3038 2890 2622 
Q 3303 2206 3303 1553 
Q 3303 931 2941 478 
Q 2500 -78 1738 -78 
Q 1113 -78 717 272 
Q 322 622 266 1200 
z
" id="ArialMT-35" transform="scale(0.015625)"/>
       </defs>
       <use xlink:href="#ArialMT-34"/>
       <use x="55.615234" xlink:href="#ArialMT-35"/>
       <use x="111.230469" xlink:href="#ArialMT-30"/>
       <use x="166.845703" xlink:href="#ArialMT-30"/>
      </g>
     </g>
    </g>
    <g id="ytick_3">
     <g id="line2d_3">
      <path clip-path="url(#p5f6a2c05e1)" d="M 56.283125 203.523602 
L 356.238125 203.523602 
" style="fill:none;stroke:#ffffff;stroke-linecap:round;"/>
     </g>
     <g id="text_6">
      <!-- 5000 -->
      <g style="fill:#262626;" transform="translate(22.315 207.460399)scale(0.11 -0.11)">
       <use xlink:href="#ArialMT-35"/>
       <use x="55.615234" xlink:href="#ArialMT-30"/>
       <use x="111.230469" xlink:href="#ArialMT-30"/>
       <use x="166.845703" xlink:href="#ArialMT-30"/>
      </g>
     </g>
    </g>
    <g id="ytick_4">
     <g id="line2d_4">
      <path clip-path="url(#p5f6a2c05e1)" d="M 56.283125 158.642292 
L 356.238125 158.642292 
" style="fill:none;stroke:#ffffff;stroke-linecap:round;"/>
     </g>
     <g id="text_7">
      <!-- 5500 -->
      <g style="fill:#262626;" transform="translate(22.315 162.579088)scale(0.11 -0.11)">
       <use xlink:href="#ArialMT-35"/>
       <use x="55.615234" xlink:href="#ArialMT-35"/>
       <use x="111.230469" xlink:href="#ArialMT-30"/>
       <use x="166.845703" xlink:href="#ArialMT-30"/>
      </g>
     </g>
    </g>
    <g id="ytick_5">
     <g id="line2d_5">
      <path clip-path="url(#p5f6a2c05e1)" d="M 56.283125 113.760981 
L 356.238125 113.760981 
" style="fill:none;stroke:#ffffff;stroke-linecap:round;"/>
     </g>
     <g id="text_8">
      <!-- 6000 -->
      <g style="fill:#262626;" transform="translate(22.315 117.697778)scale(0.11 -0.11)">
       <defs>
        <path d="M 3184 3459 
L 2625 3416 
Q 2550 3747 2413 3897 
Q 2184 4138 1850 4138 
Q 1581 4138 1378 3988 
Q 1113 3794 959 3422 
Q 806 3050 800 2363 
Q 1003 2672 1297 2822 
Q 1591 2972 1913 2972 
Q 2475 2972 2870 2558 
Q 3266 2144 3266 1488 
Q 3266 1056 3080 686 
Q 2894 316 2569 119 
Q 2244 -78 1831 -78 
Q 1128 -78 684 439 
Q 241 956 241 2144 
Q 241 3472 731 4075 
Q 1159 4600 1884 4600 
Q 2425 4600 2770 4297 
Q 3116 3994 3184 3459 
z
M 888 1484 
Q 888 1194 1011 928 
Q 1134 663 1356 523 
Q 1578 384 1822 384 
Q 2178 384 2434 671 
Q 2691 959 2691 1453 
Q 2691 1928 2437 2201 
Q 2184 2475 1800 2475 
Q 1419 2475 1153 2201 
Q 888 1928 888 1484 
z
" id="ArialMT-36" transform="scale(0.015625)"/>
       </defs>
       <use xlink:href="#ArialMT-36"/>
       <use x="55.615234" xlink:href="#ArialMT-30"/>
       <use x="111.230469" xlink:href="#ArialMT-30"/>
       <use x="166.845703" xlink:href="#ArialMT-30"/>
      </g>
     </g>
    </g>
    <g id="ytick_6">
     <g id="line2d_6">
      <path clip-path="url(#p5f6a2c05e1)" d="M 56.283125 68.879671 
L 356.238125 68.879671 
" style="fill:none;stroke:#ffffff;stroke-linecap:round;"/>
     </g>
     <g id="text_9">
      <!-- 6500 -->
      <g style="fill:#262626;" transform="translate(22.315 72.816468)scale(0.11 -0.11)">
       <use xlink:href="#ArialMT-36"/>
       <use x="55.615234" xlink:href="#ArialMT-35"/>
       <use x="111.230469" xlink:href="#ArialMT-30"/>
       <use x="166.845703" xlink:href="#ArialMT-30"/>
      </g>
     </g>
    </g>
    <g id="ytick_7">
     <g id="line2d_7">
      <path clip-path="url(#p5f6a2c05e1)" d="M 56.283125 23.998361 
L 356.238125 23.998361 
" style="fill:none;stroke:#ffffff;stroke-linecap:round;"/>
     </g>
     <g id="text_10">
      <!-- 7000 -->
      <g style="fill:#262626;" transform="translate(22.315 27.935158)scale(0.11 -0.11)">
       <defs>
        <path d="M 303 3981 
L 303 4522 
L 3269 4522 
L 3269 4084 
Q 2831 3619 2401 2847 
Q 1972 2075 1738 1259 
Q 1569 684 1522 0 
L 944 0 
Q 953 541 1156 1306 
Q 1359 2072 1739 2783 
Q 2119 3494 2547 3981 
L 303 3981 
z
" id="ArialMT-37" transform="scale(0.015625)"/>
       </defs>
       <use xlink:href="#ArialMT-37"/>
       <use x="55.615234" xlink:href="#ArialMT-30"/>
       <use x="111.230469" xlink:href="#ArialMT-30"/>
       <use x="166.845703" xlink:href="#ArialMT-30"/>
      </g>
     </g>
    </g>
    <g id="text_11">
     <!-- Individual-Level Fitted Model Log-Likelihoods -->
     <g style="fill:#262626;" transform="translate(15.789375 284.528437)rotate(-90)scale(0.12 -0.12)">
      <defs>
       <path d="M 425 3934 
L 425 4581 
L 988 4581 
L 988 3934 
L 425 3934 
z
M 425 0 
L 425 3319 
L 988 3319 
L 988 0 
L 425 0 
z
" id="ArialMT-69" transform="scale(0.015625)"/>
       <path d="M 1344 0 
L 81 3319 
L 675 3319 
L 1388 1331 
Q 1503 1009 1600 663 
Q 1675 925 1809 1294 
L 2547 3319 
L 3125 3319 
L 1869 0 
L 1344 0 
z
" id="ArialMT-76" transform="scale(0.015625)"/>
       <path d="M 2597 0 
L 2597 488 
Q 2209 -75 1544 -75 
Q 1250 -75 995 37 
Q 741 150 617 320 
Q 494 491 444 738 
Q 409 903 409 1263 
L 409 3319 
L 972 3319 
L 972 1478 
Q 972 1038 1006 884 
Q 1059 663 1231 536 
Q 1403 409 1656 409 
Q 1909 409 2131 539 
Q 2353 669 2445 892 
Q 2538 1116 2538 1541 
L 2538 3319 
L 3100 3319 
L 3100 0 
L 2597 0 
z
" id="ArialMT-75" transform="scale(0.015625)"/>
       <path d="M 203 1375 
L 203 1941 
L 1931 1941 
L 1931 1375 
L 203 1375 
z
" id="ArialMT-2d" transform="scale(0.015625)"/>
       <path d="M 469 0 
L 469 4581 
L 1075 4581 
L 1075 541 
L 3331 541 
L 3331 0 
L 469 0 
z
" id="ArialMT-4c" transform="scale(0.015625)"/>
       <path id="ArialMT-20" transform="scale(0.015625)"/>
       <path d="M 525 0 
L 525 4581 
L 3616 4581 
L 3616 4041 
L 1131 4041 
L 1131 2622 
L 3281 2622 
L 3281 2081 
L 1131 2081 
L 1131 0 
L 525 0 
z
" id="ArialMT-46" transform="scale(0.015625)"/>
       <path d="M 319 -275 
L 866 -356 
Q 900 -609 1056 -725 
Q 1266 -881 1628 -881 
Q 2019 -881 2231 -725 
Q 2444 -569 2519 -288 
Q 2563 -116 2559 434 
Q 2191 0 1641 0 
Q 956 0 581 494 
Q 206 988 206 1678 
Q 206 2153 378 2554 
Q 550 2956 876 3175 
Q 1203 3394 1644 3394 
Q 2231 3394 2613 2919 
L 2613 3319 
L 3131 3319 
L 3131 450 
Q 3131 -325 2973 -648 
Q 2816 -972 2473 -1159 
Q 2131 -1347 1631 -1347 
Q 1038 -1347 672 -1080 
Q 306 -813 319 -275 
z
M 784 1719 
Q 784 1066 1043 766 
Q 1303 466 1694 466 
Q 2081 466 2343 764 
Q 2606 1063 2606 1700 
Q 2606 2309 2336 2618 
Q 2066 2928 1684 2928 
Q 1309 2928 1046 2623 
Q 784 2319 784 1719 
z
" id="ArialMT-67" transform="scale(0.015625)"/>
       <path d="M 425 0 
L 425 4581 
L 988 4581 
L 988 1969 
L 2319 3319 
L 3047 3319 
L 1778 2088 
L 3175 0 
L 2481 0 
L 1384 1697 
L 988 1316 
L 988 0 
L 425 0 
z
" id="ArialMT-6b" transform="scale(0.015625)"/>
       <path d="M 422 0 
L 422 4581 
L 984 4581 
L 984 2938 
Q 1378 3394 1978 3394 
Q 2347 3394 2619 3248 
Q 2891 3103 3008 2847 
Q 3125 2591 3125 2103 
L 3125 0 
L 2563 0 
L 2563 2103 
Q 2563 2525 2380 2717 
Q 2197 2909 1863 2909 
Q 1613 2909 1392 2779 
Q 1172 2650 1078 2428 
Q 984 2206 984 1816 
L 984 0 
L 422 0 
z
" id="ArialMT-68" transform="scale(0.015625)"/>
      </defs>
      <use xlink:href="#ArialMT-49"/>
      <use x="27.783203" xlink:href="#ArialMT-6e"/>
      <use x="83.398438" xlink:href="#ArialMT-64"/>
      <use x="139.013672" xlink:href="#ArialMT-69"/>
      <use x="161.230469" xlink:href="#ArialMT-76"/>
      <use x="211.230469" xlink:href="#ArialMT-69"/>
      <use x="233.447266" xlink:href="#ArialMT-64"/>
      <use x="289.0625" xlink:href="#ArialMT-75"/>
      <use x="344.677734" xlink:href="#ArialMT-61"/>
      <use x="400.292969" xlink:href="#ArialMT-6c"/>
      <use x="422.509766" xlink:href="#ArialMT-2d"/>
      <use x="455.810547" xlink:href="#ArialMT-4c"/>
      <use x="511.425781" xlink:href="#ArialMT-65"/>
      <use x="567.041016" xlink:href="#ArialMT-76"/>
      <use x="617.041016" xlink:href="#ArialMT-65"/>
      <use x="672.65625" xlink:href="#ArialMT-6c"/>
      <use x="694.873047" xlink:href="#ArialMT-20"/>
      <use x="722.65625" xlink:href="#ArialMT-46"/>
      <use x="783.740234" xlink:href="#ArialMT-69"/>
      <use x="805.957031" xlink:href="#ArialMT-74"/>
      <use x="833.740234" xlink:href="#ArialMT-74"/>
      <use x="861.523438" xlink:href="#ArialMT-65"/>
      <use x="917.138672" xlink:href="#ArialMT-64"/>
      <use x="972.753906" xlink:href="#ArialMT-20"/>
      <use x="1000.537109" xlink:href="#ArialMT-4d"/>
      <use x="1083.837891" xlink:href="#ArialMT-6f"/>
      <use x="1139.453125" xlink:href="#ArialMT-64"/>
      <use x="1195.068359" xlink:href="#ArialMT-65"/>
      <use x="1250.683594" xlink:href="#ArialMT-6c"/>
      <use x="1272.900391" xlink:href="#ArialMT-20"/>
      <use x="1300.683594" xlink:href="#ArialMT-4c"/>
      <use x="1356.298828" xlink:href="#ArialMT-6f"/>
      <use x="1411.914062" xlink:href="#ArialMT-67"/>
      <use x="1467.529297" xlink:href="#ArialMT-2d"/>
      <use x="1500.830078" xlink:href="#ArialMT-4c"/>
      <use x="1556.445312" xlink:href="#ArialMT-69"/>
      <use x="1578.662109" xlink:href="#ArialMT-6b"/>
      <use x="1628.662109" xlink:href="#ArialMT-65"/>
      <use x="1684.277344" xlink:href="#ArialMT-6c"/>
      <use x="1706.494141" xlink:href="#ArialMT-69"/>
      <use x="1728.710938" xlink:href="#ArialMT-68"/>
      <use x="1784.326172" xlink:href="#ArialMT-6f"/>
      <use x="1839.941406" xlink:href="#ArialMT-6f"/>
      <use x="1895.556641" xlink:href="#ArialMT-64"/>
      <use x="1951.171875" xlink:href="#ArialMT-73"/>
     </g>
    </g>
   </g>
   <g id="PolyCollection_1">
    <defs>
     <path d="M 133.537998 -56.297361 
L 129.005752 -56.297361 
L 128.47534 -59.185603 
L 127.852493 -62.073845 
L 127.128985 -64.962088 
L 126.297616 -67.85033 
L 125.352629 -70.738572 
L 124.290119 -73.626815 
L 123.108417 -76.515057 
L 121.808425 -79.403299 
L 120.393862 -82.291542 
L 118.871423 -85.179784 
L 117.250803 -88.068026 
L 115.54459 -90.956269 
L 113.768023 -93.844511 
L 111.938597 -96.732753 
L 110.075544 -99.620996 
L 108.199198 -102.509238 
L 106.330271 -105.39748 
L 104.489067 -108.285723 
L 102.694682 -111.173965 
L 100.964209 -114.062207 
L 99.31201 -116.95045 
L 97.749078 -119.838692 
L 96.282532 -122.726935 
L 94.915277 -125.615177 
L 93.645864 -128.503419 
L 92.468554 -131.391662 
L 91.373612 -134.279904 
L 90.347823 -137.168146 
L 89.375222 -140.056389 
L 88.438013 -142.944631 
L 87.517639 -145.832873 
L 86.595953 -148.721116 
L 85.656431 -151.609358 
L 84.685353 -154.4976 
L 83.672886 -157.385843 
L 82.613994 -160.274085 
L 81.509109 -163.162327 
L 80.364503 -166.05057 
L 79.192343 -168.938812 
L 78.010391 -171.827054 
L 76.841373 -174.715297 
L 75.712044 -177.603539 
L 74.651997 -180.491781 
L 73.692303 -183.380024 
L 72.864048 -186.268266 
L 72.196872 -189.156508 
L 71.717589 -192.044751 
L 71.448982 -194.932993 
L 71.408812 -197.821235 
L 71.609123 -200.709478 
L 72.055837 -203.59772 
L 72.748659 -206.485962 
L 73.681272 -209.374205 
L 74.841781 -212.262447 
L 76.213368 -215.150689 
L 77.775101 -218.038932 
L 79.502835 -220.927174 
L 81.370159 -223.815416 
L 83.349335 -226.703659 
L 85.412196 -229.591901 
L 87.530964 -232.480143 
L 89.678977 -235.368386 
L 91.831308 -238.256628 
L 93.965274 -241.14487 
L 96.060834 -244.033113 
L 98.100877 -246.921355 
L 100.071411 -249.809597 
L 101.961647 -252.69784 
L 103.763989 -255.586082 
L 105.473934 -258.474324 
L 107.089881 -261.362567 
L 108.612852 -264.250809 
L 110.046148 -267.139051 
L 111.394931 -270.027294 
L 112.665764 -272.915536 
L 113.866117 -275.803778 
L 115.003872 -278.692021 
L 116.086839 -281.580263 
L 117.122319 -284.468505 
L 118.116735 -287.356748 
L 119.075336 -290.24499 
L 120.002013 -293.133233 
L 120.899212 -296.021475 
L 121.767948 -298.909717 
L 122.607925 -301.79796 
L 123.417725 -304.686202 
L 124.195071 -307.574444 
L 124.937114 -310.462687 
L 125.640748 -313.350929 
L 126.302905 -316.239171 
L 126.920827 -319.127414 
L 127.492293 -322.015656 
L 128.015779 -324.903898 
L 128.49057 -327.792141 
L 128.916799 -330.680383 
L 129.295431 -333.568625 
L 129.628201 -336.456868 
L 129.91751 -339.34511 
L 130.166297 -342.233352 
L 132.377453 -342.233352 
L 132.377453 -342.233352 
L 132.62624 -339.34511 
L 132.915549 -336.456868 
L 133.248319 -333.568625 
L 133.626951 -330.680383 
L 134.05318 -327.792141 
L 134.527971 -324.903898 
L 135.051457 -322.015656 
L 135.622923 -319.127414 
L 136.240845 -316.239171 
L 136.903002 -313.350929 
L 137.606636 -310.462687 
L 138.348679 -307.574444 
L 139.126025 -304.686202 
L 139.935825 -301.79796 
L 140.775802 -298.909717 
L 141.644538 -296.021475 
L 142.541737 -293.133233 
L 143.468414 -290.24499 
L 144.427015 -287.356748 
L 145.421431 -284.468505 
L 146.456911 -281.580263 
L 147.539878 -278.692021 
L 148.677633 -275.803778 
L 149.877986 -272.915536 
L 151.148819 -270.027294 
L 152.497602 -267.139051 
L 153.930898 -264.250809 
L 155.453869 -261.362567 
L 157.069816 -258.474324 
L 158.779761 -255.586082 
L 160.582103 -252.69784 
L 162.472339 -249.809597 
L 164.442873 -246.921355 
L 166.482916 -244.033113 
L 168.578476 -241.14487 
L 170.712442 -238.256628 
L 172.864773 -235.368386 
L 175.012786 -232.480143 
L 177.131554 -229.591901 
L 179.194415 -226.703659 
L 181.173591 -223.815416 
L 183.040915 -220.927174 
L 184.768649 -218.038932 
L 186.330382 -215.150689 
L 187.701969 -212.262447 
L 188.862478 -209.374205 
L 189.795091 -206.485962 
L 190.487913 -203.59772 
L 190.934627 -200.709478 
L 191.134938 -197.821235 
L 191.094768 -194.932993 
L 190.826161 -192.044751 
L 190.346878 -189.156508 
L 189.679702 -186.268266 
L 188.851447 -183.380024 
L 187.891753 -180.491781 
L 186.831706 -177.603539 
L 185.702377 -174.715297 
L 184.533359 -171.827054 
L 183.351407 -168.938812 
L 182.179247 -166.05057 
L 181.034641 -163.162327 
L 179.929756 -160.274085 
L 178.870864 -157.385843 
L 177.858397 -154.4976 
L 176.887319 -151.609358 
L 175.947797 -148.721116 
L 175.026111 -145.832873 
L 174.105737 -142.944631 
L 173.168528 -140.056389 
L 172.195927 -137.168146 
L 171.170138 -134.279904 
L 170.075196 -131.391662 
L 168.897886 -128.503419 
L 167.628473 -125.615177 
L 166.261218 -122.726935 
L 164.794672 -119.838692 
L 163.23174 -116.95045 
L 161.579541 -114.062207 
L 159.849068 -111.173965 
L 158.054683 -108.285723 
L 156.213479 -105.39748 
L 154.344552 -102.509238 
L 152.468206 -99.620996 
L 150.605153 -96.732753 
L 148.775727 -93.844511 
L 146.99916 -90.956269 
L 145.292947 -88.068026 
L 143.672327 -85.179784 
L 142.149888 -82.291542 
L 140.735325 -79.403299 
L 139.435333 -76.515057 
L 138.253631 -73.626815 
L 137.191121 -70.738572 
L 136.246134 -67.85033 
L 135.414765 -64.962088 
L 134.691257 -62.073845 
L 134.06841 -59.185603 
L 133.537998 -56.297361 
z
" id="mfcca1ae3f7" style="stroke:#4c4c4c;stroke-width:1.5;"/>
    </defs>
    <g clip-path="url(#p5f6a2c05e1)">
     <use style="fill:#5875a4;stroke:#4c4c4c;stroke-width:1.5;" x="0" xlink:href="#mfcca1ae3f7" y="363.730312"/>
    </g>
   </g>
   <g id="PolyCollection_2">
    <defs>
     <path d="M 283.184945 -56.294148 
L 279.313805 -56.294148 
L 278.837768 -59.18076 
L 278.272432 -62.067373 
L 277.608283 -64.953986 
L 276.836494 -67.840599 
L 275.949356 -70.727211 
L 274.940752 -73.613824 
L 273.806618 -76.500437 
L 272.545387 -79.387049 
L 271.158376 -82.273662 
L 269.650087 -85.160275 
L 268.0284 -88.046888 
L 266.30462 -90.9335 
L 264.493371 -93.820113 
L 262.612322 -96.706726 
L 260.681739 -99.593338 
L 258.723869 -102.479951 
L 256.762189 -105.366564 
L 254.82053 -108.253177 
L 252.922122 -111.139789 
L 251.088617 -114.026402 
L 249.339118 -116.913015 
L 247.68929 -119.799627 
L 246.150592 -122.68624 
L 244.729689 -125.572853 
L 243.428087 -128.459466 
L 242.242018 -131.346078 
L 241.162605 -134.232691 
L 240.17632 -137.119304 
L 239.265708 -140.005916 
L 238.410368 -142.892529 
L 237.588145 -145.779142 
L 236.776465 -148.665755 
L 235.953756 -151.552367 
L 235.100862 -154.43898 
L 234.202365 -157.325593 
L 233.247744 -160.212206 
L 232.232273 -163.098818 
L 231.15761 -165.985431 
L 230.032029 -168.872044 
L 228.870268 -171.758656 
L 227.693001 -174.645269 
L 226.525968 -177.531882 
L 225.398807 -180.418495 
L 224.343665 -183.305107 
L 223.393687 -186.19172 
L 222.581458 -189.078333 
L 221.937505 -191.964945 
L 221.488952 -194.851558 
L 221.258375 -197.738171 
L 221.26294 -200.624784 
L 221.513828 -203.511396 
L 222.015976 -206.398009 
L 222.768106 -209.284622 
L 223.763014 -212.171234 
L 224.988087 -215.057847 
L 226.425982 -217.94446 
L 228.055414 -220.831073 
L 229.852021 -223.717685 
L 231.789237 -226.604298 
L 233.83915 -229.490911 
L 235.973323 -232.377523 
L 238.163546 -235.264136 
L 240.382526 -238.150749 
L 242.604492 -241.037362 
L 244.805728 -243.923974 
L 246.965024 -246.810587 
L 249.064037 -249.6972 
L 251.087576 -252.583812 
L 253.023775 -255.470425 
L 254.864171 -258.357038 
L 256.603671 -261.243651 
L 258.240401 -264.130263 
L 259.775442 -267.016876 
L 261.212462 -269.903489 
L 262.557251 -272.790101 
L 263.817195 -275.676714 
L 265.000696 -278.563327 
L 266.116597 -281.44994 
L 267.173618 -284.336552 
L 268.179853 -287.223165 
L 269.142363 -290.109778 
L 270.066856 -292.99639 
L 270.957511 -295.883003 
L 271.816911 -298.769616 
L 272.646103 -301.656229 
L 273.44476 -304.542841 
L 274.21143 -307.429454 
L 274.943839 -310.316067 
L 275.639226 -313.202679 
L 276.294674 -316.089292 
L 276.907423 -318.975905 
L 277.475135 -321.862518 
L 277.9961 -324.74913 
L 278.469376 -327.635743 
L 278.89486 -330.522356 
L 279.273296 -333.408968 
L 279.606223 -336.295581 
L 279.89588 -339.182194 
L 280.14508 -342.068807 
L 282.35367 -342.068807 
L 282.35367 -342.068807 
L 282.60287 -339.182194 
L 282.892527 -336.295581 
L 283.225454 -333.408968 
L 283.60389 -330.522356 
L 284.029374 -327.635743 
L 284.50265 -324.74913 
L 285.023615 -321.862518 
L 285.591327 -318.975905 
L 286.204076 -316.089292 
L 286.859524 -313.202679 
L 287.554911 -310.316067 
L 288.28732 -307.429454 
L 289.05399 -304.542841 
L 289.852647 -301.656229 
L 290.681839 -298.769616 
L 291.541239 -295.883003 
L 292.431894 -292.99639 
L 293.356387 -290.109778 
L 294.318897 -287.223165 
L 295.325132 -284.336552 
L 296.382153 -281.44994 
L 297.498054 -278.563327 
L 298.681555 -275.676714 
L 299.941499 -272.790101 
L 301.286288 -269.903489 
L 302.723308 -267.016876 
L 304.258349 -264.130263 
L 305.895079 -261.243651 
L 307.634579 -258.357038 
L 309.474975 -255.470425 
L 311.411174 -252.583812 
L 313.434713 -249.6972 
L 315.533726 -246.810587 
L 317.693022 -243.923974 
L 319.894258 -241.037362 
L 322.116224 -238.150749 
L 324.335204 -235.264136 
L 326.525427 -232.377523 
L 328.6596 -229.490911 
L 330.709513 -226.604298 
L 332.646729 -223.717685 
L 334.443336 -220.831073 
L 336.072768 -217.94446 
L 337.510663 -215.057847 
L 338.735736 -212.171234 
L 339.730644 -209.284622 
L 340.482774 -206.398009 
L 340.984922 -203.511396 
L 341.23581 -200.624784 
L 341.240375 -197.738171 
L 341.009798 -194.851558 
L 340.561245 -191.964945 
L 339.917292 -189.078333 
L 339.105063 -186.19172 
L 338.155085 -183.305107 
L 337.099943 -180.418495 
L 335.972782 -177.531882 
L 334.805749 -174.645269 
L 333.628482 -171.758656 
L 332.466721 -168.872044 
L 331.34114 -165.985431 
L 330.266477 -163.098818 
L 329.251006 -160.212206 
L 328.296385 -157.325593 
L 327.397888 -154.43898 
L 326.544994 -151.552367 
L 325.722285 -148.665755 
L 324.910605 -145.779142 
L 324.088382 -142.892529 
L 323.233042 -140.005916 
L 322.32243 -137.119304 
L 321.336145 -134.232691 
L 320.256732 -131.346078 
L 319.070663 -128.459466 
L 317.769061 -125.572853 
L 316.348158 -122.68624 
L 314.80946 -119.799627 
L 313.159632 -116.913015 
L 311.410133 -114.026402 
L 309.576628 -111.139789 
L 307.67822 -108.253177 
L 305.736561 -105.366564 
L 303.774881 -102.479951 
L 301.817011 -99.593338 
L 299.886428 -96.706726 
L 298.005379 -93.820113 
L 296.19413 -90.9335 
L 294.47035 -88.046888 
L 292.848663 -85.160275 
L 291.340374 -82.273662 
L 289.953363 -79.387049 
L 288.692132 -76.500437 
L 287.557998 -73.613824 
L 286.549394 -70.727211 
L 285.662256 -67.840599 
L 284.890467 -64.953986 
L 284.226318 -62.067373 
L 283.660982 -59.18076 
L 283.184945 -56.294148 
z
" id="m1624362e2c" style="stroke:#4c4c4c;stroke-width:1.5;"/>
    </defs>
    <g clip-path="url(#p5f6a2c05e1)">
     <use style="fill:#cc8963;stroke:#4c4c4c;stroke-width:1.5;" x="0" xlink:href="#m1624362e2c" y="363.730312"/>
    </g>
   </g>
   <g id="line2d_8">
    <path clip-path="url(#p5f6a2c05e1)" d="M 101.267286 250.295174 
L 161.276464 250.295174 
" style="fill:none;stroke:#4c4c4c;stroke-linecap:round;stroke-width:0.75;"/>
   </g>
   <g id="line2d_9">
    <path clip-path="url(#p5f6a2c05e1)" d="M 80.020525 143.802548 
L 182.523225 143.802548 
" style="fill:none;stroke:#4c4c4c;stroke-linecap:round;stroke-width:0.75;"/>
   </g>
   <g id="line2d_10">
    <path clip-path="url(#p5f6a2c05e1)" d="M 73.448127 177.89628 
L 189.095623 177.89628 
" style="fill:none;stroke:#4c4c4c;stroke-linecap:round;stroke-width:0.75;"/>
   </g>
   <g id="line2d_11">
    <path clip-path="url(#p5f6a2c05e1)" d="M 73.448127 178.676266 
L 189.095623 178.676266 
" style="fill:none;stroke:#4c4c4c;stroke-linecap:round;stroke-width:0.75;"/>
   </g>
   <g id="line2d_12">
    <path clip-path="url(#p5f6a2c05e1)" d="M 75.406082 152.443745 
L 187.137668 152.443745 
" style="fill:none;stroke:#4c4c4c;stroke-linecap:round;stroke-width:0.75;"/>
   </g>
   <g id="line2d_13">
    <path clip-path="url(#p5f6a2c05e1)" d="M 87.968373 131.386765 
L 174.575377 131.386765 
" style="fill:none;stroke:#4c4c4c;stroke-linecap:round;stroke-width:0.75;"/>
   </g>
   <g id="line2d_14">
    <path clip-path="url(#p5f6a2c05e1)" d="M 86.112586 212.03802 
L 176.431164 212.03802 
" style="fill:none;stroke:#4c4c4c;stroke-linecap:round;stroke-width:0.75;"/>
   </g>
   <g id="line2d_15">
    <path clip-path="url(#p5f6a2c05e1)" d="M 101.267286 248.800147 
L 161.276464 248.800147 
" style="fill:none;stroke:#4c4c4c;stroke-linecap:round;stroke-width:0.75;"/>
   </g>
   <g id="line2d_16">
    <path clip-path="url(#p5f6a2c05e1)" d="M 87.955181 218.426734 
L 174.588569 218.426734 
" style="fill:none;stroke:#4c4c4c;stroke-linecap:round;stroke-width:0.75;"/>
   </g>
   <g id="line2d_17">
    <path clip-path="url(#p5f6a2c05e1)" d="M 73.333891 158.470683 
L 189.209859 158.470683 
" style="fill:none;stroke:#4c4c4c;stroke-linecap:round;stroke-width:0.75;"/>
   </g>
   <g id="line2d_18">
    <path clip-path="url(#p5f6a2c05e1)" d="M 90.757064 227.637311 
L 171.786686 227.637311 
" style="fill:none;stroke:#4c4c4c;stroke-linecap:round;stroke-width:0.75;"/>
   </g>
   <g id="line2d_19">
    <path clip-path="url(#p5f6a2c05e1)" d="M 72.787622 174.96397 
L 189.756128 174.96397 
" style="fill:none;stroke:#4c4c4c;stroke-linecap:round;stroke-width:0.75;"/>
   </g>
   <g id="line2d_20">
    <path clip-path="url(#p5f6a2c05e1)" d="M 100.383416 114.681094 
L 162.160334 114.681094 
" style="fill:none;stroke:#4c4c4c;stroke-linecap:round;stroke-width:0.75;"/>
   </g>
   <g id="line2d_21">
    <path clip-path="url(#p5f6a2c05e1)" d="M 117.263815 78.634738 
L 145.279935 78.634738 
" style="fill:none;stroke:#4c4c4c;stroke-linecap:round;stroke-width:0.75;"/>
   </g>
   <g id="line2d_22">
    <path clip-path="url(#p5f6a2c05e1)" d="M 72.313132 170.495101 
L 190.230618 170.495101 
" style="fill:none;stroke:#4c4c4c;stroke-linecap:round;stroke-width:0.75;"/>
   </g>
   <g id="line2d_23">
    <path clip-path="url(#p5f6a2c05e1)" d="M 251.390224 250.726944 
L 311.108526 250.726944 
" style="fill:none;stroke:#4c4c4c;stroke-linecap:round;stroke-width:0.75;"/>
   </g>
   <g id="line2d_24">
    <path clip-path="url(#p5f6a2c05e1)" d="M 230.365995 139.888193 
L 332.132755 139.888193 
" style="fill:none;stroke:#4c4c4c;stroke-linecap:round;stroke-width:0.75;"/>
   </g>
   <g id="line2d_25">
    <path clip-path="url(#p5f6a2c05e1)" d="M 223.972244 177.910853 
L 338.526506 177.910853 
" style="fill:none;stroke:#4c4c4c;stroke-linecap:round;stroke-width:0.75;"/>
   </g>
   <g id="line2d_26">
    <path clip-path="url(#p5f6a2c05e1)" d="M 224.912722 179.492389 
L 337.586028 179.492389 
" style="fill:none;stroke:#4c4c4c;stroke-linecap:round;stroke-width:0.75;"/>
   </g>
   <g id="line2d_27">
    <path clip-path="url(#p5f6a2c05e1)" d="M 224.337877 152.429152 
L 338.160873 152.429152 
" style="fill:none;stroke:#4c4c4c;stroke-linecap:round;stroke-width:0.75;"/>
   </g>
   <g id="line2d_28">
    <path clip-path="url(#p5f6a2c05e1)" d="M 236.426083 131.754674 
L 326.072667 131.754674 
" style="fill:none;stroke:#4c4c4c;stroke-linecap:round;stroke-width:0.75;"/>
   </g>
   <g id="line2d_29">
    <path clip-path="url(#p5f6a2c05e1)" d="M 235.562347 210.406095 
L 326.936403 210.406095 
" style="fill:none;stroke:#4c4c4c;stroke-linecap:round;stroke-width:0.75;"/>
   </g>
   <g id="line2d_30">
    <path clip-path="url(#p5f6a2c05e1)" d="M 248.024891 243.104429 
L 314.473859 243.104429 
" style="fill:none;stroke:#4c4c4c;stroke-linecap:round;stroke-width:0.75;"/>
   </g>
   <g id="line2d_31">
    <path clip-path="url(#p5f6a2c05e1)" d="M 238.024757 218.744305 
L 324.473993 218.744305 
" style="fill:none;stroke:#4c4c4c;stroke-linecap:round;stroke-width:0.75;"/>
   </g>
   <g id="line2d_32">
    <path clip-path="url(#p5f6a2c05e1)" d="M 222.111183 158.790443 
L 340.387567 158.790443 
" style="fill:none;stroke:#4c4c4c;stroke-linecap:round;stroke-width:0.75;"/>
   </g>
   <g id="line2d_33">
    <path clip-path="url(#p5f6a2c05e1)" d="M 241.563473 229.52803 
L 320.935277 229.52803 
" style="fill:none;stroke:#4c4c4c;stroke-linecap:round;stroke-width:0.75;"/>
   </g>
   <g id="line2d_34">
    <path clip-path="url(#p5f6a2c05e1)" d="M 222.530624 172.693325 
L 339.968126 172.693325 
" style="fill:none;stroke:#4c4c4c;stroke-linecap:round;stroke-width:0.75;"/>
   </g>
   <g id="line2d_35">
    <path clip-path="url(#p5f6a2c05e1)" d="M 247.307867 116.556776 
L 315.190883 116.556776 
" style="fill:none;stroke:#4c4c4c;stroke-linecap:round;stroke-width:0.75;"/>
   </g>
   <g id="line2d_36">
    <path clip-path="url(#p5f6a2c05e1)" d="M 267.314375 78.370727 
L 295.184375 78.370727 
" style="fill:none;stroke:#4c4c4c;stroke-linecap:round;stroke-width:0.75;"/>
   </g>
   <g id="line2d_37">
    <path clip-path="url(#p5f6a2c05e1)" d="M 221.858285 166.253812 
L 340.640465 166.253812 
" style="fill:none;stroke:#4c4c4c;stroke-linecap:round;stroke-width:0.75;"/>
   </g>
   <g id="patch_3">
    <path d="M 56.283125 321.733125 
L 56.283125 7.2 
" style="fill:none;stroke:#ffffff;stroke-linecap:square;stroke-linejoin:miter;stroke-width:1.25;"/>
   </g>
   <g id="patch_4">
    <path d="M 56.283125 321.733125 
L 356.238125 321.733125 
" style="fill:none;stroke:#ffffff;stroke-linecap:square;stroke-linejoin:miter;stroke-width:1.25;"/>
   </g>
   <g id="PathCollection_1">
    <defs>
     <path d="M 0 1.5 
C 0.397805 1.5 0.77937 1.341951 1.06066 1.06066 
C 1.341951 0.77937 1.5 0.397805 1.5 -0 
C 1.5 -0.397805 1.341951 -0.77937 1.06066 -1.06066 
C 0.77937 -1.341951 0.397805 -1.5 0 -1.5 
C -0.397805 -1.5 -0.77937 -1.341951 -1.06066 -1.06066 
C -1.341951 -0.77937 -1.5 -0.397805 -1.5 0 
C -1.5 0.397805 -1.341951 0.77937 -1.06066 1.06066 
C -0.77937 1.341951 -0.397805 1.5 0 1.5 
z
" id="C0_0_ad44a81544"/>
    </defs>
    <g clip-path="url(#p5f6a2c05e1)">
     <use style="fill:#1a1a1a;" x="131.271875" xlink:href="#C0_0_ad44a81544" y="250.295174"/>
    </g>
    <g clip-path="url(#p5f6a2c05e1)">
     <use style="fill:#1a1a1a;" x="128.540887" xlink:href="#C0_0_ad44a81544" y="248.800147"/>
    </g>
    <g clip-path="url(#p5f6a2c05e1)">
     <use style="fill:#1a1a1a;" x="131.271875" xlink:href="#C0_0_ad44a81544" y="227.637311"/>
    </g>
    <g clip-path="url(#p5f6a2c05e1)">
     <use style="fill:#1a1a1a;" x="131.271875" xlink:href="#C0_0_ad44a81544" y="218.426734"/>
    </g>
    <g clip-path="url(#p5f6a2c05e1)">
     <use style="fill:#1a1a1a;" x="131.271875" xlink:href="#C0_0_ad44a81544" y="212.03802"/>
    </g>
    <g clip-path="url(#p5f6a2c05e1)">
     <use style="fill:#1a1a1a;" x="131.271875" xlink:href="#C0_0_ad44a81544" y="178.676266"/>
    </g>
    <g clip-path="url(#p5f6a2c05e1)">
     <use style="fill:#1a1a1a;" x="128.230204" xlink:href="#C0_0_ad44a81544" y="177.89628"/>
    </g>
    <g clip-path="url(#p5f6a2c05e1)">
     <use style="fill:#1a1a1a;" x="131.271875" xlink:href="#C0_0_ad44a81544" y="174.96397"/>
    </g>
    <g clip-path="url(#p5f6a2c05e1)">
     <use style="fill:#1a1a1a;" x="131.271875" xlink:href="#C0_0_ad44a81544" y="170.495101"/>
    </g>
    <g clip-path="url(#p5f6a2c05e1)">
     <use style="fill:#1a1a1a;" x="131.271875" xlink:href="#C0_0_ad44a81544" y="158.470683"/>
    </g>
    <g clip-path="url(#p5f6a2c05e1)">
     <use style="fill:#1a1a1a;" x="131.271875" xlink:href="#C0_0_ad44a81544" y="152.443745"/>
    </g>
    <g clip-path="url(#p5f6a2c05e1)">
     <use style="fill:#1a1a1a;" x="131.271875" xlink:href="#C0_0_ad44a81544" y="143.802548"/>
    </g>
    <g clip-path="url(#p5f6a2c05e1)">
     <use style="fill:#1a1a1a;" x="131.271875" xlink:href="#C0_0_ad44a81544" y="131.386765"/>
    </g>
    <g clip-path="url(#p5f6a2c05e1)">
     <use style="fill:#1a1a1a;" x="131.271875" xlink:href="#C0_0_ad44a81544" y="114.681094"/>
    </g>
    <g clip-path="url(#p5f6a2c05e1)">
     <use style="fill:#1a1a1a;" x="131.271875" xlink:href="#C0_0_ad44a81544" y="78.634738"/>
    </g>
   </g>
   <g id="PathCollection_2">
    <defs>
     <path d="M 0 1.5 
C 0.397805 1.5 0.77937 1.341951 1.06066 1.06066 
C 1.341951 0.77937 1.5 0.397805 1.5 -0 
C 1.5 -0.397805 1.341951 -0.77937 1.06066 -1.06066 
C 0.77937 -1.341951 0.397805 -1.5 0 -1.5 
C -0.397805 -1.5 -0.77937 -1.341951 -1.06066 -1.06066 
C -1.341951 -0.77937 -1.5 -0.397805 -1.5 0 
C -1.5 0.397805 -1.341951 0.77937 -1.06066 1.06066 
C -0.77937 1.341951 -0.397805 1.5 0 1.5 
z
" id="C1_0_11e0d45f6e"/>
    </defs>
    <g clip-path="url(#p5f6a2c05e1)">
     <use style="fill:#1a1a1a;" x="281.249375" xlink:href="#C1_0_11e0d45f6e" y="250.726944"/>
    </g>
    <g clip-path="url(#p5f6a2c05e1)">
     <use style="fill:#1a1a1a;" x="281.249375" xlink:href="#C1_0_11e0d45f6e" y="243.104429"/>
    </g>
    <g clip-path="url(#p5f6a2c05e1)">
     <use style="fill:#1a1a1a;" x="281.249375" xlink:href="#C1_0_11e0d45f6e" y="229.52803"/>
    </g>
    <g clip-path="url(#p5f6a2c05e1)">
     <use style="fill:#1a1a1a;" x="281.249375" xlink:href="#C1_0_11e0d45f6e" y="218.744305"/>
    </g>
    <g clip-path="url(#p5f6a2c05e1)">
     <use style="fill:#1a1a1a;" x="281.249375" xlink:href="#C1_0_11e0d45f6e" y="210.406095"/>
    </g>
    <g clip-path="url(#p5f6a2c05e1)">
     <use style="fill:#1a1a1a;" x="281.249375" xlink:href="#C1_0_11e0d45f6e" y="179.492389"/>
    </g>
    <g clip-path="url(#p5f6a2c05e1)">
     <use style="fill:#1a1a1a;" x="278.572649" xlink:href="#C1_0_11e0d45f6e" y="177.910853"/>
    </g>
    <g clip-path="url(#p5f6a2c05e1)">
     <use style="fill:#1a1a1a;" x="281.249375" xlink:href="#C1_0_11e0d45f6e" y="172.693325"/>
    </g>
    <g clip-path="url(#p5f6a2c05e1)">
     <use style="fill:#1a1a1a;" x="281.249375" xlink:href="#C1_0_11e0d45f6e" y="166.253812"/>
    </g>
    <g clip-path="url(#p5f6a2c05e1)">
     <use style="fill:#1a1a1a;" x="281.249375" xlink:href="#C1_0_11e0d45f6e" y="158.790443"/>
    </g>
    <g clip-path="url(#p5f6a2c05e1)">
     <use style="fill:#1a1a1a;" x="281.249375" xlink:href="#C1_0_11e0d45f6e" y="152.429152"/>
    </g>
    <g clip-path="url(#p5f6a2c05e1)">
     <use style="fill:#1a1a1a;" x="281.249375" xlink:href="#C1_0_11e0d45f6e" y="139.888193"/>
    </g>
    <g clip-path="url(#p5f6a2c05e1)">
     <use style="fill:#1a1a1a;" x="281.249375" xlink:href="#C1_0_11e0d45f6e" y="131.754674"/>
    </g>
    <g clip-path="url(#p5f6a2c05e1)">
     <use style="fill:#1a1a1a;" x="281.249375" xlink:href="#C1_0_11e0d45f6e" y="116.556776"/>
    </g>
    <g clip-path="url(#p5f6a2c05e1)">
     <use style="fill:#1a1a1a;" x="281.249375" xlink:href="#C1_0_11e0d45f6e" y="78.370727"/>
    </g>
   </g>
  </g>
 </g>
 <defs>
  <clipPath id="p5f6a2c05e1">
   <rect height="314.533125" width="299.955" x="56.283125" y="7.2"/>
  </clipPath>
 </defs>
</svg>
