<?xml version="1.0" encoding="utf-8" standalone="no"?>
<!DOCTYPE svg PUBLIC "-//W3C//DTD SVG 1.1//EN"
  "http://www.w3.org/Graphics/SVG/1.1/DTD/svg11.dtd">
<svg height="360pt" version="1.1" viewBox="0 0 1080 360" width="1080pt" xmlns="http://www.w3.org/2000/svg" xmlns:xlink="http://www.w3.org/1999/xlink">
 <metadata>
  <rdf:RDF xmlns:cc="http://creativecommons.org/ns#" xmlns:dc="http://purl.org/dc/elements/1.1/" xmlns:rdf="http://www.w3.org/1999/02/22-rdf-syntax-ns#">
   <cc:Work>
    <dc:type rdf:resource="http://purl.org/dc/dcmitype/StillImage"/>
    <dc:date>2021-06-30T09:42:13.247154</dc:date>
    <dc:format>image/svg+xml</dc:format>
    <dc:creator>
     <cc:Agent>
      <dc:title>Matplotlib v3.4.2, https://matplotlib.org/</dc:title>
     </cc:Agent>
    </dc:creator>
   </cc:Work>
  </rdf:RDF>
 </metadata>
 <defs>
  <style type="text/css">*{stroke-linecap:butt;stroke-linejoin:round;}</style>
 </defs>
 <g id="figure_1">
  <g id="patch_1">
   <path d="M 0 360 
L 1080 360 
L 1080 0 
L 0 0 
z
" style="fill:#ffffff;"/>
  </g>
  <g id="axes_1">
   <g id="patch_2">
    <path d="M 135 315 
L 381.176471 315 
L 381.176471 43.2 
L 135 43.2 
z
" style="fill:#eaeaf2;"/>
   </g>
   <g id="matplotlib.axis_1">
    <g id="xtick_1">
     <g id="line2d_1">
      <path clip-path="url(#pab3454f0e7)" d="M 193.304954 315 
L 193.304954 43.2 
" style="fill:none;stroke:#ffffff;stroke-linecap:round;"/>
     </g>
     <g id="text_1">
      <!-- 5 -->
      <g style="fill:#262626;" transform="translate(190.246438 332.373594)scale(0.11 -0.11)">
       <defs>
        <path d="M 266 1200 
L 856 1250 
Q 922 819 1161 601 
Q 1400 384 1738 384 
Q 2144 384 2425 690 
Q 2706 997 2706 1503 
Q 2706 1984 2436 2262 
Q 2166 2541 1728 2541 
Q 1456 2541 1237 2417 
Q 1019 2294 894 2097 
L 366 2166 
L 809 4519 
L 3088 4519 
L 3088 3981 
L 1259 3981 
L 1013 2750 
Q 1425 3038 1878 3038 
Q 2478 3038 2890 2622 
Q 3303 2206 3303 1553 
Q 3303 931 2941 478 
Q 2500 -78 1738 -78 
Q 1113 -78 717 272 
Q 322 622 266 1200 
z
" id="ArialMT-35" transform="scale(0.015625)"/>
       </defs>
       <use xlink:href="#ArialMT-35"/>
      </g>
     </g>
    </g>
    <g id="xtick_2">
     <g id="line2d_2">
      <path clip-path="url(#pab3454f0e7)" d="M 252.198846 315 
L 252.198846 43.2 
" style="fill:none;stroke:#ffffff;stroke-linecap:round;"/>
     </g>
     <g id="text_2">
      <!-- 10 -->
      <g style="fill:#262626;" transform="translate(246.081815 332.373594)scale(0.11 -0.11)">
       <defs>
        <path d="M 2384 0 
L 1822 0 
L 1822 3584 
Q 1619 3391 1289 3197 
Q 959 3003 697 2906 
L 697 3450 
Q 1169 3672 1522 3987 
Q 1875 4303 2022 4600 
L 2384 4600 
L 2384 0 
z
" id="ArialMT-31" transform="scale(0.015625)"/>
        <path d="M 266 2259 
Q 266 3072 433 3567 
Q 600 4063 929 4331 
Q 1259 4600 1759 4600 
Q 2128 4600 2406 4451 
Q 2684 4303 2865 4023 
Q 3047 3744 3150 3342 
Q 3253 2941 3253 2259 
Q 3253 1453 3087 958 
Q 2922 463 2592 192 
Q 2263 -78 1759 -78 
Q 1097 -78 719 397 
Q 266 969 266 2259 
z
M 844 2259 
Q 844 1131 1108 757 
Q 1372 384 1759 384 
Q 2147 384 2411 759 
Q 2675 1134 2675 2259 
Q 2675 3391 2411 3762 
Q 2147 4134 1753 4134 
Q 1366 4134 1134 3806 
Q 844 3388 844 2259 
z
" id="ArialMT-30" transform="scale(0.015625)"/>
       </defs>
       <use xlink:href="#ArialMT-31"/>
       <use x="55.615234" xlink:href="#ArialMT-30"/>
      </g>
     </g>
    </g>
    <g id="xtick_3">
     <g id="line2d_3">
      <path clip-path="url(#pab3454f0e7)" d="M 311.092739 315 
L 311.092739 43.2 
" style="fill:none;stroke:#ffffff;stroke-linecap:round;"/>
     </g>
     <g id="text_3">
      <!-- 15 -->
      <g style="fill:#262626;" transform="translate(304.975707 332.373594)scale(0.11 -0.11)">
       <use xlink:href="#ArialMT-31"/>
       <use x="55.615234" xlink:href="#ArialMT-35"/>
      </g>
     </g>
    </g>
    <g id="xtick_4">
     <g id="line2d_4">
      <path clip-path="url(#pab3454f0e7)" d="M 369.986631 315 
L 369.986631 43.2 
" style="fill:none;stroke:#ffffff;stroke-linecap:round;"/>
     </g>
     <g id="text_4">
      <!-- 20 -->
      <g style="fill:#262626;" transform="translate(363.8696 332.373594)scale(0.11 -0.11)">
       <defs>
        <path d="M 3222 541 
L 3222 0 
L 194 0 
Q 188 203 259 391 
Q 375 700 629 1000 
Q 884 1300 1366 1694 
Q 2113 2306 2375 2664 
Q 2638 3022 2638 3341 
Q 2638 3675 2398 3904 
Q 2159 4134 1775 4134 
Q 1369 4134 1125 3890 
Q 881 3647 878 3216 
L 300 3275 
Q 359 3922 746 4261 
Q 1134 4600 1788 4600 
Q 2447 4600 2831 4234 
Q 3216 3869 3216 3328 
Q 3216 3053 3103 2787 
Q 2991 2522 2730 2228 
Q 2469 1934 1863 1422 
Q 1356 997 1212 845 
Q 1069 694 975 541 
L 3222 541 
z
" id="ArialMT-32" transform="scale(0.015625)"/>
       </defs>
       <use xlink:href="#ArialMT-32"/>
       <use x="55.615234" xlink:href="#ArialMT-30"/>
      </g>
     </g>
    </g>
    <g id="text_5">
     <!-- input -->
     <g style="fill:#262626;" transform="translate(245.078548 347.149219)scale(0.12 -0.12)">
      <defs>
       <path d="M 425 3934 
L 425 4581 
L 988 4581 
L 988 3934 
L 425 3934 
z
M 425 0 
L 425 3319 
L 988 3319 
L 988 0 
L 425 0 
z
" id="ArialMT-69" transform="scale(0.015625)"/>
       <path d="M 422 0 
L 422 3319 
L 928 3319 
L 928 2847 
Q 1294 3394 1984 3394 
Q 2284 3394 2536 3286 
Q 2788 3178 2913 3003 
Q 3038 2828 3088 2588 
Q 3119 2431 3119 2041 
L 3119 0 
L 2556 0 
L 2556 2019 
Q 2556 2363 2490 2533 
Q 2425 2703 2258 2804 
Q 2091 2906 1866 2906 
Q 1506 2906 1245 2678 
Q 984 2450 984 1813 
L 984 0 
L 422 0 
z
" id="ArialMT-6e" transform="scale(0.015625)"/>
       <path d="M 422 -1272 
L 422 3319 
L 934 3319 
L 934 2888 
Q 1116 3141 1344 3267 
Q 1572 3394 1897 3394 
Q 2322 3394 2647 3175 
Q 2972 2956 3137 2557 
Q 3303 2159 3303 1684 
Q 3303 1175 3120 767 
Q 2938 359 2589 142 
Q 2241 -75 1856 -75 
Q 1575 -75 1351 44 
Q 1128 163 984 344 
L 984 -1272 
L 422 -1272 
z
M 931 1641 
Q 931 1000 1190 694 
Q 1450 388 1819 388 
Q 2194 388 2461 705 
Q 2728 1022 2728 1688 
Q 2728 2322 2467 2637 
Q 2206 2953 1844 2953 
Q 1484 2953 1207 2617 
Q 931 2281 931 1641 
z
" id="ArialMT-70" transform="scale(0.015625)"/>
       <path d="M 2597 0 
L 2597 488 
Q 2209 -75 1544 -75 
Q 1250 -75 995 37 
Q 741 150 617 320 
Q 494 491 444 738 
Q 409 903 409 1263 
L 409 3319 
L 972 3319 
L 972 1478 
Q 972 1038 1006 884 
Q 1059 663 1231 536 
Q 1403 409 1656 409 
Q 1909 409 2131 539 
Q 2353 669 2445 892 
Q 2538 1116 2538 1541 
L 2538 3319 
L 3100 3319 
L 3100 0 
L 2597 0 
z
" id="ArialMT-75" transform="scale(0.015625)"/>
       <path d="M 1650 503 
L 1731 6 
Q 1494 -44 1306 -44 
Q 1000 -44 831 53 
Q 663 150 594 308 
Q 525 466 525 972 
L 525 2881 
L 113 2881 
L 113 3319 
L 525 3319 
L 525 4141 
L 1084 4478 
L 1084 3319 
L 1650 3319 
L 1650 2881 
L 1084 2881 
L 1084 941 
Q 1084 700 1114 631 
Q 1144 563 1211 522 
Q 1278 481 1403 481 
Q 1497 481 1650 503 
z
" id="ArialMT-74" transform="scale(0.015625)"/>
      </defs>
      <use xlink:href="#ArialMT-69"/>
      <use x="22.216797" xlink:href="#ArialMT-6e"/>
      <use x="77.832031" xlink:href="#ArialMT-70"/>
      <use x="133.447266" xlink:href="#ArialMT-75"/>
      <use x="189.0625" xlink:href="#ArialMT-74"/>
     </g>
    </g>
   </g>
   <g id="matplotlib.axis_2">
    <g id="ytick_1">
     <g id="line2d_5">
      <path clip-path="url(#pab3454f0e7)" d="M 135 302.645455 
L 381.176471 302.645455 
" style="fill:none;stroke:#ffffff;stroke-linecap:round;"/>
     </g>
     <g id="text_6">
      <!-- 0.0 -->
      <g style="fill:#262626;" transform="translate(110.21 306.582251)scale(0.11 -0.11)">
       <defs>
        <path d="M 581 0 
L 581 641 
L 1222 641 
L 1222 0 
L 581 0 
z
" id="ArialMT-2e" transform="scale(0.015625)"/>
       </defs>
       <use xlink:href="#ArialMT-30"/>
       <use x="55.615234" xlink:href="#ArialMT-2e"/>
       <use x="83.398438" xlink:href="#ArialMT-30"/>
      </g>
     </g>
    </g>
    <g id="ytick_2">
     <g id="line2d_6">
      <path clip-path="url(#pab3454f0e7)" d="M 135 245.842947 
L 381.176471 245.842947 
" style="fill:none;stroke:#ffffff;stroke-linecap:round;"/>
     </g>
     <g id="text_7">
      <!-- 0.2 -->
      <g style="fill:#262626;" transform="translate(110.21 249.779744)scale(0.11 -0.11)">
       <use xlink:href="#ArialMT-30"/>
       <use x="55.615234" xlink:href="#ArialMT-2e"/>
       <use x="83.398438" xlink:href="#ArialMT-32"/>
      </g>
     </g>
    </g>
    <g id="ytick_3">
     <g id="line2d_7">
      <path clip-path="url(#pab3454f0e7)" d="M 135 189.040439 
L 381.176471 189.040439 
" style="fill:none;stroke:#ffffff;stroke-linecap:round;"/>
     </g>
     <g id="text_8">
      <!-- 0.4 -->
      <g style="fill:#262626;" transform="translate(110.21 192.977236)scale(0.11 -0.11)">
       <defs>
        <path d="M 2069 0 
L 2069 1097 
L 81 1097 
L 81 1613 
L 2172 4581 
L 2631 4581 
L 2631 1613 
L 3250 1613 
L 3250 1097 
L 2631 1097 
L 2631 0 
L 2069 0 
z
M 2069 1613 
L 2069 3678 
L 634 1613 
L 2069 1613 
z
" id="ArialMT-34" transform="scale(0.015625)"/>
       </defs>
       <use xlink:href="#ArialMT-30"/>
       <use x="55.615234" xlink:href="#ArialMT-2e"/>
       <use x="83.398438" xlink:href="#ArialMT-34"/>
      </g>
     </g>
    </g>
    <g id="ytick_4">
     <g id="line2d_8">
      <path clip-path="url(#pab3454f0e7)" d="M 135 132.237931 
L 381.176471 132.237931 
" style="fill:none;stroke:#ffffff;stroke-linecap:round;"/>
     </g>
     <g id="text_9">
      <!-- 0.6 -->
      <g style="fill:#262626;" transform="translate(110.21 136.174728)scale(0.11 -0.11)">
       <defs>
        <path d="M 3184 3459 
L 2625 3416 
Q 2550 3747 2413 3897 
Q 2184 4138 1850 4138 
Q 1581 4138 1378 3988 
Q 1113 3794 959 3422 
Q 806 3050 800 2363 
Q 1003 2672 1297 2822 
Q 1591 2972 1913 2972 
Q 2475 2972 2870 2558 
Q 3266 2144 3266 1488 
Q 3266 1056 3080 686 
Q 2894 316 2569 119 
Q 2244 -78 1831 -78 
Q 1128 -78 684 439 
Q 241 956 241 2144 
Q 241 3472 731 4075 
Q 1159 4600 1884 4600 
Q 2425 4600 2770 4297 
Q 3116 3994 3184 3459 
z
M 888 1484 
Q 888 1194 1011 928 
Q 1134 663 1356 523 
Q 1578 384 1822 384 
Q 2178 384 2434 671 
Q 2691 959 2691 1453 
Q 2691 1928 2437 2201 
Q 2184 2475 1800 2475 
Q 1419 2475 1153 2201 
Q 888 1928 888 1484 
z
" id="ArialMT-36" transform="scale(0.015625)"/>
       </defs>
       <use xlink:href="#ArialMT-30"/>
       <use x="55.615234" xlink:href="#ArialMT-2e"/>
       <use x="83.398438" xlink:href="#ArialMT-36"/>
      </g>
     </g>
    </g>
    <g id="ytick_5">
     <g id="line2d_9">
      <path clip-path="url(#pab3454f0e7)" d="M 135 75.435423 
L 381.176471 75.435423 
" style="fill:none;stroke:#ffffff;stroke-linecap:round;"/>
     </g>
     <g id="text_10">
      <!-- 0.8 -->
      <g style="fill:#262626;" transform="translate(110.21 79.37222)scale(0.11 -0.11)">
       <defs>
        <path d="M 1131 2484 
Q 781 2613 612 2850 
Q 444 3088 444 3419 
Q 444 3919 803 4259 
Q 1163 4600 1759 4600 
Q 2359 4600 2725 4251 
Q 3091 3903 3091 3403 
Q 3091 3084 2923 2848 
Q 2756 2613 2416 2484 
Q 2838 2347 3058 2040 
Q 3278 1734 3278 1309 
Q 3278 722 2862 322 
Q 2447 -78 1769 -78 
Q 1091 -78 675 323 
Q 259 725 259 1325 
Q 259 1772 486 2073 
Q 713 2375 1131 2484 
z
M 1019 3438 
Q 1019 3113 1228 2906 
Q 1438 2700 1772 2700 
Q 2097 2700 2305 2904 
Q 2513 3109 2513 3406 
Q 2513 3716 2298 3927 
Q 2084 4138 1766 4138 
Q 1444 4138 1231 3931 
Q 1019 3725 1019 3438 
z
M 838 1322 
Q 838 1081 952 856 
Q 1066 631 1291 507 
Q 1516 384 1775 384 
Q 2178 384 2440 643 
Q 2703 903 2703 1303 
Q 2703 1709 2433 1975 
Q 2163 2241 1756 2241 
Q 1359 2241 1098 1978 
Q 838 1716 838 1322 
z
" id="ArialMT-38" transform="scale(0.015625)"/>
       </defs>
       <use xlink:href="#ArialMT-30"/>
       <use x="55.615234" xlink:href="#ArialMT-2e"/>
       <use x="83.398438" xlink:href="#ArialMT-38"/>
      </g>
     </g>
    </g>
    <g id="text_11">
     <!-- recall -->
     <g style="fill:#262626;" transform="translate(103.825 193.437187)rotate(-90)scale(0.12 -0.12)">
      <defs>
       <path d="M 416 0 
L 416 3319 
L 922 3319 
L 922 2816 
Q 1116 3169 1280 3281 
Q 1444 3394 1641 3394 
Q 1925 3394 2219 3213 
L 2025 2691 
Q 1819 2813 1613 2813 
Q 1428 2813 1281 2702 
Q 1134 2591 1072 2394 
Q 978 2094 978 1738 
L 978 0 
L 416 0 
z
" id="ArialMT-72" transform="scale(0.015625)"/>
       <path d="M 2694 1069 
L 3275 997 
Q 3138 488 2766 206 
Q 2394 -75 1816 -75 
Q 1088 -75 661 373 
Q 234 822 234 1631 
Q 234 2469 665 2931 
Q 1097 3394 1784 3394 
Q 2450 3394 2872 2941 
Q 3294 2488 3294 1666 
Q 3294 1616 3291 1516 
L 816 1516 
Q 847 969 1125 678 
Q 1403 388 1819 388 
Q 2128 388 2347 550 
Q 2566 713 2694 1069 
z
M 847 1978 
L 2700 1978 
Q 2663 2397 2488 2606 
Q 2219 2931 1791 2931 
Q 1403 2931 1139 2672 
Q 875 2413 847 1978 
z
" id="ArialMT-65" transform="scale(0.015625)"/>
       <path d="M 2588 1216 
L 3141 1144 
Q 3050 572 2676 248 
Q 2303 -75 1759 -75 
Q 1078 -75 664 370 
Q 250 816 250 1647 
Q 250 2184 428 2587 
Q 606 2991 970 3192 
Q 1334 3394 1763 3394 
Q 2303 3394 2647 3120 
Q 2991 2847 3088 2344 
L 2541 2259 
Q 2463 2594 2264 2762 
Q 2066 2931 1784 2931 
Q 1359 2931 1093 2626 
Q 828 2322 828 1663 
Q 828 994 1084 691 
Q 1341 388 1753 388 
Q 2084 388 2306 591 
Q 2528 794 2588 1216 
z
" id="ArialMT-63" transform="scale(0.015625)"/>
       <path d="M 2588 409 
Q 2275 144 1986 34 
Q 1697 -75 1366 -75 
Q 819 -75 525 192 
Q 231 459 231 875 
Q 231 1119 342 1320 
Q 453 1522 633 1644 
Q 813 1766 1038 1828 
Q 1203 1872 1538 1913 
Q 2219 1994 2541 2106 
Q 2544 2222 2544 2253 
Q 2544 2597 2384 2738 
Q 2169 2928 1744 2928 
Q 1347 2928 1158 2789 
Q 969 2650 878 2297 
L 328 2372 
Q 403 2725 575 2942 
Q 747 3159 1072 3276 
Q 1397 3394 1825 3394 
Q 2250 3394 2515 3294 
Q 2781 3194 2906 3042 
Q 3031 2891 3081 2659 
Q 3109 2516 3109 2141 
L 3109 1391 
Q 3109 606 3145 398 
Q 3181 191 3288 0 
L 2700 0 
Q 2613 175 2588 409 
z
M 2541 1666 
Q 2234 1541 1622 1453 
Q 1275 1403 1131 1340 
Q 988 1278 909 1158 
Q 831 1038 831 891 
Q 831 666 1001 516 
Q 1172 366 1500 366 
Q 1825 366 2078 508 
Q 2331 650 2450 897 
Q 2541 1088 2541 1459 
L 2541 1666 
z
" id="ArialMT-61" transform="scale(0.015625)"/>
       <path d="M 409 0 
L 409 4581 
L 972 4581 
L 972 0 
L 409 0 
z
" id="ArialMT-6c" transform="scale(0.015625)"/>
      </defs>
      <use xlink:href="#ArialMT-72"/>
      <use x="33.300781" xlink:href="#ArialMT-65"/>
      <use x="88.916016" xlink:href="#ArialMT-63"/>
      <use x="138.916016" xlink:href="#ArialMT-61"/>
      <use x="194.53125" xlink:href="#ArialMT-6c"/>
      <use x="216.748047" xlink:href="#ArialMT-6c"/>
     </g>
    </g>
   </g>
   <g id="line2d_10">
    <path clip-path="url(#pab3454f0e7)" d="M 146.18984 197.560815 
L 157.968618 243.002821 
L 169.747397 240.162696 
L 181.526175 234.482445 
L 193.304954 231.64232 
L 205.083732 243.002821 
L 216.862511 228.802194 
L 228.641289 228.802194 
L 240.420068 240.162696 
L 252.198846 220.281818 
L 263.977625 234.482445 
L 275.756403 245.842947 
L 287.535182 243.002821 
L 299.31396 223.121944 
L 311.092739 211.761442 
L 322.871517 214.601567 
L 334.650296 183.360188 
L 346.429074 166.319436 
L 358.207853 154.958934 
L 369.986631 132.237931 
" style="fill:none;stroke:#edd1cb;stroke-linecap:round;stroke-width:1.5;"/>
   </g>
   <g id="line2d_11">
    <path clip-path="url(#pab3454f0e7)" d="M 146.18984 194.72069 
L 157.968618 240.162696 
L 169.747397 237.322571 
L 181.526175 223.121944 
L 193.304954 245.842947 
L 205.083732 237.322571 
L 216.862511 234.482445 
L 228.641289 245.842947 
L 240.420068 237.322571 
L 252.198846 220.281818 
L 263.977625 223.121944 
L 275.756403 254.363323 
L 287.535182 228.802194 
L 299.31396 234.482445 
L 311.092739 211.761442 
L 322.871517 197.560815 
L 334.650296 189.040439 
L 346.429074 169.159561 
L 358.207853 137.918182 
L 369.986631 118.037304 
" style="fill:none;stroke:#e9c6c2;stroke-linecap:round;stroke-width:1.5;"/>
   </g>
   <g id="line2d_12">
    <path clip-path="url(#pab3454f0e7)" d="M 146.18984 225.962069 
L 157.968618 262.883699 
L 169.747397 262.883699 
L 181.526175 254.363323 
L 193.304954 237.322571 
L 205.083732 228.802194 
L 216.862511 245.842947 
L 228.641289 223.121944 
L 240.420068 240.162696 
L 252.198846 240.162696 
L 263.977625 265.723824 
L 275.756403 225.962069 
L 287.535182 214.601567 
L 299.31396 206.081191 
L 311.092739 231.64232 
L 322.871517 203.241066 
L 334.650296 191.880564 
L 346.429074 166.319436 
L 358.207853 140.758307 
L 369.986631 109.516928 
" style="fill:none;stroke:#e5baba;stroke-linecap:round;stroke-width:1.5;"/>
   </g>
   <g id="line2d_13">
    <path clip-path="url(#pab3454f0e7)" d="M 146.18984 211.761442 
L 157.968618 268.56395 
L 169.747397 251.523197 
L 181.526175 251.523197 
L 193.304954 262.883699 
L 205.083732 268.56395 
L 216.862511 257.203448 
L 228.641289 228.802194 
L 240.420068 248.683072 
L 252.198846 240.162696 
L 263.977625 243.002821 
L 275.756403 245.842947 
L 287.535182 240.162696 
L 299.31396 211.761442 
L 311.092739 217.441693 
L 322.871517 200.40094 
L 334.650296 177.679937 
L 346.429074 163.47931 
L 358.207853 146.438558 
L 369.986631 98.156426 
" style="fill:none;stroke:#dfaeb2;stroke-linecap:round;stroke-width:1.5;"/>
   </g>
   <g id="line2d_14">
    <path clip-path="url(#pab3454f0e7)" d="M 146.18984 214.601567 
L 157.968618 260.043574 
L 169.747397 251.523197 
L 181.526175 262.883699 
L 193.304954 248.683072 
L 205.083732 237.322571 
L 216.862511 254.363323 
L 228.641289 251.523197 
L 240.420068 225.962069 
L 252.198846 257.203448 
L 263.977625 240.162696 
L 275.756403 225.962069 
L 287.535182 220.281818 
L 299.31396 211.761442 
L 311.092739 245.842947 
L 322.871517 223.121944 
L 334.650296 197.560815 
L 346.429074 171.999687 
L 358.207853 118.037304 
L 369.986631 86.795925 
" style="fill:none;stroke:#daa2ac;stroke-linecap:round;stroke-width:1.5;"/>
   </g>
   <g id="line2d_15">
    <path clip-path="url(#pab3454f0e7)" d="M 146.18984 211.761442 
L 157.968618 251.523197 
L 169.747397 251.523197 
L 181.526175 245.842947 
L 193.304954 251.523197 
L 205.083732 251.523197 
L 216.862511 251.523197 
L 228.641289 228.802194 
L 240.420068 260.043574 
L 252.198846 260.043574 
L 263.977625 240.162696 
L 275.756403 248.683072 
L 287.535182 248.683072 
L 299.31396 240.162696 
L 311.092739 223.121944 
L 322.871517 197.560815 
L 334.650296 174.839812 
L 346.429074 166.319436 
L 358.207853 143.598433 
L 369.986631 98.156426 
" style="fill:none;stroke:#d396a5;stroke-linecap:round;stroke-width:1.5;"/>
   </g>
   <g id="line2d_16">
    <path clip-path="url(#pab3454f0e7)" d="M 146.18984 206.081191 
L 157.968618 251.523197 
L 169.747397 237.322571 
L 181.526175 245.842947 
L 193.304954 231.64232 
L 205.083732 243.002821 
L 216.862511 231.64232 
L 228.641289 254.363323 
L 240.420068 231.64232 
L 252.198846 240.162696 
L 263.977625 260.043574 
L 275.756403 240.162696 
L 287.535182 228.802194 
L 299.31396 234.482445 
L 311.092739 223.121944 
L 322.871517 194.72069 
L 334.650296 191.880564 
L 346.429074 160.639185 
L 358.207853 146.438558 
L 369.986631 98.156426 
" style="fill:none;stroke:#cb8ca0;stroke-linecap:round;stroke-width:1.5;"/>
   </g>
   <g id="line2d_17">
    <path clip-path="url(#pab3454f0e7)" d="M 146.18984 203.241066 
L 157.968618 262.883699 
L 169.747397 251.523197 
L 181.526175 251.523197 
L 193.304954 251.523197 
L 205.083732 254.363323 
L 216.862511 243.002821 
L 228.641289 245.842947 
L 240.420068 243.002821 
L 252.198846 231.64232 
L 263.977625 240.162696 
L 275.756403 228.802194 
L 287.535182 220.281818 
L 299.31396 231.64232 
L 311.092739 217.441693 
L 322.871517 206.081191 
L 334.650296 189.040439 
L 346.429074 183.360188 
L 358.207853 132.237931 
L 369.986631 86.795925 
" style="fill:none;stroke:#c2809b;stroke-linecap:round;stroke-width:1.5;"/>
   </g>
   <g id="line2d_18">
    <path clip-path="url(#pab3454f0e7)" d="M 146.18984 203.241066 
L 157.968618 254.363323 
L 169.747397 231.64232 
L 181.526175 245.842947 
L 193.304954 245.842947 
L 205.083732 234.482445 
L 216.862511 245.842947 
L 228.641289 240.162696 
L 240.420068 240.162696 
L 252.198846 251.523197 
L 263.977625 251.523197 
L 275.756403 248.683072 
L 287.535182 225.962069 
L 299.31396 217.441693 
L 311.092739 223.121944 
L 322.871517 225.962069 
L 334.650296 211.761442 
L 346.429074 174.839812 
L 358.207853 123.717555 
L 369.986631 95.316301 
" style="fill:none;stroke:#ba7696;stroke-linecap:round;stroke-width:1.5;"/>
   </g>
   <g id="line2d_19">
    <path clip-path="url(#pab3454f0e7)" d="M 146.18984 214.601567 
L 157.968618 245.842947 
L 169.747397 240.162696 
L 181.526175 240.162696 
L 193.304954 254.363323 
L 205.083732 248.683072 
L 216.862511 257.203448 
L 228.641289 257.203448 
L 240.420068 237.322571 
L 252.198846 262.883699 
L 263.977625 262.883699 
L 275.756403 257.203448 
L 287.535182 243.002821 
L 299.31396 225.962069 
L 311.092739 197.560815 
L 322.871517 194.72069 
L 334.650296 169.159561 
L 346.429074 163.47931 
L 358.207853 126.55768 
L 369.986631 86.795925 
" style="fill:none;stroke:#af6c91;stroke-linecap:round;stroke-width:1.5;"/>
   </g>
   <g id="line2d_20">
    <path clip-path="url(#pab3454f0e7)" d="M 146.18984 203.241066 
L 157.968618 243.002821 
L 169.747397 245.842947 
L 181.526175 254.363323 
L 193.304954 251.523197 
L 205.083732 234.482445 
L 216.862511 251.523197 
L 228.641289 260.043574 
L 240.420068 257.203448 
L 252.198846 251.523197 
L 263.977625 257.203448 
L 275.756403 225.962069 
L 287.535182 248.683072 
L 299.31396 257.203448 
L 311.092739 223.121944 
L 322.871517 208.921317 
L 334.650296 208.921317 
L 346.429074 183.360188 
L 358.207853 126.55768 
L 369.986631 92.476176 
" style="fill:none;stroke:#a4638d;stroke-linecap:round;stroke-width:1.5;"/>
   </g>
   <g id="line2d_21">
    <path clip-path="url(#pab3454f0e7)" d="M 146.18984 234.482445 
L 157.968618 260.043574 
L 169.747397 251.523197 
L 181.526175 268.56395 
L 193.304954 251.523197 
L 205.083732 257.203448 
L 216.862511 279.924451 
L 228.641289 265.723824 
L 240.420068 254.363323 
L 252.198846 260.043574 
L 263.977625 254.363323 
L 275.756403 262.883699 
L 287.535182 248.683072 
L 299.31396 231.64232 
L 311.092739 211.761442 
L 322.871517 189.040439 
L 334.650296 174.839812 
L 346.429074 143.598433 
L 358.207853 146.438558 
L 369.986631 86.795925 
" style="fill:none;stroke:#985987;stroke-linecap:round;stroke-width:1.5;"/>
   </g>
   <g id="line2d_22">
    <path clip-path="url(#pab3454f0e7)" d="M 146.18984 243.002821 
L 157.968618 268.56395 
L 169.747397 260.043574 
L 181.526175 251.523197 
L 193.304954 240.162696 
L 205.083732 262.883699 
L 216.862511 251.523197 
L 228.641289 254.363323 
L 240.420068 243.002821 
L 252.198846 234.482445 
L 263.977625 245.842947 
L 275.756403 243.002821 
L 287.535182 217.441693 
L 299.31396 220.281818 
L 311.092739 214.601567 
L 322.871517 197.560815 
L 334.650296 171.999687 
L 346.429074 154.958934 
L 358.207853 137.918182 
L 369.986631 83.955799 
" style="fill:none;stroke:#8c5181;stroke-linecap:round;stroke-width:1.5;"/>
   </g>
   <g id="line2d_23">
    <path clip-path="url(#pab3454f0e7)" d="M 146.18984 220.281818 
L 157.968618 271.404075 
L 169.747397 254.363323 
L 181.526175 251.523197 
L 193.304954 251.523197 
L 205.083732 257.203448 
L 216.862511 254.363323 
L 228.641289 265.723824 
L 240.420068 248.683072 
L 252.198846 225.962069 
L 263.977625 237.322571 
L 275.756403 245.842947 
L 287.535182 240.162696 
L 299.31396 240.162696 
L 311.092739 223.121944 
L 322.871517 180.520063 
L 334.650296 203.241066 
L 346.429074 169.159561 
L 358.207853 118.037304 
L 369.986631 106.676803 
" style="fill:none;stroke:#7e497a;stroke-linecap:round;stroke-width:1.5;"/>
   </g>
   <g id="line2d_24">
    <path clip-path="url(#pab3454f0e7)" d="M 146.18984 234.482445 
L 157.968618 282.764577 
L 169.747397 257.203448 
L 181.526175 251.523197 
L 193.304954 231.64232 
L 205.083732 240.162696 
L 216.862511 251.523197 
L 228.641289 234.482445 
L 240.420068 248.683072 
L 252.198846 254.363323 
L 263.977625 254.363323 
L 275.756403 251.523197 
L 287.535182 223.121944 
L 299.31396 214.601567 
L 311.092739 220.281818 
L 322.871517 191.880564 
L 334.650296 166.319436 
L 346.429074 163.47931 
L 358.207853 123.717555 
L 369.986631 69.755172 
" style="fill:none;stroke:#714173;stroke-linecap:round;stroke-width:1.5;"/>
   </g>
   <g id="line2d_25">
    <path clip-path="url(#pab3454f0e7)" d="M 146.18984 240.162696 
L 157.968618 265.723824 
L 169.747397 262.883699 
L 181.526175 254.363323 
L 193.304954 277.084326 
L 205.083732 251.523197 
L 216.862511 245.842947 
L 228.641289 243.002821 
L 240.420068 254.363323 
L 252.198846 243.002821 
L 263.977625 257.203448 
L 275.756403 228.802194 
L 287.535182 223.121944 
L 299.31396 225.962069 
L 311.092739 194.72069 
L 322.871517 203.241066 
L 334.650296 171.999687 
L 346.429074 154.958934 
L 358.207853 118.037304 
L 369.986631 78.275549 
" style="fill:none;stroke:#62396a;stroke-linecap:round;stroke-width:1.5;"/>
   </g>
   <g id="line2d_26">
    <path clip-path="url(#pab3454f0e7)" d="M 146.18984 223.121944 
L 157.968618 254.363323 
L 169.747397 265.723824 
L 181.526175 257.203448 
L 193.304954 240.162696 
L 205.083732 245.842947 
L 216.862511 248.683072 
L 228.641289 265.723824 
L 240.420068 262.883699 
L 252.198846 234.482445 
L 263.977625 245.842947 
L 275.756403 234.482445 
L 287.535182 223.121944 
L 299.31396 228.802194 
L 311.092739 234.482445 
L 322.871517 206.081191 
L 334.650296 194.72069 
L 346.429074 143.598433 
L 358.207853 123.717555 
L 369.986631 55.554545 
" style="fill:none;stroke:#553361;stroke-linecap:round;stroke-width:1.5;"/>
   </g>
   <g id="line2d_27">
    <path clip-path="url(#pab3454f0e7)" d="M 146.18984 223.121944 
L 157.968618 282.764577 
L 169.747397 265.723824 
L 181.526175 262.883699 
L 193.304954 262.883699 
L 205.083732 240.162696 
L 216.862511 237.322571 
L 228.641289 248.683072 
L 240.420068 225.962069 
L 252.198846 234.482445 
L 263.977625 243.002821 
L 275.756403 245.842947 
L 287.535182 248.683072 
L 299.31396 237.322571 
L 311.092739 223.121944 
L 322.871517 208.921317 
L 334.650296 166.319436 
L 346.429074 149.278683 
L 358.207853 129.397806 
L 369.986631 81.115674 
" style="fill:none;stroke:#462b55;stroke-linecap:round;stroke-width:1.5;"/>
   </g>
   <g id="line2d_28">
    <path clip-path="url(#pab3454f0e7)" d="M 146.18984 231.64232 
L 157.968618 243.002821 
L 169.747397 257.203448 
L 181.526175 260.043574 
L 193.304954 260.043574 
L 205.083732 265.723824 
L 216.862511 262.883699 
L 228.641289 254.363323 
L 240.420068 265.723824 
L 252.198846 262.883699 
L 263.977625 234.482445 
L 275.756403 240.162696 
L 287.535182 234.482445 
L 299.31396 234.482445 
L 311.092739 223.121944 
L 322.871517 200.40094 
L 334.650296 197.560815 
L 346.429074 171.999687 
L 358.207853 137.918182 
L 369.986631 83.955799 
" style="fill:none;stroke:#39254a;stroke-linecap:round;stroke-width:1.5;"/>
   </g>
   <g id="line2d_29">
    <path clip-path="url(#pab3454f0e7)" d="M 146.18984 217.441693 
L 157.968618 262.883699 
L 169.747397 248.683072 
L 181.526175 245.842947 
L 193.304954 245.842947 
L 205.083732 248.683072 
L 216.862511 254.363323 
L 228.641289 248.683072 
L 240.420068 251.523197 
L 252.198846 245.842947 
L 263.977625 257.203448 
L 275.756403 240.162696 
L 287.535182 254.363323 
L 299.31396 231.64232 
L 311.092739 217.441693 
L 322.871517 191.880564 
L 334.650296 177.679937 
L 346.429074 146.438558 
L 358.207853 132.237931 
L 369.986631 81.115674 
" style="fill:none;stroke:#2d1e3e;stroke-linecap:round;stroke-width:1.5;"/>
   </g>
   <g id="line2d_30"/>
   <g id="line2d_31"/>
   <g id="line2d_32"/>
   <g id="line2d_33"/>
   <g id="line2d_34"/>
   <g id="patch_3">
    <path d="M 135 315 
L 135 43.2 
" style="fill:none;stroke:#ffffff;stroke-linecap:square;stroke-linejoin:miter;stroke-width:1.25;"/>
   </g>
   <g id="patch_4">
    <path d="M 381.176471 315 
L 381.176471 43.2 
" style="fill:none;stroke:#ffffff;stroke-linecap:square;stroke-linejoin:miter;stroke-width:1.25;"/>
   </g>
   <g id="patch_5">
    <path d="M 135 315 
L 381.176471 315 
" style="fill:none;stroke:#ffffff;stroke-linecap:square;stroke-linejoin:miter;stroke-width:1.25;"/>
   </g>
   <g id="patch_6">
    <path d="M 135 43.2 
L 381.176471 43.2 
" style="fill:none;stroke:#ffffff;stroke-linecap:square;stroke-linejoin:miter;stroke-width:1.25;"/>
   </g>
   <g id="text_12">
    <!-- SPC -->
    <g style="fill:#262626;" transform="translate(245.750735 37.2)scale(0.12 -0.12)">
     <defs>
      <path d="M 288 1472 
L 859 1522 
Q 900 1178 1048 958 
Q 1197 738 1509 602 
Q 1822 466 2213 466 
Q 2559 466 2825 569 
Q 3091 672 3220 851 
Q 3350 1031 3350 1244 
Q 3350 1459 3225 1620 
Q 3100 1781 2813 1891 
Q 2628 1963 1997 2114 
Q 1366 2266 1113 2400 
Q 784 2572 623 2826 
Q 463 3081 463 3397 
Q 463 3744 659 4045 
Q 856 4347 1234 4503 
Q 1613 4659 2075 4659 
Q 2584 4659 2973 4495 
Q 3363 4331 3572 4012 
Q 3781 3694 3797 3291 
L 3216 3247 
Q 3169 3681 2898 3903 
Q 2628 4125 2100 4125 
Q 1550 4125 1298 3923 
Q 1047 3722 1047 3438 
Q 1047 3191 1225 3031 
Q 1400 2872 2139 2705 
Q 2878 2538 3153 2413 
Q 3553 2228 3743 1945 
Q 3934 1663 3934 1294 
Q 3934 928 3725 604 
Q 3516 281 3123 101 
Q 2731 -78 2241 -78 
Q 1619 -78 1198 103 
Q 778 284 539 648 
Q 300 1013 288 1472 
z
" id="ArialMT-53" transform="scale(0.015625)"/>
      <path d="M 494 0 
L 494 4581 
L 2222 4581 
Q 2678 4581 2919 4538 
Q 3256 4481 3484 4323 
Q 3713 4166 3852 3881 
Q 3991 3597 3991 3256 
Q 3991 2672 3619 2267 
Q 3247 1863 2275 1863 
L 1100 1863 
L 1100 0 
L 494 0 
z
M 1100 2403 
L 2284 2403 
Q 2872 2403 3119 2622 
Q 3366 2841 3366 3238 
Q 3366 3525 3220 3729 
Q 3075 3934 2838 4000 
Q 2684 4041 2272 4041 
L 1100 4041 
L 1100 2403 
z
" id="ArialMT-50" transform="scale(0.015625)"/>
      <path d="M 3763 1606 
L 4369 1453 
Q 4178 706 3683 314 
Q 3188 -78 2472 -78 
Q 1731 -78 1267 223 
Q 803 525 561 1097 
Q 319 1669 319 2325 
Q 319 3041 592 3573 
Q 866 4106 1370 4382 
Q 1875 4659 2481 4659 
Q 3169 4659 3637 4309 
Q 4106 3959 4291 3325 
L 3694 3184 
Q 3534 3684 3231 3912 
Q 2928 4141 2469 4141 
Q 1941 4141 1586 3887 
Q 1231 3634 1087 3207 
Q 944 2781 944 2328 
Q 944 1744 1114 1308 
Q 1284 872 1643 656 
Q 2003 441 2422 441 
Q 2931 441 3284 734 
Q 3638 1028 3763 1606 
z
" id="ArialMT-43" transform="scale(0.015625)"/>
     </defs>
     <use xlink:href="#ArialMT-53"/>
     <use x="66.699219" xlink:href="#ArialMT-50"/>
     <use x="133.398438" xlink:href="#ArialMT-43"/>
    </g>
   </g>
   <g id="legend_1">
    <g id="patch_7">
     <path d="M 142.7 57.5 
L 147.1 57.5 
Q 149.3 57.5 149.3 55.3 
L 149.3 50.9 
Q 149.3 48.7 147.1 48.7 
L 142.7 48.7 
Q 140.5 48.7 140.5 50.9 
L 140.5 55.3 
Q 140.5 57.5 142.7 57.5 
z
" style="fill:#eaeaf2;opacity:0.8;stroke:#cccccc;stroke-linejoin:miter;"/>
    </g>
   </g>
  </g>
  <g id="axes_2">
   <g id="patch_8">
    <path d="M 430.411765 315 
L 676.588235 315 
L 676.588235 43.2 
L 430.411765 43.2 
z
" style="fill:#eaeaf2;"/>
   </g>
   <g id="matplotlib.axis_3">
    <g id="xtick_5">
     <g id="line2d_35">
      <path clip-path="url(#p26577fbcec)" d="M 441.601604 315 
L 441.601604 43.2 
" style="fill:none;stroke:#ffffff;stroke-linecap:round;"/>
     </g>
     <g id="text_13">
      <!-- −10 -->
      <g style="fill:#262626;" transform="translate(432.272229 332.373594)scale(0.11 -0.11)">
       <defs>
        <path d="M 3381 1997 
L 356 1997 
L 356 2522 
L 3381 2522 
L 3381 1997 
z
" id="ArialMT-2212" transform="scale(0.015625)"/>
       </defs>
       <use xlink:href="#ArialMT-2212"/>
       <use x="58.398438" xlink:href="#ArialMT-31"/>
       <use x="114.013672" xlink:href="#ArialMT-30"/>
      </g>
     </g>
    </g>
    <g id="xtick_6">
     <g id="line2d_36">
      <path clip-path="url(#p26577fbcec)" d="M 497.550802 315 
L 497.550802 43.2 
" style="fill:none;stroke:#ffffff;stroke-linecap:round;"/>
     </g>
     <g id="text_14">
      <!-- −5 -->
      <g style="fill:#262626;" transform="translate(491.279943 332.373594)scale(0.11 -0.11)">
       <use xlink:href="#ArialMT-2212"/>
       <use x="58.398438" xlink:href="#ArialMT-35"/>
      </g>
     </g>
    </g>
    <g id="xtick_7">
     <g id="line2d_37">
      <path clip-path="url(#p26577fbcec)" d="M 553.5 315 
L 553.5 43.2 
" style="fill:none;stroke:#ffffff;stroke-linecap:round;"/>
     </g>
     <g id="text_15">
      <!-- 0 -->
      <g style="fill:#262626;" transform="translate(550.441484 332.373594)scale(0.11 -0.11)">
       <use xlink:href="#ArialMT-30"/>
      </g>
     </g>
    </g>
    <g id="xtick_8">
     <g id="line2d_38">
      <path clip-path="url(#p26577fbcec)" d="M 609.449198 315 
L 609.449198 43.2 
" style="fill:none;stroke:#ffffff;stroke-linecap:round;"/>
     </g>
     <g id="text_16">
      <!-- 5 -->
      <g style="fill:#262626;" transform="translate(606.390682 332.373594)scale(0.11 -0.11)">
       <use xlink:href="#ArialMT-35"/>
      </g>
     </g>
    </g>
    <g id="xtick_9">
     <g id="line2d_39">
      <path clip-path="url(#p26577fbcec)" d="M 665.398396 315 
L 665.398396 43.2 
" style="fill:none;stroke:#ffffff;stroke-linecap:round;"/>
     </g>
     <g id="text_17">
      <!-- 10 -->
      <g style="fill:#262626;" transform="translate(659.281364 332.373594)scale(0.11 -0.11)">
       <use xlink:href="#ArialMT-31"/>
       <use x="55.615234" xlink:href="#ArialMT-30"/>
      </g>
     </g>
    </g>
    <g id="text_18">
     <!-- lag -->
     <g style="fill:#262626;" transform="translate(545.49375 347.149219)scale(0.12 -0.12)">
      <defs>
       <path d="M 319 -275 
L 866 -356 
Q 900 -609 1056 -725 
Q 1266 -881 1628 -881 
Q 2019 -881 2231 -725 
Q 2444 -569 2519 -288 
Q 2563 -116 2559 434 
Q 2191 0 1641 0 
Q 956 0 581 494 
Q 206 988 206 1678 
Q 206 2153 378 2554 
Q 550 2956 876 3175 
Q 1203 3394 1644 3394 
Q 2231 3394 2613 2919 
L 2613 3319 
L 3131 3319 
L 3131 450 
Q 3131 -325 2973 -648 
Q 2816 -972 2473 -1159 
Q 2131 -1347 1631 -1347 
Q 1038 -1347 672 -1080 
Q 306 -813 319 -275 
z
M 784 1719 
Q 784 1066 1043 766 
Q 1303 466 1694 466 
Q 2081 466 2343 764 
Q 2606 1063 2606 1700 
Q 2606 2309 2336 2618 
Q 2066 2928 1684 2928 
Q 1309 2928 1046 2623 
Q 784 2319 784 1719 
z
" id="ArialMT-67" transform="scale(0.015625)"/>
      </defs>
      <use xlink:href="#ArialMT-6c"/>
      <use x="22.216797" xlink:href="#ArialMT-61"/>
      <use x="77.832031" xlink:href="#ArialMT-67"/>
     </g>
    </g>
   </g>
   <g id="matplotlib.axis_4">
    <g id="ytick_6">
     <g id="line2d_40">
      <path clip-path="url(#p26577fbcec)" d="M 430.411765 302.645455 
L 676.588235 302.645455 
" style="fill:none;stroke:#ffffff;stroke-linecap:round;"/>
     </g>
    </g>
    <g id="ytick_7">
     <g id="line2d_41">
      <path clip-path="url(#p26577fbcec)" d="M 430.411765 245.842947 
L 676.588235 245.842947 
" style="fill:none;stroke:#ffffff;stroke-linecap:round;"/>
     </g>
    </g>
    <g id="ytick_8">
     <g id="line2d_42">
      <path clip-path="url(#p26577fbcec)" d="M 430.411765 189.040439 
L 676.588235 189.040439 
" style="fill:none;stroke:#ffffff;stroke-linecap:round;"/>
     </g>
    </g>
    <g id="ytick_9">
     <g id="line2d_43">
      <path clip-path="url(#p26577fbcec)" d="M 430.411765 132.237931 
L 676.588235 132.237931 
" style="fill:none;stroke:#ffffff;stroke-linecap:round;"/>
     </g>
    </g>
    <g id="ytick_10">
     <g id="line2d_44">
      <path clip-path="url(#p26577fbcec)" d="M 430.411765 75.435423 
L 676.588235 75.435423 
" style="fill:none;stroke:#ffffff;stroke-linecap:round;"/>
     </g>
    </g>
   </g>
   <g id="line2d_45">
    <path clip-path="url(#p26577fbcec)" d="M 441.601604 287.108298 
L 452.791444 289.954529 
L 463.981283 296.748184 
L 475.171123 296.183371 
L 486.360963 299.686991 
L 497.550802 291.207341 
L 508.740642 278.107774 
L 519.930481 286.521356 
L 531.120321 273.519142 
L 542.31016 277.023392 
" style="fill:none;stroke:#edd1cb;stroke-linecap:round;stroke-width:1.5;"/>
   </g>
   <g id="line2d_46">
    <path clip-path="url(#p26577fbcec)" d="M 441.601604 288.413375 
L 452.791444 297.581486 
L 463.981283 289.038399 
L 475.171123 297.878473 
L 486.360963 295.429961 
L 497.550802 291.833279 
L 508.740642 285.221756 
L 519.930481 278.073666 
L 531.120321 277.518724 
L 542.31016 275.567557 
" style="fill:none;stroke:#e9c6c2;stroke-linecap:round;stroke-width:1.5;"/>
   </g>
   <g id="line2d_47">
    <path clip-path="url(#p26577fbcec)" d="M 441.601604 293.528139 
L 452.791444 298.892052 
L 463.981283 294.447233 
L 475.171123 292.427014 
L 486.360963 295.341785 
L 497.550802 292.66753 
L 508.740642 288.150819 
L 519.930481 291.050481 
L 531.120321 285.644393 
L 542.31016 274.39488 
" style="fill:none;stroke:#e5baba;stroke-linecap:round;stroke-width:1.5;"/>
   </g>
   <g id="line2d_48">
    <path clip-path="url(#p26577fbcec)" d="M 441.601604 297.076581 
L 452.791444 292.088462 
L 463.981283 297.54235 
L 475.171123 292.467173 
L 486.360963 291.665295 
L 497.550802 291.161368 
L 508.740642 288.786824 
L 519.930481 281.190828 
L 531.120321 280.888635 
L 542.31016 269.27892 
" style="fill:none;stroke:#dfaeb2;stroke-linecap:round;stroke-width:1.5;"/>
   </g>
   <g id="line2d_49">
    <path clip-path="url(#p26577fbcec)" d="M 441.601604 291.164251 
L 452.791444 294.799844 
L 463.981283 294.319946 
L 475.171123 296.683082 
L 486.360963 290.546991 
L 497.550802 293.770662 
L 508.740642 292.189218 
L 519.930481 282.951137 
L 531.120321 284.222047 
L 542.31016 270.551366 
" style="fill:none;stroke:#daa2ac;stroke-linecap:round;stroke-width:1.5;"/>
   </g>
   <g id="line2d_50">
    <path clip-path="url(#p26577fbcec)" d="M 441.601604 295.007239 
L 452.791444 296.684838 
L 463.981283 297.36739 
L 475.171123 295.255869 
L 486.360963 296.536931 
L 497.550802 297.339629 
L 508.740642 294.545673 
L 519.930481 286.367865 
L 531.120321 281.288782 
L 542.31016 262.013433 
" style="fill:none;stroke:#d396a5;stroke-linecap:round;stroke-width:1.5;"/>
   </g>
   <g id="line2d_51">
    <path clip-path="url(#p26577fbcec)" d="M 441.601604 290.864194 
L 452.791444 296.843048 
L 463.981283 292.225844 
L 475.171123 292.565695 
L 486.360963 289.906413 
L 497.550802 289.590843 
L 508.740642 297.214338 
L 519.930481 284.469364 
L 531.120321 274.544348 
L 542.31016 281.155884 
" style="fill:none;stroke:#cb8ca0;stroke-linecap:round;stroke-width:1.5;"/>
   </g>
   <g id="line2d_52">
    <path clip-path="url(#p26577fbcec)" d="M 441.601604 294.019889 
L 452.791444 296.299387 
L 463.981283 288.021261 
L 475.171123 292.707956 
L 486.360963 294.258852 
L 497.550802 298.889492 
L 508.740642 291.669599 
L 519.930481 279.199514 
L 531.120321 283.445887 
L 542.31016 264.537167 
" style="fill:none;stroke:#c2809b;stroke-linecap:round;stroke-width:1.5;"/>
   </g>
   <g id="line2d_53">
    <path clip-path="url(#p26577fbcec)" d="M 441.601604 290.222755 
L 452.791444 290.8078 
L 463.981283 292.323597 
L 475.171123 294.561202 
L 486.360963 291.253743 
L 497.550802 289.491009 
L 508.740642 291.932507 
L 519.930481 283.995494 
L 531.120321 284.03102 
L 542.31016 273.795837 
" style="fill:none;stroke:#ba7696;stroke-linecap:round;stroke-width:1.5;"/>
   </g>
   <g id="line2d_54">
    <path clip-path="url(#p26577fbcec)" d="M 441.601604 295.071787 
L 452.791444 298.844502 
L 463.981283 296.143336 
L 475.171123 293.717117 
L 486.360963 292.115038 
L 497.550802 291.19381 
L 508.740642 283.075491 
L 519.930481 284.443251 
L 531.120321 287.350514 
L 542.31016 269.168913 
" style="fill:none;stroke:#af6c91;stroke-linecap:round;stroke-width:1.5;"/>
   </g>
   <g id="line2d_55">
    <path clip-path="url(#p26577fbcec)" d="M 441.601604 295.300303 
L 452.791444 296.714925 
L 463.981283 294.6474 
L 475.171123 294.418107 
L 486.360963 293.71243 
L 497.550802 293.411461 
L 508.740642 287.849293 
L 519.930481 281.229278 
L 531.120321 283.437758 
L 542.31016 263.149178 
" style="fill:none;stroke:#a4638d;stroke-linecap:round;stroke-width:1.5;"/>
   </g>
   <g id="line2d_56">
    <path clip-path="url(#p26577fbcec)" d="M 441.601604 289.954529 
L 452.791444 296.669554 
L 463.981283 294.330303 
L 475.171123 293.315973 
L 486.360963 294.605509 
L 497.550802 287.135634 
L 508.740642 287.689977 
L 519.930481 281.484738 
L 531.120321 274.592795 
L 542.31016 272.630493 
" style="fill:none;stroke:#985987;stroke-linecap:round;stroke-width:1.5;"/>
   </g>
   <g id="line2d_57">
    <path clip-path="url(#p26577fbcec)" d="M 441.601604 296.513366 
L 452.791444 292.012914 
L 463.981283 291.779823 
L 475.171123 291.97409 
L 486.360963 290.41338 
L 497.550802 291.001942 
L 508.740642 285.64227 
L 519.930481 282.767081 
L 531.120321 274.747609 
L 542.31016 277.580221 
" style="fill:none;stroke:#8c5181;stroke-linecap:round;stroke-width:1.5;"/>
   </g>
   <g id="line2d_58">
    <path clip-path="url(#p26577fbcec)" d="M 441.601604 294.181303 
L 452.791444 293.8166 
L 463.981283 290.88378 
L 475.171123 295.243754 
L 486.360963 294.117565 
L 497.550802 291.137186 
L 508.740642 281.737118 
L 519.930481 280.78719 
L 531.120321 282.964471 
L 542.31016 277.803646 
" style="fill:none;stroke:#7e497a;stroke-linecap:round;stroke-width:1.5;"/>
   </g>
   <g id="line2d_59">
    <path clip-path="url(#p26577fbcec)" d="M 441.601604 299.170433 
L 452.791444 289.804782 
L 463.981283 300.015709 
L 475.171123 293.437588 
L 486.360963 291.996842 
L 497.550802 289.945888 
L 508.740642 289.744673 
L 519.930481 278.849114 
L 531.120321 277.455022 
L 542.31016 268.591881 
" style="fill:none;stroke:#714173;stroke-linecap:round;stroke-width:1.5;"/>
   </g>
   <g id="line2d_60">
    <path clip-path="url(#p26577fbcec)" d="M 441.601604 285.820799 
L 452.791444 295.363082 
L 463.981283 292.363438 
L 475.171123 288.094467 
L 486.360963 292.649154 
L 497.550802 291.409417 
L 508.740642 292.560951 
L 519.930481 289.531435 
L 531.120321 280.462488 
L 542.31016 263.890031 
" style="fill:none;stroke:#62396a;stroke-linecap:round;stroke-width:1.5;"/>
   </g>
   <g id="line2d_61">
    <path clip-path="url(#p26577fbcec)" d="M 441.601604 296.169251 
L 452.791444 292.414895 
L 463.981283 294.818022 
L 475.171123 293.098387 
L 486.360963 291.615065 
L 497.550802 295.059557 
L 508.740642 290.896726 
L 519.930481 286.917337 
L 531.120321 269.859559 
L 542.31016 271.009374 
" style="fill:none;stroke:#553361;stroke-linecap:round;stroke-width:1.5;"/>
   </g>
   <g id="line2d_62">
    <path clip-path="url(#p26577fbcec)" d="M 441.601604 294.383806 
L 452.791444 300.655995 
L 463.981283 296.52272 
L 475.171123 297.933726 
L 486.360963 290.992904 
L 497.550802 294.054548 
L 508.740642 289.862709 
L 519.930481 284.68605 
L 531.120321 273.466068 
L 542.31016 264.237578 
" style="fill:none;stroke:#462b55;stroke-linecap:round;stroke-width:1.5;"/>
   </g>
   <g id="line2d_63">
    <path clip-path="url(#p26577fbcec)" d="M 441.601604 296.823742 
L 452.791444 293.123961 
L 463.981283 296.792651 
L 475.171123 292.0617 
L 486.360963 295.036033 
L 497.550802 292.581171 
L 508.740642 296.520608 
L 519.930481 279.287353 
L 531.120321 277.931026 
L 542.31016 256.499246 
" style="fill:none;stroke:#39254a;stroke-linecap:round;stroke-width:1.5;"/>
   </g>
   <g id="line2d_64">
    <path clip-path="url(#p26577fbcec)" d="M 441.601604 294.634844 
L 452.791444 297.205968 
L 463.981283 297.44376 
L 475.171123 288.827039 
L 486.360963 292.611217 
L 497.550802 294.850743 
L 508.740642 284.645633 
L 519.930481 286.49615 
L 531.120321 278.785057 
L 542.31016 268.412709 
" style="fill:none;stroke:#2d1e3e;stroke-linecap:round;stroke-width:1.5;"/>
   </g>
   <g id="line2d_65"/>
   <g id="line2d_66"/>
   <g id="line2d_67"/>
   <g id="line2d_68"/>
   <g id="line2d_69"/>
   <g id="line2d_70">
    <path clip-path="url(#p26577fbcec)" d="M 564.68984 226.642848 
L 575.879679 263.276172 
L 587.069519 267.472376 
L 598.259358 279.766667 
L 609.449198 292.344072 
L 620.639037 286.605508 
L 631.828877 274.309944 
L 643.018717 298.392127 
L 654.208556 291.528802 
L 665.398396 292.290831 
" style="fill:none;stroke:#edd1cb;stroke-linecap:round;stroke-width:1.5;"/>
   </g>
   <g id="line2d_71">
    <path clip-path="url(#p26577fbcec)" d="M 564.68984 223.229992 
L 575.879679 256.567497 
L 587.069519 271.95606 
L 598.259358 267.009412 
L 609.449198 284.115368 
L 620.639037 291.860168 
L 631.828877 289.30381 
L 643.018717 291.311621 
L 654.208556 295.249295 
L 665.398396 293.333568 
" style="fill:none;stroke:#e9c6c2;stroke-linecap:round;stroke-width:1.5;"/>
   </g>
   <g id="line2d_72">
    <path clip-path="url(#p26577fbcec)" d="M 564.68984 239.664522 
L 575.879679 248.569043 
L 587.069519 260.612588 
L 598.259358 277.16614 
L 609.449198 279.083128 
L 620.639037 282.436039 
L 631.828877 287.113519 
L 643.018717 293.253505 
L 654.208556 279.400381 
L 665.398396 285.16776 
" style="fill:none;stroke:#e5baba;stroke-linecap:round;stroke-width:1.5;"/>
   </g>
   <g id="line2d_73">
    <path clip-path="url(#p26577fbcec)" d="M 564.68984 214.072118 
L 575.879679 245.992344 
L 587.069519 281.647496 
L 598.259358 271.577416 
L 609.449198 279.604241 
L 620.639037 294.827938 
L 631.828877 301.118505 
L 643.018717 287.241385 
L 654.208556 290.629539 
L 665.398396 287.682281 
" style="fill:none;stroke:#dfaeb2;stroke-linecap:round;stroke-width:1.5;"/>
   </g>
   <g id="line2d_74">
    <path clip-path="url(#p26577fbcec)" d="M 564.68984 232.12259 
L 575.879679 251.392247 
L 587.069519 273.629455 
L 598.259358 270.484416 
L 609.449198 288.956562 
L 620.639037 272.176898 
L 631.828877 288.157946 
L 643.018717 298.137319 
L 654.208556 285.739946 
L 665.398396 291.284953 
" style="fill:none;stroke:#daa2ac;stroke-linecap:round;stroke-width:1.5;"/>
   </g>
   <g id="line2d_75">
    <path clip-path="url(#p26577fbcec)" d="M 564.68984 215.625775 
L 575.879679 244.014793 
L 587.069519 271.341401 
L 598.259358 273.784718 
L 609.449198 296.659991 
L 620.639037 289.644881 
L 631.828877 298.947375 
L 643.018717 290.611025 
L 654.208556 281.785777 
L 665.398396 280.983481 
" style="fill:none;stroke:#d396a5;stroke-linecap:round;stroke-width:1.5;"/>
   </g>
   <g id="line2d_76">
    <path clip-path="url(#p26577fbcec)" d="M 564.68984 215.322869 
L 575.879679 255.974725 
L 587.069519 282.879612 
L 598.259358 276.857593 
L 609.449198 279.865282 
L 620.639037 278.915459 
L 631.828877 288.4734 
L 643.018717 296.380472 
L 654.208556 280.74399 
L 665.398396 281.788284 
" style="fill:none;stroke:#cb8ca0;stroke-linecap:round;stroke-width:1.5;"/>
   </g>
   <g id="line2d_77">
    <path clip-path="url(#p26577fbcec)" d="M 564.68984 228.819835 
L 575.879679 246.47592 
L 587.069519 266.042862 
L 598.259358 269.979504 
L 609.449198 282.696955 
L 620.639037 280.488673 
L 631.828877 288.597522 
L 643.018717 289.233751 
L 654.208556 294.076111 
L 665.398396 284.375642 
" style="fill:none;stroke:#c2809b;stroke-linecap:round;stroke-width:1.5;"/>
   </g>
   <g id="line2d_78">
    <path clip-path="url(#p26577fbcec)" d="M 564.68984 210.764017 
L 575.879679 246.600639 
L 587.069519 285.170498 
L 598.259358 273.32379 
L 609.449198 289.978229 
L 620.639037 288.932104 
L 631.828877 277.958211 
L 643.018717 299.541492 
L 654.208556 300.391387 
L 665.398396 288.204139 
" style="fill:none;stroke:#ba7696;stroke-linecap:round;stroke-width:1.5;"/>
   </g>
   <g id="line2d_79">
    <path clip-path="url(#p26577fbcec)" d="M 564.68984 219.528605 
L 575.879679 256.889205 
L 587.069519 255.538256 
L 598.259358 279.756286 
L 609.449198 281.239748 
L 620.639037 290.988223 
L 631.828877 292.102565 
L 643.018717 295.576839 
L 654.208556 298.250022 
L 665.398396 297.733288 
" style="fill:none;stroke:#af6c91;stroke-linecap:round;stroke-width:1.5;"/>
   </g>
   <g id="line2d_80">
    <path clip-path="url(#p26577fbcec)" d="M 564.68984 225.619241 
L 575.879679 251.845397 
L 587.069519 269.371946 
L 598.259358 278.109622 
L 609.449198 272.310782 
L 620.639037 291.63126 
L 631.828877 294.380539 
L 643.018717 281.22417 
L 654.208556 298.262545 
L 665.398396 287.551706 
" style="fill:none;stroke:#a4638d;stroke-linecap:round;stroke-width:1.5;"/>
   </g>
   <g id="line2d_81">
    <path clip-path="url(#p26577fbcec)" d="M 564.68984 209.793773 
L 575.879679 257.846571 
L 587.069519 264.761886 
L 598.259358 274.486429 
L 609.449198 271.673397 
L 620.639037 291.02676 
L 631.828877 288.080709 
L 643.018717 295.808116 
L 654.208556 277.948712 
L 665.398396 293.409274 
" style="fill:none;stroke:#985987;stroke-linecap:round;stroke-width:1.5;"/>
   </g>
   <g id="line2d_82">
    <path clip-path="url(#p26577fbcec)" d="M 564.68984 218.853106 
L 575.879679 241.011638 
L 587.069519 257.599765 
L 598.259358 274.957474 
L 609.449198 282.044545 
L 620.639037 286.103506 
L 631.828877 289.305472 
L 643.018717 299.577418 
L 654.208556 284.097697 
L 665.398396 282.648653 
" style="fill:none;stroke:#8c5181;stroke-linecap:round;stroke-width:1.5;"/>
   </g>
   <g id="line2d_83">
    <path clip-path="url(#p26577fbcec)" d="M 564.68984 205.711575 
L 575.879679 238.166112 
L 587.069519 269.069237 
L 598.259358 291.244951 
L 609.449198 280.55559 
L 620.639037 291.825929 
L 631.828877 286.031421 
L 643.018717 286.402907 
L 654.208556 287.672004 
L 665.398396 296.471269 
" style="fill:none;stroke:#7e497a;stroke-linecap:round;stroke-width:1.5;"/>
   </g>
   <g id="line2d_84">
    <path clip-path="url(#p26577fbcec)" d="M 564.68984 232.099326 
L 575.879679 264.737338 
L 587.069519 262.316652 
L 598.259358 271.785218 
L 609.449198 285.851106 
L 620.639037 284.177973 
L 631.828877 284.746748 
L 643.018717 277.679836 
L 654.208556 277.753551 
L 665.398396 282.484071 
" style="fill:none;stroke:#714173;stroke-linecap:round;stroke-width:1.5;"/>
   </g>
   <g id="line2d_85">
    <path clip-path="url(#p26577fbcec)" d="M 564.68984 228.770888 
L 575.879679 249.042918 
L 587.069519 276.010826 
L 598.259358 290.158537 
L 609.449198 279.306461 
L 620.639037 277.23747 
L 631.828877 272.516082 
L 643.018717 291.654009 
L 654.208556 286.691664 
L 665.398396 283.324874 
" style="fill:none;stroke:#62396a;stroke-linecap:round;stroke-width:1.5;"/>
   </g>
   <g id="line2d_86">
    <path clip-path="url(#p26577fbcec)" d="M 564.68984 212.472613 
L 575.879679 254.048303 
L 587.069519 265.615972 
L 598.259358 287.037558 
L 609.449198 275.715437 
L 620.639037 288.126606 
L 631.828877 278.977743 
L 643.018717 291.70934 
L 654.208556 288.527872 
L 665.398396 289.604062 
" style="fill:none;stroke:#553361;stroke-linecap:round;stroke-width:1.5;"/>
   </g>
   <g id="line2d_87">
    <path clip-path="url(#p26577fbcec)" d="M 564.68984 225.441072 
L 575.879679 252.473205 
L 587.069519 277.057394 
L 598.259358 264.443768 
L 609.449198 276.889415 
L 620.639037 291.625176 
L 631.828877 285.131348 
L 643.018717 297.748687 
L 654.208556 287.625561 
L 665.398396 275.596641 
" style="fill:none;stroke:#462b55;stroke-linecap:round;stroke-width:1.5;"/>
   </g>
   <g id="line2d_88">
    <path clip-path="url(#p26577fbcec)" d="M 564.68984 210.105986 
L 575.879679 258.922472 
L 587.069519 274.732582 
L 598.259358 282.044545 
L 609.449198 270.586463 
L 620.639037 288.69841 
L 631.828877 286.723539 
L 643.018717 284.657994 
L 654.208556 290.297083 
L 665.398396 292.963209 
" style="fill:none;stroke:#39254a;stroke-linecap:round;stroke-width:1.5;"/>
   </g>
   <g id="line2d_89">
    <path clip-path="url(#p26577fbcec)" d="M 564.68984 219.152971 
L 575.879679 248.275691 
L 587.069519 268.462089 
L 598.259358 269.446692 
L 609.449198 288.868727 
L 620.639037 294.738039 
L 631.828877 276.152887 
L 643.018717 295.424797 
L 654.208556 300.321716 
L 665.398396 283.360653 
" style="fill:none;stroke:#2d1e3e;stroke-linecap:round;stroke-width:1.5;"/>
   </g>
   <g id="line2d_90"/>
   <g id="line2d_91"/>
   <g id="line2d_92"/>
   <g id="line2d_93"/>
   <g id="line2d_94"/>
   <g id="patch_9">
    <path d="M 430.411765 315 
L 430.411765 43.2 
" style="fill:none;stroke:#ffffff;stroke-linecap:square;stroke-linejoin:miter;stroke-width:1.25;"/>
   </g>
   <g id="patch_10">
    <path d="M 676.588235 315 
L 676.588235 43.2 
" style="fill:none;stroke:#ffffff;stroke-linecap:square;stroke-linejoin:miter;stroke-width:1.25;"/>
   </g>
   <g id="patch_11">
    <path d="M 430.411765 315 
L 676.588235 315 
" style="fill:none;stroke:#ffffff;stroke-linecap:square;stroke-linejoin:miter;stroke-width:1.25;"/>
   </g>
   <g id="patch_12">
    <path d="M 430.411765 43.2 
L 676.588235 43.2 
" style="fill:none;stroke:#ffffff;stroke-linecap:square;stroke-linejoin:miter;stroke-width:1.25;"/>
   </g>
   <g id="text_19">
    <!-- Lag-CRP -->
    <g style="fill:#262626;" transform="translate(528.824062 37.2)scale(0.12 -0.12)">
     <defs>
      <path d="M 469 0 
L 469 4581 
L 1075 4581 
L 1075 541 
L 3331 541 
L 3331 0 
L 469 0 
z
" id="ArialMT-4c" transform="scale(0.015625)"/>
      <path d="M 203 1375 
L 203 1941 
L 1931 1941 
L 1931 1375 
L 203 1375 
z
" id="ArialMT-2d" transform="scale(0.015625)"/>
      <path d="M 503 0 
L 503 4581 
L 2534 4581 
Q 3147 4581 3465 4457 
Q 3784 4334 3975 4021 
Q 4166 3709 4166 3331 
Q 4166 2844 3850 2509 
Q 3534 2175 2875 2084 
Q 3116 1969 3241 1856 
Q 3506 1613 3744 1247 
L 4541 0 
L 3778 0 
L 3172 953 
Q 2906 1366 2734 1584 
Q 2563 1803 2427 1890 
Q 2291 1978 2150 2013 
Q 2047 2034 1813 2034 
L 1109 2034 
L 1109 0 
L 503 0 
z
M 1109 2559 
L 2413 2559 
Q 2828 2559 3062 2645 
Q 3297 2731 3419 2920 
Q 3541 3109 3541 3331 
Q 3541 3656 3305 3865 
Q 3069 4075 2559 4075 
L 1109 4075 
L 1109 2559 
z
" id="ArialMT-52" transform="scale(0.015625)"/>
     </defs>
     <use xlink:href="#ArialMT-4c"/>
     <use x="55.615234" xlink:href="#ArialMT-61"/>
     <use x="111.230469" xlink:href="#ArialMT-67"/>
     <use x="166.845703" xlink:href="#ArialMT-2d"/>
     <use x="200.146484" xlink:href="#ArialMT-43"/>
     <use x="272.363281" xlink:href="#ArialMT-52"/>
     <use x="344.580078" xlink:href="#ArialMT-50"/>
    </g>
   </g>
   <g id="legend_2">
    <g id="patch_13">
     <path d="M 612.281204 363.196875 
L 668.888235 363.196875 
Q 671.088235 363.196875 671.088235 360.996875 
L 671.088235 50.9 
Q 671.088235 48.7 668.888235 48.7 
L 612.281204 48.7 
Q 610.081204 48.7 610.081204 50.9 
L 610.081204 360.996875 
Q 610.081204 363.196875 612.281204 363.196875 
z
" style="fill:#eaeaf2;opacity:0.8;stroke:#cccccc;stroke-linejoin:miter;"/>
    </g>
    <g id="line2d_95">
     <path d="M 614.481204 57.123594 
L 636.481204 57.123594 
" style="fill:none;stroke:#edd1cb;stroke-linecap:round;stroke-width:1.5;"/>
    </g>
    <g id="line2d_96"/>
    <g id="text_20">
     <!-- 0.04 -->
     <g style="fill:#262626;" transform="translate(645.281204 60.973594)scale(0.11 -0.11)">
      <use xlink:href="#ArialMT-30"/>
      <use x="55.615234" xlink:href="#ArialMT-2e"/>
      <use x="83.398438" xlink:href="#ArialMT-30"/>
      <use x="139.013672" xlink:href="#ArialMT-34"/>
     </g>
    </g>
    <g id="line2d_97">
     <path d="M 614.481204 72.683438 
L 636.481204 72.683438 
" style="fill:none;stroke:#e9c6c2;stroke-linecap:round;stroke-width:1.5;"/>
    </g>
    <g id="line2d_98"/>
    <g id="text_21">
     <!-- 0.08 -->
     <g style="fill:#262626;" transform="translate(645.281204 76.533438)scale(0.11 -0.11)">
      <use xlink:href="#ArialMT-30"/>
      <use x="55.615234" xlink:href="#ArialMT-2e"/>
      <use x="83.398438" xlink:href="#ArialMT-30"/>
      <use x="139.013672" xlink:href="#ArialMT-38"/>
     </g>
    </g>
    <g id="line2d_99">
     <path d="M 614.481204 88.243281 
L 636.481204 88.243281 
" style="fill:none;stroke:#e5baba;stroke-linecap:round;stroke-width:1.5;"/>
    </g>
    <g id="line2d_100"/>
    <g id="text_22">
     <!-- 0.12 -->
     <g style="fill:#262626;" transform="translate(645.281204 92.093281)scale(0.11 -0.11)">
      <use xlink:href="#ArialMT-30"/>
      <use x="55.615234" xlink:href="#ArialMT-2e"/>
      <use x="83.398438" xlink:href="#ArialMT-31"/>
      <use x="139.013672" xlink:href="#ArialMT-32"/>
     </g>
    </g>
    <g id="line2d_101">
     <path d="M 614.481204 103.803125 
L 636.481204 103.803125 
" style="fill:none;stroke:#dfaeb2;stroke-linecap:round;stroke-width:1.5;"/>
    </g>
    <g id="line2d_102"/>
    <g id="text_23">
     <!-- 0.16 -->
     <g style="fill:#262626;" transform="translate(645.281204 107.653125)scale(0.11 -0.11)">
      <use xlink:href="#ArialMT-30"/>
      <use x="55.615234" xlink:href="#ArialMT-2e"/>
      <use x="83.398438" xlink:href="#ArialMT-31"/>
      <use x="139.013672" xlink:href="#ArialMT-36"/>
     </g>
    </g>
    <g id="line2d_103">
     <path d="M 614.481204 119.362969 
L 636.481204 119.362969 
" style="fill:none;stroke:#daa2ac;stroke-linecap:round;stroke-width:1.5;"/>
    </g>
    <g id="line2d_104"/>
    <g id="text_24">
     <!-- 0.2 -->
     <g style="fill:#262626;" transform="translate(645.281204 123.212969)scale(0.11 -0.11)">
      <use xlink:href="#ArialMT-30"/>
      <use x="55.615234" xlink:href="#ArialMT-2e"/>
      <use x="83.398438" xlink:href="#ArialMT-32"/>
     </g>
    </g>
    <g id="line2d_105">
     <path d="M 614.481204 134.922813 
L 636.481204 134.922813 
" style="fill:none;stroke:#d396a5;stroke-linecap:round;stroke-width:1.5;"/>
    </g>
    <g id="line2d_106"/>
    <g id="text_25">
     <!-- 0.24 -->
     <g style="fill:#262626;" transform="translate(645.281204 138.772813)scale(0.11 -0.11)">
      <use xlink:href="#ArialMT-30"/>
      <use x="55.615234" xlink:href="#ArialMT-2e"/>
      <use x="83.398438" xlink:href="#ArialMT-32"/>
      <use x="139.013672" xlink:href="#ArialMT-34"/>
     </g>
    </g>
    <g id="line2d_107">
     <path d="M 614.481204 150.482656 
L 636.481204 150.482656 
" style="fill:none;stroke:#cb8ca0;stroke-linecap:round;stroke-width:1.5;"/>
    </g>
    <g id="line2d_108"/>
    <g id="text_26">
     <!-- 0.28 -->
     <g style="fill:#262626;" transform="translate(645.281204 154.332656)scale(0.11 -0.11)">
      <use xlink:href="#ArialMT-30"/>
      <use x="55.615234" xlink:href="#ArialMT-2e"/>
      <use x="83.398438" xlink:href="#ArialMT-32"/>
      <use x="139.013672" xlink:href="#ArialMT-38"/>
     </g>
    </g>
    <g id="line2d_109">
     <path d="M 614.481204 166.0425 
L 636.481204 166.0425 
" style="fill:none;stroke:#c2809b;stroke-linecap:round;stroke-width:1.5;"/>
    </g>
    <g id="line2d_110"/>
    <g id="text_27">
     <!-- 0.32 -->
     <g style="fill:#262626;" transform="translate(645.281204 169.8925)scale(0.11 -0.11)">
      <defs>
       <path d="M 269 1209 
L 831 1284 
Q 928 806 1161 595 
Q 1394 384 1728 384 
Q 2125 384 2398 659 
Q 2672 934 2672 1341 
Q 2672 1728 2419 1979 
Q 2166 2231 1775 2231 
Q 1616 2231 1378 2169 
L 1441 2663 
Q 1497 2656 1531 2656 
Q 1891 2656 2178 2843 
Q 2466 3031 2466 3422 
Q 2466 3731 2256 3934 
Q 2047 4138 1716 4138 
Q 1388 4138 1169 3931 
Q 950 3725 888 3313 
L 325 3413 
Q 428 3978 793 4289 
Q 1159 4600 1703 4600 
Q 2078 4600 2393 4439 
Q 2709 4278 2876 4000 
Q 3044 3722 3044 3409 
Q 3044 3113 2884 2869 
Q 2725 2625 2413 2481 
Q 2819 2388 3044 2092 
Q 3269 1797 3269 1353 
Q 3269 753 2831 336 
Q 2394 -81 1725 -81 
Q 1122 -81 723 278 
Q 325 638 269 1209 
z
" id="ArialMT-33" transform="scale(0.015625)"/>
      </defs>
      <use xlink:href="#ArialMT-30"/>
      <use x="55.615234" xlink:href="#ArialMT-2e"/>
      <use x="83.398438" xlink:href="#ArialMT-33"/>
      <use x="139.013672" xlink:href="#ArialMT-32"/>
     </g>
    </g>
    <g id="line2d_111">
     <path d="M 614.481204 181.602344 
L 636.481204 181.602344 
" style="fill:none;stroke:#ba7696;stroke-linecap:round;stroke-width:1.5;"/>
    </g>
    <g id="line2d_112"/>
    <g id="text_28">
     <!-- 0.36 -->
     <g style="fill:#262626;" transform="translate(645.281204 185.452344)scale(0.11 -0.11)">
      <use xlink:href="#ArialMT-30"/>
      <use x="55.615234" xlink:href="#ArialMT-2e"/>
      <use x="83.398438" xlink:href="#ArialMT-33"/>
      <use x="139.013672" xlink:href="#ArialMT-36"/>
     </g>
    </g>
    <g id="line2d_113">
     <path d="M 614.481204 197.162188 
L 636.481204 197.162188 
" style="fill:none;stroke:#af6c91;stroke-linecap:round;stroke-width:1.5;"/>
    </g>
    <g id="line2d_114"/>
    <g id="text_29">
     <!-- 0.4 -->
     <g style="fill:#262626;" transform="translate(645.281204 201.012188)scale(0.11 -0.11)">
      <use xlink:href="#ArialMT-30"/>
      <use x="55.615234" xlink:href="#ArialMT-2e"/>
      <use x="83.398438" xlink:href="#ArialMT-34"/>
     </g>
    </g>
    <g id="line2d_115">
     <path d="M 614.481204 212.722031 
L 636.481204 212.722031 
" style="fill:none;stroke:#a4638d;stroke-linecap:round;stroke-width:1.5;"/>
    </g>
    <g id="line2d_116"/>
    <g id="text_30">
     <!-- 0.44 -->
     <g style="fill:#262626;" transform="translate(645.281204 216.572031)scale(0.11 -0.11)">
      <use xlink:href="#ArialMT-30"/>
      <use x="55.615234" xlink:href="#ArialMT-2e"/>
      <use x="83.398438" xlink:href="#ArialMT-34"/>
      <use x="139.013672" xlink:href="#ArialMT-34"/>
     </g>
    </g>
    <g id="line2d_117">
     <path d="M 614.481204 228.281875 
L 636.481204 228.281875 
" style="fill:none;stroke:#985987;stroke-linecap:round;stroke-width:1.5;"/>
    </g>
    <g id="line2d_118"/>
    <g id="text_31">
     <!-- 0.48 -->
     <g style="fill:#262626;" transform="translate(645.281204 232.131875)scale(0.11 -0.11)">
      <use xlink:href="#ArialMT-30"/>
      <use x="55.615234" xlink:href="#ArialMT-2e"/>
      <use x="83.398438" xlink:href="#ArialMT-34"/>
      <use x="139.013672" xlink:href="#ArialMT-38"/>
     </g>
    </g>
    <g id="line2d_119">
     <path d="M 614.481204 243.841719 
L 636.481204 243.841719 
" style="fill:none;stroke:#8c5181;stroke-linecap:round;stroke-width:1.5;"/>
    </g>
    <g id="line2d_120"/>
    <g id="text_32">
     <!-- 0.52 -->
     <g style="fill:#262626;" transform="translate(645.281204 247.691719)scale(0.11 -0.11)">
      <use xlink:href="#ArialMT-30"/>
      <use x="55.615234" xlink:href="#ArialMT-2e"/>
      <use x="83.398438" xlink:href="#ArialMT-35"/>
      <use x="139.013672" xlink:href="#ArialMT-32"/>
     </g>
    </g>
    <g id="line2d_121">
     <path d="M 614.481204 259.401563 
L 636.481204 259.401563 
" style="fill:none;stroke:#7e497a;stroke-linecap:round;stroke-width:1.5;"/>
    </g>
    <g id="line2d_122"/>
    <g id="text_33">
     <!-- 0.56 -->
     <g style="fill:#262626;" transform="translate(645.281204 263.251563)scale(0.11 -0.11)">
      <use xlink:href="#ArialMT-30"/>
      <use x="55.615234" xlink:href="#ArialMT-2e"/>
      <use x="83.398438" xlink:href="#ArialMT-35"/>
      <use x="139.013672" xlink:href="#ArialMT-36"/>
     </g>
    </g>
    <g id="line2d_123">
     <path d="M 614.481204 274.961406 
L 636.481204 274.961406 
" style="fill:none;stroke:#714173;stroke-linecap:round;stroke-width:1.5;"/>
    </g>
    <g id="line2d_124"/>
    <g id="text_34">
     <!-- 0.6 -->
     <g style="fill:#262626;" transform="translate(645.281204 278.811406)scale(0.11 -0.11)">
      <use xlink:href="#ArialMT-30"/>
      <use x="55.615234" xlink:href="#ArialMT-2e"/>
      <use x="83.398438" xlink:href="#ArialMT-36"/>
     </g>
    </g>
    <g id="line2d_125">
     <path d="M 614.481204 290.52125 
L 636.481204 290.52125 
" style="fill:none;stroke:#62396a;stroke-linecap:round;stroke-width:1.5;"/>
    </g>
    <g id="line2d_126"/>
    <g id="text_35">
     <!-- 0.64 -->
     <g style="fill:#262626;" transform="translate(645.281204 294.37125)scale(0.11 -0.11)">
      <use xlink:href="#ArialMT-30"/>
      <use x="55.615234" xlink:href="#ArialMT-2e"/>
      <use x="83.398438" xlink:href="#ArialMT-36"/>
      <use x="139.013672" xlink:href="#ArialMT-34"/>
     </g>
    </g>
    <g id="line2d_127">
     <path d="M 614.481204 306.081094 
L 636.481204 306.081094 
" style="fill:none;stroke:#553361;stroke-linecap:round;stroke-width:1.5;"/>
    </g>
    <g id="line2d_128"/>
    <g id="text_36">
     <!-- 0.68 -->
     <g style="fill:#262626;" transform="translate(645.281204 309.931094)scale(0.11 -0.11)">
      <use xlink:href="#ArialMT-30"/>
      <use x="55.615234" xlink:href="#ArialMT-2e"/>
      <use x="83.398438" xlink:href="#ArialMT-36"/>
      <use x="139.013672" xlink:href="#ArialMT-38"/>
     </g>
    </g>
    <g id="line2d_129">
     <path d="M 614.481204 321.640938 
L 636.481204 321.640938 
" style="fill:none;stroke:#462b55;stroke-linecap:round;stroke-width:1.5;"/>
    </g>
    <g id="line2d_130"/>
    <g id="text_37">
     <!-- 0.72 -->
     <g style="fill:#262626;" transform="translate(645.281204 325.490938)scale(0.11 -0.11)">
      <defs>
       <path d="M 303 3981 
L 303 4522 
L 3269 4522 
L 3269 4084 
Q 2831 3619 2401 2847 
Q 1972 2075 1738 1259 
Q 1569 684 1522 0 
L 944 0 
Q 953 541 1156 1306 
Q 1359 2072 1739 2783 
Q 2119 3494 2547 3981 
L 303 3981 
z
" id="ArialMT-37" transform="scale(0.015625)"/>
      </defs>
      <use xlink:href="#ArialMT-30"/>
      <use x="55.615234" xlink:href="#ArialMT-2e"/>
      <use x="83.398438" xlink:href="#ArialMT-37"/>
      <use x="139.013672" xlink:href="#ArialMT-32"/>
     </g>
    </g>
    <g id="line2d_131">
     <path d="M 614.481204 337.200781 
L 636.481204 337.200781 
" style="fill:none;stroke:#39254a;stroke-linecap:round;stroke-width:1.5;"/>
    </g>
    <g id="line2d_132"/>
    <g id="text_38">
     <!-- 0.76 -->
     <g style="fill:#262626;" transform="translate(645.281204 341.050781)scale(0.11 -0.11)">
      <use xlink:href="#ArialMT-30"/>
      <use x="55.615234" xlink:href="#ArialMT-2e"/>
      <use x="83.398438" xlink:href="#ArialMT-37"/>
      <use x="139.013672" xlink:href="#ArialMT-36"/>
     </g>
    </g>
    <g id="line2d_133">
     <path d="M 614.481204 352.760625 
L 636.481204 352.760625 
" style="fill:none;stroke:#2d1e3e;stroke-linecap:round;stroke-width:1.5;"/>
    </g>
    <g id="line2d_134"/>
    <g id="text_39">
     <!-- 0.8 -->
     <g style="fill:#262626;" transform="translate(645.281204 356.610625)scale(0.11 -0.11)">
      <use xlink:href="#ArialMT-30"/>
      <use x="55.615234" xlink:href="#ArialMT-2e"/>
      <use x="83.398438" xlink:href="#ArialMT-38"/>
     </g>
    </g>
   </g>
  </g>
  <g id="axes_3">
   <g id="patch_14">
    <path d="M 725.823529 315 
L 972 315 
L 972 43.2 
L 725.823529 43.2 
z
" style="fill:#eaeaf2;"/>
   </g>
   <g id="matplotlib.axis_5">
    <g id="xtick_10">
     <g id="line2d_135">
      <path clip-path="url(#p25f72cfad3)" d="M 784.128483 315 
L 784.128483 43.2 
" style="fill:none;stroke:#ffffff;stroke-linecap:round;"/>
     </g>
     <g id="text_40">
      <!-- 5 -->
      <g style="fill:#262626;" transform="translate(781.069967 332.373594)scale(0.11 -0.11)">
       <use xlink:href="#ArialMT-35"/>
      </g>
     </g>
    </g>
    <g id="xtick_11">
     <g id="line2d_136">
      <path clip-path="url(#p25f72cfad3)" d="M 843.022375 315 
L 843.022375 43.2 
" style="fill:none;stroke:#ffffff;stroke-linecap:round;"/>
     </g>
     <g id="text_41">
      <!-- 10 -->
      <g style="fill:#262626;" transform="translate(836.905344 332.373594)scale(0.11 -0.11)">
       <use xlink:href="#ArialMT-31"/>
       <use x="55.615234" xlink:href="#ArialMT-30"/>
      </g>
     </g>
    </g>
    <g id="xtick_12">
     <g id="line2d_137">
      <path clip-path="url(#p25f72cfad3)" d="M 901.916268 315 
L 901.916268 43.2 
" style="fill:none;stroke:#ffffff;stroke-linecap:round;"/>
     </g>
     <g id="text_42">
      <!-- 15 -->
      <g style="fill:#262626;" transform="translate(895.799237 332.373594)scale(0.11 -0.11)">
       <use xlink:href="#ArialMT-31"/>
       <use x="55.615234" xlink:href="#ArialMT-35"/>
      </g>
     </g>
    </g>
    <g id="xtick_13">
     <g id="line2d_138">
      <path clip-path="url(#p25f72cfad3)" d="M 960.81016 315 
L 960.81016 43.2 
" style="fill:none;stroke:#ffffff;stroke-linecap:round;"/>
     </g>
     <g id="text_43">
      <!-- 20 -->
      <g style="fill:#262626;" transform="translate(954.693129 332.373594)scale(0.11 -0.11)">
       <use xlink:href="#ArialMT-32"/>
       <use x="55.615234" xlink:href="#ArialMT-30"/>
      </g>
     </g>
    </g>
    <g id="text_44">
     <!-- input -->
     <g style="fill:#262626;" transform="translate(835.902077 347.149219)scale(0.12 -0.12)">
      <use xlink:href="#ArialMT-69"/>
      <use x="22.216797" xlink:href="#ArialMT-6e"/>
      <use x="77.832031" xlink:href="#ArialMT-70"/>
      <use x="133.447266" xlink:href="#ArialMT-75"/>
      <use x="189.0625" xlink:href="#ArialMT-74"/>
     </g>
    </g>
   </g>
   <g id="matplotlib.axis_6">
    <g id="ytick_11">
     <g id="line2d_139">
      <path clip-path="url(#p25f72cfad3)" d="M 725.823529 302.645455 
L 972 302.645455 
" style="fill:none;stroke:#ffffff;stroke-linecap:round;"/>
     </g>
    </g>
    <g id="ytick_12">
     <g id="line2d_140">
      <path clip-path="url(#p25f72cfad3)" d="M 725.823529 245.842947 
L 972 245.842947 
" style="fill:none;stroke:#ffffff;stroke-linecap:round;"/>
     </g>
    </g>
    <g id="ytick_13">
     <g id="line2d_141">
      <path clip-path="url(#p25f72cfad3)" d="M 725.823529 189.040439 
L 972 189.040439 
" style="fill:none;stroke:#ffffff;stroke-linecap:round;"/>
     </g>
    </g>
    <g id="ytick_14">
     <g id="line2d_142">
      <path clip-path="url(#p25f72cfad3)" d="M 725.823529 132.237931 
L 972 132.237931 
" style="fill:none;stroke:#ffffff;stroke-linecap:round;"/>
     </g>
    </g>
    <g id="ytick_15">
     <g id="line2d_143">
      <path clip-path="url(#p25f72cfad3)" d="M 725.823529 75.435423 
L 972 75.435423 
" style="fill:none;stroke:#ffffff;stroke-linecap:round;"/>
     </g>
    </g>
   </g>
   <g id="line2d_144">
    <path clip-path="url(#p25f72cfad3)" d="M 737.013369 285.077669 
L 748.792147 293.861562 
L 760.570926 293.861562 
L 772.349704 299.71749 
L 784.128483 299.71749 
L 795.907261 296.789526 
L 807.68604 299.71749 
L 819.464818 296.789526 
L 831.243597 299.71749 
L 843.022375 299.71749 
L 854.801154 302.645455 
L 866.579932 302.645455 
L 878.358711 293.861562 
L 890.137489 299.71749 
L 901.916268 299.71749 
L 913.695046 290.933597 
L 925.473825 293.861562 
L 937.252603 273.365811 
L 949.031382 273.365811 
L 960.81016 173.815024 
" style="fill:none;stroke:#edd1cb;stroke-linecap:round;stroke-width:1.5;"/>
   </g>
   <g id="line2d_145">
    <path clip-path="url(#p25f72cfad3)" d="M 737.013369 282.56376 
L 748.792147 299.776641 
L 760.570926 302.645455 
L 772.349704 294.039014 
L 784.128483 296.907827 
L 795.907261 299.776641 
L 807.68604 299.776641 
L 819.464818 299.776641 
L 831.243597 299.776641 
L 843.022375 296.907827 
L 854.801154 302.645455 
L 866.579932 302.645455 
L 878.358711 296.907827 
L 890.137489 299.776641 
L 901.916268 294.039014 
L 913.695046 276.826133 
L 925.473825 288.301387 
L 937.252603 276.826133 
L 949.031382 233.79393 
L 960.81016 225.187489 
" style="fill:none;stroke:#e9c6c2;stroke-linecap:round;stroke-width:1.5;"/>
   </g>
   <g id="line2d_146">
    <path clip-path="url(#p25f72cfad3)" d="M 737.013369 293.861562 
L 748.792147 293.861562 
L 760.570926 299.71749 
L 772.349704 299.71749 
L 784.128483 299.71749 
L 795.907261 296.789526 
L 807.68604 302.645455 
L 819.464818 302.645455 
L 831.243597 302.645455 
L 843.022375 296.789526 
L 854.801154 299.71749 
L 866.579932 299.71749 
L 878.358711 296.789526 
L 890.137489 290.933597 
L 901.916268 293.861562 
L 913.695046 290.933597 
L 925.473825 276.293776 
L 937.252603 270.437847 
L 949.031382 244.086168 
L 960.81016 217.734489 
" style="fill:none;stroke:#e5baba;stroke-linecap:round;stroke-width:1.5;"/>
   </g>
   <g id="line2d_147">
    <path clip-path="url(#p25f72cfad3)" d="M 737.013369 276.019279 
L 748.792147 299.686991 
L 760.570926 302.645455 
L 772.349704 299.686991 
L 784.128483 302.645455 
L 795.907261 299.686991 
L 807.68604 302.645455 
L 819.464818 296.728527 
L 831.243597 302.645455 
L 843.022375 299.686991 
L 854.801154 296.728527 
L 866.579932 296.728527 
L 878.358711 296.728527 
L 890.137489 296.728527 
L 901.916268 296.728527 
L 913.695046 299.686991 
L 925.473825 287.853135 
L 937.252603 278.977743 
L 949.031382 255.310031 
L 960.81016 181.348433 
" style="fill:none;stroke:#dfaeb2;stroke-linecap:round;stroke-width:1.5;"/>
   </g>
   <g id="line2d_148">
    <path clip-path="url(#p25f72cfad3)" d="M 737.013369 288.005633 
L 748.792147 296.789526 
L 760.570926 299.71749 
L 772.349704 302.645455 
L 784.128483 296.789526 
L 795.907261 299.71749 
L 807.68604 302.645455 
L 819.464818 299.71749 
L 831.243597 296.789526 
L 843.022375 293.861562 
L 854.801154 299.71749 
L 866.579932 299.71749 
L 878.358711 302.645455 
L 890.137489 290.933597 
L 901.916268 299.71749 
L 913.695046 293.861562 
L 925.473825 293.861562 
L 937.252603 285.077669 
L 949.031382 244.086168 
L 960.81016 182.598917 
" style="fill:none;stroke:#daa2ac;stroke-linecap:round;stroke-width:1.5;"/>
   </g>
   <g id="line2d_149">
    <path clip-path="url(#p25f72cfad3)" d="M 737.013369 288.005633 
L 748.792147 299.71749 
L 760.570926 299.71749 
L 772.349704 302.645455 
L 784.128483 293.861562 
L 795.907261 299.71749 
L 807.68604 299.71749 
L 819.464818 296.789526 
L 831.243597 299.71749 
L 843.022375 296.789526 
L 854.801154 299.71749 
L 866.579932 302.645455 
L 878.358711 299.71749 
L 890.137489 293.861562 
L 901.916268 290.933597 
L 913.695046 285.077669 
L 925.473825 285.077669 
L 937.252603 279.22174 
L 949.031382 247.014132 
L 960.81016 208.950596 
" style="fill:none;stroke:#d396a5;stroke-linecap:round;stroke-width:1.5;"/>
   </g>
   <g id="line2d_150">
    <path clip-path="url(#p25f72cfad3)" d="M 737.013369 296.84928 
L 748.792147 299.747367 
L 760.570926 299.747367 
L 772.349704 302.645455 
L 784.128483 302.645455 
L 795.907261 299.747367 
L 807.68604 293.951193 
L 819.464818 302.645455 
L 831.243597 296.84928 
L 843.022375 302.645455 
L 854.801154 299.747367 
L 866.579932 299.747367 
L 878.358711 299.747367 
L 890.137489 299.747367 
L 901.916268 291.053106 
L 913.695046 296.84928 
L 925.473825 288.155019 
L 937.252603 267.868409 
L 949.031382 250.479886 
L 960.81016 178.027708 
" style="fill:none;stroke:#cb8ca0;stroke-linecap:round;stroke-width:1.5;"/>
   </g>
   <g id="line2d_151">
    <path clip-path="url(#p25f72cfad3)" d="M 737.013369 293.951193 
L 748.792147 299.747367 
L 760.570926 296.84928 
L 772.349704 296.84928 
L 784.128483 299.747367 
L 795.907261 302.645455 
L 807.68604 302.645455 
L 819.464818 299.747367 
L 831.243597 296.84928 
L 843.022375 296.84928 
L 854.801154 299.747367 
L 866.579932 293.951193 
L 878.358711 296.84928 
L 890.137489 302.645455 
L 901.916268 293.951193 
L 913.695046 288.155019 
L 925.473825 288.155019 
L 937.252603 282.358845 
L 949.031382 256.27606 
L 960.81016 180.925795 
" style="fill:none;stroke:#c2809b;stroke-linecap:round;stroke-width:1.5;"/>
   </g>
   <g id="line2d_152">
    <path clip-path="url(#p25f72cfad3)" d="M 737.013369 287.697426 
L 748.792147 299.655849 
L 760.570926 302.645455 
L 772.349704 299.655849 
L 784.128483 302.645455 
L 795.907261 296.666243 
L 807.68604 293.676638 
L 819.464818 299.655849 
L 831.243597 299.655849 
L 843.022375 302.645455 
L 854.801154 296.666243 
L 866.579932 296.666243 
L 878.358711 299.655849 
L 890.137489 302.645455 
L 901.916268 293.676638 
L 913.695046 296.666243 
L 925.473825 296.666243 
L 937.252603 281.718215 
L 949.031382 245.842947 
L 960.81016 174.09241 
" style="fill:none;stroke:#ba7696;stroke-linecap:round;stroke-width:1.5;"/>
   </g>
   <g id="line2d_153">
    <path clip-path="url(#p25f72cfad3)" d="M 737.013369 299.776641 
L 748.792147 302.645455 
L 760.570926 302.645455 
L 772.349704 294.039014 
L 784.128483 299.776641 
L 795.907261 302.645455 
L 807.68604 296.907827 
L 819.464818 299.776641 
L 831.243597 302.645455 
L 843.022375 302.645455 
L 854.801154 299.776641 
L 866.579932 299.776641 
L 878.358711 294.039014 
L 890.137489 296.907827 
L 901.916268 296.907827 
L 913.695046 291.1702 
L 925.473825 271.088506 
L 937.252603 268.219692 
L 949.031382 251.006811 
L 960.81016 196.499354 
" style="fill:none;stroke:#af6c91;stroke-linecap:round;stroke-width:1.5;"/>
   </g>
   <g id="line2d_154">
    <path clip-path="url(#p25f72cfad3)" d="M 737.013369 293.861562 
L 748.792147 299.71749 
L 760.570926 296.789526 
L 772.349704 299.71749 
L 784.128483 296.789526 
L 795.907261 296.789526 
L 807.68604 299.71749 
L 819.464818 296.789526 
L 831.243597 296.789526 
L 843.022375 302.645455 
L 854.801154 302.645455 
L 866.579932 296.789526 
L 878.358711 302.645455 
L 890.137489 299.71749 
L 901.916268 296.789526 
L 913.695046 293.861562 
L 925.473825 288.005633 
L 937.252603 267.509883 
L 949.031382 255.798025 
L 960.81016 185.526882 
" style="fill:none;stroke:#a4638d;stroke-linecap:round;stroke-width:1.5;"/>
   </g>
   <g id="line2d_155">
    <path clip-path="url(#p25f72cfad3)" d="M 737.013369 299.558362 
L 748.792147 296.471269 
L 760.570926 302.645455 
L 772.349704 302.645455 
L 784.128483 299.558362 
L 795.907261 302.645455 
L 807.68604 302.645455 
L 819.464818 302.645455 
L 831.243597 302.645455 
L 843.022375 302.645455 
L 854.801154 296.471269 
L 866.579932 302.645455 
L 878.358711 299.558362 
L 890.137489 293.384176 
L 901.916268 296.471269 
L 913.695046 284.122898 
L 925.473825 290.297083 
L 937.252603 262.513248 
L 949.031382 247.077784 
L 960.81016 182.248835 
" style="fill:none;stroke:#985987;stroke-linecap:round;stroke-width:1.5;"/>
   </g>
   <g id="line2d_156">
    <path clip-path="url(#p25f72cfad3)" d="M 737.013369 296.728527 
L 748.792147 302.645455 
L 760.570926 302.645455 
L 772.349704 302.645455 
L 784.128483 299.686991 
L 795.907261 302.645455 
L 807.68604 299.686991 
L 819.464818 299.686991 
L 831.243597 302.645455 
L 843.022375 302.645455 
L 854.801154 302.645455 
L 866.579932 296.728527 
L 878.358711 296.728527 
L 890.137489 299.686991 
L 901.916268 296.728527 
L 913.695046 293.770063 
L 925.473825 284.894671 
L 937.252603 270.102351 
L 949.031382 246.434639 
L 960.81016 169.514577 
" style="fill:none;stroke:#8c5181;stroke-linecap:round;stroke-width:1.5;"/>
   </g>
   <g id="line2d_157">
    <path clip-path="url(#p25f72cfad3)" d="M 737.013369 293.861562 
L 748.792147 299.71749 
L 760.570926 293.861562 
L 772.349704 299.71749 
L 784.128483 296.789526 
L 795.907261 302.645455 
L 807.68604 302.645455 
L 819.464818 302.645455 
L 831.243597 299.71749 
L 843.022375 293.861562 
L 854.801154 302.645455 
L 866.579932 302.645455 
L 878.358711 299.71749 
L 890.137489 296.789526 
L 901.916268 296.789526 
L 913.695046 288.005633 
L 925.473825 296.789526 
L 937.252603 279.22174 
L 949.031382 238.230239 
L 960.81016 182.598917 
" style="fill:none;stroke:#7e497a;stroke-linecap:round;stroke-width:1.5;"/>
   </g>
   <g id="line2d_158">
    <path clip-path="url(#p25f72cfad3)" d="M 737.013369 288.155019 
L 748.792147 302.645455 
L 760.570926 302.645455 
L 772.349704 299.747367 
L 784.128483 296.84928 
L 795.907261 302.645455 
L 807.68604 302.645455 
L 819.464818 302.645455 
L 831.243597 299.747367 
L 843.022375 296.84928 
L 854.801154 302.645455 
L 866.579932 296.84928 
L 878.358711 299.747367 
L 890.137489 302.645455 
L 901.916268 299.747367 
L 913.695046 282.358845 
L 925.473825 291.053106 
L 937.252603 282.358845 
L 949.031382 256.27606 
L 960.81016 160.639185 
" style="fill:none;stroke:#714173;stroke-linecap:round;stroke-width:1.5;"/>
   </g>
   <g id="line2d_159">
    <path clip-path="url(#p25f72cfad3)" d="M 737.013369 302.645455 
L 748.792147 299.747367 
L 760.570926 302.645455 
L 772.349704 302.645455 
L 784.128483 299.747367 
L 795.907261 302.645455 
L 807.68604 299.747367 
L 819.464818 302.645455 
L 831.243597 302.645455 
L 843.022375 299.747367 
L 854.801154 302.645455 
L 866.579932 296.84928 
L 878.358711 296.84928 
L 890.137489 302.645455 
L 901.916268 288.155019 
L 913.695046 299.747367 
L 925.473825 293.951193 
L 937.252603 273.664583 
L 949.031382 227.295189 
L 960.81016 172.231533 
" style="fill:none;stroke:#62396a;stroke-linecap:round;stroke-width:1.5;"/>
   </g>
   <g id="line2d_160">
    <path clip-path="url(#p25f72cfad3)" d="M 737.013369 302.645455 
L 748.792147 302.645455 
L 760.570926 302.645455 
L 772.349704 302.645455 
L 784.128483 299.747367 
L 795.907261 296.84928 
L 807.68604 299.747367 
L 819.464818 302.645455 
L 831.243597 302.645455 
L 843.022375 296.84928 
L 854.801154 299.747367 
L 866.579932 299.747367 
L 878.358711 296.84928 
L 890.137489 299.747367 
L 901.916268 302.645455 
L 913.695046 299.747367 
L 925.473825 293.951193 
L 937.252603 270.766496 
L 949.031382 230.193276 
L 960.81016 166.435359 
" style="fill:none;stroke:#553361;stroke-linecap:round;stroke-width:1.5;"/>
   </g>
   <g id="line2d_161">
    <path clip-path="url(#p25f72cfad3)" d="M 737.013369 288.005633 
L 748.792147 302.645455 
L 760.570926 302.645455 
L 772.349704 296.789526 
L 784.128483 302.645455 
L 795.907261 302.645455 
L 807.68604 302.645455 
L 819.464818 302.645455 
L 831.243597 302.645455 
L 843.022375 299.71749 
L 854.801154 302.645455 
L 866.579932 296.789526 
L 878.358711 302.645455 
L 890.137489 299.71749 
L 901.916268 293.861562 
L 913.695046 296.789526 
L 925.473825 285.077669 
L 937.252603 273.365811 
L 949.031382 247.014132 
L 960.81016 167.959096 
" style="fill:none;stroke:#462b55;stroke-linecap:round;stroke-width:1.5;"/>
   </g>
   <g id="line2d_162">
    <path clip-path="url(#p25f72cfad3)" d="M 737.013369 299.591556 
L 748.792147 296.537658 
L 760.570926 299.591556 
L 772.349704 302.645455 
L 784.128483 302.645455 
L 795.907261 302.645455 
L 807.68604 302.645455 
L 819.464818 302.645455 
L 831.243597 302.645455 
L 843.022375 302.645455 
L 854.801154 302.645455 
L 866.579932 302.645455 
L 878.358711 302.645455 
L 890.137489 302.645455 
L 901.916268 293.48376 
L 913.695046 287.375963 
L 925.473825 284.322065 
L 937.252603 278.214268 
L 949.031382 238.513591 
L 960.81016 162.166134 
" style="fill:none;stroke:#39254a;stroke-linecap:round;stroke-width:1.5;"/>
   </g>
   <g id="line2d_163">
    <path clip-path="url(#p25f72cfad3)" d="M 737.013369 293.951193 
L 748.792147 302.645455 
L 760.570926 299.747367 
L 772.349704 302.645455 
L 784.128483 302.645455 
L 795.907261 299.747367 
L 807.68604 299.747367 
L 819.464818 293.951193 
L 831.243597 299.747367 
L 843.022375 302.645455 
L 854.801154 302.645455 
L 866.579932 299.747367 
L 878.358711 299.747367 
L 890.137489 299.747367 
L 901.916268 293.951193 
L 913.695046 288.155019 
L 925.473825 279.460757 
L 937.252603 288.155019 
L 949.031382 262.072235 
L 960.81016 157.741098 
" style="fill:none;stroke:#2d1e3e;stroke-linecap:round;stroke-width:1.5;"/>
   </g>
   <g id="line2d_164"/>
   <g id="line2d_165"/>
   <g id="line2d_166"/>
   <g id="line2d_167"/>
   <g id="line2d_168"/>
   <g id="patch_15">
    <path d="M 725.823529 315 
L 725.823529 43.2 
" style="fill:none;stroke:#ffffff;stroke-linecap:square;stroke-linejoin:miter;stroke-width:1.25;"/>
   </g>
   <g id="patch_16">
    <path d="M 972 315 
L 972 43.2 
" style="fill:none;stroke:#ffffff;stroke-linecap:square;stroke-linejoin:miter;stroke-width:1.25;"/>
   </g>
   <g id="patch_17">
    <path d="M 725.823529 315 
L 972 315 
" style="fill:none;stroke:#ffffff;stroke-linecap:square;stroke-linejoin:miter;stroke-width:1.25;"/>
   </g>
   <g id="patch_18">
    <path d="M 725.823529 43.2 
L 972 43.2 
" style="fill:none;stroke:#ffffff;stroke-linecap:square;stroke-linejoin:miter;stroke-width:1.25;"/>
   </g>
   <g id="text_45">
    <!-- PFR -->
    <g style="fill:#262626;" transform="translate(836.911765 37.2)scale(0.12 -0.12)">
     <defs>
      <path d="M 525 0 
L 525 4581 
L 3616 4581 
L 3616 4041 
L 1131 4041 
L 1131 2622 
L 3281 2622 
L 3281 2081 
L 1131 2081 
L 1131 0 
L 525 0 
z
" id="ArialMT-46" transform="scale(0.015625)"/>
     </defs>
     <use xlink:href="#ArialMT-50"/>
     <use x="66.699219" xlink:href="#ArialMT-46"/>
     <use x="127.783203" xlink:href="#ArialMT-52"/>
    </g>
   </g>
   <g id="legend_3">
    <g id="patch_19">
     <path d="M 959.9 57.5 
L 964.3 57.5 
Q 966.5 57.5 966.5 55.3 
L 966.5 50.9 
Q 966.5 48.7 964.3 48.7 
L 959.9 48.7 
Q 957.7 48.7 957.7 50.9 
L 957.7 55.3 
Q 957.7 57.5 959.9 57.5 
z
" style="fill:#eaeaf2;opacity:0.8;stroke:#cccccc;stroke-linejoin:miter;"/>
    </g>
   </g>
  </g>
  <g id="text_46">
   <!-- ITEM SUPPORT -->
   <g style="fill:#262626;" transform="translate(486.122625 17.50725)scale(0.144 -0.144)">
    <defs>
     <path d="M 597 0 
L 597 4581 
L 1203 4581 
L 1203 0 
L 597 0 
z
" id="ArialMT-49" transform="scale(0.015625)"/>
     <path d="M 1659 0 
L 1659 4041 
L 150 4041 
L 150 4581 
L 3781 4581 
L 3781 4041 
L 2266 4041 
L 2266 0 
L 1659 0 
z
" id="ArialMT-54" transform="scale(0.015625)"/>
     <path d="M 506 0 
L 506 4581 
L 3819 4581 
L 3819 4041 
L 1113 4041 
L 1113 2638 
L 3647 2638 
L 3647 2100 
L 1113 2100 
L 1113 541 
L 3925 541 
L 3925 0 
L 506 0 
z
" id="ArialMT-45" transform="scale(0.015625)"/>
     <path d="M 475 0 
L 475 4581 
L 1388 4581 
L 2472 1338 
Q 2622 884 2691 659 
Q 2769 909 2934 1394 
L 4031 4581 
L 4847 4581 
L 4847 0 
L 4263 0 
L 4263 3834 
L 2931 0 
L 2384 0 
L 1059 3900 
L 1059 0 
L 475 0 
z
" id="ArialMT-4d" transform="scale(0.015625)"/>
     <path id="ArialMT-20" transform="scale(0.015625)"/>
     <path d="M 3500 4581 
L 4106 4581 
L 4106 1934 
Q 4106 1244 3950 837 
Q 3794 431 3386 176 
Q 2978 -78 2316 -78 
Q 1672 -78 1262 144 
Q 853 366 678 786 
Q 503 1206 503 1934 
L 503 4581 
L 1109 4581 
L 1109 1938 
Q 1109 1341 1220 1058 
Q 1331 775 1601 622 
Q 1872 469 2263 469 
Q 2931 469 3215 772 
Q 3500 1075 3500 1938 
L 3500 4581 
z
" id="ArialMT-55" transform="scale(0.015625)"/>
     <path d="M 309 2231 
Q 309 3372 921 4017 
Q 1534 4663 2503 4663 
Q 3138 4663 3647 4359 
Q 4156 4056 4423 3514 
Q 4691 2972 4691 2284 
Q 4691 1588 4409 1038 
Q 4128 488 3612 205 
Q 3097 -78 2500 -78 
Q 1853 -78 1343 234 
Q 834 547 571 1087 
Q 309 1628 309 2231 
z
M 934 2222 
Q 934 1394 1379 917 
Q 1825 441 2497 441 
Q 3181 441 3623 922 
Q 4066 1403 4066 2288 
Q 4066 2847 3877 3264 
Q 3688 3681 3323 3911 
Q 2959 4141 2506 4141 
Q 1863 4141 1398 3698 
Q 934 3256 934 2222 
z
" id="ArialMT-4f" transform="scale(0.015625)"/>
    </defs>
    <use xlink:href="#ArialMT-49"/>
    <use x="27.783203" xlink:href="#ArialMT-54"/>
    <use x="88.867188" xlink:href="#ArialMT-45"/>
    <use x="155.566406" xlink:href="#ArialMT-4d"/>
    <use x="238.867188" xlink:href="#ArialMT-20"/>
    <use x="266.650391" xlink:href="#ArialMT-53"/>
    <use x="333.349609" xlink:href="#ArialMT-55"/>
    <use x="405.566406" xlink:href="#ArialMT-50"/>
    <use x="472.265625" xlink:href="#ArialMT-50"/>
    <use x="538.964844" xlink:href="#ArialMT-4f"/>
    <use x="616.748047" xlink:href="#ArialMT-52"/>
    <use x="687.214844" xlink:href="#ArialMT-54"/>
   </g>
  </g>
 </g>
 <defs>
  <clipPath id="pab3454f0e7">
   <rect height="271.8" width="246.176471" x="135" y="43.2"/>
  </clipPath>
  <clipPath id="p26577fbcec">
   <rect height="271.8" width="246.176471" x="430.411765" y="43.2"/>
  </clipPath>
  <clipPath id="p25f72cfad3">
   <rect height="271.8" width="246.176471" x="725.823529" y="43.2"/>
  </clipPath>
 </defs>
</svg>
