<?xml version="1.0" encoding="utf-8" standalone="no"?>
<!DOCTYPE svg PUBLIC "-//W3C//DTD SVG 1.1//EN"
  "http://www.w3.org/Graphics/SVG/1.1/DTD/svg11.dtd">
<svg height="363.467344pt" version="1.1" viewBox="0 0 363.446094 363.467344" width="363.446094pt" xmlns="http://www.w3.org/2000/svg" xmlns:xlink="http://www.w3.org/1999/xlink">
 <metadata>
  <rdf:RDF xmlns:cc="http://creativecommons.org/ns#" xmlns:dc="http://purl.org/dc/elements/1.1/" xmlns:rdf="http://www.w3.org/1999/02/22-rdf-syntax-ns#">
   <cc:Work>
    <dc:type rdf:resource="http://purl.org/dc/dcmitype/StillImage"/>
    <dc:date>2021-08-20T00:17:11.847160</dc:date>
    <dc:format>image/svg+xml</dc:format>
    <dc:creator>
     <cc:Agent>
      <dc:title>Matplotlib v3.4.2, https://matplotlib.org/</dc:title>
     </cc:Agent>
    </dc:creator>
   </cc:Work>
  </rdf:RDF>
 </metadata>
 <defs>
  <style type="text/css">*{stroke-linecap:butt;stroke-linejoin:round;}</style>
 </defs>
 <g id="figure_1">
  <g id="patch_1">
   <path d="M 0 363.467344 
L 363.446094 363.467344 
L 363.446094 0 
L 0 0 
z
" style="fill:#ffffff;"/>
  </g>
  <g id="axes_1">
   <g id="patch_2">
    <path d="M 50.166094 321.733125 
L 356.246094 321.733125 
L 356.246094 7.2 
L 50.166094 7.2 
z
" style="fill:#eaeaf2;"/>
   </g>
   <g id="matplotlib.axis_1">
    <g id="xtick_1">
     <g id="text_1">
      <!-- Power Rule -->
      <g style="fill:#262626;" transform="translate(98.257969 339.106719)scale(0.11 -0.11)">
       <defs>
        <path d="M 494 0 
L 494 4581 
L 2222 4581 
Q 2678 4581 2919 4538 
Q 3256 4481 3484 4323 
Q 3713 4166 3852 3881 
Q 3991 3597 3991 3256 
Q 3991 2672 3619 2267 
Q 3247 1863 2275 1863 
L 1100 1863 
L 1100 0 
L 494 0 
z
M 1100 2403 
L 2284 2403 
Q 2872 2403 3119 2622 
Q 3366 2841 3366 3238 
Q 3366 3525 3220 3729 
Q 3075 3934 2838 4000 
Q 2684 4041 2272 4041 
L 1100 4041 
L 1100 2403 
z
" id="ArialMT-50" transform="scale(0.015625)"/>
        <path d="M 213 1659 
Q 213 2581 725 3025 
Q 1153 3394 1769 3394 
Q 2453 3394 2887 2945 
Q 3322 2497 3322 1706 
Q 3322 1066 3130 698 
Q 2938 331 2570 128 
Q 2203 -75 1769 -75 
Q 1072 -75 642 372 
Q 213 819 213 1659 
z
M 791 1659 
Q 791 1022 1069 705 
Q 1347 388 1769 388 
Q 2188 388 2466 706 
Q 2744 1025 2744 1678 
Q 2744 2294 2464 2611 
Q 2184 2928 1769 2928 
Q 1347 2928 1069 2612 
Q 791 2297 791 1659 
z
" id="ArialMT-6f" transform="scale(0.015625)"/>
        <path d="M 1034 0 
L 19 3319 
L 600 3319 
L 1128 1403 
L 1325 691 
Q 1338 744 1497 1375 
L 2025 3319 
L 2603 3319 
L 3100 1394 
L 3266 759 
L 3456 1400 
L 4025 3319 
L 4572 3319 
L 3534 0 
L 2950 0 
L 2422 1988 
L 2294 2553 
L 1622 0 
L 1034 0 
z
" id="ArialMT-77" transform="scale(0.015625)"/>
        <path d="M 2694 1069 
L 3275 997 
Q 3138 488 2766 206 
Q 2394 -75 1816 -75 
Q 1088 -75 661 373 
Q 234 822 234 1631 
Q 234 2469 665 2931 
Q 1097 3394 1784 3394 
Q 2450 3394 2872 2941 
Q 3294 2488 3294 1666 
Q 3294 1616 3291 1516 
L 816 1516 
Q 847 969 1125 678 
Q 1403 388 1819 388 
Q 2128 388 2347 550 
Q 2566 713 2694 1069 
z
M 847 1978 
L 2700 1978 
Q 2663 2397 2488 2606 
Q 2219 2931 1791 2931 
Q 1403 2931 1139 2672 
Q 875 2413 847 1978 
z
" id="ArialMT-65" transform="scale(0.015625)"/>
        <path d="M 416 0 
L 416 3319 
L 922 3319 
L 922 2816 
Q 1116 3169 1280 3281 
Q 1444 3394 1641 3394 
Q 1925 3394 2219 3213 
L 2025 2691 
Q 1819 2813 1613 2813 
Q 1428 2813 1281 2702 
Q 1134 2591 1072 2394 
Q 978 2094 978 1738 
L 978 0 
L 416 0 
z
" id="ArialMT-72" transform="scale(0.015625)"/>
        <path id="ArialMT-20" transform="scale(0.015625)"/>
        <path d="M 503 0 
L 503 4581 
L 2534 4581 
Q 3147 4581 3465 4457 
Q 3784 4334 3975 4021 
Q 4166 3709 4166 3331 
Q 4166 2844 3850 2509 
Q 3534 2175 2875 2084 
Q 3116 1969 3241 1856 
Q 3506 1613 3744 1247 
L 4541 0 
L 3778 0 
L 3172 953 
Q 2906 1366 2734 1584 
Q 2563 1803 2427 1890 
Q 2291 1978 2150 2013 
Q 2047 2034 1813 2034 
L 1109 2034 
L 1109 0 
L 503 0 
z
M 1109 2559 
L 2413 2559 
Q 2828 2559 3062 2645 
Q 3297 2731 3419 2920 
Q 3541 3109 3541 3331 
Q 3541 3656 3305 3865 
Q 3069 4075 2559 4075 
L 1109 4075 
L 1109 2559 
z
" id="ArialMT-52" transform="scale(0.015625)"/>
        <path d="M 2597 0 
L 2597 488 
Q 2209 -75 1544 -75 
Q 1250 -75 995 37 
Q 741 150 617 320 
Q 494 491 444 738 
Q 409 903 409 1263 
L 409 3319 
L 972 3319 
L 972 1478 
Q 972 1038 1006 884 
Q 1059 663 1231 536 
Q 1403 409 1656 409 
Q 1909 409 2131 539 
Q 2353 669 2445 892 
Q 2538 1116 2538 1541 
L 2538 3319 
L 3100 3319 
L 3100 0 
L 2597 0 
z
" id="ArialMT-75" transform="scale(0.015625)"/>
        <path d="M 409 0 
L 409 4581 
L 972 4581 
L 972 0 
L 409 0 
z
" id="ArialMT-6c" transform="scale(0.015625)"/>
       </defs>
       <use xlink:href="#ArialMT-50"/>
       <use x="66.699219" xlink:href="#ArialMT-6f"/>
       <use x="122.314453" xlink:href="#ArialMT-77"/>
       <use x="194.53125" xlink:href="#ArialMT-65"/>
       <use x="250.146484" xlink:href="#ArialMT-72"/>
       <use x="283.447266" xlink:href="#ArialMT-20"/>
       <use x="311.230469" xlink:href="#ArialMT-52"/>
       <use x="383.447266" xlink:href="#ArialMT-75"/>
       <use x="439.0625" xlink:href="#ArialMT-6c"/>
       <use x="461.279297" xlink:href="#ArialMT-65"/>
      </g>
     </g>
    </g>
    <g id="xtick_2">
     <g id="text_2">
      <!-- Exponential Rule -->
      <g style="fill:#262626;" transform="translate(238.145234 339.106719)scale(0.11 -0.11)">
       <defs>
        <path d="M 506 0 
L 506 4581 
L 3819 4581 
L 3819 4041 
L 1113 4041 
L 1113 2638 
L 3647 2638 
L 3647 2100 
L 1113 2100 
L 1113 541 
L 3925 541 
L 3925 0 
L 506 0 
z
" id="ArialMT-45" transform="scale(0.015625)"/>
        <path d="M 47 0 
L 1259 1725 
L 138 3319 
L 841 3319 
L 1350 2541 
Q 1494 2319 1581 2169 
Q 1719 2375 1834 2534 
L 2394 3319 
L 3066 3319 
L 1919 1756 
L 3153 0 
L 2463 0 
L 1781 1031 
L 1600 1309 
L 728 0 
L 47 0 
z
" id="ArialMT-78" transform="scale(0.015625)"/>
        <path d="M 422 -1272 
L 422 3319 
L 934 3319 
L 934 2888 
Q 1116 3141 1344 3267 
Q 1572 3394 1897 3394 
Q 2322 3394 2647 3175 
Q 2972 2956 3137 2557 
Q 3303 2159 3303 1684 
Q 3303 1175 3120 767 
Q 2938 359 2589 142 
Q 2241 -75 1856 -75 
Q 1575 -75 1351 44 
Q 1128 163 984 344 
L 984 -1272 
L 422 -1272 
z
M 931 1641 
Q 931 1000 1190 694 
Q 1450 388 1819 388 
Q 2194 388 2461 705 
Q 2728 1022 2728 1688 
Q 2728 2322 2467 2637 
Q 2206 2953 1844 2953 
Q 1484 2953 1207 2617 
Q 931 2281 931 1641 
z
" id="ArialMT-70" transform="scale(0.015625)"/>
        <path d="M 422 0 
L 422 3319 
L 928 3319 
L 928 2847 
Q 1294 3394 1984 3394 
Q 2284 3394 2536 3286 
Q 2788 3178 2913 3003 
Q 3038 2828 3088 2588 
Q 3119 2431 3119 2041 
L 3119 0 
L 2556 0 
L 2556 2019 
Q 2556 2363 2490 2533 
Q 2425 2703 2258 2804 
Q 2091 2906 1866 2906 
Q 1506 2906 1245 2678 
Q 984 2450 984 1813 
L 984 0 
L 422 0 
z
" id="ArialMT-6e" transform="scale(0.015625)"/>
        <path d="M 1650 503 
L 1731 6 
Q 1494 -44 1306 -44 
Q 1000 -44 831 53 
Q 663 150 594 308 
Q 525 466 525 972 
L 525 2881 
L 113 2881 
L 113 3319 
L 525 3319 
L 525 4141 
L 1084 4478 
L 1084 3319 
L 1650 3319 
L 1650 2881 
L 1084 2881 
L 1084 941 
Q 1084 700 1114 631 
Q 1144 563 1211 522 
Q 1278 481 1403 481 
Q 1497 481 1650 503 
z
" id="ArialMT-74" transform="scale(0.015625)"/>
        <path d="M 425 3934 
L 425 4581 
L 988 4581 
L 988 3934 
L 425 3934 
z
M 425 0 
L 425 3319 
L 988 3319 
L 988 0 
L 425 0 
z
" id="ArialMT-69" transform="scale(0.015625)"/>
        <path d="M 2588 409 
Q 2275 144 1986 34 
Q 1697 -75 1366 -75 
Q 819 -75 525 192 
Q 231 459 231 875 
Q 231 1119 342 1320 
Q 453 1522 633 1644 
Q 813 1766 1038 1828 
Q 1203 1872 1538 1913 
Q 2219 1994 2541 2106 
Q 2544 2222 2544 2253 
Q 2544 2597 2384 2738 
Q 2169 2928 1744 2928 
Q 1347 2928 1158 2789 
Q 969 2650 878 2297 
L 328 2372 
Q 403 2725 575 2942 
Q 747 3159 1072 3276 
Q 1397 3394 1825 3394 
Q 2250 3394 2515 3294 
Q 2781 3194 2906 3042 
Q 3031 2891 3081 2659 
Q 3109 2516 3109 2141 
L 3109 1391 
Q 3109 606 3145 398 
Q 3181 191 3288 0 
L 2700 0 
Q 2613 175 2588 409 
z
M 2541 1666 
Q 2234 1541 1622 1453 
Q 1275 1403 1131 1340 
Q 988 1278 909 1158 
Q 831 1038 831 891 
Q 831 666 1001 516 
Q 1172 366 1500 366 
Q 1825 366 2078 508 
Q 2331 650 2450 897 
Q 2541 1088 2541 1459 
L 2541 1666 
z
" id="ArialMT-61" transform="scale(0.015625)"/>
       </defs>
       <use xlink:href="#ArialMT-45"/>
       <use x="66.699219" xlink:href="#ArialMT-78"/>
       <use x="116.699219" xlink:href="#ArialMT-70"/>
       <use x="172.314453" xlink:href="#ArialMT-6f"/>
       <use x="227.929688" xlink:href="#ArialMT-6e"/>
       <use x="283.544922" xlink:href="#ArialMT-65"/>
       <use x="339.160156" xlink:href="#ArialMT-6e"/>
       <use x="394.775391" xlink:href="#ArialMT-74"/>
       <use x="422.558594" xlink:href="#ArialMT-69"/>
       <use x="444.775391" xlink:href="#ArialMT-61"/>
       <use x="500.390625" xlink:href="#ArialMT-6c"/>
       <use x="522.607422" xlink:href="#ArialMT-20"/>
       <use x="550.390625" xlink:href="#ArialMT-52"/>
       <use x="622.607422" xlink:href="#ArialMT-75"/>
       <use x="678.222656" xlink:href="#ArialMT-6c"/>
       <use x="700.439453" xlink:href="#ArialMT-65"/>
      </g>
     </g>
    </g>
    <g id="text_3">
     <!-- Model -->
     <g style="fill:#262626;" transform="translate(186.865469 353.882344)scale(0.12 -0.12)">
      <defs>
       <path d="M 475 0 
L 475 4581 
L 1388 4581 
L 2472 1338 
Q 2622 884 2691 659 
Q 2769 909 2934 1394 
L 4031 4581 
L 4847 4581 
L 4847 0 
L 4263 0 
L 4263 3834 
L 2931 0 
L 2384 0 
L 1059 3900 
L 1059 0 
L 475 0 
z
" id="ArialMT-4d" transform="scale(0.015625)"/>
       <path d="M 2575 0 
L 2575 419 
Q 2259 -75 1647 -75 
Q 1250 -75 917 144 
Q 584 363 401 755 
Q 219 1147 219 1656 
Q 219 2153 384 2558 
Q 550 2963 881 3178 
Q 1213 3394 1622 3394 
Q 1922 3394 2156 3267 
Q 2391 3141 2538 2938 
L 2538 4581 
L 3097 4581 
L 3097 0 
L 2575 0 
z
M 797 1656 
Q 797 1019 1065 703 
Q 1334 388 1700 388 
Q 2069 388 2326 689 
Q 2584 991 2584 1609 
Q 2584 2291 2321 2609 
Q 2059 2928 1675 2928 
Q 1300 2928 1048 2622 
Q 797 2316 797 1656 
z
" id="ArialMT-64" transform="scale(0.015625)"/>
      </defs>
      <use xlink:href="#ArialMT-4d"/>
      <use x="83.300781" xlink:href="#ArialMT-6f"/>
      <use x="138.916016" xlink:href="#ArialMT-64"/>
      <use x="194.53125" xlink:href="#ArialMT-65"/>
      <use x="250.146484" xlink:href="#ArialMT-6c"/>
     </g>
    </g>
   </g>
   <g id="matplotlib.axis_2">
    <g id="ytick_1">
     <g id="line2d_1">
      <path clip-path="url(#pe914db9f2f)" d="M 50.166094 314.384727 
L 356.246094 314.384727 
" style="fill:none;stroke:#ffffff;stroke-linecap:round;"/>
     </g>
     <g id="text_4">
      <!-- 100 -->
      <g style="fill:#262626;" transform="translate(22.315 318.321524)scale(0.11 -0.11)">
       <defs>
        <path d="M 2384 0 
L 1822 0 
L 1822 3584 
Q 1619 3391 1289 3197 
Q 959 3003 697 2906 
L 697 3450 
Q 1169 3672 1522 3987 
Q 1875 4303 2022 4600 
L 2384 4600 
L 2384 0 
z
" id="ArialMT-31" transform="scale(0.015625)"/>
        <path d="M 266 2259 
Q 266 3072 433 3567 
Q 600 4063 929 4331 
Q 1259 4600 1759 4600 
Q 2128 4600 2406 4451 
Q 2684 4303 2865 4023 
Q 3047 3744 3150 3342 
Q 3253 2941 3253 2259 
Q 3253 1453 3087 958 
Q 2922 463 2592 192 
Q 2263 -78 1759 -78 
Q 1097 -78 719 397 
Q 266 969 266 2259 
z
M 844 2259 
Q 844 1131 1108 757 
Q 1372 384 1759 384 
Q 2147 384 2411 759 
Q 2675 1134 2675 2259 
Q 2675 3391 2411 3762 
Q 2147 4134 1753 4134 
Q 1366 4134 1134 3806 
Q 844 3388 844 2259 
z
" id="ArialMT-30" transform="scale(0.015625)"/>
       </defs>
       <use xlink:href="#ArialMT-31"/>
       <use x="55.615234" xlink:href="#ArialMT-30"/>
       <use x="111.230469" xlink:href="#ArialMT-30"/>
      </g>
     </g>
    </g>
    <g id="ytick_2">
     <g id="line2d_2">
      <path clip-path="url(#pe914db9f2f)" d="M 50.166094 271.458359 
L 356.246094 271.458359 
" style="fill:none;stroke:#ffffff;stroke-linecap:round;"/>
     </g>
     <g id="text_5">
      <!-- 150 -->
      <g style="fill:#262626;" transform="translate(22.315 275.395156)scale(0.11 -0.11)">
       <defs>
        <path d="M 266 1200 
L 856 1250 
Q 922 819 1161 601 
Q 1400 384 1738 384 
Q 2144 384 2425 690 
Q 2706 997 2706 1503 
Q 2706 1984 2436 2262 
Q 2166 2541 1728 2541 
Q 1456 2541 1237 2417 
Q 1019 2294 894 2097 
L 366 2166 
L 809 4519 
L 3088 4519 
L 3088 3981 
L 1259 3981 
L 1013 2750 
Q 1425 3038 1878 3038 
Q 2478 3038 2890 2622 
Q 3303 2206 3303 1553 
Q 3303 931 2941 478 
Q 2500 -78 1738 -78 
Q 1113 -78 717 272 
Q 322 622 266 1200 
z
" id="ArialMT-35" transform="scale(0.015625)"/>
       </defs>
       <use xlink:href="#ArialMT-31"/>
       <use x="55.615234" xlink:href="#ArialMT-35"/>
       <use x="111.230469" xlink:href="#ArialMT-30"/>
      </g>
     </g>
    </g>
    <g id="ytick_3">
     <g id="line2d_3">
      <path clip-path="url(#pe914db9f2f)" d="M 50.166094 228.531992 
L 356.246094 228.531992 
" style="fill:none;stroke:#ffffff;stroke-linecap:round;"/>
     </g>
     <g id="text_6">
      <!-- 200 -->
      <g style="fill:#262626;" transform="translate(22.315 232.468789)scale(0.11 -0.11)">
       <defs>
        <path d="M 3222 541 
L 3222 0 
L 194 0 
Q 188 203 259 391 
Q 375 700 629 1000 
Q 884 1300 1366 1694 
Q 2113 2306 2375 2664 
Q 2638 3022 2638 3341 
Q 2638 3675 2398 3904 
Q 2159 4134 1775 4134 
Q 1369 4134 1125 3890 
Q 881 3647 878 3216 
L 300 3275 
Q 359 3922 746 4261 
Q 1134 4600 1788 4600 
Q 2447 4600 2831 4234 
Q 3216 3869 3216 3328 
Q 3216 3053 3103 2787 
Q 2991 2522 2730 2228 
Q 2469 1934 1863 1422 
Q 1356 997 1212 845 
Q 1069 694 975 541 
L 3222 541 
z
" id="ArialMT-32" transform="scale(0.015625)"/>
       </defs>
       <use xlink:href="#ArialMT-32"/>
       <use x="55.615234" xlink:href="#ArialMT-30"/>
       <use x="111.230469" xlink:href="#ArialMT-30"/>
      </g>
     </g>
    </g>
    <g id="ytick_4">
     <g id="line2d_4">
      <path clip-path="url(#pe914db9f2f)" d="M 50.166094 185.605624 
L 356.246094 185.605624 
" style="fill:none;stroke:#ffffff;stroke-linecap:round;"/>
     </g>
     <g id="text_7">
      <!-- 250 -->
      <g style="fill:#262626;" transform="translate(22.315 189.542421)scale(0.11 -0.11)">
       <use xlink:href="#ArialMT-32"/>
       <use x="55.615234" xlink:href="#ArialMT-35"/>
       <use x="111.230469" xlink:href="#ArialMT-30"/>
      </g>
     </g>
    </g>
    <g id="ytick_5">
     <g id="line2d_5">
      <path clip-path="url(#pe914db9f2f)" d="M 50.166094 142.679256 
L 356.246094 142.679256 
" style="fill:none;stroke:#ffffff;stroke-linecap:round;"/>
     </g>
     <g id="text_8">
      <!-- 300 -->
      <g style="fill:#262626;" transform="translate(22.315 146.616053)scale(0.11 -0.11)">
       <defs>
        <path d="M 269 1209 
L 831 1284 
Q 928 806 1161 595 
Q 1394 384 1728 384 
Q 2125 384 2398 659 
Q 2672 934 2672 1341 
Q 2672 1728 2419 1979 
Q 2166 2231 1775 2231 
Q 1616 2231 1378 2169 
L 1441 2663 
Q 1497 2656 1531 2656 
Q 1891 2656 2178 2843 
Q 2466 3031 2466 3422 
Q 2466 3731 2256 3934 
Q 2047 4138 1716 4138 
Q 1388 4138 1169 3931 
Q 950 3725 888 3313 
L 325 3413 
Q 428 3978 793 4289 
Q 1159 4600 1703 4600 
Q 2078 4600 2393 4439 
Q 2709 4278 2876 4000 
Q 3044 3722 3044 3409 
Q 3044 3113 2884 2869 
Q 2725 2625 2413 2481 
Q 2819 2388 3044 2092 
Q 3269 1797 3269 1353 
Q 3269 753 2831 336 
Q 2394 -81 1725 -81 
Q 1122 -81 723 278 
Q 325 638 269 1209 
z
" id="ArialMT-33" transform="scale(0.015625)"/>
       </defs>
       <use xlink:href="#ArialMT-33"/>
       <use x="55.615234" xlink:href="#ArialMT-30"/>
       <use x="111.230469" xlink:href="#ArialMT-30"/>
      </g>
     </g>
    </g>
    <g id="ytick_6">
     <g id="line2d_6">
      <path clip-path="url(#pe914db9f2f)" d="M 50.166094 99.752888 
L 356.246094 99.752888 
" style="fill:none;stroke:#ffffff;stroke-linecap:round;"/>
     </g>
     <g id="text_9">
      <!-- 350 -->
      <g style="fill:#262626;" transform="translate(22.315 103.689685)scale(0.11 -0.11)">
       <use xlink:href="#ArialMT-33"/>
       <use x="55.615234" xlink:href="#ArialMT-35"/>
       <use x="111.230469" xlink:href="#ArialMT-30"/>
      </g>
     </g>
    </g>
    <g id="ytick_7">
     <g id="line2d_7">
      <path clip-path="url(#pe914db9f2f)" d="M 50.166094 56.826521 
L 356.246094 56.826521 
" style="fill:none;stroke:#ffffff;stroke-linecap:round;"/>
     </g>
     <g id="text_10">
      <!-- 400 -->
      <g style="fill:#262626;" transform="translate(22.315 60.763318)scale(0.11 -0.11)">
       <defs>
        <path d="M 2069 0 
L 2069 1097 
L 81 1097 
L 81 1613 
L 2172 4581 
L 2631 4581 
L 2631 1613 
L 3250 1613 
L 3250 1097 
L 2631 1097 
L 2631 0 
L 2069 0 
z
M 2069 1613 
L 2069 3678 
L 634 1613 
L 2069 1613 
z
" id="ArialMT-34" transform="scale(0.015625)"/>
       </defs>
       <use xlink:href="#ArialMT-34"/>
       <use x="55.615234" xlink:href="#ArialMT-30"/>
       <use x="111.230469" xlink:href="#ArialMT-30"/>
      </g>
     </g>
    </g>
    <g id="ytick_8">
     <g id="line2d_8">
      <path clip-path="url(#pe914db9f2f)" d="M 50.166094 13.900153 
L 356.246094 13.900153 
" style="fill:none;stroke:#ffffff;stroke-linecap:round;"/>
     </g>
     <g id="text_11">
      <!-- 450 -->
      <g style="fill:#262626;" transform="translate(22.315 17.83695)scale(0.11 -0.11)">
       <use xlink:href="#ArialMT-34"/>
       <use x="55.615234" xlink:href="#ArialMT-35"/>
       <use x="111.230469" xlink:href="#ArialMT-30"/>
      </g>
     </g>
    </g>
    <g id="text_12">
     <!-- Individual-Level Fitted Model Log-Likelihoods -->
     <g style="fill:#262626;" transform="translate(15.789375 284.528437)rotate(-90)scale(0.12 -0.12)">
      <defs>
       <path d="M 597 0 
L 597 4581 
L 1203 4581 
L 1203 0 
L 597 0 
z
" id="ArialMT-49" transform="scale(0.015625)"/>
       <path d="M 1344 0 
L 81 3319 
L 675 3319 
L 1388 1331 
Q 1503 1009 1600 663 
Q 1675 925 1809 1294 
L 2547 3319 
L 3125 3319 
L 1869 0 
L 1344 0 
z
" id="ArialMT-76" transform="scale(0.015625)"/>
       <path d="M 203 1375 
L 203 1941 
L 1931 1941 
L 1931 1375 
L 203 1375 
z
" id="ArialMT-2d" transform="scale(0.015625)"/>
       <path d="M 469 0 
L 469 4581 
L 1075 4581 
L 1075 541 
L 3331 541 
L 3331 0 
L 469 0 
z
" id="ArialMT-4c" transform="scale(0.015625)"/>
       <path d="M 525 0 
L 525 4581 
L 3616 4581 
L 3616 4041 
L 1131 4041 
L 1131 2622 
L 3281 2622 
L 3281 2081 
L 1131 2081 
L 1131 0 
L 525 0 
z
" id="ArialMT-46" transform="scale(0.015625)"/>
       <path d="M 319 -275 
L 866 -356 
Q 900 -609 1056 -725 
Q 1266 -881 1628 -881 
Q 2019 -881 2231 -725 
Q 2444 -569 2519 -288 
Q 2563 -116 2559 434 
Q 2191 0 1641 0 
Q 956 0 581 494 
Q 206 988 206 1678 
Q 206 2153 378 2554 
Q 550 2956 876 3175 
Q 1203 3394 1644 3394 
Q 2231 3394 2613 2919 
L 2613 3319 
L 3131 3319 
L 3131 450 
Q 3131 -325 2973 -648 
Q 2816 -972 2473 -1159 
Q 2131 -1347 1631 -1347 
Q 1038 -1347 672 -1080 
Q 306 -813 319 -275 
z
M 784 1719 
Q 784 1066 1043 766 
Q 1303 466 1694 466 
Q 2081 466 2343 764 
Q 2606 1063 2606 1700 
Q 2606 2309 2336 2618 
Q 2066 2928 1684 2928 
Q 1309 2928 1046 2623 
Q 784 2319 784 1719 
z
" id="ArialMT-67" transform="scale(0.015625)"/>
       <path d="M 425 0 
L 425 4581 
L 988 4581 
L 988 1969 
L 2319 3319 
L 3047 3319 
L 1778 2088 
L 3175 0 
L 2481 0 
L 1384 1697 
L 988 1316 
L 988 0 
L 425 0 
z
" id="ArialMT-6b" transform="scale(0.015625)"/>
       <path d="M 422 0 
L 422 4581 
L 984 4581 
L 984 2938 
Q 1378 3394 1978 3394 
Q 2347 3394 2619 3248 
Q 2891 3103 3008 2847 
Q 3125 2591 3125 2103 
L 3125 0 
L 2563 0 
L 2563 2103 
Q 2563 2525 2380 2717 
Q 2197 2909 1863 2909 
Q 1613 2909 1392 2779 
Q 1172 2650 1078 2428 
Q 984 2206 984 1816 
L 984 0 
L 422 0 
z
" id="ArialMT-68" transform="scale(0.015625)"/>
       <path d="M 197 991 
L 753 1078 
Q 800 744 1014 566 
Q 1228 388 1613 388 
Q 2000 388 2187 545 
Q 2375 703 2375 916 
Q 2375 1106 2209 1216 
Q 2094 1291 1634 1406 
Q 1016 1563 777 1677 
Q 538 1791 414 1992 
Q 291 2194 291 2438 
Q 291 2659 392 2848 
Q 494 3038 669 3163 
Q 800 3259 1026 3326 
Q 1253 3394 1513 3394 
Q 1903 3394 2198 3281 
Q 2494 3169 2634 2976 
Q 2775 2784 2828 2463 
L 2278 2388 
Q 2241 2644 2061 2787 
Q 1881 2931 1553 2931 
Q 1166 2931 1000 2803 
Q 834 2675 834 2503 
Q 834 2394 903 2306 
Q 972 2216 1119 2156 
Q 1203 2125 1616 2013 
Q 2213 1853 2448 1751 
Q 2684 1650 2818 1456 
Q 2953 1263 2953 975 
Q 2953 694 2789 445 
Q 2625 197 2315 61 
Q 2006 -75 1616 -75 
Q 969 -75 630 194 
Q 291 463 197 991 
z
" id="ArialMT-73" transform="scale(0.015625)"/>
      </defs>
      <use xlink:href="#ArialMT-49"/>
      <use x="27.783203" xlink:href="#ArialMT-6e"/>
      <use x="83.398438" xlink:href="#ArialMT-64"/>
      <use x="139.013672" xlink:href="#ArialMT-69"/>
      <use x="161.230469" xlink:href="#ArialMT-76"/>
      <use x="211.230469" xlink:href="#ArialMT-69"/>
      <use x="233.447266" xlink:href="#ArialMT-64"/>
      <use x="289.0625" xlink:href="#ArialMT-75"/>
      <use x="344.677734" xlink:href="#ArialMT-61"/>
      <use x="400.292969" xlink:href="#ArialMT-6c"/>
      <use x="422.509766" xlink:href="#ArialMT-2d"/>
      <use x="455.810547" xlink:href="#ArialMT-4c"/>
      <use x="511.425781" xlink:href="#ArialMT-65"/>
      <use x="567.041016" xlink:href="#ArialMT-76"/>
      <use x="617.041016" xlink:href="#ArialMT-65"/>
      <use x="672.65625" xlink:href="#ArialMT-6c"/>
      <use x="694.873047" xlink:href="#ArialMT-20"/>
      <use x="722.65625" xlink:href="#ArialMT-46"/>
      <use x="783.740234" xlink:href="#ArialMT-69"/>
      <use x="805.957031" xlink:href="#ArialMT-74"/>
      <use x="833.740234" xlink:href="#ArialMT-74"/>
      <use x="861.523438" xlink:href="#ArialMT-65"/>
      <use x="917.138672" xlink:href="#ArialMT-64"/>
      <use x="972.753906" xlink:href="#ArialMT-20"/>
      <use x="1000.537109" xlink:href="#ArialMT-4d"/>
      <use x="1083.837891" xlink:href="#ArialMT-6f"/>
      <use x="1139.453125" xlink:href="#ArialMT-64"/>
      <use x="1195.068359" xlink:href="#ArialMT-65"/>
      <use x="1250.683594" xlink:href="#ArialMT-6c"/>
      <use x="1272.900391" xlink:href="#ArialMT-20"/>
      <use x="1300.683594" xlink:href="#ArialMT-4c"/>
      <use x="1356.298828" xlink:href="#ArialMT-6f"/>
      <use x="1411.914062" xlink:href="#ArialMT-67"/>
      <use x="1467.529297" xlink:href="#ArialMT-2d"/>
      <use x="1500.830078" xlink:href="#ArialMT-4c"/>
      <use x="1556.445312" xlink:href="#ArialMT-69"/>
      <use x="1578.662109" xlink:href="#ArialMT-6b"/>
      <use x="1628.662109" xlink:href="#ArialMT-65"/>
      <use x="1684.277344" xlink:href="#ArialMT-6c"/>
      <use x="1706.494141" xlink:href="#ArialMT-69"/>
      <use x="1728.710938" xlink:href="#ArialMT-68"/>
      <use x="1784.326172" xlink:href="#ArialMT-6f"/>
      <use x="1839.941406" xlink:href="#ArialMT-6f"/>
      <use x="1895.556641" xlink:href="#ArialMT-64"/>
      <use x="1951.171875" xlink:href="#ArialMT-73"/>
     </g>
    </g>
   </g>
   <g id="PolyCollection_1">
    <defs>
     <path d="M 126.977239 -56.031179 
L 126.394949 -56.031179 
L 126.297911 -58.919454 
L 126.178651 -61.807729 
L 126.035504 -64.696003 
L 125.867672 -67.584278 
L 125.675412 -70.472553 
L 125.460103 -73.360828 
L 125.224185 -76.249103 
L 124.970916 -79.137377 
L 124.703981 -82.025652 
L 124.426941 -84.913927 
L 124.142608 -87.802202 
L 123.852385 -90.690476 
L 123.55567 -93.578751 
L 123.249372 -96.467026 
L 122.927615 -99.355301 
L 122.581649 -102.243576 
L 122.199964 -105.13185 
L 121.768619 -108.020125 
L 121.271722 -110.9084 
L 120.692061 -113.796675 
L 120.011852 -116.68495 
L 119.213594 -119.573224 
L 118.281037 -122.461499 
L 117.200264 -125.349774 
L 115.960866 -128.238049 
L 114.557174 -131.126324 
L 112.989459 -134.014598 
L 111.264981 -136.902873 
L 109.398732 -139.791148 
L 107.413683 -142.679423 
L 105.340406 -145.567698 
L 103.215932 -148.455972 
L 101.081833 -151.344247 
L 98.98159 -154.232522 
L 96.957415 -157.120797 
L 95.046823 -160.009072 
L 93.279287 -162.897346 
L 91.673373 -165.785621 
L 90.234712 -168.673896 
L 88.955127 -171.562171 
L 87.813082 -174.450446 
L 86.775526 -177.33872 
L 85.801014 -180.226995 
L 84.843848 -183.11527 
L 83.858876 -186.003545 
L 82.806452 -188.891819 
L 81.657058 -191.780094 
L 80.395065 -194.668369 
L 79.021194 -197.556644 
L 77.553362 -200.444919 
L 76.025747 -203.333193 
L 74.486146 -206.221468 
L 72.99188 -209.109743 
L 71.60473 -211.998018 
L 70.385491 -214.886293 
L 69.388817 -217.774567 
L 68.65896 -220.662842 
L 68.226889 -223.551117 
L 68.109013 -226.439392 
L 68.307509 -229.327667 
L 68.811977 -232.215941 
L 69.60197 -235.104216 
L 70.64985 -237.992491 
L 71.923471 -240.880766 
L 73.388276 -243.769041 
L 75.008673 -246.657315 
L 76.748723 -249.54559 
L 78.572391 -252.433865 
L 80.443754 -255.32214 
L 82.32751 -258.210415 
L 84.190078 -261.098689 
L 86.001364 -263.986964 
L 87.737047 -266.875239 
L 89.381037 -269.763514 
L 90.927605 -272.651788 
L 92.382666 -275.540063 
L 93.763796 -278.428338 
L 95.098724 -281.316613 
L 96.422362 -284.204888 
L 97.772649 -287.093162 
L 99.18576 -289.981437 
L 100.691346 -292.869712 
L 102.308499 -295.757987 
L 104.043007 -298.646262 
L 105.886289 -301.534536 
L 107.816106 -304.422811 
L 109.798896 -307.311086 
L 111.793323 -310.199361 
L 113.754513 -313.087636 
L 115.638378 -315.97591 
L 117.405476 -318.864185 
L 119.023999 -321.75246 
L 120.471627 -324.640735 
L 121.736204 -327.52901 
L 122.81533 -330.417284 
L 123.715102 -333.305559 
L 124.448301 -336.193834 
L 125.032324 -339.082109 
L 125.487145 -341.970384 
L 127.885042 -341.970384 
L 127.885042 -341.970384 
L 128.339864 -339.082109 
L 128.923886 -336.193834 
L 129.657085 -333.305559 
L 130.556858 -330.417284 
L 131.635984 -327.52901 
L 132.900561 -324.640735 
L 134.348188 -321.75246 
L 135.966711 -318.864185 
L 137.73381 -315.97591 
L 139.617674 -313.087636 
L 141.578865 -310.199361 
L 143.573291 -307.311086 
L 145.556081 -304.422811 
L 147.485899 -301.534536 
L 149.32918 -298.646262 
L 151.063688 -295.757987 
L 152.680841 -292.869712 
L 154.186428 -289.981437 
L 155.599538 -287.093162 
L 156.949825 -284.204888 
L 158.273464 -281.316613 
L 159.608392 -278.428338 
L 160.989521 -275.540063 
L 162.444583 -272.651788 
L 163.99115 -269.763514 
L 165.63514 -266.875239 
L 167.370823 -263.986964 
L 169.182109 -261.098689 
L 171.044677 -258.210415 
L 172.928433 -255.32214 
L 174.799797 -252.433865 
L 176.623465 -249.54559 
L 178.363514 -246.657315 
L 179.983912 -243.769041 
L 181.448717 -240.880766 
L 182.722337 -237.992491 
L 183.770218 -235.104216 
L 184.56021 -232.215941 
L 185.064678 -229.327667 
L 185.263175 -226.439392 
L 185.145299 -223.551117 
L 184.713228 -220.662842 
L 183.983371 -217.774567 
L 182.986696 -214.886293 
L 181.767458 -211.998018 
L 180.380308 -209.109743 
L 178.886042 -206.221468 
L 177.34644 -203.333193 
L 175.818825 -200.444919 
L 174.350993 -197.556644 
L 172.977123 -194.668369 
L 171.715129 -191.780094 
L 170.565735 -188.891819 
L 169.513312 -186.003545 
L 168.52834 -183.11527 
L 167.571174 -180.226995 
L 166.596661 -177.33872 
L 165.559106 -174.450446 
L 164.41706 -171.562171 
L 163.137475 -168.673896 
L 161.698814 -165.785621 
L 160.0929 -162.897346 
L 158.325365 -160.009072 
L 156.414773 -157.120797 
L 154.390598 -154.232522 
L 152.290354 -151.344247 
L 150.156255 -148.455972 
L 148.031781 -145.567698 
L 145.958504 -142.679423 
L 143.973456 -139.791148 
L 142.107206 -136.902873 
L 140.382729 -134.014598 
L 138.815013 -131.126324 
L 137.411321 -128.238049 
L 136.171924 -125.349774 
L 135.091151 -122.461499 
L 134.158594 -119.573224 
L 133.360335 -116.68495 
L 132.680126 -113.796675 
L 132.100465 -110.9084 
L 131.603568 -108.020125 
L 131.172223 -105.13185 
L 130.790539 -102.243576 
L 130.444572 -99.355301 
L 130.122816 -96.467026 
L 129.816518 -93.578751 
L 129.519802 -90.690476 
L 129.22958 -87.802202 
L 128.945246 -84.913927 
L 128.668207 -82.025652 
L 128.401271 -79.137377 
L 128.148003 -76.249103 
L 127.912084 -73.360828 
L 127.696776 -70.472553 
L 127.504515 -67.584278 
L 127.336684 -64.696003 
L 127.193536 -61.807729 
L 127.074276 -58.919454 
L 126.977239 -56.031179 
z
" id="meddebb983c" style="stroke:#4c4c4c;stroke-width:1.5;"/>
    </defs>
    <g clip-path="url(#pe914db9f2f)">
     <use style="fill:#5875a4;stroke:#4c4c4c;stroke-width:1.5;" x="0" xlink:href="#meddebb983c" y="363.467344"/>
    </g>
   </g>
   <g id="PolyCollection_2">
    <defs>
     <path d="M 280.024262 -57.234394 
L 279.427926 -57.234394 
L 279.327451 -60.101987 
L 279.203471 -62.96958 
L 279.054006 -65.837173 
L 278.877932 -68.704766 
L 278.675184 -71.57236 
L 278.446869 -74.439953 
L 278.195228 -77.307546 
L 277.923451 -80.175139 
L 277.635312 -83.042732 
L 277.334656 -85.910325 
L 277.024786 -88.777919 
L 276.707787 -91.645512 
L 276.38388 -94.513105 
L 276.050863 -97.380698 
L 275.703691 -100.248291 
L 275.334254 -103.115884 
L 274.931346 -105.983477 
L 274.480864 -108.851071 
L 273.966205 -111.718664 
L 273.368879 -114.586257 
L 272.669322 -117.45385 
L 271.847908 -120.321443 
L 270.886171 -123.189036 
L 269.768201 -126.05663 
L 268.482178 -128.924223 
L 267.021953 -131.791816 
L 265.388546 -134.659409 
L 263.591387 -137.527002 
L 261.649091 -140.394595 
L 259.58958 -143.262188 
L 257.449358 -146.129782 
L 255.271873 -148.997375 
L 253.104937 -151.864968 
L 250.997367 -154.732561 
L 248.995088 -157.600154 
L 247.137076 -160.467747 
L 245.451574 -163.335341 
L 243.953039 -166.202934 
L 242.640231 -169.070527 
L 241.495723 -171.93812 
L 240.486999 -174.805713 
L 239.569117 -177.673306 
L 238.688728 -180.540899 
L 237.789128 -183.408493 
L 236.815877 -186.276086 
L 235.722471 -189.143679 
L 234.475535 -192.011272 
L 233.059015 -194.878865 
L 231.476926 -197.746458 
L 229.754337 -200.614052 
L 227.936399 -203.481645 
L 226.085436 -206.349238 
L 224.276301 -209.216831 
L 222.590437 -212.084424 
L 221.109226 -214.952017 
L 219.907346 -217.819611 
L 219.04687 -220.687204 
L 218.572744 -223.554797 
L 218.510094 -226.42239 
L 218.863552 -229.289983 
L 219.6185 -232.157576 
L 220.743843 -235.025169 
L 222.195771 -237.892763 
L 223.921873 -240.760356 
L 225.86504 -243.627949 
L 227.966749 -246.495542 
L 230.169551 -249.363135 
L 232.418818 -252.230728 
L 234.663991 -255.098322 
L 236.859634 -257.965915 
L 238.966605 -260.833508 
L 240.953482 -263.701101 
L 242.798233 -266.568694 
L 244.489881 -269.436287 
L 246.029804 -272.30388 
L 247.432228 -275.171474 
L 248.723548 -278.039067 
L 249.940267 -280.90666 
L 251.125611 -283.774253 
L 252.325088 -286.641846 
L 253.581523 -289.509439 
L 254.930216 -292.377033 
L 256.394872 -295.244626 
L 257.984885 -298.112219 
L 259.694313 -300.979812 
L 261.502668 -303.847405 
L 263.37733 -306.714998 
L 265.277205 -309.582591 
L 267.157083 -312.450185 
L 268.972084 -315.317778 
L 270.681661 -318.185371 
L 272.252707 -321.052964 
L 273.661539 -323.920557 
L 274.894662 -326.78815 
L 275.948435 -329.655744 
L 276.827859 -332.523337 
L 277.544781 -335.39093 
L 278.115823 -338.258523 
L 278.560333 -341.126116 
L 280.891854 -341.126116 
L 280.891854 -341.126116 
L 281.336365 -338.258523 
L 281.907407 -335.39093 
L 282.624328 -332.523337 
L 283.503753 -329.655744 
L 284.557526 -326.78815 
L 285.790648 -323.920557 
L 287.19948 -321.052964 
L 288.770527 -318.185371 
L 290.480103 -315.317778 
L 292.295105 -312.450185 
L 294.174983 -309.582591 
L 296.074858 -306.714998 
L 297.949519 -303.847405 
L 299.757874 -300.979812 
L 301.467303 -298.112219 
L 303.057315 -295.244626 
L 304.521971 -292.377033 
L 305.870664 -289.509439 
L 307.1271 -286.641846 
L 308.326576 -283.774253 
L 309.511921 -280.90666 
L 310.72864 -278.039067 
L 312.019959 -275.171474 
L 313.422384 -272.30388 
L 314.962307 -269.436287 
L 316.653955 -266.568694 
L 318.498705 -263.701101 
L 320.485583 -260.833508 
L 322.592553 -257.965915 
L 324.788197 -255.098322 
L 327.033369 -252.230728 
L 329.282636 -249.363135 
L 331.485438 -246.495542 
L 333.587147 -243.627949 
L 335.530315 -240.760356 
L 337.256417 -237.892763 
L 338.708344 -235.025169 
L 339.833687 -232.157576 
L 340.588635 -229.289983 
L 340.942094 -226.42239 
L 340.879443 -223.554797 
L 340.405317 -220.687204 
L 339.544842 -217.819611 
L 338.342961 -214.952017 
L 336.86175 -212.084424 
L 335.175886 -209.216831 
L 333.366752 -206.349238 
L 331.515788 -203.481645 
L 329.697851 -200.614052 
L 327.975261 -197.746458 
L 326.393172 -194.878865 
L 324.976652 -192.011272 
L 323.729717 -189.143679 
L 322.636311 -186.276086 
L 321.663059 -183.408493 
L 320.763459 -180.540899 
L 319.883071 -177.673306 
L 318.965189 -174.805713 
L 317.956465 -171.93812 
L 316.811956 -169.070527 
L 315.499148 -166.202934 
L 314.000614 -163.335341 
L 312.315111 -160.467747 
L 310.457099 -157.600154 
L 308.454821 -154.732561 
L 306.347251 -151.864968 
L 304.180314 -148.997375 
L 302.002829 -146.129782 
L 299.862608 -143.262188 
L 297.803096 -140.394595 
L 295.860801 -137.527002 
L 294.063641 -134.659409 
L 292.430234 -131.791816 
L 290.970009 -128.924223 
L 289.683987 -126.05663 
L 288.566017 -123.189036 
L 287.60428 -120.321443 
L 286.782866 -117.45385 
L 286.083308 -114.586257 
L 285.485983 -111.718664 
L 284.971324 -108.851071 
L 284.520841 -105.983477 
L 284.117933 -103.115884 
L 283.748496 -100.248291 
L 283.401325 -97.380698 
L 283.068307 -94.513105 
L 282.744401 -91.645512 
L 282.427401 -88.777919 
L 282.117531 -85.910325 
L 281.816876 -83.042732 
L 281.528736 -80.175139 
L 281.256959 -77.307546 
L 281.005318 -74.439953 
L 280.777003 -71.57236 
L 280.574256 -68.704766 
L 280.398181 -65.837173 
L 280.248716 -62.96958 
L 280.124736 -60.101987 
L 280.024262 -57.234394 
z
" id="m998ba9130b" style="stroke:#4c4c4c;stroke-width:1.5;"/>
    </defs>
    <g clip-path="url(#pe914db9f2f)">
     <use style="fill:#cc8963;stroke:#4c4c4c;stroke-width:1.5;" x="0" xlink:href="#m998ba9130b" y="363.467344"/>
    </g>
   </g>
   <g id="line2d_9">
    <path clip-path="url(#pe914db9f2f)" d="M 69.961789 145.634907 
L 183.410398 145.634907 
" style="fill:none;stroke:#4c4c4c;stroke-linecap:round;stroke-width:0.75;"/>
   </g>
   <g id="line2d_10">
    <path clip-path="url(#pe914db9f2f)" d="M 89.332437 190.517053 
L 164.039751 190.517053 
" style="fill:none;stroke:#4c4c4c;stroke-linecap:round;stroke-width:0.75;"/>
   </g>
   <g id="line2d_11">
    <path clip-path="url(#pe914db9f2f)" d="M 79.053528 111.249537 
L 174.31866 111.249537 
" style="fill:none;stroke:#4c4c4c;stroke-linecap:round;stroke-width:0.75;"/>
   </g>
   <g id="line2d_12">
    <path clip-path="url(#pe914db9f2f)" d="M 82.771096 104.667602 
L 170.601091 104.667602 
" style="fill:none;stroke:#4c4c4c;stroke-linecap:round;stroke-width:0.75;"/>
   </g>
   <g id="line2d_13">
    <path clip-path="url(#pe914db9f2f)" d="M 84.615039 103.090299 
L 168.757149 103.090299 
" style="fill:none;stroke:#4c4c4c;stroke-linecap:round;stroke-width:0.75;"/>
   </g>
   <g id="line2d_14">
    <path clip-path="url(#pe914db9f2f)" d="M 68.694784 136.246415 
L 184.677404 136.246415 
" style="fill:none;stroke:#4c4c4c;stroke-linecap:round;stroke-width:0.75;"/>
   </g>
   <g id="line2d_15">
    <path clip-path="url(#pe914db9f2f)" d="M 83.245249 174.873258 
L 170.126939 174.873258 
" style="fill:none;stroke:#4c4c4c;stroke-linecap:round;stroke-width:0.75;"/>
   </g>
   <g id="line2d_16">
    <path clip-path="url(#pe914db9f2f)" d="M 72.155543 152.265363 
L 181.216644 152.265363 
" style="fill:none;stroke:#4c4c4c;stroke-linecap:round;stroke-width:0.75;"/>
   </g>
   <g id="line2d_17">
    <path clip-path="url(#pe914db9f2f)" d="M 93.613355 200.292447 
L 159.758832 200.292447 
" style="fill:none;stroke:#4c4c4c;stroke-linecap:round;stroke-width:0.75;"/>
   </g>
   <g id="line2d_18">
    <path clip-path="url(#pe914db9f2f)" d="M 91.28519 91.109221 
L 162.086998 91.109221 
" style="fill:none;stroke:#4c4c4c;stroke-linecap:round;stroke-width:0.75;"/>
   </g>
   <g id="line2d_19">
    <path clip-path="url(#pe914db9f2f)" d="M 118.365087 241.611576 
L 135.0071 241.611576 
" style="fill:none;stroke:#4c4c4c;stroke-linecap:round;stroke-width:0.75;"/>
   </g>
   <g id="line2d_20">
    <path clip-path="url(#pe914db9f2f)" d="M 71.210213 126.212929 
L 182.161975 126.212929 
" style="fill:none;stroke:#4c4c4c;stroke-linecap:round;stroke-width:0.75;"/>
   </g>
   <g id="line2d_21">
    <path clip-path="url(#pe914db9f2f)" d="M 99.460763 73.979834 
L 153.911424 73.979834 
" style="fill:none;stroke:#4c4c4c;stroke-linecap:round;stroke-width:0.75;"/>
   </g>
   <g id="line2d_22">
    <path clip-path="url(#pe914db9f2f)" d="M 80.857975 168.429281 
L 172.514212 168.429281 
" style="fill:none;stroke:#4c4c4c;stroke-linecap:round;stroke-width:0.75;"/>
   </g>
   <g id="line2d_23">
    <path clip-path="url(#pe914db9f2f)" d="M 72.155543 151.64871 
L 181.216644 151.64871 
" style="fill:none;stroke:#4c4c4c;stroke-linecap:round;stroke-width:0.75;"/>
   </g>
   <g id="line2d_24">
    <path clip-path="url(#pe914db9f2f)" d="M 79.053528 110.720819 
L 174.31866 110.720819 
" style="fill:none;stroke:#4c4c4c;stroke-linecap:round;stroke-width:0.75;"/>
   </g>
   <g id="line2d_25">
    <path clip-path="url(#pe914db9f2f)" d="M 77.248096 113.877155 
L 176.124091 113.877155 
" style="fill:none;stroke:#4c4c4c;stroke-linecap:round;stroke-width:0.75;"/>
   </g>
   <g id="line2d_26">
    <path clip-path="url(#pe914db9f2f)" d="M 72.155543 151.888533 
L 181.216644 151.888533 
" style="fill:none;stroke:#4c4c4c;stroke-linecap:round;stroke-width:0.75;"/>
   </g>
   <g id="line2d_27">
    <path clip-path="url(#pe914db9f2f)" d="M 106.094287 61.129426 
L 147.277901 61.129426 
" style="fill:none;stroke:#4c4c4c;stroke-linecap:round;stroke-width:0.75;"/>
   </g>
   <g id="line2d_28">
    <path clip-path="url(#pe914db9f2f)" d="M 106.094287 61.624128 
L 147.277901 61.624128 
" style="fill:none;stroke:#4c4c4c;stroke-linecap:round;stroke-width:0.75;"/>
   </g>
   <g id="line2d_29">
    <path clip-path="url(#pe914db9f2f)" d="M 69.390719 131.490275 
L 183.981469 131.490275 
" style="fill:none;stroke:#4c4c4c;stroke-linecap:round;stroke-width:0.75;"/>
   </g>
   <g id="line2d_30">
    <path clip-path="url(#pe914db9f2f)" d="M 79.053528 109.997015 
L 174.31866 109.997015 
" style="fill:none;stroke:#4c4c4c;stroke-linecap:round;stroke-width:0.75;"/>
   </g>
   <g id="line2d_31">
    <path clip-path="url(#pe914db9f2f)" d="M 102.552275 67.754232 
L 150.819912 67.754232 
" style="fill:none;stroke:#4c4c4c;stroke-linecap:round;stroke-width:0.75;"/>
   </g>
   <g id="line2d_32">
    <path clip-path="url(#pe914db9f2f)" d="M 69.961789 144.601359 
L 183.410398 144.601359 
" style="fill:none;stroke:#4c4c4c;stroke-linecap:round;stroke-width:0.75;"/>
   </g>
   <g id="line2d_33">
    <path clip-path="url(#pe914db9f2f)" d="M 79.497843 165.773777 
L 173.874344 165.773777 
" style="fill:none;stroke:#4c4c4c;stroke-linecap:round;stroke-width:0.75;"/>
   </g>
   <g id="line2d_34">
    <path clip-path="url(#pe914db9f2f)" d="M 96.725 80.646218 
L 156.647188 80.646218 
" style="fill:none;stroke:#4c4c4c;stroke-linecap:round;stroke-width:0.75;"/>
   </g>
   <g id="line2d_35">
    <path clip-path="url(#pe914db9f2f)" d="M 73.921254 118.925328 
L 179.450934 118.925328 
" style="fill:none;stroke:#4c4c4c;stroke-linecap:round;stroke-width:0.75;"/>
   </g>
   <g id="line2d_36">
    <path clip-path="url(#pe914db9f2f)" d="M 70.948497 149.483972 
L 182.42369 149.483972 
" style="fill:none;stroke:#4c4c4c;stroke-linecap:round;stroke-width:0.75;"/>
   </g>
   <g id="line2d_37">
    <path clip-path="url(#pe914db9f2f)" d="M 84.615039 101.10998 
L 168.757149 101.10998 
" style="fill:none;stroke:#4c4c4c;stroke-linecap:round;stroke-width:0.75;"/>
   </g>
   <g id="line2d_38">
    <path clip-path="url(#pe914db9f2f)" d="M 69.239231 141.376161 
L 184.132956 141.376161 
" style="fill:none;stroke:#4c4c4c;stroke-linecap:round;stroke-width:0.75;"/>
   </g>
   <g id="line2d_39">
    <path clip-path="url(#pe914db9f2f)" d="M 84.615039 101.820907 
L 168.757149 101.820907 
" style="fill:none;stroke:#4c4c4c;stroke-linecap:round;stroke-width:0.75;"/>
   </g>
   <g id="line2d_40">
    <path clip-path="url(#pe914db9f2f)" d="M 68.891295 133.947097 
L 184.480892 133.947097 
" style="fill:none;stroke:#4c4c4c;stroke-linecap:round;stroke-width:0.75;"/>
   </g>
   <g id="line2d_41">
    <path clip-path="url(#pe914db9f2f)" d="M 79.053528 111.14318 
L 174.31866 111.14318 
" style="fill:none;stroke:#4c4c4c;stroke-linecap:round;stroke-width:0.75;"/>
   </g>
   <g id="line2d_42">
    <path clip-path="url(#pe914db9f2f)" d="M 102.552275 68.26505 
L 150.819912 68.26505 
" style="fill:none;stroke:#4c4c4c;stroke-linecap:round;stroke-width:0.75;"/>
   </g>
   <g id="line2d_43">
    <path clip-path="url(#pe914db9f2f)" d="M 69.390719 129.931749 
L 183.981469 129.931749 
" style="fill:none;stroke:#4c4c4c;stroke-linecap:round;stroke-width:0.75;"/>
   </g>
   <g id="line2d_44">
    <path clip-path="url(#pe914db9f2f)" d="M 102.552275 67.719314 
L 150.819912 67.719314 
" style="fill:none;stroke:#4c4c4c;stroke-linecap:round;stroke-width:0.75;"/>
   </g>
   <g id="line2d_45">
    <path clip-path="url(#pe914db9f2f)" d="M 69.239231 143.191566 
L 184.132956 143.191566 
" style="fill:none;stroke:#4c4c4c;stroke-linecap:round;stroke-width:0.75;"/>
   </g>
   <g id="line2d_46">
    <path clip-path="url(#pe914db9f2f)" d="M 69.239231 143.83021 
L 184.132956 143.83021 
" style="fill:none;stroke:#4c4c4c;stroke-linecap:round;stroke-width:0.75;"/>
   </g>
   <g id="line2d_47">
    <path clip-path="url(#pe914db9f2f)" d="M 90.599226 196.044828 
L 162.772961 196.044828 
" style="fill:none;stroke:#4c4c4c;stroke-linecap:round;stroke-width:0.75;"/>
   </g>
   <g id="line2d_48">
    <path clip-path="url(#pe914db9f2f)" d="M 93.613355 199.487938 
L 159.758832 199.487938 
" style="fill:none;stroke:#4c4c4c;stroke-linecap:round;stroke-width:0.75;"/>
   </g>
   <g id="line2d_49">
    <path clip-path="url(#pe914db9f2f)" d="M 105.553863 217.43434 
L 147.818324 217.43434 
" style="fill:none;stroke:#4c4c4c;stroke-linecap:round;stroke-width:0.75;"/>
   </g>
   <g id="line2d_50">
    <path clip-path="url(#pe914db9f2f)" d="M 80.857975 167.72646 
L 172.514212 167.72646 
" style="fill:none;stroke:#4c4c4c;stroke-linecap:round;stroke-width:0.75;"/>
   </g>
   <g id="line2d_51">
    <path clip-path="url(#pe914db9f2f)" d="M 69.961789 144.396657 
L 183.410398 144.396657 
" style="fill:none;stroke:#4c4c4c;stroke-linecap:round;stroke-width:0.75;"/>
   </g>
   <g id="line2d_52">
    <path clip-path="url(#pe914db9f2f)" d="M 86.209864 183.872328 
L 167.162323 183.872328 
" style="fill:none;stroke:#4c4c4c;stroke-linecap:round;stroke-width:0.75;"/>
   </g>
   <g id="line2d_53">
    <path clip-path="url(#pe914db9f2f)" d="M 70.948497 148.2329 
L 182.42369 148.2329 
" style="fill:none;stroke:#4c4c4c;stroke-linecap:round;stroke-width:0.75;"/>
   </g>
   <g id="line2d_54">
    <path clip-path="url(#pe914db9f2f)" d="M 68.811481 139.957275 
L 184.560707 139.957275 
" style="fill:none;stroke:#4c4c4c;stroke-linecap:round;stroke-width:0.75;"/>
   </g>
   <g id="line2d_55">
    <path clip-path="url(#pe914db9f2f)" d="M 111.419192 225.621782 
L 141.952995 225.621782 
" style="fill:none;stroke:#4c4c4c;stroke-linecap:round;stroke-width:0.75;"/>
   </g>
   <g id="line2d_56">
    <path clip-path="url(#pe914db9f2f)" d="M 87.174632 185.131198 
L 166.197556 185.131198 
" style="fill:none;stroke:#4c4c4c;stroke-linecap:round;stroke-width:0.75;"/>
   </g>
   <g id="line2d_57">
    <path clip-path="url(#pe914db9f2f)" d="M 99.258635 207.988038 
L 154.113553 207.988038 
" style="fill:none;stroke:#4c4c4c;stroke-linecap:round;stroke-width:0.75;"/>
   </g>
   <g id="line2d_58">
    <path clip-path="url(#pe914db9f2f)" d="M 89.332437 193.2004 
L 164.039751 193.2004 
" style="fill:none;stroke:#4c4c4c;stroke-linecap:round;stroke-width:0.75;"/>
   </g>
   <g id="line2d_59">
    <path clip-path="url(#pe914db9f2f)" d="M 123.283739 267.803699 
L 130.088449 267.803699 
" style="fill:none;stroke:#4c4c4c;stroke-linecap:round;stroke-width:0.75;"/>
   </g>
   <g id="line2d_60">
    <path clip-path="url(#pe914db9f2f)" d="M 83.245249 173.421791 
L 170.126939 173.421791 
" style="fill:none;stroke:#4c4c4c;stroke-linecap:round;stroke-width:0.75;"/>
   </g>
   <g id="line2d_61">
    <path clip-path="url(#pe914db9f2f)" d="M 69.961789 145.259051 
L 183.410398 145.259051 
" style="fill:none;stroke:#4c4c4c;stroke-linecap:round;stroke-width:0.75;"/>
   </g>
   <g id="line2d_62">
    <path clip-path="url(#pe914db9f2f)" d="M 80.857975 168.749925 
L 172.514212 168.749925 
" style="fill:none;stroke:#4c4c4c;stroke-linecap:round;stroke-width:0.75;"/>
   </g>
   <g id="line2d_63">
    <path clip-path="url(#pe914db9f2f)" d="M 73.921254 119.713119 
L 179.450934 119.713119 
" style="fill:none;stroke:#4c4c4c;stroke-linecap:round;stroke-width:0.75;"/>
   </g>
   <g id="line2d_64">
    <path clip-path="url(#pe914db9f2f)" d="M 85.26227 179.904044 
L 168.109917 179.904044 
" style="fill:none;stroke:#4c4c4c;stroke-linecap:round;stroke-width:0.75;"/>
   </g>
   <g id="line2d_65">
    <path clip-path="url(#pe914db9f2f)" d="M 90.599226 196.084318 
L 162.772961 196.084318 
" style="fill:none;stroke:#4c4c4c;stroke-linecap:round;stroke-width:0.75;"/>
   </g>
   <g id="line2d_66">
    <path clip-path="url(#pe914db9f2f)" d="M 69.390719 130.784956 
L 183.981469 130.784956 
" style="fill:none;stroke:#4c4c4c;stroke-linecap:round;stroke-width:0.75;"/>
   </g>
   <g id="line2d_67">
    <path clip-path="url(#pe914db9f2f)" d="M 71.210213 125.36171 
L 182.161975 125.36171 
" style="fill:none;stroke:#4c4c4c;stroke-linecap:round;stroke-width:0.75;"/>
   </g>
   <g id="line2d_68">
    <path clip-path="url(#pe914db9f2f)" d="M 70.948497 149.714394 
L 182.42369 149.714394 
" style="fill:none;stroke:#4c4c4c;stroke-linecap:round;stroke-width:0.75;"/>
   </g>
   <g id="line2d_69">
    <path clip-path="url(#pe914db9f2f)" d="M 96.725 80.126681 
L 156.647188 80.126681 
" style="fill:none;stroke:#4c4c4c;stroke-linecap:round;stroke-width:0.75;"/>
   </g>
   <g id="line2d_70">
    <path clip-path="url(#pe914db9f2f)" d="M 68.891295 134.314393 
L 184.480892 134.314393 
" style="fill:none;stroke:#4c4c4c;stroke-linecap:round;stroke-width:0.75;"/>
   </g>
   <g id="line2d_71">
    <path clip-path="url(#pe914db9f2f)" d="M 79.053528 111.982766 
L 174.31866 111.982766 
" style="fill:none;stroke:#4c4c4c;stroke-linecap:round;stroke-width:0.75;"/>
   </g>
   <g id="line2d_72">
    <path clip-path="url(#pe914db9f2f)" d="M 98.061784 76.337503 
L 155.310404 76.337503 
" style="fill:none;stroke:#4c4c4c;stroke-linecap:round;stroke-width:0.75;"/>
   </g>
   <g id="line2d_73">
    <path clip-path="url(#pe914db9f2f)" d="M 78.044689 163.007932 
L 175.327498 163.007932 
" style="fill:none;stroke:#4c4c4c;stroke-linecap:round;stroke-width:0.75;"/>
   </g>
   <g id="line2d_74">
    <path clip-path="url(#pe914db9f2f)" d="M 88.201812 188.723023 
L 165.170375 188.723023 
" style="fill:none;stroke:#4c4c4c;stroke-linecap:round;stroke-width:0.75;"/>
   </g>
   <g id="line2d_75">
    <path clip-path="url(#pe914db9f2f)" d="M 72.471097 123.592897 
L 180.901091 123.592897 
" style="fill:none;stroke:#4c4c4c;stroke-linecap:round;stroke-width:0.75;"/>
   </g>
   <g id="line2d_76">
    <path clip-path="url(#pe914db9f2f)" d="M 90.599226 194.793483 
L 162.772961 194.793483 
" style="fill:none;stroke:#4c4c4c;stroke-linecap:round;stroke-width:0.75;"/>
   </g>
   <g id="line2d_77">
    <path clip-path="url(#pe914db9f2f)" d="M 97.254701 205.533145 
L 156.117486 205.533145 
" style="fill:none;stroke:#4c4c4c;stroke-linecap:round;stroke-width:0.75;"/>
   </g>
   <g id="line2d_78">
    <path clip-path="url(#pe914db9f2f)" d="M 99.460763 72.176175 
L 153.911424 72.176175 
" style="fill:none;stroke:#4c4c4c;stroke-linecap:round;stroke-width:0.75;"/>
   </g>
   <g id="line2d_79">
    <path clip-path="url(#pe914db9f2f)" d="M 101.337876 210.91454 
L 152.034312 210.91454 
" style="fill:none;stroke:#4c4c4c;stroke-linecap:round;stroke-width:0.75;"/>
   </g>
   <g id="line2d_80">
    <path clip-path="url(#pe914db9f2f)" d="M 86.408211 98.359433 
L 166.963976 98.359433 
" style="fill:none;stroke:#4c4c4c;stroke-linecap:round;stroke-width:0.75;"/>
   </g>
   <g id="line2d_81">
    <path clip-path="url(#pe914db9f2f)" d="M 220.505533 146.062306 
L 338.946654 146.062306 
" style="fill:none;stroke:#4c4c4c;stroke-linecap:round;stroke-width:0.75;"/>
   </g>
   <g id="line2d_82">
    <path clip-path="url(#pe914db9f2f)" d="M 243.01109 194.264694 
L 316.441097 194.264694 
" style="fill:none;stroke:#4c4c4c;stroke-linecap:round;stroke-width:0.75;"/>
   </g>
   <g id="line2d_83">
    <path clip-path="url(#pe914db9f2f)" d="M 232.891891 110.411555 
L 326.560296 110.411555 
" style="fill:none;stroke:#4c4c4c;stroke-linecap:round;stroke-width:0.75;"/>
   </g>
   <g id="line2d_84">
    <path clip-path="url(#pe914db9f2f)" d="M 237.288299 104.575877 
L 322.163889 104.575877 
" style="fill:none;stroke:#4c4c4c;stroke-linecap:round;stroke-width:0.75;"/>
   </g>
   <g id="line2d_85">
    <path clip-path="url(#pe914db9f2f)" d="M 237.288299 105.744631 
L 322.163889 105.744631 
" style="fill:none;stroke:#4c4c4c;stroke-linecap:round;stroke-width:0.75;"/>
   </g>
   <g id="line2d_86">
    <path clip-path="url(#pe914db9f2f)" d="M 219.122254 137.677858 
L 340.329934 137.677858 
" style="fill:none;stroke:#4c4c4c;stroke-linecap:round;stroke-width:0.75;"/>
   </g>
   <g id="line2d_87">
    <path clip-path="url(#pe914db9f2f)" d="M 236.162507 173.127254 
L 323.289681 173.127254 
" style="fill:none;stroke:#4c4c4c;stroke-linecap:round;stroke-width:0.75;"/>
   </g>
   <g id="line2d_88">
    <path clip-path="url(#pe914db9f2f)" d="M 223.161794 152.100073 
L 336.290394 152.100073 
" style="fill:none;stroke:#4c4c4c;stroke-linecap:round;stroke-width:0.75;"/>
   </g>
   <g id="line2d_89">
    <path clip-path="url(#pe914db9f2f)" d="M 245.794319 199.20351 
L 313.657869 199.20351 
" style="fill:none;stroke:#4c4c4c;stroke-linecap:round;stroke-width:0.75;"/>
   </g>
   <g id="line2d_90">
    <path clip-path="url(#pe914db9f2f)" d="M 244.842243 94.734363 
L 314.609945 94.734363 
" style="fill:none;stroke:#4c4c4c;stroke-linecap:round;stroke-width:0.75;"/>
   </g>
   <g id="line2d_91">
    <path clip-path="url(#pe914db9f2f)" d="M 271.92669 243.392682 
L 287.525498 243.392682 
" style="fill:none;stroke:#4c4c4c;stroke-linecap:round;stroke-width:0.75;"/>
   </g>
   <g id="line2d_92">
    <path clip-path="url(#pe914db9f2f)" d="M 221.333666 129.079248 
L 338.118522 129.079248 
" style="fill:none;stroke:#4c4c4c;stroke-linecap:round;stroke-width:0.75;"/>
   </g>
   <g id="line2d_93">
    <path clip-path="url(#pe914db9f2f)" d="M 251.411616 79.363603 
L 308.040572 79.363603 
" style="fill:none;stroke:#4c4c4c;stroke-linecap:round;stroke-width:0.75;"/>
   </g>
   <g id="line2d_94">
    <path clip-path="url(#pe914db9f2f)" d="M 233.525686 169.57357 
L 325.926501 169.57357 
" style="fill:none;stroke:#4c4c4c;stroke-linecap:round;stroke-width:0.75;"/>
   </g>
   <g id="line2d_95">
    <path clip-path="url(#pe914db9f2f)" d="M 223.161794 152.658582 
L 336.290394 152.658582 
" style="fill:none;stroke:#4c4c4c;stroke-linecap:round;stroke-width:0.75;"/>
   </g>
   <g id="line2d_96">
    <path clip-path="url(#pe914db9f2f)" d="M 232.891891 111.469765 
L 326.560296 111.469765 
" style="fill:none;stroke:#4c4c4c;stroke-linecap:round;stroke-width:0.75;"/>
   </g>
   <g id="line2d_97">
    <path clip-path="url(#pe914db9f2f)" d="M 220.219576 132.207331 
L 339.232611 132.207331 
" style="fill:none;stroke:#4c4c4c;stroke-linecap:round;stroke-width:0.75;"/>
   </g>
   <g id="line2d_98">
    <path clip-path="url(#pe914db9f2f)" d="M 224.830799 153.49158 
L 334.621389 153.49158 
" style="fill:none;stroke:#4c4c4c;stroke-linecap:round;stroke-width:0.75;"/>
   </g>
   <g id="line2d_99">
    <path clip-path="url(#pe914db9f2f)" d="M 259.894631 61.586785 
L 299.557557 61.586785 
" style="fill:none;stroke:#4c4c4c;stroke-linecap:round;stroke-width:0.75;"/>
   </g>
   <g id="line2d_100">
    <path clip-path="url(#pe914db9f2f)" d="M 258.202297 63.969632 
L 301.249891 63.969632 
" style="fill:none;stroke:#4c4c4c;stroke-linecap:round;stroke-width:0.75;"/>
   </g>
   <g id="line2d_101">
    <path clip-path="url(#pe914db9f2f)" d="M 220.219576 132.318907 
L 339.232611 132.318907 
" style="fill:none;stroke:#4c4c4c;stroke-linecap:round;stroke-width:0.75;"/>
   </g>
   <g id="line2d_102">
    <path clip-path="url(#pe914db9f2f)" d="M 228.484343 115.968056 
L 330.967845 115.968056 
" style="fill:none;stroke:#4c4c4c;stroke-linecap:round;stroke-width:0.75;"/>
   </g>
   <g id="line2d_103">
    <path clip-path="url(#pe914db9f2f)" d="M 256.628185 67.947063 
L 302.824003 67.947063 
" style="fill:none;stroke:#4c4c4c;stroke-linecap:round;stroke-width:0.75;"/>
   </g>
   <g id="line2d_104">
    <path clip-path="url(#pe914db9f2f)" d="M 219.653663 143.194098 
L 339.798525 143.194098 
" style="fill:none;stroke:#4c4c4c;stroke-linecap:round;stroke-width:0.75;"/>
   </g>
   <g id="line2d_105">
    <path clip-path="url(#pe914db9f2f)" d="M 231.959418 166.701604 
L 327.49277 166.701604 
" style="fill:none;stroke:#4c4c4c;stroke-linecap:round;stroke-width:0.75;"/>
   </g>
   <g id="line2d_106">
    <path clip-path="url(#pe914db9f2f)" d="M 250.238125 83.389038 
L 309.214062 83.389038 
" style="fill:none;stroke:#4c4c4c;stroke-linecap:round;stroke-width:0.75;"/>
   </g>
   <g id="line2d_107">
    <path clip-path="url(#pe914db9f2f)" d="M 226.403651 118.771492 
L 333.048537 118.771492 
" style="fill:none;stroke:#4c4c4c;stroke-linecap:round;stroke-width:0.75;"/>
   </g>
   <g id="line2d_108">
    <path clip-path="url(#pe914db9f2f)" d="M 223.161794 150.338819 
L 336.290394 150.338819 
" style="fill:none;stroke:#4c4c4c;stroke-linecap:round;stroke-width:0.75;"/>
   </g>
   <g id="line2d_109">
    <path clip-path="url(#pe914db9f2f)" d="M 239.3742 101.285594 
L 320.077988 101.285594 
" style="fill:none;stroke:#4c4c4c;stroke-linecap:round;stroke-width:0.75;"/>
   </g>
   <g id="line2d_110">
    <path clip-path="url(#pe914db9f2f)" d="M 219.653663 142.047964 
L 339.798525 142.047964 
" style="fill:none;stroke:#4c4c4c;stroke-linecap:round;stroke-width:0.75;"/>
   </g>
   <g id="line2d_111">
    <path clip-path="url(#pe914db9f2f)" d="M 235.114612 108.285587 
L 324.337576 108.285587 
" style="fill:none;stroke:#4c4c4c;stroke-linecap:round;stroke-width:0.75;"/>
   </g>
   <g id="line2d_112">
    <path clip-path="url(#pe914db9f2f)" d="M 219.122254 136.222852 
L 340.329934 136.222852 
" style="fill:none;stroke:#4c4c4c;stroke-linecap:round;stroke-width:0.75;"/>
   </g>
   <g id="line2d_113">
    <path clip-path="url(#pe914db9f2f)" d="M 232.891891 111.018243 
L 326.560296 111.018243 
" style="fill:none;stroke:#4c4c4c;stroke-linecap:round;stroke-width:0.75;"/>
   </g>
   <g id="line2d_114">
    <path clip-path="url(#pe914db9f2f)" d="M 255.178175 69.866341 
L 304.274013 69.866341 
" style="fill:none;stroke:#4c4c4c;stroke-linecap:round;stroke-width:0.75;"/>
   </g>
   <g id="line2d_115">
    <path clip-path="url(#pe914db9f2f)" d="M 220.219576 131.403053 
L 339.232611 131.403053 
" style="fill:none;stroke:#4c4c4c;stroke-linecap:round;stroke-width:0.75;"/>
   </g>
   <g id="line2d_116">
    <path clip-path="url(#pe914db9f2f)" d="M 258.202297 65.930035 
L 301.249891 65.930035 
" style="fill:none;stroke:#4c4c4c;stroke-linecap:round;stroke-width:0.75;"/>
   </g>
   <g id="line2d_117">
    <path clip-path="url(#pe914db9f2f)" d="M 220.505533 144.624457 
L 338.946654 144.624457 
" style="fill:none;stroke:#4c4c4c;stroke-linecap:round;stroke-width:0.75;"/>
   </g>
   <g id="line2d_118">
    <path clip-path="url(#pe914db9f2f)" d="M 220.505533 144.741091 
L 338.946654 144.741091 
" style="fill:none;stroke:#4c4c4c;stroke-linecap:round;stroke-width:0.75;"/>
   </g>
   <g id="line2d_119">
    <path clip-path="url(#pe914db9f2f)" d="M 244.31077 196.234633 
L 315.141418 196.234633 
" style="fill:none;stroke:#4c4c4c;stroke-linecap:round;stroke-width:0.75;"/>
   </g>
   <g id="line2d_120">
    <path clip-path="url(#pe914db9f2f)" d="M 244.31077 198.672128 
L 315.141418 198.672128 
" style="fill:none;stroke:#4c4c4c;stroke-linecap:round;stroke-width:0.75;"/>
   </g>
   <g id="line2d_121">
    <path clip-path="url(#pe914db9f2f)" d="M 257.672126 217.451978 
L 301.780062 217.451978 
" style="fill:none;stroke:#4c4c4c;stroke-linecap:round;stroke-width:0.75;"/>
   </g>
   <g id="line2d_122">
    <path clip-path="url(#pe914db9f2f)" d="M 231.959418 166.84669 
L 327.49277 166.84669 
" style="fill:none;stroke:#4c4c4c;stroke-linecap:round;stroke-width:0.75;"/>
   </g>
   <g id="line2d_123">
    <path clip-path="url(#pe914db9f2f)" d="M 219.653663 143.231496 
L 339.798525 143.231496 
" style="fill:none;stroke:#4c4c4c;stroke-linecap:round;stroke-width:0.75;"/>
   </g>
   <g id="line2d_124">
    <path clip-path="url(#pe914db9f2f)" d="M 239.970686 185.340264 
L 319.481501 185.340264 
" style="fill:none;stroke:#4c4c4c;stroke-linecap:round;stroke-width:0.75;"/>
   </g>
   <g id="line2d_125">
    <path clip-path="url(#pe914db9f2f)" d="M 220.505533 145.752785 
L 338.946654 145.752785 
" style="fill:none;stroke:#4c4c4c;stroke-linecap:round;stroke-width:0.75;"/>
   </g>
   <g id="line2d_126">
    <path clip-path="url(#pe914db9f2f)" d="M 219.184278 140.232156 
L 340.26791 140.232156 
" style="fill:none;stroke:#4c4c4c;stroke-linecap:round;stroke-width:0.75;"/>
   </g>
   <g id="line2d_127">
    <path clip-path="url(#pe914db9f2f)" d="M 263.752734 226.376846 
L 295.699453 226.376846 
" style="fill:none;stroke:#4c4c4c;stroke-linecap:round;stroke-width:0.75;"/>
   </g>
   <g id="line2d_128">
    <path clip-path="url(#pe914db9f2f)" d="M 239.970686 186.532542 
L 319.481501 186.532542 
" style="fill:none;stroke:#4c4c4c;stroke-linecap:round;stroke-width:0.75;"/>
   </g>
   <g id="line2d_129">
    <path clip-path="url(#pe914db9f2f)" d="M 251.284654 208.870458 
L 308.167533 208.870458 
" style="fill:none;stroke:#4c4c4c;stroke-linecap:round;stroke-width:0.75;"/>
   </g>
   <g id="line2d_130">
    <path clip-path="url(#pe914db9f2f)" d="M 243.01109 194.171165 
L 316.441097 194.171165 
" style="fill:none;stroke:#4c4c4c;stroke-linecap:round;stroke-width:0.75;"/>
   </g>
   <g id="line2d_131">
    <path clip-path="url(#pe914db9f2f)" d="M 276.087615 266.987392 
L 283.364573 266.987392 
" style="fill:none;stroke:#4c4c4c;stroke-linecap:round;stroke-width:0.75;"/>
   </g>
   <g id="line2d_132">
    <path clip-path="url(#pe914db9f2f)" d="M 236.162507 174.29146 
L 323.289681 174.29146 
" style="fill:none;stroke:#4c4c4c;stroke-linecap:round;stroke-width:0.75;"/>
   </g>
   <g id="line2d_133">
    <path clip-path="url(#pe914db9f2f)" d="M 221.695395 147.191986 
L 337.756793 147.191986 
" style="fill:none;stroke:#4c4c4c;stroke-linecap:round;stroke-width:0.75;"/>
   </g>
   <g id="line2d_134">
    <path clip-path="url(#pe914db9f2f)" d="M 233.525686 169.927727 
L 325.926501 169.927727 
" style="fill:none;stroke:#4c4c4c;stroke-linecap:round;stroke-width:0.75;"/>
   </g>
   <g id="line2d_135">
    <path clip-path="url(#pe914db9f2f)" d="M 221.333666 129.754758 
L 338.118522 129.754758 
" style="fill:none;stroke:#4c4c4c;stroke-linecap:round;stroke-width:0.75;"/>
   </g>
   <g id="line2d_136">
    <path clip-path="url(#pe914db9f2f)" d="M 238.208498 180.972705 
L 321.243689 180.972705 
" style="fill:none;stroke:#4c4c4c;stroke-linecap:round;stroke-width:0.75;"/>
   </g>
   <g id="line2d_137">
    <path clip-path="url(#pe914db9f2f)" d="M 244.31077 198.054076 
L 315.141418 198.054076 
" style="fill:none;stroke:#4c4c4c;stroke-linecap:round;stroke-width:0.75;"/>
   </g>
   <g id="line2d_138">
    <path clip-path="url(#pe914db9f2f)" d="M 220.219576 131.47618 
L 339.232611 131.47618 
" style="fill:none;stroke:#4c4c4c;stroke-linecap:round;stroke-width:0.75;"/>
   </g>
   <g id="line2d_139">
    <path clip-path="url(#pe914db9f2f)" d="M 224.479915 123.750953 
L 334.972272 123.750953 
" style="fill:none;stroke:#4c4c4c;stroke-linecap:round;stroke-width:0.75;"/>
   </g>
   <g id="line2d_140">
    <path clip-path="url(#pe914db9f2f)" d="M 221.695395 147.856432 
L 337.756793 147.856432 
" style="fill:none;stroke:#4c4c4c;stroke-linecap:round;stroke-width:0.75;"/>
   </g>
   <g id="line2d_141">
    <path clip-path="url(#pe914db9f2f)" d="M 251.411616 80.053171 
L 308.040572 80.053171 
" style="fill:none;stroke:#4c4c4c;stroke-linecap:round;stroke-width:0.75;"/>
   </g>
   <g id="line2d_142">
    <path clip-path="url(#pe914db9f2f)" d="M 219.472178 132.895245 
L 339.98001 132.895245 
" style="fill:none;stroke:#4c4c4c;stroke-linecap:round;stroke-width:0.75;"/>
   </g>
   <g id="line2d_143">
    <path clip-path="url(#pe914db9f2f)" d="M 232.891891 112.054679 
L 326.560296 112.054679 
" style="fill:none;stroke:#4c4c4c;stroke-linecap:round;stroke-width:0.75;"/>
   </g>
   <g id="line2d_144">
    <path clip-path="url(#pe914db9f2f)" d="M 252.599098 76.394334 
L 306.85309 76.394334 
" style="fill:none;stroke:#4c4c4c;stroke-linecap:round;stroke-width:0.75;"/>
   </g>
   <g id="line2d_145">
    <path clip-path="url(#pe914db9f2f)" d="M 230.254054 164.2705 
L 329.198133 164.2705 
" style="fill:none;stroke:#4c4c4c;stroke-linecap:round;stroke-width:0.75;"/>
   </g>
   <g id="line2d_146">
    <path clip-path="url(#pe914db9f2f)" d="M 241.878026 190.895747 
L 317.574161 190.895747 
" style="fill:none;stroke:#4c4c4c;stroke-linecap:round;stroke-width:0.75;"/>
   </g>
   <g id="line2d_147">
    <path clip-path="url(#pe914db9f2f)" d="M 222.771074 125.48962 
L 336.681113 125.48962 
" style="fill:none;stroke:#4c4c4c;stroke-linecap:round;stroke-width:0.75;"/>
   </g>
   <g id="line2d_148">
    <path clip-path="url(#pe914db9f2f)" d="M 243.01109 194.183913 
L 316.441097 194.183913 
" style="fill:none;stroke:#4c4c4c;stroke-linecap:round;stroke-width:0.75;"/>
   </g>
   <g id="line2d_149">
    <path clip-path="url(#pe914db9f2f)" d="M 249.302399 206.53958 
L 310.149789 206.53958 
" style="fill:none;stroke:#4c4c4c;stroke-linecap:round;stroke-width:0.75;"/>
   </g>
   <g id="line2d_150">
    <path clip-path="url(#pe914db9f2f)" d="M 255.178175 70.83868 
L 304.274013 70.83868 
" style="fill:none;stroke:#4c4c4c;stroke-linecap:round;stroke-width:0.75;"/>
   </g>
   <g id="line2d_151">
    <path clip-path="url(#pe914db9f2f)" d="M 253.371148 210.902752 
L 306.081039 210.902752 
" style="fill:none;stroke:#4c4c4c;stroke-linecap:round;stroke-width:0.75;"/>
   </g>
   <g id="line2d_152">
    <path clip-path="url(#pe914db9f2f)" d="M 239.3742 104.009596 
L 320.077988 104.009596 
" style="fill:none;stroke:#4c4c4c;stroke-linecap:round;stroke-width:0.75;"/>
   </g>
   <g id="patch_3">
    <path d="M 50.166094 321.733125 
L 50.166094 7.2 
" style="fill:none;stroke:#ffffff;stroke-linecap:square;stroke-linejoin:miter;stroke-width:1.25;"/>
   </g>
   <g id="patch_4">
    <path d="M 50.166094 321.733125 
L 356.246094 321.733125 
" style="fill:none;stroke:#ffffff;stroke-linecap:square;stroke-linejoin:miter;stroke-width:1.25;"/>
   </g>
   <g id="PathCollection_1">
    <defs>
     <path d="M 0 1.5 
C 0.397805 1.5 0.77937 1.341951 1.06066 1.06066 
C 1.341951 0.77937 1.5 0.397805 1.5 -0 
C 1.5 -0.397805 1.341951 -0.77937 1.06066 -1.06066 
C 0.77937 -1.341951 0.397805 -1.5 0 -1.5 
C -0.397805 -1.5 -0.77937 -1.341951 -1.06066 -1.06066 
C -1.341951 -0.77937 -1.5 -0.397805 -1.5 0 
C -1.5 0.397805 -1.341951 0.77937 -1.06066 1.06066 
C -0.77937 1.341951 -0.397805 1.5 0 1.5 
z
" id="C0_0_88c3b1e8d2"/>
    </defs>
    <g clip-path="url(#pe914db9f2f)">
     <use style="fill:#1a1a1a;" x="126.686094" xlink:href="#C0_0_88c3b1e8d2" y="267.803699"/>
    </g>
    <g clip-path="url(#pe914db9f2f)">
     <use style="fill:#1a1a1a;" x="126.686094" xlink:href="#C0_0_88c3b1e8d2" y="241.611576"/>
    </g>
    <g clip-path="url(#pe914db9f2f)">
     <use style="fill:#1a1a1a;" x="126.686094" xlink:href="#C0_0_88c3b1e8d2" y="225.621782"/>
    </g>
    <g clip-path="url(#pe914db9f2f)">
     <use style="fill:#1a1a1a;" x="126.686094" xlink:href="#C0_0_88c3b1e8d2" y="217.43434"/>
    </g>
    <g clip-path="url(#pe914db9f2f)">
     <use style="fill:#1a1a1a;" x="126.686094" xlink:href="#C0_0_88c3b1e8d2" y="210.91454"/>
    </g>
    <g clip-path="url(#pe914db9f2f)">
     <use style="fill:#1a1a1a;" x="125.993104" xlink:href="#C0_0_88c3b1e8d2" y="207.988038"/>
    </g>
    <g clip-path="url(#pe914db9f2f)">
     <use style="fill:#1a1a1a;" x="127.803708" xlink:href="#C0_0_88c3b1e8d2" y="205.533145"/>
    </g>
    <g clip-path="url(#pe914db9f2f)">
     <use style="fill:#1a1a1a;" x="126.686094" xlink:href="#C0_0_88c3b1e8d2" y="200.292447"/>
    </g>
    <g clip-path="url(#pe914db9f2f)">
     <use style="fill:#1a1a1a;" x="123.651473" xlink:href="#C0_0_88c3b1e8d2" y="199.487938"/>
    </g>
    <g clip-path="url(#pe914db9f2f)">
     <use style="fill:#1a1a1a;" x="126.686094" xlink:href="#C0_0_88c3b1e8d2" y="196.084318"/>
    </g>
    <g clip-path="url(#pe914db9f2f)">
     <use style="fill:#1a1a1a;" x="123.536367" xlink:href="#C0_0_88c3b1e8d2" y="196.044828"/>
    </g>
    <g clip-path="url(#pe914db9f2f)">
     <use style="fill:#1a1a1a;" x="129.529587" xlink:href="#C0_0_88c3b1e8d2" y="194.793483"/>
    </g>
    <g clip-path="url(#pe914db9f2f)">
     <use style="fill:#1a1a1a;" x="125.818321" xlink:href="#C0_0_88c3b1e8d2" y="193.2004"/>
    </g>
    <g clip-path="url(#pe914db9f2f)">
     <use style="fill:#1a1a1a;" x="127.226906" xlink:href="#C0_0_88c3b1e8d2" y="190.517053"/>
    </g>
    <g clip-path="url(#pe914db9f2f)">
     <use style="fill:#1a1a1a;" x="124.702216" xlink:href="#C0_0_88c3b1e8d2" y="188.723023"/>
    </g>
    <g clip-path="url(#pe914db9f2f)">
     <use style="fill:#1a1a1a;" x="126.686094" xlink:href="#C0_0_88c3b1e8d2" y="185.131198"/>
    </g>
    <g clip-path="url(#pe914db9f2f)">
     <use style="fill:#1a1a1a;" x="123.826844" xlink:href="#C0_0_88c3b1e8d2" y="183.872328"/>
    </g>
    <g clip-path="url(#pe914db9f2f)">
     <use style="fill:#1a1a1a;" x="126.686094" xlink:href="#C0_0_88c3b1e8d2" y="179.904044"/>
    </g>
    <g clip-path="url(#pe914db9f2f)">
     <use style="fill:#1a1a1a;" x="126.686094" xlink:href="#C0_0_88c3b1e8d2" y="174.873258"/>
    </g>
    <g clip-path="url(#pe914db9f2f)">
     <use style="fill:#1a1a1a;" x="123.92932" xlink:href="#C0_0_88c3b1e8d2" y="173.421791"/>
    </g>
    <g clip-path="url(#pe914db9f2f)">
     <use style="fill:#1a1a1a;" x="126.686094" xlink:href="#C0_0_88c3b1e8d2" y="168.749925"/>
    </g>
    <g clip-path="url(#pe914db9f2f)">
     <use style="fill:#1a1a1a;" x="123.554138" xlink:href="#C0_0_88c3b1e8d2" y="168.429281"/>
    </g>
    <g clip-path="url(#pe914db9f2f)">
     <use style="fill:#1a1a1a;" x="129.647116" xlink:href="#C0_0_88c3b1e8d2" y="167.72646"/>
    </g>
    <g clip-path="url(#pe914db9f2f)">
     <use style="fill:#1a1a1a;" x="126.289673" xlink:href="#C0_0_88c3b1e8d2" y="165.773777"/>
    </g>
    <g clip-path="url(#pe914db9f2f)">
     <use style="fill:#1a1a1a;" x="127.50971" xlink:href="#C0_0_88c3b1e8d2" y="163.007932"/>
    </g>
    <g clip-path="url(#pe914db9f2f)">
     <use style="fill:#1a1a1a;" x="126.686094" xlink:href="#C0_0_88c3b1e8d2" y="152.265363"/>
    </g>
    <g clip-path="url(#pe914db9f2f)">
     <use style="fill:#1a1a1a;" x="123.561043" xlink:href="#C0_0_88c3b1e8d2" y="151.888533"/>
    </g>
    <g clip-path="url(#pe914db9f2f)">
     <use style="fill:#1a1a1a;" x="129.76883" xlink:href="#C0_0_88c3b1e8d2" y="151.64871"/>
    </g>
    <g clip-path="url(#pe914db9f2f)">
     <use style="fill:#1a1a1a;" x="121.390533" xlink:href="#C0_0_88c3b1e8d2" y="149.714394"/>
    </g>
    <g clip-path="url(#pe914db9f2f)">
     <use style="fill:#1a1a1a;" x="125.505666" xlink:href="#C0_0_88c3b1e8d2" y="149.483972"/>
    </g>
    <g clip-path="url(#pe914db9f2f)">
     <use style="fill:#1a1a1a;" x="128.368687" xlink:href="#C0_0_88c3b1e8d2" y="148.2329"/>
    </g>
    <g clip-path="url(#pe914db9f2f)">
     <use style="fill:#1a1a1a;" x="126.686094" xlink:href="#C0_0_88c3b1e8d2" y="145.634907"/>
    </g>
    <g clip-path="url(#pe914db9f2f)">
     <use style="fill:#1a1a1a;" x="129.811274" xlink:href="#C0_0_88c3b1e8d2" y="145.259051"/>
    </g>
    <g clip-path="url(#pe914db9f2f)">
     <use style="fill:#1a1a1a;" x="123.728936" xlink:href="#C0_0_88c3b1e8d2" y="144.601359"/>
    </g>
    <g clip-path="url(#pe914db9f2f)">
     <use style="fill:#1a1a1a;" x="120.586277" xlink:href="#C0_0_88c3b1e8d2" y="144.396657"/>
    </g>
    <g clip-path="url(#pe914db9f2f)">
     <use style="fill:#1a1a1a;" x="132.581049" xlink:href="#C0_0_88c3b1e8d2" y="143.83021"/>
    </g>
    <g clip-path="url(#pe914db9f2f)">
     <use style="fill:#1a1a1a;" x="135.658844" xlink:href="#C0_0_88c3b1e8d2" y="143.191566"/>
    </g>
    <g clip-path="url(#pe914db9f2f)">
     <use style="fill:#1a1a1a;" x="126.686094" xlink:href="#C0_0_88c3b1e8d2" y="141.376161"/>
    </g>
    <g clip-path="url(#pe914db9f2f)">
     <use style="fill:#1a1a1a;" x="123.910683" xlink:href="#C0_0_88c3b1e8d2" y="139.957275"/>
    </g>
    <g clip-path="url(#pe914db9f2f)">
     <use style="fill:#1a1a1a;" x="126.686094" xlink:href="#C0_0_88c3b1e8d2" y="136.246415"/>
    </g>
    <g clip-path="url(#pe914db9f2f)">
     <use style="fill:#1a1a1a;" x="124.276283" xlink:href="#C0_0_88c3b1e8d2" y="134.314393"/>
    </g>
    <g clip-path="url(#pe914db9f2f)">
     <use style="fill:#1a1a1a;" x="128.709392" xlink:href="#C0_0_88c3b1e8d2" y="133.947097"/>
    </g>
    <g clip-path="url(#pe914db9f2f)">
     <use style="fill:#1a1a1a;" x="126.686094" xlink:href="#C0_0_88c3b1e8d2" y="131.490275"/>
    </g>
    <g clip-path="url(#pe914db9f2f)">
     <use style="fill:#1a1a1a;" x="123.624389" xlink:href="#C0_0_88c3b1e8d2" y="130.784956"/>
    </g>
    <g clip-path="url(#pe914db9f2f)">
     <use style="fill:#1a1a1a;" x="129.377659" xlink:href="#C0_0_88c3b1e8d2" y="129.931749"/>
    </g>
    <g clip-path="url(#pe914db9f2f)">
     <use style="fill:#1a1a1a;" x="126.686094" xlink:href="#C0_0_88c3b1e8d2" y="126.212929"/>
    </g>
    <g clip-path="url(#pe914db9f2f)">
     <use style="fill:#1a1a1a;" x="123.665554" xlink:href="#C0_0_88c3b1e8d2" y="125.36171"/>
    </g>
    <g clip-path="url(#pe914db9f2f)">
     <use style="fill:#1a1a1a;" x="128.220473" xlink:href="#C0_0_88c3b1e8d2" y="123.592897"/>
    </g>
    <g clip-path="url(#pe914db9f2f)">
     <use style="fill:#1a1a1a;" x="126.686094" xlink:href="#C0_0_88c3b1e8d2" y="119.713119"/>
    </g>
    <g clip-path="url(#pe914db9f2f)">
     <use style="fill:#1a1a1a;" x="123.646641" xlink:href="#C0_0_88c3b1e8d2" y="118.925328"/>
    </g>
    <g clip-path="url(#pe914db9f2f)">
     <use style="fill:#1a1a1a;" x="126.686094" xlink:href="#C0_0_88c3b1e8d2" y="113.877155"/>
    </g>
    <g clip-path="url(#pe914db9f2f)">
     <use style="fill:#1a1a1a;" x="124.243565" xlink:href="#C0_0_88c3b1e8d2" y="111.982766"/>
    </g>
    <g clip-path="url(#pe914db9f2f)">
     <use style="fill:#1a1a1a;" x="128.206102" xlink:href="#C0_0_88c3b1e8d2" y="111.249537"/>
    </g>
    <g clip-path="url(#pe914db9f2f)">
     <use style="fill:#1a1a1a;" x="131.354122" xlink:href="#C0_0_88c3b1e8d2" y="111.14318"/>
    </g>
    <g clip-path="url(#pe914db9f2f)">
     <use style="fill:#1a1a1a;" x="121.385811" xlink:href="#C0_0_88c3b1e8d2" y="110.720819"/>
    </g>
    <g clip-path="url(#pe914db9f2f)">
     <use style="fill:#1a1a1a;" x="134.265162" xlink:href="#C0_0_88c3b1e8d2" y="109.997015"/>
    </g>
    <g clip-path="url(#pe914db9f2f)">
     <use style="fill:#1a1a1a;" x="126.686094" xlink:href="#C0_0_88c3b1e8d2" y="104.667602"/>
    </g>
    <g clip-path="url(#pe914db9f2f)">
     <use style="fill:#1a1a1a;" x="124.006615" xlink:href="#C0_0_88c3b1e8d2" y="103.090299"/>
    </g>
    <g clip-path="url(#pe914db9f2f)">
     <use style="fill:#1a1a1a;" x="127.680178" xlink:href="#C0_0_88c3b1e8d2" y="101.820907"/>
    </g>
    <g clip-path="url(#pe914db9f2f)">
     <use style="fill:#1a1a1a;" x="130.740452" xlink:href="#C0_0_88c3b1e8d2" y="101.10998"/>
    </g>
    <g clip-path="url(#pe914db9f2f)">
     <use style="fill:#1a1a1a;" x="126.686094" xlink:href="#C0_0_88c3b1e8d2" y="98.359433"/>
    </g>
    <g clip-path="url(#pe914db9f2f)">
     <use style="fill:#1a1a1a;" x="126.686094" xlink:href="#C0_0_88c3b1e8d2" y="91.109221"/>
    </g>
    <g clip-path="url(#pe914db9f2f)">
     <use style="fill:#1a1a1a;" x="126.686094" xlink:href="#C0_0_88c3b1e8d2" y="80.646218"/>
    </g>
    <g clip-path="url(#pe914db9f2f)">
     <use style="fill:#1a1a1a;" x="123.583689" xlink:href="#C0_0_88c3b1e8d2" y="80.126681"/>
    </g>
    <g clip-path="url(#pe914db9f2f)">
     <use style="fill:#1a1a1a;" x="126.686094" xlink:href="#C0_0_88c3b1e8d2" y="76.337503"/>
    </g>
    <g clip-path="url(#pe914db9f2f)">
     <use style="fill:#1a1a1a;" x="124.738239" xlink:href="#C0_0_88c3b1e8d2" y="73.979834"/>
    </g>
    <g clip-path="url(#pe914db9f2f)">
     <use style="fill:#1a1a1a;" x="127.255353" xlink:href="#C0_0_88c3b1e8d2" y="72.176175"/>
    </g>
    <g clip-path="url(#pe914db9f2f)">
     <use style="fill:#1a1a1a;" x="126.686094" xlink:href="#C0_0_88c3b1e8d2" y="68.26505"/>
    </g>
    <g clip-path="url(#pe914db9f2f)">
     <use style="fill:#1a1a1a;" x="123.582093" xlink:href="#C0_0_88c3b1e8d2" y="67.754232"/>
    </g>
    <g clip-path="url(#pe914db9f2f)">
     <use style="fill:#1a1a1a;" x="129.783535" xlink:href="#C0_0_88c3b1e8d2" y="67.719314"/>
    </g>
    <g clip-path="url(#pe914db9f2f)">
     <use style="fill:#1a1a1a;" x="126.686094" xlink:href="#C0_0_88c3b1e8d2" y="61.624128"/>
    </g>
    <g clip-path="url(#pe914db9f2f)">
     <use style="fill:#1a1a1a;" x="123.579217" xlink:href="#C0_0_88c3b1e8d2" y="61.129426"/>
    </g>
   </g>
   <g id="PathCollection_2">
    <defs>
     <path d="M 0 1.5 
C 0.397805 1.5 0.77937 1.341951 1.06066 1.06066 
C 1.341951 0.77937 1.5 0.397805 1.5 -0 
C 1.5 -0.397805 1.341951 -0.77937 1.06066 -1.06066 
C 0.77937 -1.341951 0.397805 -1.5 0 -1.5 
C -0.397805 -1.5 -0.77937 -1.341951 -1.06066 -1.06066 
C -1.341951 -0.77937 -1.5 -0.397805 -1.5 0 
C -1.5 0.397805 -1.341951 0.77937 -1.06066 1.06066 
C -0.77937 1.341951 -0.397805 1.5 0 1.5 
z
" id="C1_0_e8151e65b1"/>
    </defs>
    <g clip-path="url(#pe914db9f2f)">
     <use style="fill:#1a1a1a;" x="279.726094" xlink:href="#C1_0_e8151e65b1" y="266.987392"/>
    </g>
    <g clip-path="url(#pe914db9f2f)">
     <use style="fill:#1a1a1a;" x="279.726094" xlink:href="#C1_0_e8151e65b1" y="243.392682"/>
    </g>
    <g clip-path="url(#pe914db9f2f)">
     <use style="fill:#1a1a1a;" x="279.726094" xlink:href="#C1_0_e8151e65b1" y="226.376846"/>
    </g>
    <g clip-path="url(#pe914db9f2f)">
     <use style="fill:#1a1a1a;" x="279.726094" xlink:href="#C1_0_e8151e65b1" y="217.451978"/>
    </g>
    <g clip-path="url(#pe914db9f2f)">
     <use style="fill:#1a1a1a;" x="279.726094" xlink:href="#C1_0_e8151e65b1" y="210.902752"/>
    </g>
    <g clip-path="url(#pe914db9f2f)">
     <use style="fill:#1a1a1a;" x="277.408998" xlink:href="#C1_0_e8151e65b1" y="208.870458"/>
    </g>
    <g clip-path="url(#pe914db9f2f)">
     <use style="fill:#1a1a1a;" x="279.726094" xlink:href="#C1_0_e8151e65b1" y="206.53958"/>
    </g>
    <g clip-path="url(#pe914db9f2f)">
     <use style="fill:#1a1a1a;" x="279.726094" xlink:href="#C1_0_e8151e65b1" y="199.20351"/>
    </g>
    <g clip-path="url(#pe914db9f2f)">
     <use style="fill:#1a1a1a;" x="276.625902" xlink:href="#C1_0_e8151e65b1" y="198.672128"/>
    </g>
    <g clip-path="url(#pe914db9f2f)">
     <use style="fill:#1a1a1a;" x="282.635712" xlink:href="#C1_0_e8151e65b1" y="198.054076"/>
    </g>
    <g clip-path="url(#pe914db9f2f)">
     <use style="fill:#1a1a1a;" x="279.273532" xlink:href="#C1_0_e8151e65b1" y="196.234633"/>
    </g>
    <g clip-path="url(#pe914db9f2f)">
     <use style="fill:#1a1a1a;" x="281.649258" xlink:href="#C1_0_e8151e65b1" y="194.264694"/>
    </g>
    <g clip-path="url(#pe914db9f2f)">
     <use style="fill:#1a1a1a;" x="276.974404" xlink:href="#C1_0_e8151e65b1" y="194.183913"/>
    </g>
    <g clip-path="url(#pe914db9f2f)">
     <use style="fill:#1a1a1a;" x="284.797727" xlink:href="#C1_0_e8151e65b1" y="194.171165"/>
    </g>
    <g clip-path="url(#pe914db9f2f)">
     <use style="fill:#1a1a1a;" x="279.726094" xlink:href="#C1_0_e8151e65b1" y="190.895747"/>
    </g>
    <g clip-path="url(#pe914db9f2f)">
     <use style="fill:#1a1a1a;" x="279.726094" xlink:href="#C1_0_e8151e65b1" y="186.532542"/>
    </g>
    <g clip-path="url(#pe914db9f2f)">
     <use style="fill:#1a1a1a;" x="276.835546" xlink:href="#C1_0_e8151e65b1" y="185.340264"/>
    </g>
    <g clip-path="url(#pe914db9f2f)">
     <use style="fill:#1a1a1a;" x="279.726094" xlink:href="#C1_0_e8151e65b1" y="180.972705"/>
    </g>
    <g clip-path="url(#pe914db9f2f)">
     <use style="fill:#1a1a1a;" x="279.726094" xlink:href="#C1_0_e8151e65b1" y="174.29146"/>
    </g>
    <g clip-path="url(#pe914db9f2f)">
     <use style="fill:#1a1a1a;" x="276.822958" xlink:href="#C1_0_e8151e65b1" y="173.127254"/>
    </g>
    <g clip-path="url(#pe914db9f2f)">
     <use style="fill:#1a1a1a;" x="279.726094" xlink:href="#C1_0_e8151e65b1" y="169.927727"/>
    </g>
    <g clip-path="url(#pe914db9f2f)">
     <use style="fill:#1a1a1a;" x="276.598121" xlink:href="#C1_0_e8151e65b1" y="169.57357"/>
    </g>
    <g clip-path="url(#pe914db9f2f)">
     <use style="fill:#1a1a1a;" x="279.726094" xlink:href="#C1_0_e8151e65b1" y="166.84669"/>
    </g>
    <g clip-path="url(#pe914db9f2f)">
     <use style="fill:#1a1a1a;" x="282.872408" xlink:href="#C1_0_e8151e65b1" y="166.701604"/>
    </g>
    <g clip-path="url(#pe914db9f2f)">
     <use style="fill:#1a1a1a;" x="278.111943" xlink:href="#C1_0_e8151e65b1" y="164.2705"/>
    </g>
    <g clip-path="url(#pe914db9f2f)">
     <use style="fill:#1a1a1a;" x="279.726094" xlink:href="#C1_0_e8151e65b1" y="153.49158"/>
    </g>
    <g clip-path="url(#pe914db9f2f)">
     <use style="fill:#1a1a1a;" x="276.699959" xlink:href="#C1_0_e8151e65b1" y="152.658582"/>
    </g>
    <g clip-path="url(#pe914db9f2f)">
     <use style="fill:#1a1a1a;" x="282.516746" xlink:href="#C1_0_e8151e65b1" y="152.100073"/>
    </g>
    <g clip-path="url(#pe914db9f2f)">
     <use style="fill:#1a1a1a;" x="279.726094" xlink:href="#C1_0_e8151e65b1" y="150.338819"/>
    </g>
    <g clip-path="url(#pe914db9f2f)">
     <use style="fill:#1a1a1a;" x="277.957302" xlink:href="#C1_0_e8151e65b1" y="147.856432"/>
    </g>
    <g clip-path="url(#pe914db9f2f)">
     <use style="fill:#1a1a1a;" x="281.029071" xlink:href="#C1_0_e8151e65b1" y="147.191986"/>
    </g>
    <g clip-path="url(#pe914db9f2f)">
     <use style="fill:#1a1a1a;" x="283.947206" xlink:href="#C1_0_e8151e65b1" y="146.062306"/>
    </g>
    <g clip-path="url(#pe914db9f2f)">
     <use style="fill:#1a1a1a;" x="275.711512" xlink:href="#C1_0_e8151e65b1" y="145.752785"/>
    </g>
    <g clip-path="url(#pe914db9f2f)">
     <use style="fill:#1a1a1a;" x="279.212506" xlink:href="#C1_0_e8151e65b1" y="144.741091"/>
    </g>
    <g clip-path="url(#pe914db9f2f)">
     <use style="fill:#1a1a1a;" x="272.7928" xlink:href="#C1_0_e8151e65b1" y="144.624457"/>
    </g>
    <g clip-path="url(#pe914db9f2f)">
     <use style="fill:#1a1a1a;" x="281.934645" xlink:href="#C1_0_e8151e65b1" y="143.231496"/>
    </g>
    <g clip-path="url(#pe914db9f2f)">
     <use style="fill:#1a1a1a;" x="285.0844" xlink:href="#C1_0_e8151e65b1" y="143.194098"/>
    </g>
    <g clip-path="url(#pe914db9f2f)">
     <use style="fill:#1a1a1a;" x="277.824651" xlink:href="#C1_0_e8151e65b1" y="142.047964"/>
    </g>
    <g clip-path="url(#pe914db9f2f)">
     <use style="fill:#1a1a1a;" x="280.332116" xlink:href="#C1_0_e8151e65b1" y="140.232156"/>
    </g>
    <g clip-path="url(#pe914db9f2f)">
     <use style="fill:#1a1a1a;" x="278.680055" xlink:href="#C1_0_e8151e65b1" y="137.677858"/>
    </g>
    <g clip-path="url(#pe914db9f2f)">
     <use style="fill:#1a1a1a;" x="281.434772" xlink:href="#C1_0_e8151e65b1" y="136.222852"/>
    </g>
    <g clip-path="url(#pe914db9f2f)">
     <use style="fill:#1a1a1a;" x="279.726094" xlink:href="#C1_0_e8151e65b1" y="132.895245"/>
    </g>
    <g clip-path="url(#pe914db9f2f)">
     <use style="fill:#1a1a1a;" x="276.634769" xlink:href="#C1_0_e8151e65b1" y="132.318907"/>
    </g>
    <g clip-path="url(#pe914db9f2f)">
     <use style="fill:#1a1a1a;" x="282.792161" xlink:href="#C1_0_e8151e65b1" y="132.207331"/>
    </g>
    <g clip-path="url(#pe914db9f2f)">
     <use style="fill:#1a1a1a;" x="273.611606" xlink:href="#C1_0_e8151e65b1" y="131.47618"/>
    </g>
    <g clip-path="url(#pe914db9f2f)">
     <use style="fill:#1a1a1a;" x="285.826849" xlink:href="#C1_0_e8151e65b1" y="131.403053"/>
    </g>
    <g clip-path="url(#pe914db9f2f)">
     <use style="fill:#1a1a1a;" x="279.726094" xlink:href="#C1_0_e8151e65b1" y="129.754758"/>
    </g>
    <g clip-path="url(#pe914db9f2f)">
     <use style="fill:#1a1a1a;" x="276.656987" xlink:href="#C1_0_e8151e65b1" y="129.079248"/>
    </g>
    <g clip-path="url(#pe914db9f2f)">
     <use style="fill:#1a1a1a;" x="279.726094" xlink:href="#C1_0_e8151e65b1" y="125.48962"/>
    </g>
    <g clip-path="url(#pe914db9f2f)">
     <use style="fill:#1a1a1a;" x="277.159055" xlink:href="#C1_0_e8151e65b1" y="123.750953"/>
    </g>
    <g clip-path="url(#pe914db9f2f)">
     <use style="fill:#1a1a1a;" x="279.726094" xlink:href="#C1_0_e8151e65b1" y="118.771492"/>
    </g>
    <g clip-path="url(#pe914db9f2f)">
     <use style="fill:#1a1a1a;" x="278.604634" xlink:href="#C1_0_e8151e65b1" y="115.968056"/>
    </g>
    <g clip-path="url(#pe914db9f2f)">
     <use style="fill:#1a1a1a;" x="279.726094" xlink:href="#C1_0_e8151e65b1" y="112.054679"/>
    </g>
    <g clip-path="url(#pe914db9f2f)">
     <use style="fill:#1a1a1a;" x="276.636545" xlink:href="#C1_0_e8151e65b1" y="111.469765"/>
    </g>
    <g clip-path="url(#pe914db9f2f)">
     <use style="fill:#1a1a1a;" x="282.682138" xlink:href="#C1_0_e8151e65b1" y="111.018243"/>
    </g>
    <g clip-path="url(#pe914db9f2f)">
     <use style="fill:#1a1a1a;" x="273.689019" xlink:href="#C1_0_e8151e65b1" y="110.411555"/>
    </g>
    <g clip-path="url(#pe914db9f2f)">
     <use style="fill:#1a1a1a;" x="279.726094" xlink:href="#C1_0_e8151e65b1" y="108.285587"/>
    </g>
    <g clip-path="url(#pe914db9f2f)">
     <use style="fill:#1a1a1a;" x="278.051502" xlink:href="#C1_0_e8151e65b1" y="105.744631"/>
    </g>
    <g clip-path="url(#pe914db9f2f)">
     <use style="fill:#1a1a1a;" x="280.952622" xlink:href="#C1_0_e8151e65b1" y="104.575877"/>
    </g>
    <g clip-path="url(#pe914db9f2f)">
     <use style="fill:#1a1a1a;" x="275.481756" xlink:href="#C1_0_e8151e65b1" y="104.009596"/>
    </g>
    <g clip-path="url(#pe914db9f2f)">
     <use style="fill:#1a1a1a;" x="279.726094" xlink:href="#C1_0_e8151e65b1" y="101.285594"/>
    </g>
    <g clip-path="url(#pe914db9f2f)">
     <use style="fill:#1a1a1a;" x="279.726094" xlink:href="#C1_0_e8151e65b1" y="94.734363"/>
    </g>
    <g clip-path="url(#pe914db9f2f)">
     <use style="fill:#1a1a1a;" x="279.726094" xlink:href="#C1_0_e8151e65b1" y="83.389038"/>
    </g>
    <g clip-path="url(#pe914db9f2f)">
     <use style="fill:#1a1a1a;" x="279.726094" xlink:href="#C1_0_e8151e65b1" y="80.053171"/>
    </g>
    <g clip-path="url(#pe914db9f2f)">
     <use style="fill:#1a1a1a;" x="276.660436" xlink:href="#C1_0_e8151e65b1" y="79.363603"/>
    </g>
    <g clip-path="url(#pe914db9f2f)">
     <use style="fill:#1a1a1a;" x="279.726094" xlink:href="#C1_0_e8151e65b1" y="76.394334"/>
    </g>
    <g clip-path="url(#pe914db9f2f)">
     <use style="fill:#1a1a1a;" x="279.726094" xlink:href="#C1_0_e8151e65b1" y="70.83868"/>
    </g>
    <g clip-path="url(#pe914db9f2f)">
     <use style="fill:#1a1a1a;" x="276.746136" xlink:href="#C1_0_e8151e65b1" y="69.866341"/>
    </g>
    <g clip-path="url(#pe914db9f2f)">
     <use style="fill:#1a1a1a;" x="280.565141" xlink:href="#C1_0_e8151e65b1" y="67.947063"/>
    </g>
    <g clip-path="url(#pe914db9f2f)">
     <use style="fill:#1a1a1a;" x="278.233384" xlink:href="#C1_0_e8151e65b1" y="65.930035"/>
    </g>
    <g clip-path="url(#pe914db9f2f)">
     <use style="fill:#1a1a1a;" x="280.617791" xlink:href="#C1_0_e8151e65b1" y="63.969632"/>
    </g>
    <g clip-path="url(#pe914db9f2f)">
     <use style="fill:#1a1a1a;" x="278.704011" xlink:href="#C1_0_e8151e65b1" y="61.586785"/>
    </g>
   </g>
  </g>
 </g>
 <defs>
  <clipPath id="pe914db9f2f">
   <rect height="314.533125" width="306.08" x="50.166094" y="7.2"/>
  </clipPath>
 </defs>
</svg>
