<?xml version="1.0" encoding="utf-8" standalone="no"?>
<!DOCTYPE svg PUBLIC "-//W3C//DTD SVG 1.1//EN"
  "http://www.w3.org/Graphics/SVG/1.1/DTD/svg11.dtd">
<svg height="360pt" version="1.1" viewBox="0 0 1080 360" width="1080pt" xmlns="http://www.w3.org/2000/svg" xmlns:xlink="http://www.w3.org/1999/xlink">
 <metadata>
  <rdf:RDF xmlns:cc="http://creativecommons.org/ns#" xmlns:dc="http://purl.org/dc/elements/1.1/" xmlns:rdf="http://www.w3.org/1999/02/22-rdf-syntax-ns#">
   <cc:Work>
    <dc:type rdf:resource="http://purl.org/dc/dcmitype/StillImage"/>
    <dc:date>2021-06-30T09:48:27.989377</dc:date>
    <dc:format>image/svg+xml</dc:format>
    <dc:creator>
     <cc:Agent>
      <dc:title>Matplotlib v3.4.2, https://matplotlib.org/</dc:title>
     </cc:Agent>
    </dc:creator>
   </cc:Work>
  </rdf:RDF>
 </metadata>
 <defs>
  <style type="text/css">*{stroke-linecap:butt;stroke-linejoin:round;}</style>
 </defs>
 <g id="figure_1">
  <g id="patch_1">
   <path d="M 0 360 
L 1080 360 
L 1080 0 
L 0 0 
z
" style="fill:#ffffff;"/>
  </g>
  <g id="axes_1">
   <g id="patch_2">
    <path d="M 135 315 
L 381.176471 315 
L 381.176471 43.2 
L 135 43.2 
z
" style="fill:#eaeaf2;"/>
   </g>
   <g id="matplotlib.axis_1">
    <g id="xtick_1">
     <g id="line2d_1">
      <path clip-path="url(#p5388444b3c)" d="M 193.304954 315 
L 193.304954 43.2 
" style="fill:none;stroke:#ffffff;stroke-linecap:round;"/>
     </g>
     <g id="text_1">
      <!-- 5 -->
      <g style="fill:#262626;" transform="translate(190.246438 332.373594)scale(0.11 -0.11)">
       <defs>
        <path d="M 266 1200 
L 856 1250 
Q 922 819 1161 601 
Q 1400 384 1738 384 
Q 2144 384 2425 690 
Q 2706 997 2706 1503 
Q 2706 1984 2436 2262 
Q 2166 2541 1728 2541 
Q 1456 2541 1237 2417 
Q 1019 2294 894 2097 
L 366 2166 
L 809 4519 
L 3088 4519 
L 3088 3981 
L 1259 3981 
L 1013 2750 
Q 1425 3038 1878 3038 
Q 2478 3038 2890 2622 
Q 3303 2206 3303 1553 
Q 3303 931 2941 478 
Q 2500 -78 1738 -78 
Q 1113 -78 717 272 
Q 322 622 266 1200 
z
" id="ArialMT-35" transform="scale(0.015625)"/>
       </defs>
       <use xlink:href="#ArialMT-35"/>
      </g>
     </g>
    </g>
    <g id="xtick_2">
     <g id="line2d_2">
      <path clip-path="url(#p5388444b3c)" d="M 252.198846 315 
L 252.198846 43.2 
" style="fill:none;stroke:#ffffff;stroke-linecap:round;"/>
     </g>
     <g id="text_2">
      <!-- 10 -->
      <g style="fill:#262626;" transform="translate(246.081815 332.373594)scale(0.11 -0.11)">
       <defs>
        <path d="M 2384 0 
L 1822 0 
L 1822 3584 
Q 1619 3391 1289 3197 
Q 959 3003 697 2906 
L 697 3450 
Q 1169 3672 1522 3987 
Q 1875 4303 2022 4600 
L 2384 4600 
L 2384 0 
z
" id="ArialMT-31" transform="scale(0.015625)"/>
        <path d="M 266 2259 
Q 266 3072 433 3567 
Q 600 4063 929 4331 
Q 1259 4600 1759 4600 
Q 2128 4600 2406 4451 
Q 2684 4303 2865 4023 
Q 3047 3744 3150 3342 
Q 3253 2941 3253 2259 
Q 3253 1453 3087 958 
Q 2922 463 2592 192 
Q 2263 -78 1759 -78 
Q 1097 -78 719 397 
Q 266 969 266 2259 
z
M 844 2259 
Q 844 1131 1108 757 
Q 1372 384 1759 384 
Q 2147 384 2411 759 
Q 2675 1134 2675 2259 
Q 2675 3391 2411 3762 
Q 2147 4134 1753 4134 
Q 1366 4134 1134 3806 
Q 844 3388 844 2259 
z
" id="ArialMT-30" transform="scale(0.015625)"/>
       </defs>
       <use xlink:href="#ArialMT-31"/>
       <use x="55.615234" xlink:href="#ArialMT-30"/>
      </g>
     </g>
    </g>
    <g id="xtick_3">
     <g id="line2d_3">
      <path clip-path="url(#p5388444b3c)" d="M 311.092739 315 
L 311.092739 43.2 
" style="fill:none;stroke:#ffffff;stroke-linecap:round;"/>
     </g>
     <g id="text_3">
      <!-- 15 -->
      <g style="fill:#262626;" transform="translate(304.975707 332.373594)scale(0.11 -0.11)">
       <use xlink:href="#ArialMT-31"/>
       <use x="55.615234" xlink:href="#ArialMT-35"/>
      </g>
     </g>
    </g>
    <g id="xtick_4">
     <g id="line2d_4">
      <path clip-path="url(#p5388444b3c)" d="M 369.986631 315 
L 369.986631 43.2 
" style="fill:none;stroke:#ffffff;stroke-linecap:round;"/>
     </g>
     <g id="text_4">
      <!-- 20 -->
      <g style="fill:#262626;" transform="translate(363.8696 332.373594)scale(0.11 -0.11)">
       <defs>
        <path d="M 3222 541 
L 3222 0 
L 194 0 
Q 188 203 259 391 
Q 375 700 629 1000 
Q 884 1300 1366 1694 
Q 2113 2306 2375 2664 
Q 2638 3022 2638 3341 
Q 2638 3675 2398 3904 
Q 2159 4134 1775 4134 
Q 1369 4134 1125 3890 
Q 881 3647 878 3216 
L 300 3275 
Q 359 3922 746 4261 
Q 1134 4600 1788 4600 
Q 2447 4600 2831 4234 
Q 3216 3869 3216 3328 
Q 3216 3053 3103 2787 
Q 2991 2522 2730 2228 
Q 2469 1934 1863 1422 
Q 1356 997 1212 845 
Q 1069 694 975 541 
L 3222 541 
z
" id="ArialMT-32" transform="scale(0.015625)"/>
       </defs>
       <use xlink:href="#ArialMT-32"/>
       <use x="55.615234" xlink:href="#ArialMT-30"/>
      </g>
     </g>
    </g>
    <g id="text_5">
     <!-- input -->
     <g style="fill:#262626;" transform="translate(245.078548 347.149219)scale(0.12 -0.12)">
      <defs>
       <path d="M 425 3934 
L 425 4581 
L 988 4581 
L 988 3934 
L 425 3934 
z
M 425 0 
L 425 3319 
L 988 3319 
L 988 0 
L 425 0 
z
" id="ArialMT-69" transform="scale(0.015625)"/>
       <path d="M 422 0 
L 422 3319 
L 928 3319 
L 928 2847 
Q 1294 3394 1984 3394 
Q 2284 3394 2536 3286 
Q 2788 3178 2913 3003 
Q 3038 2828 3088 2588 
Q 3119 2431 3119 2041 
L 3119 0 
L 2556 0 
L 2556 2019 
Q 2556 2363 2490 2533 
Q 2425 2703 2258 2804 
Q 2091 2906 1866 2906 
Q 1506 2906 1245 2678 
Q 984 2450 984 1813 
L 984 0 
L 422 0 
z
" id="ArialMT-6e" transform="scale(0.015625)"/>
       <path d="M 422 -1272 
L 422 3319 
L 934 3319 
L 934 2888 
Q 1116 3141 1344 3267 
Q 1572 3394 1897 3394 
Q 2322 3394 2647 3175 
Q 2972 2956 3137 2557 
Q 3303 2159 3303 1684 
Q 3303 1175 3120 767 
Q 2938 359 2589 142 
Q 2241 -75 1856 -75 
Q 1575 -75 1351 44 
Q 1128 163 984 344 
L 984 -1272 
L 422 -1272 
z
M 931 1641 
Q 931 1000 1190 694 
Q 1450 388 1819 388 
Q 2194 388 2461 705 
Q 2728 1022 2728 1688 
Q 2728 2322 2467 2637 
Q 2206 2953 1844 2953 
Q 1484 2953 1207 2617 
Q 931 2281 931 1641 
z
" id="ArialMT-70" transform="scale(0.015625)"/>
       <path d="M 2597 0 
L 2597 488 
Q 2209 -75 1544 -75 
Q 1250 -75 995 37 
Q 741 150 617 320 
Q 494 491 444 738 
Q 409 903 409 1263 
L 409 3319 
L 972 3319 
L 972 1478 
Q 972 1038 1006 884 
Q 1059 663 1231 536 
Q 1403 409 1656 409 
Q 1909 409 2131 539 
Q 2353 669 2445 892 
Q 2538 1116 2538 1541 
L 2538 3319 
L 3100 3319 
L 3100 0 
L 2597 0 
z
" id="ArialMT-75" transform="scale(0.015625)"/>
       <path d="M 1650 503 
L 1731 6 
Q 1494 -44 1306 -44 
Q 1000 -44 831 53 
Q 663 150 594 308 
Q 525 466 525 972 
L 525 2881 
L 113 2881 
L 113 3319 
L 525 3319 
L 525 4141 
L 1084 4478 
L 1084 3319 
L 1650 3319 
L 1650 2881 
L 1084 2881 
L 1084 941 
Q 1084 700 1114 631 
Q 1144 563 1211 522 
Q 1278 481 1403 481 
Q 1497 481 1650 503 
z
" id="ArialMT-74" transform="scale(0.015625)"/>
      </defs>
      <use xlink:href="#ArialMT-69"/>
      <use x="22.216797" xlink:href="#ArialMT-6e"/>
      <use x="77.832031" xlink:href="#ArialMT-70"/>
      <use x="133.447266" xlink:href="#ArialMT-75"/>
      <use x="189.0625" xlink:href="#ArialMT-74"/>
     </g>
    </g>
   </g>
   <g id="matplotlib.axis_2">
    <g id="ytick_1">
     <g id="line2d_5">
      <path clip-path="url(#p5388444b3c)" d="M 135 302.645455 
L 381.176471 302.645455 
" style="fill:none;stroke:#ffffff;stroke-linecap:round;"/>
     </g>
     <g id="text_6">
      <!-- 0.0 -->
      <g style="fill:#262626;" transform="translate(110.21 306.582251)scale(0.11 -0.11)">
       <defs>
        <path d="M 581 0 
L 581 641 
L 1222 641 
L 1222 0 
L 581 0 
z
" id="ArialMT-2e" transform="scale(0.015625)"/>
       </defs>
       <use xlink:href="#ArialMT-30"/>
       <use x="55.615234" xlink:href="#ArialMT-2e"/>
       <use x="83.398438" xlink:href="#ArialMT-30"/>
      </g>
     </g>
    </g>
    <g id="ytick_2">
     <g id="line2d_6">
      <path clip-path="url(#p5388444b3c)" d="M 135 247.429609 
L 381.176471 247.429609 
" style="fill:none;stroke:#ffffff;stroke-linecap:round;"/>
     </g>
     <g id="text_7">
      <!-- 0.2 -->
      <g style="fill:#262626;" transform="translate(110.21 251.366406)scale(0.11 -0.11)">
       <use xlink:href="#ArialMT-30"/>
       <use x="55.615234" xlink:href="#ArialMT-2e"/>
       <use x="83.398438" xlink:href="#ArialMT-32"/>
      </g>
     </g>
    </g>
    <g id="ytick_3">
     <g id="line2d_7">
      <path clip-path="url(#p5388444b3c)" d="M 135 192.213763 
L 381.176471 192.213763 
" style="fill:none;stroke:#ffffff;stroke-linecap:round;"/>
     </g>
     <g id="text_8">
      <!-- 0.4 -->
      <g style="fill:#262626;" transform="translate(110.21 196.15056)scale(0.11 -0.11)">
       <defs>
        <path d="M 2069 0 
L 2069 1097 
L 81 1097 
L 81 1613 
L 2172 4581 
L 2631 4581 
L 2631 1613 
L 3250 1613 
L 3250 1097 
L 2631 1097 
L 2631 0 
L 2069 0 
z
M 2069 1613 
L 2069 3678 
L 634 1613 
L 2069 1613 
z
" id="ArialMT-34" transform="scale(0.015625)"/>
       </defs>
       <use xlink:href="#ArialMT-30"/>
       <use x="55.615234" xlink:href="#ArialMT-2e"/>
       <use x="83.398438" xlink:href="#ArialMT-34"/>
      </g>
     </g>
    </g>
    <g id="ytick_4">
     <g id="line2d_8">
      <path clip-path="url(#p5388444b3c)" d="M 135 136.997918 
L 381.176471 136.997918 
" style="fill:none;stroke:#ffffff;stroke-linecap:round;"/>
     </g>
     <g id="text_9">
      <!-- 0.6 -->
      <g style="fill:#262626;" transform="translate(110.21 140.934715)scale(0.11 -0.11)">
       <defs>
        <path d="M 3184 3459 
L 2625 3416 
Q 2550 3747 2413 3897 
Q 2184 4138 1850 4138 
Q 1581 4138 1378 3988 
Q 1113 3794 959 3422 
Q 806 3050 800 2363 
Q 1003 2672 1297 2822 
Q 1591 2972 1913 2972 
Q 2475 2972 2870 2558 
Q 3266 2144 3266 1488 
Q 3266 1056 3080 686 
Q 2894 316 2569 119 
Q 2244 -78 1831 -78 
Q 1128 -78 684 439 
Q 241 956 241 2144 
Q 241 3472 731 4075 
Q 1159 4600 1884 4600 
Q 2425 4600 2770 4297 
Q 3116 3994 3184 3459 
z
M 888 1484 
Q 888 1194 1011 928 
Q 1134 663 1356 523 
Q 1578 384 1822 384 
Q 2178 384 2434 671 
Q 2691 959 2691 1453 
Q 2691 1928 2437 2201 
Q 2184 2475 1800 2475 
Q 1419 2475 1153 2201 
Q 888 1928 888 1484 
z
" id="ArialMT-36" transform="scale(0.015625)"/>
       </defs>
       <use xlink:href="#ArialMT-30"/>
       <use x="55.615234" xlink:href="#ArialMT-2e"/>
       <use x="83.398438" xlink:href="#ArialMT-36"/>
      </g>
     </g>
    </g>
    <g id="ytick_5">
     <g id="line2d_9">
      <path clip-path="url(#p5388444b3c)" d="M 135 81.782072 
L 381.176471 81.782072 
" style="fill:none;stroke:#ffffff;stroke-linecap:round;"/>
     </g>
     <g id="text_10">
      <!-- 0.8 -->
      <g style="fill:#262626;" transform="translate(110.21 85.718869)scale(0.11 -0.11)">
       <defs>
        <path d="M 1131 2484 
Q 781 2613 612 2850 
Q 444 3088 444 3419 
Q 444 3919 803 4259 
Q 1163 4600 1759 4600 
Q 2359 4600 2725 4251 
Q 3091 3903 3091 3403 
Q 3091 3084 2923 2848 
Q 2756 2613 2416 2484 
Q 2838 2347 3058 2040 
Q 3278 1734 3278 1309 
Q 3278 722 2862 322 
Q 2447 -78 1769 -78 
Q 1091 -78 675 323 
Q 259 725 259 1325 
Q 259 1772 486 2073 
Q 713 2375 1131 2484 
z
M 1019 3438 
Q 1019 3113 1228 2906 
Q 1438 2700 1772 2700 
Q 2097 2700 2305 2904 
Q 2513 3109 2513 3406 
Q 2513 3716 2298 3927 
Q 2084 4138 1766 4138 
Q 1444 4138 1231 3931 
Q 1019 3725 1019 3438 
z
M 838 1322 
Q 838 1081 952 856 
Q 1066 631 1291 507 
Q 1516 384 1775 384 
Q 2178 384 2440 643 
Q 2703 903 2703 1303 
Q 2703 1709 2433 1975 
Q 2163 2241 1756 2241 
Q 1359 2241 1098 1978 
Q 838 1716 838 1322 
z
" id="ArialMT-38" transform="scale(0.015625)"/>
       </defs>
       <use xlink:href="#ArialMT-30"/>
       <use x="55.615234" xlink:href="#ArialMT-2e"/>
       <use x="83.398438" xlink:href="#ArialMT-38"/>
      </g>
     </g>
    </g>
    <g id="text_11">
     <!-- recall -->
     <g style="fill:#262626;" transform="translate(103.825 193.437187)rotate(-90)scale(0.12 -0.12)">
      <defs>
       <path d="M 416 0 
L 416 3319 
L 922 3319 
L 922 2816 
Q 1116 3169 1280 3281 
Q 1444 3394 1641 3394 
Q 1925 3394 2219 3213 
L 2025 2691 
Q 1819 2813 1613 2813 
Q 1428 2813 1281 2702 
Q 1134 2591 1072 2394 
Q 978 2094 978 1738 
L 978 0 
L 416 0 
z
" id="ArialMT-72" transform="scale(0.015625)"/>
       <path d="M 2694 1069 
L 3275 997 
Q 3138 488 2766 206 
Q 2394 -75 1816 -75 
Q 1088 -75 661 373 
Q 234 822 234 1631 
Q 234 2469 665 2931 
Q 1097 3394 1784 3394 
Q 2450 3394 2872 2941 
Q 3294 2488 3294 1666 
Q 3294 1616 3291 1516 
L 816 1516 
Q 847 969 1125 678 
Q 1403 388 1819 388 
Q 2128 388 2347 550 
Q 2566 713 2694 1069 
z
M 847 1978 
L 2700 1978 
Q 2663 2397 2488 2606 
Q 2219 2931 1791 2931 
Q 1403 2931 1139 2672 
Q 875 2413 847 1978 
z
" id="ArialMT-65" transform="scale(0.015625)"/>
       <path d="M 2588 1216 
L 3141 1144 
Q 3050 572 2676 248 
Q 2303 -75 1759 -75 
Q 1078 -75 664 370 
Q 250 816 250 1647 
Q 250 2184 428 2587 
Q 606 2991 970 3192 
Q 1334 3394 1763 3394 
Q 2303 3394 2647 3120 
Q 2991 2847 3088 2344 
L 2541 2259 
Q 2463 2594 2264 2762 
Q 2066 2931 1784 2931 
Q 1359 2931 1093 2626 
Q 828 2322 828 1663 
Q 828 994 1084 691 
Q 1341 388 1753 388 
Q 2084 388 2306 591 
Q 2528 794 2588 1216 
z
" id="ArialMT-63" transform="scale(0.015625)"/>
       <path d="M 2588 409 
Q 2275 144 1986 34 
Q 1697 -75 1366 -75 
Q 819 -75 525 192 
Q 231 459 231 875 
Q 231 1119 342 1320 
Q 453 1522 633 1644 
Q 813 1766 1038 1828 
Q 1203 1872 1538 1913 
Q 2219 1994 2541 2106 
Q 2544 2222 2544 2253 
Q 2544 2597 2384 2738 
Q 2169 2928 1744 2928 
Q 1347 2928 1158 2789 
Q 969 2650 878 2297 
L 328 2372 
Q 403 2725 575 2942 
Q 747 3159 1072 3276 
Q 1397 3394 1825 3394 
Q 2250 3394 2515 3294 
Q 2781 3194 2906 3042 
Q 3031 2891 3081 2659 
Q 3109 2516 3109 2141 
L 3109 1391 
Q 3109 606 3145 398 
Q 3181 191 3288 0 
L 2700 0 
Q 2613 175 2588 409 
z
M 2541 1666 
Q 2234 1541 1622 1453 
Q 1275 1403 1131 1340 
Q 988 1278 909 1158 
Q 831 1038 831 891 
Q 831 666 1001 516 
Q 1172 366 1500 366 
Q 1825 366 2078 508 
Q 2331 650 2450 897 
Q 2541 1088 2541 1459 
L 2541 1666 
z
" id="ArialMT-61" transform="scale(0.015625)"/>
       <path d="M 409 0 
L 409 4581 
L 972 4581 
L 972 0 
L 409 0 
z
" id="ArialMT-6c" transform="scale(0.015625)"/>
      </defs>
      <use xlink:href="#ArialMT-72"/>
      <use x="33.300781" xlink:href="#ArialMT-65"/>
      <use x="88.916016" xlink:href="#ArialMT-63"/>
      <use x="138.916016" xlink:href="#ArialMT-61"/>
      <use x="194.53125" xlink:href="#ArialMT-6c"/>
      <use x="216.748047" xlink:href="#ArialMT-6c"/>
     </g>
    </g>
   </g>
   <g id="line2d_10">
    <path clip-path="url(#p5388444b3c)" d="M 146.18984 230.864855 
L 157.968618 219.821686 
L 169.747397 244.668817 
L 181.526175 219.821686 
L 193.304954 214.300102 
L 205.083732 225.343271 
L 216.862511 217.060894 
L 228.641289 219.821686 
L 240.420068 217.060894 
L 252.198846 226.723667 
L 263.977625 225.343271 
L 275.756403 228.104063 
L 287.535182 214.300102 
L 299.31396 211.539309 
L 311.092739 214.300102 
L 322.871517 226.723667 
L 334.650296 218.44129 
L 346.429074 208.778517 
L 358.207853 208.778517 
L 369.986631 214.300102 
" style="fill:none;stroke:#edd1cb;stroke-linecap:round;stroke-width:1.5;"/>
   </g>
   <g id="line2d_11">
    <path clip-path="url(#p5388444b3c)" d="M 146.18984 208.778517 
L 157.968618 228.104063 
L 169.747397 217.060894 
L 181.526175 233.625648 
L 193.304954 208.778517 
L 205.083732 221.202082 
L 216.862511 222.582478 
L 228.641289 239.147232 
L 240.420068 229.484459 
L 252.198846 229.484459 
L 263.977625 223.962875 
L 275.756403 211.539309 
L 287.535182 221.202082 
L 299.31396 225.343271 
L 311.092739 229.484459 
L 322.871517 232.245251 
L 334.650296 226.723667 
L 346.429074 235.006044 
L 358.207853 207.398121 
L 369.986631 218.44129 
" style="fill:none;stroke:#e5bcbb;stroke-linecap:round;stroke-width:1.5;"/>
   </g>
   <g id="line2d_12">
    <path clip-path="url(#p5388444b3c)" d="M 146.18984 218.44129 
L 157.968618 239.147232 
L 169.747397 236.38644 
L 181.526175 243.288421 
L 193.304954 225.343271 
L 205.083732 221.202082 
L 216.862511 232.245251 
L 228.641289 243.288421 
L 240.420068 212.919705 
L 252.198846 215.680498 
L 263.977625 228.104063 
L 275.756403 223.962875 
L 287.535182 219.821686 
L 299.31396 221.202082 
L 311.092739 219.821686 
L 322.871517 223.962875 
L 334.650296 229.484459 
L 346.429074 206.017725 
L 358.207853 214.300102 
L 369.986631 178.409802 
" style="fill:none;stroke:#daa4ac;stroke-linecap:round;stroke-width:1.5;"/>
   </g>
   <g id="line2d_13">
    <path clip-path="url(#p5388444b3c)" d="M 146.18984 215.680498 
L 157.968618 252.951193 
L 169.747397 244.668817 
L 181.526175 241.908024 
L 193.304954 250.190401 
L 205.083732 255.711986 
L 216.862511 235.006044 
L 228.641289 241.908024 
L 240.420068 246.049213 
L 252.198846 247.429609 
L 263.977625 241.908024 
L 275.756403 239.147232 
L 287.535182 222.582478 
L 299.31396 218.44129 
L 311.092739 217.060894 
L 322.871517 204.637329 
L 334.650296 218.44129 
L 346.429074 210.158913 
L 358.207853 188.072575 
L 369.986631 168.747029 
" style="fill:none;stroke:#ce8fa2;stroke-linecap:round;stroke-width:1.5;"/>
   </g>
   <g id="line2d_14">
    <path clip-path="url(#p5388444b3c)" d="M 146.18984 222.582478 
L 157.968618 259.853174 
L 169.747397 248.810005 
L 181.526175 240.527628 
L 193.304954 250.190401 
L 205.083732 250.190401 
L 216.862511 248.810005 
L 228.641289 251.570797 
L 240.420068 236.38644 
L 252.198846 239.147232 
L 263.977625 228.104063 
L 275.756403 222.582478 
L 287.535182 222.582478 
L 299.31396 211.539309 
L 311.092739 219.821686 
L 322.871517 185.311783 
L 334.650296 201.876536 
L 346.429074 183.931386 
L 358.207853 164.605841 
L 369.986631 139.75871 
" style="fill:none;stroke:#bd7a98;stroke-linecap:round;stroke-width:1.5;"/>
   </g>
   <g id="line2d_15">
    <path clip-path="url(#p5388444b3c)" d="M 146.18984 211.539309 
L 157.968618 243.288421 
L 169.747397 248.810005 
L 181.526175 254.33159 
L 193.304954 257.092382 
L 205.083732 247.429609 
L 216.862511 247.429609 
L 228.641289 241.908024 
L 240.420068 243.288421 
L 252.198846 232.245251 
L 263.977625 243.288421 
L 275.756403 236.38644 
L 287.535182 240.527628 
L 299.31396 226.723667 
L 311.092739 215.680498 
L 322.871517 206.017725 
L 334.650296 193.594159 
L 346.429074 165.986237 
L 358.207853 142.519502 
L 369.986631 113.531183 
" style="fill:none;stroke:#a9678f;stroke-linecap:round;stroke-width:1.5;"/>
   </g>
   <g id="line2d_16">
    <path clip-path="url(#p5388444b3c)" d="M 146.18984 229.484459 
L 157.968618 265.374759 
L 169.747397 257.092382 
L 181.526175 254.33159 
L 193.304954 252.951193 
L 205.083732 230.864855 
L 216.862511 250.190401 
L 228.641289 254.33159 
L 240.420068 252.951193 
L 252.198846 254.33159 
L 263.977625 254.33159 
L 275.756403 247.429609 
L 287.535182 233.625648 
L 299.31396 223.962875 
L 311.092739 226.723667 
L 322.871517 221.202082 
L 334.650296 208.778517 
L 346.429074 175.64901 
L 358.207853 153.562671 
L 369.986631 106.629203 
" style="fill:none;stroke:#945785;stroke-linecap:round;stroke-width:1.5;"/>
   </g>
   <g id="line2d_17">
    <path clip-path="url(#p5388444b3c)" d="M 146.18984 232.245251 
L 157.968618 261.23357 
L 169.747397 262.613966 
L 181.526175 258.472778 
L 193.304954 263.994363 
L 205.083732 248.810005 
L 216.862511 257.092382 
L 228.641289 257.092382 
L 240.420068 262.613966 
L 252.198846 250.190401 
L 263.977625 252.951193 
L 275.756403 251.570797 
L 287.535182 235.006044 
L 299.31396 247.429609 
L 311.092739 237.766836 
L 322.871517 210.158913 
L 334.650296 190.833367 
L 346.429074 161.845048 
L 358.207853 116.291976 
L 369.986631 69.358507 
" style="fill:none;stroke:#794678;stroke-linecap:round;stroke-width:1.5;"/>
   </g>
   <g id="line2d_18">
    <path clip-path="url(#p5388444b3c)" d="M 146.18984 230.864855 
L 157.968618 269.515947 
L 169.747397 263.994363 
L 181.526175 251.570797 
L 193.304954 258.472778 
L 205.083732 243.288421 
L 216.862511 248.810005 
L 228.641289 254.33159 
L 240.420068 273.657136 
L 252.198846 254.33159 
L 263.977625 250.190401 
L 275.756403 250.190401 
L 287.535182 248.810005 
L 299.31396 241.908024 
L 311.092739 237.766836 
L 322.871517 212.919705 
L 334.650296 174.268614 
L 346.429074 148.041087 
L 358.207853 102.488014 
L 369.986631 61.07613 
" style="fill:none;stroke:#613969;stroke-linecap:round;stroke-width:1.5;"/>
   </g>
   <g id="line2d_19">
    <path clip-path="url(#p5388444b3c)" d="M 146.18984 241.908024 
L 157.968618 265.374759 
L 169.747397 262.613966 
L 181.526175 259.853174 
L 193.304954 254.33159 
L 205.083732 262.613966 
L 216.862511 261.23357 
L 228.641289 273.657136 
L 240.420068 258.472778 
L 252.198846 248.810005 
L 263.977625 261.23357 
L 275.756403 261.23357 
L 287.535182 258.472778 
L 299.31396 243.288421 
L 311.092739 215.680498 
L 322.871517 193.594159 
L 334.650296 179.790198 
L 346.429074 136.997918 
L 358.207853 95.586034 
L 369.986631 55.554545 
" style="fill:none;stroke:#452b54;stroke-linecap:round;stroke-width:1.5;"/>
   </g>
   <g id="line2d_20">
    <path clip-path="url(#p5388444b3c)" d="M 146.18984 243.288421 
L 157.968618 268.135551 
L 169.747397 261.23357 
L 181.526175 268.135551 
L 193.304954 269.515947 
L 205.083732 268.135551 
L 216.862511 276.417928 
L 228.641289 263.994363 
L 240.420068 265.374759 
L 252.198846 275.037532 
L 263.977625 262.613966 
L 275.756403 248.810005 
L 287.535182 252.951193 
L 299.31396 225.343271 
L 311.092739 210.158913 
L 322.871517 211.539309 
L 334.650296 174.268614 
L 346.429074 156.323464 
L 358.207853 87.303657 
L 369.986631 61.07613 
" style="fill:none;stroke:#2d1e3e;stroke-linecap:round;stroke-width:1.5;"/>
   </g>
   <g id="line2d_21"/>
   <g id="line2d_22"/>
   <g id="line2d_23"/>
   <g id="line2d_24"/>
   <g id="line2d_25"/>
   <g id="patch_3">
    <path d="M 135 315 
L 135 43.2 
" style="fill:none;stroke:#ffffff;stroke-linecap:square;stroke-linejoin:miter;stroke-width:1.25;"/>
   </g>
   <g id="patch_4">
    <path d="M 381.176471 315 
L 381.176471 43.2 
" style="fill:none;stroke:#ffffff;stroke-linecap:square;stroke-linejoin:miter;stroke-width:1.25;"/>
   </g>
   <g id="patch_5">
    <path d="M 135 315 
L 381.176471 315 
" style="fill:none;stroke:#ffffff;stroke-linecap:square;stroke-linejoin:miter;stroke-width:1.25;"/>
   </g>
   <g id="patch_6">
    <path d="M 135 43.2 
L 381.176471 43.2 
" style="fill:none;stroke:#ffffff;stroke-linecap:square;stroke-linejoin:miter;stroke-width:1.25;"/>
   </g>
   <g id="text_12">
    <!-- SPC -->
    <g style="fill:#262626;" transform="translate(245.750735 37.2)scale(0.12 -0.12)">
     <defs>
      <path d="M 288 1472 
L 859 1522 
Q 900 1178 1048 958 
Q 1197 738 1509 602 
Q 1822 466 2213 466 
Q 2559 466 2825 569 
Q 3091 672 3220 851 
Q 3350 1031 3350 1244 
Q 3350 1459 3225 1620 
Q 3100 1781 2813 1891 
Q 2628 1963 1997 2114 
Q 1366 2266 1113 2400 
Q 784 2572 623 2826 
Q 463 3081 463 3397 
Q 463 3744 659 4045 
Q 856 4347 1234 4503 
Q 1613 4659 2075 4659 
Q 2584 4659 2973 4495 
Q 3363 4331 3572 4012 
Q 3781 3694 3797 3291 
L 3216 3247 
Q 3169 3681 2898 3903 
Q 2628 4125 2100 4125 
Q 1550 4125 1298 3923 
Q 1047 3722 1047 3438 
Q 1047 3191 1225 3031 
Q 1400 2872 2139 2705 
Q 2878 2538 3153 2413 
Q 3553 2228 3743 1945 
Q 3934 1663 3934 1294 
Q 3934 928 3725 604 
Q 3516 281 3123 101 
Q 2731 -78 2241 -78 
Q 1619 -78 1198 103 
Q 778 284 539 648 
Q 300 1013 288 1472 
z
" id="ArialMT-53" transform="scale(0.015625)"/>
      <path d="M 494 0 
L 494 4581 
L 2222 4581 
Q 2678 4581 2919 4538 
Q 3256 4481 3484 4323 
Q 3713 4166 3852 3881 
Q 3991 3597 3991 3256 
Q 3991 2672 3619 2267 
Q 3247 1863 2275 1863 
L 1100 1863 
L 1100 0 
L 494 0 
z
M 1100 2403 
L 2284 2403 
Q 2872 2403 3119 2622 
Q 3366 2841 3366 3238 
Q 3366 3525 3220 3729 
Q 3075 3934 2838 4000 
Q 2684 4041 2272 4041 
L 1100 4041 
L 1100 2403 
z
" id="ArialMT-50" transform="scale(0.015625)"/>
      <path d="M 3763 1606 
L 4369 1453 
Q 4178 706 3683 314 
Q 3188 -78 2472 -78 
Q 1731 -78 1267 223 
Q 803 525 561 1097 
Q 319 1669 319 2325 
Q 319 3041 592 3573 
Q 866 4106 1370 4382 
Q 1875 4659 2481 4659 
Q 3169 4659 3637 4309 
Q 4106 3959 4291 3325 
L 3694 3184 
Q 3534 3684 3231 3912 
Q 2928 4141 2469 4141 
Q 1941 4141 1586 3887 
Q 1231 3634 1087 3207 
Q 944 2781 944 2328 
Q 944 1744 1114 1308 
Q 1284 872 1643 656 
Q 2003 441 2422 441 
Q 2931 441 3284 734 
Q 3638 1028 3763 1606 
z
" id="ArialMT-43" transform="scale(0.015625)"/>
     </defs>
     <use xlink:href="#ArialMT-53"/>
     <use x="66.699219" xlink:href="#ArialMT-50"/>
     <use x="133.398438" xlink:href="#ArialMT-43"/>
    </g>
   </g>
   <g id="legend_1">
    <g id="patch_7">
     <path d="M 142.7 57.5 
L 147.1 57.5 
Q 149.3 57.5 149.3 55.3 
L 149.3 50.9 
Q 149.3 48.7 147.1 48.7 
L 142.7 48.7 
Q 140.5 48.7 140.5 50.9 
L 140.5 55.3 
Q 140.5 57.5 142.7 57.5 
z
" style="fill:#eaeaf2;opacity:0.8;stroke:#cccccc;stroke-linejoin:miter;"/>
    </g>
   </g>
  </g>
  <g id="axes_2">
   <g id="patch_8">
    <path d="M 430.411765 315 
L 676.588235 315 
L 676.588235 43.2 
L 430.411765 43.2 
z
" style="fill:#eaeaf2;"/>
   </g>
   <g id="matplotlib.axis_3">
    <g id="xtick_5">
     <g id="line2d_26">
      <path clip-path="url(#p97e6991ba8)" d="M 441.601604 315 
L 441.601604 43.2 
" style="fill:none;stroke:#ffffff;stroke-linecap:round;"/>
     </g>
     <g id="text_13">
      <!-- −10 -->
      <g style="fill:#262626;" transform="translate(432.272229 332.373594)scale(0.11 -0.11)">
       <defs>
        <path d="M 3381 1997 
L 356 1997 
L 356 2522 
L 3381 2522 
L 3381 1997 
z
" id="ArialMT-2212" transform="scale(0.015625)"/>
       </defs>
       <use xlink:href="#ArialMT-2212"/>
       <use x="58.398438" xlink:href="#ArialMT-31"/>
       <use x="114.013672" xlink:href="#ArialMT-30"/>
      </g>
     </g>
    </g>
    <g id="xtick_6">
     <g id="line2d_27">
      <path clip-path="url(#p97e6991ba8)" d="M 497.550802 315 
L 497.550802 43.2 
" style="fill:none;stroke:#ffffff;stroke-linecap:round;"/>
     </g>
     <g id="text_14">
      <!-- −5 -->
      <g style="fill:#262626;" transform="translate(491.279943 332.373594)scale(0.11 -0.11)">
       <use xlink:href="#ArialMT-2212"/>
       <use x="58.398438" xlink:href="#ArialMT-35"/>
      </g>
     </g>
    </g>
    <g id="xtick_7">
     <g id="line2d_28">
      <path clip-path="url(#p97e6991ba8)" d="M 553.5 315 
L 553.5 43.2 
" style="fill:none;stroke:#ffffff;stroke-linecap:round;"/>
     </g>
     <g id="text_15">
      <!-- 0 -->
      <g style="fill:#262626;" transform="translate(550.441484 332.373594)scale(0.11 -0.11)">
       <use xlink:href="#ArialMT-30"/>
      </g>
     </g>
    </g>
    <g id="xtick_8">
     <g id="line2d_29">
      <path clip-path="url(#p97e6991ba8)" d="M 609.449198 315 
L 609.449198 43.2 
" style="fill:none;stroke:#ffffff;stroke-linecap:round;"/>
     </g>
     <g id="text_16">
      <!-- 5 -->
      <g style="fill:#262626;" transform="translate(606.390682 332.373594)scale(0.11 -0.11)">
       <use xlink:href="#ArialMT-35"/>
      </g>
     </g>
    </g>
    <g id="xtick_9">
     <g id="line2d_30">
      <path clip-path="url(#p97e6991ba8)" d="M 665.398396 315 
L 665.398396 43.2 
" style="fill:none;stroke:#ffffff;stroke-linecap:round;"/>
     </g>
     <g id="text_17">
      <!-- 10 -->
      <g style="fill:#262626;" transform="translate(659.281364 332.373594)scale(0.11 -0.11)">
       <use xlink:href="#ArialMT-31"/>
       <use x="55.615234" xlink:href="#ArialMT-30"/>
      </g>
     </g>
    </g>
    <g id="text_18">
     <!-- lag -->
     <g style="fill:#262626;" transform="translate(545.49375 347.149219)scale(0.12 -0.12)">
      <defs>
       <path d="M 319 -275 
L 866 -356 
Q 900 -609 1056 -725 
Q 1266 -881 1628 -881 
Q 2019 -881 2231 -725 
Q 2444 -569 2519 -288 
Q 2563 -116 2559 434 
Q 2191 0 1641 0 
Q 956 0 581 494 
Q 206 988 206 1678 
Q 206 2153 378 2554 
Q 550 2956 876 3175 
Q 1203 3394 1644 3394 
Q 2231 3394 2613 2919 
L 2613 3319 
L 3131 3319 
L 3131 450 
Q 3131 -325 2973 -648 
Q 2816 -972 2473 -1159 
Q 2131 -1347 1631 -1347 
Q 1038 -1347 672 -1080 
Q 306 -813 319 -275 
z
M 784 1719 
Q 784 1066 1043 766 
Q 1303 466 1694 466 
Q 2081 466 2343 764 
Q 2606 1063 2606 1700 
Q 2606 2309 2336 2618 
Q 2066 2928 1684 2928 
Q 1309 2928 1046 2623 
Q 784 2319 784 1719 
z
" id="ArialMT-67" transform="scale(0.015625)"/>
      </defs>
      <use xlink:href="#ArialMT-6c"/>
      <use x="22.216797" xlink:href="#ArialMT-61"/>
      <use x="77.832031" xlink:href="#ArialMT-67"/>
     </g>
    </g>
   </g>
   <g id="matplotlib.axis_4">
    <g id="ytick_6">
     <g id="line2d_31">
      <path clip-path="url(#p97e6991ba8)" d="M 430.411765 302.645455 
L 676.588235 302.645455 
" style="fill:none;stroke:#ffffff;stroke-linecap:round;"/>
     </g>
    </g>
    <g id="ytick_7">
     <g id="line2d_32">
      <path clip-path="url(#p97e6991ba8)" d="M 430.411765 247.429609 
L 676.588235 247.429609 
" style="fill:none;stroke:#ffffff;stroke-linecap:round;"/>
     </g>
    </g>
    <g id="ytick_8">
     <g id="line2d_33">
      <path clip-path="url(#p97e6991ba8)" d="M 430.411765 192.213763 
L 676.588235 192.213763 
" style="fill:none;stroke:#ffffff;stroke-linecap:round;"/>
     </g>
    </g>
    <g id="ytick_9">
     <g id="line2d_34">
      <path clip-path="url(#p97e6991ba8)" d="M 430.411765 136.997918 
L 676.588235 136.997918 
" style="fill:none;stroke:#ffffff;stroke-linecap:round;"/>
     </g>
    </g>
    <g id="ytick_10">
     <g id="line2d_35">
      <path clip-path="url(#p97e6991ba8)" d="M 430.411765 81.782072 
L 676.588235 81.782072 
" style="fill:none;stroke:#ffffff;stroke-linecap:round;"/>
     </g>
    </g>
   </g>
   <g id="line2d_36">
    <path clip-path="url(#p97e6991ba8)" d="M 441.601604 282.992827 
L 452.791444 288.375883 
L 463.981283 287.247846 
L 475.171123 290.598155 
L 486.360963 286.255611 
L 497.550802 283.75553 
L 508.740642 288.902426 
L 519.930481 285.744123 
L 531.120321 287.791942 
L 542.31016 286.613466 
" style="fill:none;stroke:#edd1cb;stroke-linecap:round;stroke-width:1.5;"/>
   </g>
   <g id="line2d_37">
    <path clip-path="url(#p97e6991ba8)" d="M 441.601604 287.353641 
L 452.791444 292.988032 
L 463.981283 288.998356 
L 475.171123 287.344238 
L 486.360963 286.916451 
L 497.550802 284.172296 
L 508.740642 292.153158 
L 519.930481 284.445589 
L 531.120321 286.764681 
L 542.31016 286.270479 
" style="fill:none;stroke:#e5bcbb;stroke-linecap:round;stroke-width:1.5;"/>
   </g>
   <g id="line2d_38">
    <path clip-path="url(#p97e6991ba8)" d="M 441.601604 293.798868 
L 452.791444 290.247347 
L 463.981283 286.406379 
L 475.171123 288.841493 
L 486.360963 290.07352 
L 497.550802 288.923507 
L 508.740642 290.10198 
L 519.930481 283.805544 
L 531.120321 290.502782 
L 542.31016 282.277061 
" style="fill:none;stroke:#daa4ac;stroke-linecap:round;stroke-width:1.5;"/>
   </g>
   <g id="line2d_39">
    <path clip-path="url(#p97e6991ba8)" d="M 441.601604 298.849365 
L 452.791444 294.026655 
L 463.981283 293.450346 
L 475.171123 289.214248 
L 486.360963 294.386981 
L 497.550802 286.658356 
L 508.740642 285.329749 
L 519.930481 286.965111 
L 531.120321 285.784506 
L 542.31016 280.731765 
" style="fill:none;stroke:#ce8fa2;stroke-linecap:round;stroke-width:1.5;"/>
   </g>
   <g id="line2d_40">
    <path clip-path="url(#p97e6991ba8)" d="M 441.601604 294.23969 
L 452.791444 293.21347 
L 463.981283 293.535606 
L 475.171123 291.679154 
L 486.360963 287.193974 
L 497.550802 294.212095 
L 508.740642 290.809896 
L 519.930481 288.056647 
L 531.120321 288.255611 
L 542.31016 281.610847 
" style="fill:none;stroke:#bd7a98;stroke-linecap:round;stroke-width:1.5;"/>
   </g>
   <g id="line2d_41">
    <path clip-path="url(#p97e6991ba8)" d="M 441.601604 297.684428 
L 452.791444 291.074968 
L 463.981283 288.952239 
L 475.171123 293.09978 
L 486.360963 297.968926 
L 497.550802 293.559985 
L 508.740642 290.03786 
L 519.930481 287.970879 
L 531.120321 281.911689 
L 542.31016 269.77888 
" style="fill:none;stroke:#a9678f;stroke-linecap:round;stroke-width:1.5;"/>
   </g>
   <g id="line2d_42">
    <path clip-path="url(#p97e6991ba8)" d="M 441.601604 297.605913 
L 452.791444 294.111883 
L 463.981283 297.01329 
L 475.171123 297.324657 
L 486.360963 293.731584 
L 497.550802 292.828297 
L 508.740642 290.448933 
L 519.930481 287.302053 
L 531.120321 280.499732 
L 542.31016 276.445566 
" style="fill:none;stroke:#945785;stroke-linecap:round;stroke-width:1.5;"/>
   </g>
   <g id="line2d_43">
    <path clip-path="url(#p97e6991ba8)" d="M 441.601604 295.53232 
L 452.791444 297.041612 
L 463.981283 297.708124 
L 475.171123 295.368905 
L 486.360963 296.680508 
L 497.550802 296.868404 
L 508.740642 293.398747 
L 519.930481 285.108658 
L 531.120321 279.783294 
L 542.31016 263.392849 
" style="fill:none;stroke:#794678;stroke-linecap:round;stroke-width:1.5;"/>
   </g>
   <g id="line2d_44">
    <path clip-path="url(#p97e6991ba8)" d="M 441.601604 298.158613 
L 452.791444 297.177485 
L 463.981283 296.632089 
L 475.171123 297.847669 
L 486.360963 299.696031 
L 497.550802 294.929981 
L 508.740642 291.899961 
L 519.930481 285.999752 
L 531.120321 272.366671 
L 542.31016 261.743631 
" style="fill:none;stroke:#613969;stroke-linecap:round;stroke-width:1.5;"/>
   </g>
   <g id="line2d_45">
    <path clip-path="url(#p97e6991ba8)" d="M 441.601604 299.552345 
L 452.791444 296.296119 
L 463.981283 299.408097 
L 475.171123 297.998133 
L 486.360963 297.375908 
L 497.550802 294.704817 
L 508.740642 291.903593 
L 519.930481 284.304937 
L 531.120321 276.831348 
L 542.31016 257.376262 
" style="fill:none;stroke:#452b54;stroke-linecap:round;stroke-width:1.5;"/>
   </g>
   <g id="line2d_46">
    <path clip-path="url(#p97e6991ba8)" d="M 441.601604 301.146739 
L 452.791444 301.308125 
L 463.981283 297.529349 
L 475.171123 297.314385 
L 486.360963 294.639829 
L 497.550802 293.655077 
L 508.740642 294.680107 
L 519.930481 282.619126 
L 531.120321 280.190961 
L 542.31016 243.261613 
" style="fill:none;stroke:#2d1e3e;stroke-linecap:round;stroke-width:1.5;"/>
   </g>
   <g id="line2d_47"/>
   <g id="line2d_48"/>
   <g id="line2d_49"/>
   <g id="line2d_50"/>
   <g id="line2d_51"/>
   <g id="line2d_52">
    <path clip-path="url(#p97e6991ba8)" d="M 564.68984 286.29509 
L 575.879679 283.070776 
L 587.069519 283.74445 
L 598.259358 286.00036 
L 609.449198 284.945243 
L 620.639037 287.099565 
L 631.828877 289.124256 
L 643.018717 284.658475 
L 654.208556 285.160437 
L 665.398396 285.91338 
" style="fill:none;stroke:#edd1cb;stroke-linecap:round;stroke-width:1.5;"/>
   </g>
   <g id="line2d_53">
    <path clip-path="url(#p97e6991ba8)" d="M 564.68984 280.503386 
L 575.879679 280.156858 
L 587.069519 289.694329 
L 598.259358 281.037044 
L 609.449198 287.027405 
L 620.639037 283.321403 
L 631.828877 281.437069 
L 643.018717 287.657528 
L 654.208556 283.953337 
L 665.398396 288.796582 
" style="fill:none;stroke:#e5bcbb;stroke-linecap:round;stroke-width:1.5;"/>
   </g>
   <g id="line2d_54">
    <path clip-path="url(#p97e6991ba8)" d="M 564.68984 275.587729 
L 575.879679 281.865867 
L 587.069519 282.960396 
L 598.259358 276.616596 
L 609.449198 284.548297 
L 620.639037 290.756494 
L 631.828877 283.232527 
L 643.018717 292.423359 
L 654.208556 280.034058 
L 665.398396 284.660366 
" style="fill:none;stroke:#daa4ac;stroke-linecap:round;stroke-width:1.5;"/>
   </g>
   <g id="line2d_55">
    <path clip-path="url(#p97e6991ba8)" d="M 564.68984 256.452794 
L 575.879679 276.68367 
L 587.069519 277.444213 
L 598.259358 284.854259 
L 609.449198 274.984235 
L 620.639037 283.812457 
L 631.828877 286.349111 
L 643.018717 295.022371 
L 654.208556 283.959176 
L 665.398396 290.653037 
" style="fill:none;stroke:#ce8fa2;stroke-linecap:round;stroke-width:1.5;"/>
   </g>
   <g id="line2d_56">
    <path clip-path="url(#p97e6991ba8)" d="M 564.68984 241.008824 
L 575.879679 270.352652 
L 587.069519 264.905236 
L 598.259358 280.396822 
L 609.449198 289.333484 
L 620.639037 286.169759 
L 631.828877 283.661199 
L 643.018717 288.841493 
L 654.208556 292.099362 
L 665.398396 284.314991 
" style="fill:none;stroke:#bd7a98;stroke-linecap:round;stroke-width:1.5;"/>
   </g>
   <g id="line2d_57">
    <path clip-path="url(#p97e6991ba8)" d="M 564.68984 219.693078 
L 575.879679 246.273546 
L 587.069519 273.308124 
L 598.259358 274.606796 
L 609.449198 282.478861 
L 620.639037 294.779684 
L 631.828877 290.76752 
L 643.018717 296.561064 
L 654.208556 292.171396 
L 665.398396 294.26297 
" style="fill:none;stroke:#a9678f;stroke-linecap:round;stroke-width:1.5;"/>
   </g>
   <g id="line2d_58">
    <path clip-path="url(#p97e6991ba8)" d="M 564.68984 185.28103 
L 575.879679 248.545398 
L 587.069519 266.143967 
L 598.259358 277.190061 
L 609.449198 290.112007 
L 620.639037 286.467796 
L 631.828877 294.902312 
L 643.018717 298.947197 
L 654.208556 287.30772 
L 665.398396 294.401422 
" style="fill:none;stroke:#945785;stroke-linecap:round;stroke-width:1.5;"/>
   </g>
   <g id="line2d_59">
    <path clip-path="url(#p97e6991ba8)" d="M 564.68984 171.758233 
L 575.879679 246.226649 
L 587.069519 270.054683 
L 598.259358 276.802499 
L 609.449198 286.626043 
L 620.639037 290.729929 
L 631.828877 297.958924 
L 643.018717 297.000536 
L 654.208556 294.874336 
L 665.398396 292.544995 
" style="fill:none;stroke:#794678;stroke-linecap:round;stroke-width:1.5;"/>
   </g>
   <g id="line2d_60">
    <path clip-path="url(#p97e6991ba8)" d="M 564.68984 149.217106 
L 575.879679 242.087091 
L 587.069519 266.049132 
L 598.259358 281.655037 
L 609.449198 280.736415 
L 620.639037 295.97999 
L 631.828877 294.634227 
L 643.018717 299.731285 
L 654.208556 297.267288 
L 665.398396 298.914654 
" style="fill:none;stroke:#613969;stroke-linecap:round;stroke-width:1.5;"/>
   </g>
   <g id="line2d_61">
    <path clip-path="url(#p97e6991ba8)" d="M 564.68984 152.621785 
L 575.879679 235.829812 
L 587.069519 270.171387 
L 598.259358 286.723425 
L 609.449198 287.554683 
L 620.639037 296.102292 
L 631.828877 302.087719 
L 643.018717 298.192564 
L 654.208556 295.743474 
L 665.398396 298.292854 
" style="fill:none;stroke:#452b54;stroke-linecap:round;stroke-width:1.5;"/>
   </g>
   <g id="line2d_62">
    <path clip-path="url(#p97e6991ba8)" d="M 564.68984 132.115474 
L 575.879679 232.931021 
L 587.069519 267.518301 
L 598.259358 283.526175 
L 609.449198 296.46243 
L 620.639037 299.970268 
L 631.828877 291.87021 
L 643.018717 299.717342 
L 654.208556 294.279417 
L 665.398396 302.645455 
" style="fill:none;stroke:#2d1e3e;stroke-linecap:round;stroke-width:1.5;"/>
   </g>
   <g id="line2d_63"/>
   <g id="line2d_64"/>
   <g id="line2d_65"/>
   <g id="line2d_66"/>
   <g id="line2d_67"/>
   <g id="patch_9">
    <path d="M 430.411765 315 
L 430.411765 43.2 
" style="fill:none;stroke:#ffffff;stroke-linecap:square;stroke-linejoin:miter;stroke-width:1.25;"/>
   </g>
   <g id="patch_10">
    <path d="M 676.588235 315 
L 676.588235 43.2 
" style="fill:none;stroke:#ffffff;stroke-linecap:square;stroke-linejoin:miter;stroke-width:1.25;"/>
   </g>
   <g id="patch_11">
    <path d="M 430.411765 315 
L 676.588235 315 
" style="fill:none;stroke:#ffffff;stroke-linecap:square;stroke-linejoin:miter;stroke-width:1.25;"/>
   </g>
   <g id="patch_12">
    <path d="M 430.411765 43.2 
L 676.588235 43.2 
" style="fill:none;stroke:#ffffff;stroke-linecap:square;stroke-linejoin:miter;stroke-width:1.25;"/>
   </g>
   <g id="text_19">
    <!-- Lag-CRP -->
    <g style="fill:#262626;" transform="translate(528.824062 37.2)scale(0.12 -0.12)">
     <defs>
      <path d="M 469 0 
L 469 4581 
L 1075 4581 
L 1075 541 
L 3331 541 
L 3331 0 
L 469 0 
z
" id="ArialMT-4c" transform="scale(0.015625)"/>
      <path d="M 203 1375 
L 203 1941 
L 1931 1941 
L 1931 1375 
L 203 1375 
z
" id="ArialMT-2d" transform="scale(0.015625)"/>
      <path d="M 503 0 
L 503 4581 
L 2534 4581 
Q 3147 4581 3465 4457 
Q 3784 4334 3975 4021 
Q 4166 3709 4166 3331 
Q 4166 2844 3850 2509 
Q 3534 2175 2875 2084 
Q 3116 1969 3241 1856 
Q 3506 1613 3744 1247 
L 4541 0 
L 3778 0 
L 3172 953 
Q 2906 1366 2734 1584 
Q 2563 1803 2427 1890 
Q 2291 1978 2150 2013 
Q 2047 2034 1813 2034 
L 1109 2034 
L 1109 0 
L 503 0 
z
M 1109 2559 
L 2413 2559 
Q 2828 2559 3062 2645 
Q 3297 2731 3419 2920 
Q 3541 3109 3541 3331 
Q 3541 3656 3305 3865 
Q 3069 4075 2559 4075 
L 1109 4075 
L 1109 2559 
z
" id="ArialMT-52" transform="scale(0.015625)"/>
     </defs>
     <use xlink:href="#ArialMT-4c"/>
     <use x="55.615234" xlink:href="#ArialMT-61"/>
     <use x="111.230469" xlink:href="#ArialMT-67"/>
     <use x="166.845703" xlink:href="#ArialMT-2d"/>
     <use x="200.146484" xlink:href="#ArialMT-43"/>
     <use x="272.363281" xlink:href="#ArialMT-52"/>
     <use x="344.580078" xlink:href="#ArialMT-50"/>
    </g>
   </g>
   <g id="legend_2">
    <g id="patch_13">
     <path d="M 606.164173 223.158281 
L 668.888235 223.158281 
Q 671.088235 223.158281 671.088235 220.958281 
L 671.088235 50.9 
Q 671.088235 48.7 668.888235 48.7 
L 606.164173 48.7 
Q 603.964173 48.7 603.964173 50.9 
L 603.964173 220.958281 
Q 603.964173 223.158281 606.164173 223.158281 
z
" style="fill:#eaeaf2;opacity:0.8;stroke:#cccccc;stroke-linejoin:miter;"/>
    </g>
    <g id="line2d_68">
     <path d="M 608.364173 57.123594 
L 630.364173 57.123594 
" style="fill:none;stroke:#edd1cb;stroke-linecap:round;stroke-width:1.5;"/>
    </g>
    <g id="line2d_69"/>
    <g id="text_20">
     <!-- 0.05 -->
     <g style="fill:#262626;" transform="translate(639.164173 60.973594)scale(0.11 -0.11)">
      <use xlink:href="#ArialMT-30"/>
      <use x="55.615234" xlink:href="#ArialMT-2e"/>
      <use x="83.398438" xlink:href="#ArialMT-30"/>
      <use x="139.013672" xlink:href="#ArialMT-35"/>
     </g>
    </g>
    <g id="line2d_70">
     <path d="M 608.364173 72.683437 
L 630.364173 72.683437 
" style="fill:none;stroke:#e5bcbb;stroke-linecap:round;stroke-width:1.5;"/>
    </g>
    <g id="line2d_71"/>
    <g id="text_21">
     <!-- 1.05 -->
     <g style="fill:#262626;" transform="translate(639.164173 76.533437)scale(0.11 -0.11)">
      <use xlink:href="#ArialMT-31"/>
      <use x="55.615234" xlink:href="#ArialMT-2e"/>
      <use x="83.398438" xlink:href="#ArialMT-30"/>
      <use x="139.013672" xlink:href="#ArialMT-35"/>
     </g>
    </g>
    <g id="line2d_72">
     <path d="M 608.364173 88.243281 
L 630.364173 88.243281 
" style="fill:none;stroke:#daa4ac;stroke-linecap:round;stroke-width:1.5;"/>
    </g>
    <g id="line2d_73"/>
    <g id="text_22">
     <!-- 2.05 -->
     <g style="fill:#262626;" transform="translate(639.164173 92.093281)scale(0.11 -0.11)">
      <use xlink:href="#ArialMT-32"/>
      <use x="55.615234" xlink:href="#ArialMT-2e"/>
      <use x="83.398438" xlink:href="#ArialMT-30"/>
      <use x="139.013672" xlink:href="#ArialMT-35"/>
     </g>
    </g>
    <g id="line2d_74">
     <path d="M 608.364173 103.803125 
L 630.364173 103.803125 
" style="fill:none;stroke:#ce8fa2;stroke-linecap:round;stroke-width:1.5;"/>
    </g>
    <g id="line2d_75"/>
    <g id="text_23">
     <!-- 3.05 -->
     <g style="fill:#262626;" transform="translate(639.164173 107.653125)scale(0.11 -0.11)">
      <defs>
       <path d="M 269 1209 
L 831 1284 
Q 928 806 1161 595 
Q 1394 384 1728 384 
Q 2125 384 2398 659 
Q 2672 934 2672 1341 
Q 2672 1728 2419 1979 
Q 2166 2231 1775 2231 
Q 1616 2231 1378 2169 
L 1441 2663 
Q 1497 2656 1531 2656 
Q 1891 2656 2178 2843 
Q 2466 3031 2466 3422 
Q 2466 3731 2256 3934 
Q 2047 4138 1716 4138 
Q 1388 4138 1169 3931 
Q 950 3725 888 3313 
L 325 3413 
Q 428 3978 793 4289 
Q 1159 4600 1703 4600 
Q 2078 4600 2393 4439 
Q 2709 4278 2876 4000 
Q 3044 3722 3044 3409 
Q 3044 3113 2884 2869 
Q 2725 2625 2413 2481 
Q 2819 2388 3044 2092 
Q 3269 1797 3269 1353 
Q 3269 753 2831 336 
Q 2394 -81 1725 -81 
Q 1122 -81 723 278 
Q 325 638 269 1209 
z
" id="ArialMT-33" transform="scale(0.015625)"/>
      </defs>
      <use xlink:href="#ArialMT-33"/>
      <use x="55.615234" xlink:href="#ArialMT-2e"/>
      <use x="83.398438" xlink:href="#ArialMT-30"/>
      <use x="139.013672" xlink:href="#ArialMT-35"/>
     </g>
    </g>
    <g id="line2d_76">
     <path d="M 608.364173 119.362969 
L 630.364173 119.362969 
" style="fill:none;stroke:#bd7a98;stroke-linecap:round;stroke-width:1.5;"/>
    </g>
    <g id="line2d_77"/>
    <g id="text_24">
     <!-- 4.05 -->
     <g style="fill:#262626;" transform="translate(639.164173 123.212969)scale(0.11 -0.11)">
      <use xlink:href="#ArialMT-34"/>
      <use x="55.615234" xlink:href="#ArialMT-2e"/>
      <use x="83.398438" xlink:href="#ArialMT-30"/>
      <use x="139.013672" xlink:href="#ArialMT-35"/>
     </g>
    </g>
    <g id="line2d_78">
     <path d="M 608.364173 134.922812 
L 630.364173 134.922812 
" style="fill:none;stroke:#a9678f;stroke-linecap:round;stroke-width:1.5;"/>
    </g>
    <g id="line2d_79"/>
    <g id="text_25">
     <!-- 5.05 -->
     <g style="fill:#262626;" transform="translate(639.164173 138.772812)scale(0.11 -0.11)">
      <use xlink:href="#ArialMT-35"/>
      <use x="55.615234" xlink:href="#ArialMT-2e"/>
      <use x="83.398438" xlink:href="#ArialMT-30"/>
      <use x="139.013672" xlink:href="#ArialMT-35"/>
     </g>
    </g>
    <g id="line2d_80">
     <path d="M 608.364173 150.482656 
L 630.364173 150.482656 
" style="fill:none;stroke:#945785;stroke-linecap:round;stroke-width:1.5;"/>
    </g>
    <g id="line2d_81"/>
    <g id="text_26">
     <!-- 6.05 -->
     <g style="fill:#262626;" transform="translate(639.164173 154.332656)scale(0.11 -0.11)">
      <use xlink:href="#ArialMT-36"/>
      <use x="55.615234" xlink:href="#ArialMT-2e"/>
      <use x="83.398438" xlink:href="#ArialMT-30"/>
      <use x="139.013672" xlink:href="#ArialMT-35"/>
     </g>
    </g>
    <g id="line2d_82">
     <path d="M 608.364173 166.0425 
L 630.364173 166.0425 
" style="fill:none;stroke:#794678;stroke-linecap:round;stroke-width:1.5;"/>
    </g>
    <g id="line2d_83"/>
    <g id="text_27">
     <!-- 7.05 -->
     <g style="fill:#262626;" transform="translate(639.164173 169.8925)scale(0.11 -0.11)">
      <defs>
       <path d="M 303 3981 
L 303 4522 
L 3269 4522 
L 3269 4084 
Q 2831 3619 2401 2847 
Q 1972 2075 1738 1259 
Q 1569 684 1522 0 
L 944 0 
Q 953 541 1156 1306 
Q 1359 2072 1739 2783 
Q 2119 3494 2547 3981 
L 303 3981 
z
" id="ArialMT-37" transform="scale(0.015625)"/>
      </defs>
      <use xlink:href="#ArialMT-37"/>
      <use x="55.615234" xlink:href="#ArialMT-2e"/>
      <use x="83.398438" xlink:href="#ArialMT-30"/>
      <use x="139.013672" xlink:href="#ArialMT-35"/>
     </g>
    </g>
    <g id="line2d_84">
     <path d="M 608.364173 181.602344 
L 630.364173 181.602344 
" style="fill:none;stroke:#613969;stroke-linecap:round;stroke-width:1.5;"/>
    </g>
    <g id="line2d_85"/>
    <g id="text_28">
     <!-- 8.05 -->
     <g style="fill:#262626;" transform="translate(639.164173 185.452344)scale(0.11 -0.11)">
      <use xlink:href="#ArialMT-38"/>
      <use x="55.615234" xlink:href="#ArialMT-2e"/>
      <use x="83.398438" xlink:href="#ArialMT-30"/>
      <use x="139.013672" xlink:href="#ArialMT-35"/>
     </g>
    </g>
    <g id="line2d_86">
     <path d="M 608.364173 197.162187 
L 630.364173 197.162187 
" style="fill:none;stroke:#452b54;stroke-linecap:round;stroke-width:1.5;"/>
    </g>
    <g id="line2d_87"/>
    <g id="text_29">
     <!-- 9.05 -->
     <g style="fill:#262626;" transform="translate(639.164173 201.012187)scale(0.11 -0.11)">
      <defs>
       <path d="M 350 1059 
L 891 1109 
Q 959 728 1153 556 
Q 1347 384 1650 384 
Q 1909 384 2104 503 
Q 2300 622 2425 820 
Q 2550 1019 2634 1356 
Q 2719 1694 2719 2044 
Q 2719 2081 2716 2156 
Q 2547 1888 2255 1720 
Q 1963 1553 1622 1553 
Q 1053 1553 659 1965 
Q 266 2378 266 3053 
Q 266 3750 677 4175 
Q 1088 4600 1706 4600 
Q 2153 4600 2523 4359 
Q 2894 4119 3086 3673 
Q 3278 3228 3278 2384 
Q 3278 1506 3087 986 
Q 2897 466 2520 194 
Q 2144 -78 1638 -78 
Q 1100 -78 759 220 
Q 419 519 350 1059 
z
M 2653 3081 
Q 2653 3566 2395 3850 
Q 2138 4134 1775 4134 
Q 1400 4134 1122 3828 
Q 844 3522 844 3034 
Q 844 2597 1108 2323 
Q 1372 2050 1759 2050 
Q 2150 2050 2401 2323 
Q 2653 2597 2653 3081 
z
" id="ArialMT-39" transform="scale(0.015625)"/>
      </defs>
      <use xlink:href="#ArialMT-39"/>
      <use x="55.615234" xlink:href="#ArialMT-2e"/>
      <use x="83.398438" xlink:href="#ArialMT-30"/>
      <use x="139.013672" xlink:href="#ArialMT-35"/>
     </g>
    </g>
    <g id="line2d_88">
     <path d="M 608.364173 212.722031 
L 630.364173 212.722031 
" style="fill:none;stroke:#2d1e3e;stroke-linecap:round;stroke-width:1.5;"/>
    </g>
    <g id="line2d_89"/>
    <g id="text_30">
     <!-- 10.05 -->
     <g style="fill:#262626;" transform="translate(639.164173 216.572031)scale(0.11 -0.11)">
      <use xlink:href="#ArialMT-31"/>
      <use x="55.615234" xlink:href="#ArialMT-30"/>
      <use x="111.230469" xlink:href="#ArialMT-2e"/>
      <use x="139.013672" xlink:href="#ArialMT-30"/>
      <use x="194.628906" xlink:href="#ArialMT-35"/>
     </g>
    </g>
   </g>
  </g>
  <g id="axes_3">
   <g id="patch_14">
    <path d="M 725.823529 315 
L 972 315 
L 972 43.2 
L 725.823529 43.2 
z
" style="fill:#eaeaf2;"/>
   </g>
   <g id="matplotlib.axis_5">
    <g id="xtick_10">
     <g id="line2d_90">
      <path clip-path="url(#p6336980d61)" d="M 784.128483 315 
L 784.128483 43.2 
" style="fill:none;stroke:#ffffff;stroke-linecap:round;"/>
     </g>
     <g id="text_31">
      <!-- 5 -->
      <g style="fill:#262626;" transform="translate(781.069967 332.373594)scale(0.11 -0.11)">
       <use xlink:href="#ArialMT-35"/>
      </g>
     </g>
    </g>
    <g id="xtick_11">
     <g id="line2d_91">
      <path clip-path="url(#p6336980d61)" d="M 843.022375 315 
L 843.022375 43.2 
" style="fill:none;stroke:#ffffff;stroke-linecap:round;"/>
     </g>
     <g id="text_32">
      <!-- 10 -->
      <g style="fill:#262626;" transform="translate(836.905344 332.373594)scale(0.11 -0.11)">
       <use xlink:href="#ArialMT-31"/>
       <use x="55.615234" xlink:href="#ArialMT-30"/>
      </g>
     </g>
    </g>
    <g id="xtick_12">
     <g id="line2d_92">
      <path clip-path="url(#p6336980d61)" d="M 901.916268 315 
L 901.916268 43.2 
" style="fill:none;stroke:#ffffff;stroke-linecap:round;"/>
     </g>
     <g id="text_33">
      <!-- 15 -->
      <g style="fill:#262626;" transform="translate(895.799237 332.373594)scale(0.11 -0.11)">
       <use xlink:href="#ArialMT-31"/>
       <use x="55.615234" xlink:href="#ArialMT-35"/>
      </g>
     </g>
    </g>
    <g id="xtick_13">
     <g id="line2d_93">
      <path clip-path="url(#p6336980d61)" d="M 960.81016 315 
L 960.81016 43.2 
" style="fill:none;stroke:#ffffff;stroke-linecap:round;"/>
     </g>
     <g id="text_34">
      <!-- 20 -->
      <g style="fill:#262626;" transform="translate(954.693129 332.373594)scale(0.11 -0.11)">
       <use xlink:href="#ArialMT-32"/>
       <use x="55.615234" xlink:href="#ArialMT-30"/>
      </g>
     </g>
    </g>
    <g id="text_35">
     <!-- input -->
     <g style="fill:#262626;" transform="translate(835.902077 347.149219)scale(0.12 -0.12)">
      <use xlink:href="#ArialMT-69"/>
      <use x="22.216797" xlink:href="#ArialMT-6e"/>
      <use x="77.832031" xlink:href="#ArialMT-70"/>
      <use x="133.447266" xlink:href="#ArialMT-75"/>
      <use x="189.0625" xlink:href="#ArialMT-74"/>
     </g>
    </g>
   </g>
   <g id="matplotlib.axis_6">
    <g id="ytick_11">
     <g id="line2d_94">
      <path clip-path="url(#p6336980d61)" d="M 725.823529 302.645455 
L 972 302.645455 
" style="fill:none;stroke:#ffffff;stroke-linecap:round;"/>
     </g>
    </g>
    <g id="ytick_12">
     <g id="line2d_95">
      <path clip-path="url(#p6336980d61)" d="M 725.823529 247.429609 
L 972 247.429609 
" style="fill:none;stroke:#ffffff;stroke-linecap:round;"/>
     </g>
    </g>
    <g id="ytick_13">
     <g id="line2d_96">
      <path clip-path="url(#p6336980d61)" d="M 725.823529 192.213763 
L 972 192.213763 
" style="fill:none;stroke:#ffffff;stroke-linecap:round;"/>
     </g>
    </g>
    <g id="ytick_14">
     <g id="line2d_97">
      <path clip-path="url(#p6336980d61)" d="M 725.823529 136.997918 
L 972 136.997918 
" style="fill:none;stroke:#ffffff;stroke-linecap:round;"/>
     </g>
    </g>
    <g id="ytick_15">
     <g id="line2d_98">
      <path clip-path="url(#p6336980d61)" d="M 725.823529 81.782072 
L 972 81.782072 
" style="fill:none;stroke:#ffffff;stroke-linecap:round;"/>
     </g>
    </g>
   </g>
   <g id="line2d_99">
    <path clip-path="url(#p6336980d61)" d="M 737.013369 295.493143 
L 748.792147 285.479907 
L 760.570926 291.201756 
L 772.349704 289.771294 
L 784.128483 291.201756 
L 795.907261 288.340831 
L 807.68604 289.771294 
L 819.464818 284.049444 
L 831.243597 295.493143 
L 843.022375 292.632218 
L 854.801154 284.049444 
L 866.579932 286.910369 
L 878.358711 292.632218 
L 890.137489 282.618982 
L 901.916268 286.910369 
L 913.695046 282.618982 
L 925.473825 286.910369 
L 937.252603 289.771294 
L 949.031382 291.201756 
L 960.81016 289.771294 
" style="fill:none;stroke:#edd1cb;stroke-linecap:round;stroke-width:1.5;"/>
   </g>
   <g id="line2d_100">
    <path clip-path="url(#p6336980d61)" d="M 737.013369 278.821359 
L 748.792147 292.835533 
L 760.570926 290.032698 
L 772.349704 292.835533 
L 784.128483 287.229863 
L 795.907261 288.631281 
L 807.68604 298.441202 
L 819.464818 285.828446 
L 831.243597 297.039785 
L 843.022375 290.032698 
L 854.801154 290.032698 
L 866.579932 284.427028 
L 878.358711 292.835533 
L 890.137489 291.434115 
L 901.916268 287.229863 
L 913.695046 288.631281 
L 925.473825 283.025611 
L 937.252603 291.434115 
L 949.031382 283.025611 
L 960.81016 283.025611 
" style="fill:none;stroke:#e5bcbb;stroke-linecap:round;stroke-width:1.5;"/>
   </g>
   <g id="line2d_101">
    <path clip-path="url(#p6336980d61)" d="M 737.013369 282.409281 
L 748.792147 288.191045 
L 760.570926 295.41825 
L 772.349704 286.745604 
L 784.128483 288.191045 
L 795.907261 291.081927 
L 807.68604 291.081927 
L 819.464818 295.41825 
L 831.243597 289.636486 
L 843.022375 293.972809 
L 854.801154 296.863691 
L 866.579932 295.41825 
L 878.358711 289.636486 
L 890.137489 292.527368 
L 901.916268 291.081927 
L 913.695046 293.972809 
L 925.473825 282.409281 
L 937.252603 288.191045 
L 949.031382 280.96384 
L 960.81016 263.618548 
" style="fill:none;stroke:#daa4ac;stroke-linecap:round;stroke-width:1.5;"/>
   </g>
   <g id="line2d_102">
    <path clip-path="url(#p6336980d61)" d="M 737.013369 286.4055 
L 748.792147 298.216376 
L 760.570926 293.787297 
L 772.349704 289.358219 
L 784.128483 293.787297 
L 795.907261 296.740017 
L 807.68604 292.310938 
L 819.464818 286.4055 
L 831.243597 296.740017 
L 843.022375 295.263657 
L 854.801154 298.216376 
L 866.579932 296.740017 
L 878.358711 290.834578 
L 890.137489 295.263657 
L 901.916268 289.358219 
L 913.695046 284.92914 
L 925.473825 279.023702 
L 937.252603 276.070983 
L 949.031382 271.641905 
L 960.81016 265.736467 
" style="fill:none;stroke:#ce8fa2;stroke-linecap:round;stroke-width:1.5;"/>
   </g>
   <g id="line2d_103">
    <path clip-path="url(#p6336980d61)" d="M 737.013369 279.876034 
L 748.792147 299.799277 
L 760.570926 301.222366 
L 772.349704 296.953099 
L 784.128483 301.222366 
L 795.907261 298.376188 
L 807.68604 298.376188 
L 819.464818 299.799277 
L 831.243597 299.799277 
L 843.022375 294.106922 
L 854.801154 296.953099 
L 866.579932 295.530011 
L 878.358711 294.106922 
L 890.137489 295.530011 
L 901.916268 295.530011 
L 913.695046 275.606767 
L 925.473825 281.299122 
L 937.252603 282.722211 
L 949.031382 261.375879 
L 960.81016 228.644837 
" style="fill:none;stroke:#bd7a98;stroke-linecap:round;stroke-width:1.5;"/>
   </g>
   <g id="line2d_104">
    <path clip-path="url(#p6336980d61)" d="M 737.013369 291.490738 
L 748.792147 295.673757 
L 760.570926 302.645455 
L 772.349704 298.462436 
L 784.128483 299.856775 
L 795.907261 292.885078 
L 807.68604 299.856775 
L 819.464818 299.856775 
L 831.243597 302.645455 
L 843.022375 301.251115 
L 854.801154 299.856775 
L 866.579932 299.856775 
L 878.358711 297.068096 
L 890.137489 298.462436 
L 901.916268 290.096399 
L 913.695046 291.490738 
L 925.473825 292.885078 
L 937.252603 262.209608 
L 949.031382 241.294515 
L 960.81016 218.985082 
" style="fill:none;stroke:#a9678f;stroke-linecap:round;stroke-width:1.5;"/>
   </g>
   <g id="line2d_105">
    <path clip-path="url(#p6336980d61)" d="M 737.013369 286.229933 
L 748.792147 299.660814 
L 760.570926 295.183854 
L 772.349704 299.660814 
L 784.128483 301.153134 
L 795.907261 301.153134 
L 807.68604 298.168494 
L 819.464818 295.183854 
L 831.243597 301.153134 
L 843.022375 302.645455 
L 854.801154 295.183854 
L 866.579932 301.153134 
L 878.358711 299.660814 
L 890.137489 299.660814 
L 901.916268 295.183854 
L 913.695046 289.214573 
L 925.473825 289.214573 
L 937.252603 281.752972 
L 949.031382 256.38353 
L 960.81016 189.229123 
" style="fill:none;stroke:#945785;stroke-linecap:round;stroke-width:1.5;"/>
   </g>
   <g id="line2d_106">
    <path clip-path="url(#p6336980d61)" d="M 737.013369 288.114969 
L 748.792147 302.645455 
L 760.570926 299.739357 
L 772.349704 301.192406 
L 784.128483 302.645455 
L 795.907261 298.286309 
L 807.68604 301.192406 
L 819.464818 302.645455 
L 831.243597 301.192406 
L 843.022375 301.192406 
L 854.801154 299.739357 
L 866.579932 299.739357 
L 878.358711 298.286309 
L 890.137489 296.83326 
L 901.916268 298.286309 
L 913.695046 292.474115 
L 925.473825 291.021066 
L 937.252603 289.568017 
L 949.031382 240.164366 
L 960.81016 171.871083 
" style="fill:none;stroke:#794678;stroke-linecap:round;stroke-width:1.5;"/>
   </g>
   <g id="line2d_107">
    <path clip-path="url(#p6336980d61)" d="M 737.013369 294.19405 
L 748.792147 301.236887 
L 760.570926 302.645455 
L 772.349704 301.236887 
L 784.128483 302.645455 
L 795.907261 302.645455 
L 807.68604 301.236887 
L 819.464818 302.645455 
L 831.243597 301.236887 
L 843.022375 299.82832 
L 854.801154 302.645455 
L 866.579932 302.645455 
L 878.358711 299.82832 
L 890.137489 301.236887 
L 901.916268 299.82832 
L 913.695046 299.82832 
L 925.473825 292.785482 
L 937.252603 284.334077 
L 949.031382 249.11989 
L 960.81016 135.025923 
" style="fill:none;stroke:#613969;stroke-linecap:round;stroke-width:1.5;"/>
   </g>
   <g id="line2d_108">
    <path clip-path="url(#p6336980d61)" d="M 737.013369 301.200014 
L 748.792147 302.645455 
L 760.570926 301.200014 
L 772.349704 302.645455 
L 784.128483 302.645455 
L 795.907261 302.645455 
L 807.68604 299.754573 
L 819.464818 302.645455 
L 831.243597 302.645455 
L 843.022375 301.200014 
L 854.801154 301.200014 
L 866.579932 302.645455 
L 878.358711 299.754573 
L 890.137489 302.645455 
L 901.916268 299.754573 
L 913.695046 299.754573 
L 925.473825 299.754573 
L 937.252603 276.627517 
L 949.031382 256.391343 
L 960.81016 119.07445 
" style="fill:none;stroke:#452b54;stroke-linecap:round;stroke-width:1.5;"/>
   </g>
   <g id="line2d_109">
    <path clip-path="url(#p6336980d61)" d="M 737.013369 293.642871 
L 748.792147 302.645455 
L 760.570926 302.645455 
L 772.349704 302.645455 
L 784.128483 301.145024 
L 795.907261 302.645455 
L 807.68604 302.645455 
L 819.464818 302.645455 
L 831.243597 301.145024 
L 843.022375 302.645455 
L 854.801154 302.645455 
L 866.579932 302.645455 
L 878.358711 302.645455 
L 890.137489 302.645455 
L 901.916268 299.644593 
L 913.695046 298.144163 
L 925.473825 299.644593 
L 937.252603 284.640287 
L 949.031382 253.131245 
L 960.81016 116.592062 
" style="fill:none;stroke:#2d1e3e;stroke-linecap:round;stroke-width:1.5;"/>
   </g>
   <g id="line2d_110"/>
   <g id="line2d_111"/>
   <g id="line2d_112"/>
   <g id="line2d_113"/>
   <g id="line2d_114"/>
   <g id="patch_15">
    <path d="M 725.823529 315 
L 725.823529 43.2 
" style="fill:none;stroke:#ffffff;stroke-linecap:square;stroke-linejoin:miter;stroke-width:1.25;"/>
   </g>
   <g id="patch_16">
    <path d="M 972 315 
L 972 43.2 
" style="fill:none;stroke:#ffffff;stroke-linecap:square;stroke-linejoin:miter;stroke-width:1.25;"/>
   </g>
   <g id="patch_17">
    <path d="M 725.823529 315 
L 972 315 
" style="fill:none;stroke:#ffffff;stroke-linecap:square;stroke-linejoin:miter;stroke-width:1.25;"/>
   </g>
   <g id="patch_18">
    <path d="M 725.823529 43.2 
L 972 43.2 
" style="fill:none;stroke:#ffffff;stroke-linecap:square;stroke-linejoin:miter;stroke-width:1.25;"/>
   </g>
   <g id="text_36">
    <!-- PFR -->
    <g style="fill:#262626;" transform="translate(836.911765 37.2)scale(0.12 -0.12)">
     <defs>
      <path d="M 525 0 
L 525 4581 
L 3616 4581 
L 3616 4041 
L 1131 4041 
L 1131 2622 
L 3281 2622 
L 3281 2081 
L 1131 2081 
L 1131 0 
L 525 0 
z
" id="ArialMT-46" transform="scale(0.015625)"/>
     </defs>
     <use xlink:href="#ArialMT-50"/>
     <use x="66.699219" xlink:href="#ArialMT-46"/>
     <use x="127.783203" xlink:href="#ArialMT-52"/>
    </g>
   </g>
   <g id="legend_3">
    <g id="patch_19">
     <path d="M 959.9 57.5 
L 964.3 57.5 
Q 966.5 57.5 966.5 55.3 
L 966.5 50.9 
Q 966.5 48.7 964.3 48.7 
L 959.9 48.7 
Q 957.7 48.7 957.7 50.9 
L 957.7 55.3 
Q 957.7 57.5 959.9 57.5 
z
" style="fill:#eaeaf2;opacity:0.8;stroke:#cccccc;stroke-linejoin:miter;"/>
    </g>
   </g>
  </g>
  <g id="text_37">
   <!-- CHOICE SENSITIVITY -->
   <g style="fill:#262626;" transform="translate(465.9885 17.50725)scale(0.144 -0.144)">
    <defs>
     <path d="M 513 0 
L 513 4581 
L 1119 4581 
L 1119 2700 
L 3500 2700 
L 3500 4581 
L 4106 4581 
L 4106 0 
L 3500 0 
L 3500 2159 
L 1119 2159 
L 1119 0 
L 513 0 
z
" id="ArialMT-48" transform="scale(0.015625)"/>
     <path d="M 309 2231 
Q 309 3372 921 4017 
Q 1534 4663 2503 4663 
Q 3138 4663 3647 4359 
Q 4156 4056 4423 3514 
Q 4691 2972 4691 2284 
Q 4691 1588 4409 1038 
Q 4128 488 3612 205 
Q 3097 -78 2500 -78 
Q 1853 -78 1343 234 
Q 834 547 571 1087 
Q 309 1628 309 2231 
z
M 934 2222 
Q 934 1394 1379 917 
Q 1825 441 2497 441 
Q 3181 441 3623 922 
Q 4066 1403 4066 2288 
Q 4066 2847 3877 3264 
Q 3688 3681 3323 3911 
Q 2959 4141 2506 4141 
Q 1863 4141 1398 3698 
Q 934 3256 934 2222 
z
" id="ArialMT-4f" transform="scale(0.015625)"/>
     <path d="M 597 0 
L 597 4581 
L 1203 4581 
L 1203 0 
L 597 0 
z
" id="ArialMT-49" transform="scale(0.015625)"/>
     <path d="M 506 0 
L 506 4581 
L 3819 4581 
L 3819 4041 
L 1113 4041 
L 1113 2638 
L 3647 2638 
L 3647 2100 
L 1113 2100 
L 1113 541 
L 3925 541 
L 3925 0 
L 506 0 
z
" id="ArialMT-45" transform="scale(0.015625)"/>
     <path id="ArialMT-20" transform="scale(0.015625)"/>
     <path d="M 488 0 
L 488 4581 
L 1109 4581 
L 3516 984 
L 3516 4581 
L 4097 4581 
L 4097 0 
L 3475 0 
L 1069 3600 
L 1069 0 
L 488 0 
z
" id="ArialMT-4e" transform="scale(0.015625)"/>
     <path d="M 1659 0 
L 1659 4041 
L 150 4041 
L 150 4581 
L 3781 4581 
L 3781 4041 
L 2266 4041 
L 2266 0 
L 1659 0 
z
" id="ArialMT-54" transform="scale(0.015625)"/>
     <path d="M 1803 0 
L 28 4581 
L 684 4581 
L 1875 1253 
Q 2019 853 2116 503 
Q 2222 878 2363 1253 
L 3600 4581 
L 4219 4581 
L 2425 0 
L 1803 0 
z
" id="ArialMT-56" transform="scale(0.015625)"/>
     <path d="M 1784 0 
L 1784 1941 
L 19 4581 
L 756 4581 
L 1659 3200 
Q 1909 2813 2125 2425 
Q 2331 2784 2625 3234 
L 3513 4581 
L 4219 4581 
L 2391 1941 
L 2391 0 
L 1784 0 
z
" id="ArialMT-59" transform="scale(0.015625)"/>
    </defs>
    <use xlink:href="#ArialMT-43"/>
    <use x="72.216797" xlink:href="#ArialMT-48"/>
    <use x="144.433594" xlink:href="#ArialMT-4f"/>
    <use x="222.216797" xlink:href="#ArialMT-49"/>
    <use x="250" xlink:href="#ArialMT-43"/>
    <use x="322.216797" xlink:href="#ArialMT-45"/>
    <use x="388.916016" xlink:href="#ArialMT-20"/>
    <use x="416.699219" xlink:href="#ArialMT-53"/>
    <use x="483.398438" xlink:href="#ArialMT-45"/>
    <use x="550.097656" xlink:href="#ArialMT-4e"/>
    <use x="622.314453" xlink:href="#ArialMT-53"/>
    <use x="689.013672" xlink:href="#ArialMT-49"/>
    <use x="716.796875" xlink:href="#ArialMT-54"/>
    <use x="777.880859" xlink:href="#ArialMT-49"/>
    <use x="805.664062" xlink:href="#ArialMT-56"/>
    <use x="872.363281" xlink:href="#ArialMT-49"/>
    <use x="900.146484" xlink:href="#ArialMT-54"/>
    <use x="961.230469" xlink:href="#ArialMT-59"/>
   </g>
  </g>
 </g>
 <defs>
  <clipPath id="p5388444b3c">
   <rect height="271.8" width="246.176471" x="135" y="43.2"/>
  </clipPath>
  <clipPath id="p97e6991ba8">
   <rect height="271.8" width="246.176471" x="430.411765" y="43.2"/>
  </clipPath>
  <clipPath id="p6336980d61">
   <rect height="271.8" width="246.176471" x="725.823529" y="43.2"/>
  </clipPath>
 </defs>
</svg>
