<?xml version="1.0" encoding="utf-8" standalone="no"?>
<!DOCTYPE svg PUBLIC "-//W3C//DTD SVG 1.1//EN"
  "http://www.w3.org/Graphics/SVG/1.1/DTD/svg11.dtd">
<svg height="360pt" version="1.1" viewBox="0 0 1080 360" width="1080pt" xmlns="http://www.w3.org/2000/svg" xmlns:xlink="http://www.w3.org/1999/xlink">
 <metadata>
  <rdf:RDF xmlns:cc="http://creativecommons.org/ns#" xmlns:dc="http://purl.org/dc/elements/1.1/" xmlns:rdf="http://www.w3.org/1999/02/22-rdf-syntax-ns#">
   <cc:Work>
    <dc:type rdf:resource="http://purl.org/dc/dcmitype/StillImage"/>
    <dc:date>2021-06-30T09:43:10.090641</dc:date>
    <dc:format>image/svg+xml</dc:format>
    <dc:creator>
     <cc:Agent>
      <dc:title>Matplotlib v3.4.2, https://matplotlib.org/</dc:title>
     </cc:Agent>
    </dc:creator>
   </cc:Work>
  </rdf:RDF>
 </metadata>
 <defs>
  <style type="text/css">*{stroke-linecap:butt;stroke-linejoin:round;}</style>
 </defs>
 <g id="figure_1">
  <g id="patch_1">
   <path d="M 0 360 
L 1080 360 
L 1080 0 
L 0 0 
z
" style="fill:#ffffff;"/>
  </g>
  <g id="axes_1">
   <g id="patch_2">
    <path d="M 135 315 
L 381.176471 315 
L 381.176471 43.2 
L 135 43.2 
z
" style="fill:#eaeaf2;"/>
   </g>
   <g id="matplotlib.axis_1">
    <g id="xtick_1">
     <g id="line2d_1">
      <path clip-path="url(#p62b6c8e8ec)" d="M 193.304954 315 
L 193.304954 43.2 
" style="fill:none;stroke:#ffffff;stroke-linecap:round;"/>
     </g>
     <g id="text_1">
      <!-- 5 -->
      <g style="fill:#262626;" transform="translate(190.246438 332.373594)scale(0.11 -0.11)">
       <defs>
        <path d="M 266 1200 
L 856 1250 
Q 922 819 1161 601 
Q 1400 384 1738 384 
Q 2144 384 2425 690 
Q 2706 997 2706 1503 
Q 2706 1984 2436 2262 
Q 2166 2541 1728 2541 
Q 1456 2541 1237 2417 
Q 1019 2294 894 2097 
L 366 2166 
L 809 4519 
L 3088 4519 
L 3088 3981 
L 1259 3981 
L 1013 2750 
Q 1425 3038 1878 3038 
Q 2478 3038 2890 2622 
Q 3303 2206 3303 1553 
Q 3303 931 2941 478 
Q 2500 -78 1738 -78 
Q 1113 -78 717 272 
Q 322 622 266 1200 
z
" id="ArialMT-35" transform="scale(0.015625)"/>
       </defs>
       <use xlink:href="#ArialMT-35"/>
      </g>
     </g>
    </g>
    <g id="xtick_2">
     <g id="line2d_2">
      <path clip-path="url(#p62b6c8e8ec)" d="M 252.198846 315 
L 252.198846 43.2 
" style="fill:none;stroke:#ffffff;stroke-linecap:round;"/>
     </g>
     <g id="text_2">
      <!-- 10 -->
      <g style="fill:#262626;" transform="translate(246.081815 332.373594)scale(0.11 -0.11)">
       <defs>
        <path d="M 2384 0 
L 1822 0 
L 1822 3584 
Q 1619 3391 1289 3197 
Q 959 3003 697 2906 
L 697 3450 
Q 1169 3672 1522 3987 
Q 1875 4303 2022 4600 
L 2384 4600 
L 2384 0 
z
" id="ArialMT-31" transform="scale(0.015625)"/>
        <path d="M 266 2259 
Q 266 3072 433 3567 
Q 600 4063 929 4331 
Q 1259 4600 1759 4600 
Q 2128 4600 2406 4451 
Q 2684 4303 2865 4023 
Q 3047 3744 3150 3342 
Q 3253 2941 3253 2259 
Q 3253 1453 3087 958 
Q 2922 463 2592 192 
Q 2263 -78 1759 -78 
Q 1097 -78 719 397 
Q 266 969 266 2259 
z
M 844 2259 
Q 844 1131 1108 757 
Q 1372 384 1759 384 
Q 2147 384 2411 759 
Q 2675 1134 2675 2259 
Q 2675 3391 2411 3762 
Q 2147 4134 1753 4134 
Q 1366 4134 1134 3806 
Q 844 3388 844 2259 
z
" id="ArialMT-30" transform="scale(0.015625)"/>
       </defs>
       <use xlink:href="#ArialMT-31"/>
       <use x="55.615234" xlink:href="#ArialMT-30"/>
      </g>
     </g>
    </g>
    <g id="xtick_3">
     <g id="line2d_3">
      <path clip-path="url(#p62b6c8e8ec)" d="M 311.092739 315 
L 311.092739 43.2 
" style="fill:none;stroke:#ffffff;stroke-linecap:round;"/>
     </g>
     <g id="text_3">
      <!-- 15 -->
      <g style="fill:#262626;" transform="translate(304.975707 332.373594)scale(0.11 -0.11)">
       <use xlink:href="#ArialMT-31"/>
       <use x="55.615234" xlink:href="#ArialMT-35"/>
      </g>
     </g>
    </g>
    <g id="xtick_4">
     <g id="line2d_4">
      <path clip-path="url(#p62b6c8e8ec)" d="M 369.986631 315 
L 369.986631 43.2 
" style="fill:none;stroke:#ffffff;stroke-linecap:round;"/>
     </g>
     <g id="text_4">
      <!-- 20 -->
      <g style="fill:#262626;" transform="translate(363.8696 332.373594)scale(0.11 -0.11)">
       <defs>
        <path d="M 3222 541 
L 3222 0 
L 194 0 
Q 188 203 259 391 
Q 375 700 629 1000 
Q 884 1300 1366 1694 
Q 2113 2306 2375 2664 
Q 2638 3022 2638 3341 
Q 2638 3675 2398 3904 
Q 2159 4134 1775 4134 
Q 1369 4134 1125 3890 
Q 881 3647 878 3216 
L 300 3275 
Q 359 3922 746 4261 
Q 1134 4600 1788 4600 
Q 2447 4600 2831 4234 
Q 3216 3869 3216 3328 
Q 3216 3053 3103 2787 
Q 2991 2522 2730 2228 
Q 2469 1934 1863 1422 
Q 1356 997 1212 845 
Q 1069 694 975 541 
L 3222 541 
z
" id="ArialMT-32" transform="scale(0.015625)"/>
       </defs>
       <use xlink:href="#ArialMT-32"/>
       <use x="55.615234" xlink:href="#ArialMT-30"/>
      </g>
     </g>
    </g>
    <g id="text_5">
     <!-- input -->
     <g style="fill:#262626;" transform="translate(245.078548 347.149219)scale(0.12 -0.12)">
      <defs>
       <path d="M 425 3934 
L 425 4581 
L 988 4581 
L 988 3934 
L 425 3934 
z
M 425 0 
L 425 3319 
L 988 3319 
L 988 0 
L 425 0 
z
" id="ArialMT-69" transform="scale(0.015625)"/>
       <path d="M 422 0 
L 422 3319 
L 928 3319 
L 928 2847 
Q 1294 3394 1984 3394 
Q 2284 3394 2536 3286 
Q 2788 3178 2913 3003 
Q 3038 2828 3088 2588 
Q 3119 2431 3119 2041 
L 3119 0 
L 2556 0 
L 2556 2019 
Q 2556 2363 2490 2533 
Q 2425 2703 2258 2804 
Q 2091 2906 1866 2906 
Q 1506 2906 1245 2678 
Q 984 2450 984 1813 
L 984 0 
L 422 0 
z
" id="ArialMT-6e" transform="scale(0.015625)"/>
       <path d="M 422 -1272 
L 422 3319 
L 934 3319 
L 934 2888 
Q 1116 3141 1344 3267 
Q 1572 3394 1897 3394 
Q 2322 3394 2647 3175 
Q 2972 2956 3137 2557 
Q 3303 2159 3303 1684 
Q 3303 1175 3120 767 
Q 2938 359 2589 142 
Q 2241 -75 1856 -75 
Q 1575 -75 1351 44 
Q 1128 163 984 344 
L 984 -1272 
L 422 -1272 
z
M 931 1641 
Q 931 1000 1190 694 
Q 1450 388 1819 388 
Q 2194 388 2461 705 
Q 2728 1022 2728 1688 
Q 2728 2322 2467 2637 
Q 2206 2953 1844 2953 
Q 1484 2953 1207 2617 
Q 931 2281 931 1641 
z
" id="ArialMT-70" transform="scale(0.015625)"/>
       <path d="M 2597 0 
L 2597 488 
Q 2209 -75 1544 -75 
Q 1250 -75 995 37 
Q 741 150 617 320 
Q 494 491 444 738 
Q 409 903 409 1263 
L 409 3319 
L 972 3319 
L 972 1478 
Q 972 1038 1006 884 
Q 1059 663 1231 536 
Q 1403 409 1656 409 
Q 1909 409 2131 539 
Q 2353 669 2445 892 
Q 2538 1116 2538 1541 
L 2538 3319 
L 3100 3319 
L 3100 0 
L 2597 0 
z
" id="ArialMT-75" transform="scale(0.015625)"/>
       <path d="M 1650 503 
L 1731 6 
Q 1494 -44 1306 -44 
Q 1000 -44 831 53 
Q 663 150 594 308 
Q 525 466 525 972 
L 525 2881 
L 113 2881 
L 113 3319 
L 525 3319 
L 525 4141 
L 1084 4478 
L 1084 3319 
L 1650 3319 
L 1650 2881 
L 1084 2881 
L 1084 941 
Q 1084 700 1114 631 
Q 1144 563 1211 522 
Q 1278 481 1403 481 
Q 1497 481 1650 503 
z
" id="ArialMT-74" transform="scale(0.015625)"/>
      </defs>
      <use xlink:href="#ArialMT-69"/>
      <use x="22.216797" xlink:href="#ArialMT-6e"/>
      <use x="77.832031" xlink:href="#ArialMT-70"/>
      <use x="133.447266" xlink:href="#ArialMT-75"/>
      <use x="189.0625" xlink:href="#ArialMT-74"/>
     </g>
    </g>
   </g>
   <g id="matplotlib.axis_2">
    <g id="ytick_1">
     <g id="line2d_5">
      <path clip-path="url(#p62b6c8e8ec)" d="M 135 302.645455 
L 381.176471 302.645455 
" style="fill:none;stroke:#ffffff;stroke-linecap:round;"/>
     </g>
     <g id="text_6">
      <!-- 0.0 -->
      <g style="fill:#262626;" transform="translate(110.21 306.582251)scale(0.11 -0.11)">
       <defs>
        <path d="M 581 0 
L 581 641 
L 1222 641 
L 1222 0 
L 581 0 
z
" id="ArialMT-2e" transform="scale(0.015625)"/>
       </defs>
       <use xlink:href="#ArialMT-30"/>
       <use x="55.615234" xlink:href="#ArialMT-2e"/>
       <use x="83.398438" xlink:href="#ArialMT-30"/>
      </g>
     </g>
    </g>
    <g id="ytick_2">
     <g id="line2d_6">
      <path clip-path="url(#p62b6c8e8ec)" d="M 135 252.218738 
L 381.176471 252.218738 
" style="fill:none;stroke:#ffffff;stroke-linecap:round;"/>
     </g>
     <g id="text_7">
      <!-- 0.2 -->
      <g style="fill:#262626;" transform="translate(110.21 256.155535)scale(0.11 -0.11)">
       <use xlink:href="#ArialMT-30"/>
       <use x="55.615234" xlink:href="#ArialMT-2e"/>
       <use x="83.398438" xlink:href="#ArialMT-32"/>
      </g>
     </g>
    </g>
    <g id="ytick_3">
     <g id="line2d_7">
      <path clip-path="url(#p62b6c8e8ec)" d="M 135 201.792022 
L 381.176471 201.792022 
" style="fill:none;stroke:#ffffff;stroke-linecap:round;"/>
     </g>
     <g id="text_8">
      <!-- 0.4 -->
      <g style="fill:#262626;" transform="translate(110.21 205.728819)scale(0.11 -0.11)">
       <defs>
        <path d="M 2069 0 
L 2069 1097 
L 81 1097 
L 81 1613 
L 2172 4581 
L 2631 4581 
L 2631 1613 
L 3250 1613 
L 3250 1097 
L 2631 1097 
L 2631 0 
L 2069 0 
z
M 2069 1613 
L 2069 3678 
L 634 1613 
L 2069 1613 
z
" id="ArialMT-34" transform="scale(0.015625)"/>
       </defs>
       <use xlink:href="#ArialMT-30"/>
       <use x="55.615234" xlink:href="#ArialMT-2e"/>
       <use x="83.398438" xlink:href="#ArialMT-34"/>
      </g>
     </g>
    </g>
    <g id="ytick_4">
     <g id="line2d_8">
      <path clip-path="url(#p62b6c8e8ec)" d="M 135 151.365306 
L 381.176471 151.365306 
" style="fill:none;stroke:#ffffff;stroke-linecap:round;"/>
     </g>
     <g id="text_9">
      <!-- 0.6 -->
      <g style="fill:#262626;" transform="translate(110.21 155.302103)scale(0.11 -0.11)">
       <defs>
        <path d="M 3184 3459 
L 2625 3416 
Q 2550 3747 2413 3897 
Q 2184 4138 1850 4138 
Q 1581 4138 1378 3988 
Q 1113 3794 959 3422 
Q 806 3050 800 2363 
Q 1003 2672 1297 2822 
Q 1591 2972 1913 2972 
Q 2475 2972 2870 2558 
Q 3266 2144 3266 1488 
Q 3266 1056 3080 686 
Q 2894 316 2569 119 
Q 2244 -78 1831 -78 
Q 1128 -78 684 439 
Q 241 956 241 2144 
Q 241 3472 731 4075 
Q 1159 4600 1884 4600 
Q 2425 4600 2770 4297 
Q 3116 3994 3184 3459 
z
M 888 1484 
Q 888 1194 1011 928 
Q 1134 663 1356 523 
Q 1578 384 1822 384 
Q 2178 384 2434 671 
Q 2691 959 2691 1453 
Q 2691 1928 2437 2201 
Q 2184 2475 1800 2475 
Q 1419 2475 1153 2201 
Q 888 1928 888 1484 
z
" id="ArialMT-36" transform="scale(0.015625)"/>
       </defs>
       <use xlink:href="#ArialMT-30"/>
       <use x="55.615234" xlink:href="#ArialMT-2e"/>
       <use x="83.398438" xlink:href="#ArialMT-36"/>
      </g>
     </g>
    </g>
    <g id="ytick_5">
     <g id="line2d_9">
      <path clip-path="url(#p62b6c8e8ec)" d="M 135 100.93859 
L 381.176471 100.93859 
" style="fill:none;stroke:#ffffff;stroke-linecap:round;"/>
     </g>
     <g id="text_10">
      <!-- 0.8 -->
      <g style="fill:#262626;" transform="translate(110.21 104.875387)scale(0.11 -0.11)">
       <defs>
        <path d="M 1131 2484 
Q 781 2613 612 2850 
Q 444 3088 444 3419 
Q 444 3919 803 4259 
Q 1163 4600 1759 4600 
Q 2359 4600 2725 4251 
Q 3091 3903 3091 3403 
Q 3091 3084 2923 2848 
Q 2756 2613 2416 2484 
Q 2838 2347 3058 2040 
Q 3278 1734 3278 1309 
Q 3278 722 2862 322 
Q 2447 -78 1769 -78 
Q 1091 -78 675 323 
Q 259 725 259 1325 
Q 259 1772 486 2073 
Q 713 2375 1131 2484 
z
M 1019 3438 
Q 1019 3113 1228 2906 
Q 1438 2700 1772 2700 
Q 2097 2700 2305 2904 
Q 2513 3109 2513 3406 
Q 2513 3716 2298 3927 
Q 2084 4138 1766 4138 
Q 1444 4138 1231 3931 
Q 1019 3725 1019 3438 
z
M 838 1322 
Q 838 1081 952 856 
Q 1066 631 1291 507 
Q 1516 384 1775 384 
Q 2178 384 2440 643 
Q 2703 903 2703 1303 
Q 2703 1709 2433 1975 
Q 2163 2241 1756 2241 
Q 1359 2241 1098 1978 
Q 838 1716 838 1322 
z
" id="ArialMT-38" transform="scale(0.015625)"/>
       </defs>
       <use xlink:href="#ArialMT-30"/>
       <use x="55.615234" xlink:href="#ArialMT-2e"/>
       <use x="83.398438" xlink:href="#ArialMT-38"/>
      </g>
     </g>
    </g>
    <g id="ytick_6">
     <g id="line2d_10">
      <path clip-path="url(#p62b6c8e8ec)" d="M 135 50.511874 
L 381.176471 50.511874 
" style="fill:none;stroke:#ffffff;stroke-linecap:round;"/>
     </g>
     <g id="text_11">
      <!-- 1.0 -->
      <g style="fill:#262626;" transform="translate(110.21 54.448671)scale(0.11 -0.11)">
       <use xlink:href="#ArialMT-31"/>
       <use x="55.615234" xlink:href="#ArialMT-2e"/>
       <use x="83.398438" xlink:href="#ArialMT-30"/>
      </g>
     </g>
    </g>
    <g id="text_12">
     <!-- recall -->
     <g style="fill:#262626;" transform="translate(103.825 193.437187)rotate(-90)scale(0.12 -0.12)">
      <defs>
       <path d="M 416 0 
L 416 3319 
L 922 3319 
L 922 2816 
Q 1116 3169 1280 3281 
Q 1444 3394 1641 3394 
Q 1925 3394 2219 3213 
L 2025 2691 
Q 1819 2813 1613 2813 
Q 1428 2813 1281 2702 
Q 1134 2591 1072 2394 
Q 978 2094 978 1738 
L 978 0 
L 416 0 
z
" id="ArialMT-72" transform="scale(0.015625)"/>
       <path d="M 2694 1069 
L 3275 997 
Q 3138 488 2766 206 
Q 2394 -75 1816 -75 
Q 1088 -75 661 373 
Q 234 822 234 1631 
Q 234 2469 665 2931 
Q 1097 3394 1784 3394 
Q 2450 3394 2872 2941 
Q 3294 2488 3294 1666 
Q 3294 1616 3291 1516 
L 816 1516 
Q 847 969 1125 678 
Q 1403 388 1819 388 
Q 2128 388 2347 550 
Q 2566 713 2694 1069 
z
M 847 1978 
L 2700 1978 
Q 2663 2397 2488 2606 
Q 2219 2931 1791 2931 
Q 1403 2931 1139 2672 
Q 875 2413 847 1978 
z
" id="ArialMT-65" transform="scale(0.015625)"/>
       <path d="M 2588 1216 
L 3141 1144 
Q 3050 572 2676 248 
Q 2303 -75 1759 -75 
Q 1078 -75 664 370 
Q 250 816 250 1647 
Q 250 2184 428 2587 
Q 606 2991 970 3192 
Q 1334 3394 1763 3394 
Q 2303 3394 2647 3120 
Q 2991 2847 3088 2344 
L 2541 2259 
Q 2463 2594 2264 2762 
Q 2066 2931 1784 2931 
Q 1359 2931 1093 2626 
Q 828 2322 828 1663 
Q 828 994 1084 691 
Q 1341 388 1753 388 
Q 2084 388 2306 591 
Q 2528 794 2588 1216 
z
" id="ArialMT-63" transform="scale(0.015625)"/>
       <path d="M 2588 409 
Q 2275 144 1986 34 
Q 1697 -75 1366 -75 
Q 819 -75 525 192 
Q 231 459 231 875 
Q 231 1119 342 1320 
Q 453 1522 633 1644 
Q 813 1766 1038 1828 
Q 1203 1872 1538 1913 
Q 2219 1994 2541 2106 
Q 2544 2222 2544 2253 
Q 2544 2597 2384 2738 
Q 2169 2928 1744 2928 
Q 1347 2928 1158 2789 
Q 969 2650 878 2297 
L 328 2372 
Q 403 2725 575 2942 
Q 747 3159 1072 3276 
Q 1397 3394 1825 3394 
Q 2250 3394 2515 3294 
Q 2781 3194 2906 3042 
Q 3031 2891 3081 2659 
Q 3109 2516 3109 2141 
L 3109 1391 
Q 3109 606 3145 398 
Q 3181 191 3288 0 
L 2700 0 
Q 2613 175 2588 409 
z
M 2541 1666 
Q 2234 1541 1622 1453 
Q 1275 1403 1131 1340 
Q 988 1278 909 1158 
Q 831 1038 831 891 
Q 831 666 1001 516 
Q 1172 366 1500 366 
Q 1825 366 2078 508 
Q 2331 650 2450 897 
Q 2541 1088 2541 1459 
L 2541 1666 
z
" id="ArialMT-61" transform="scale(0.015625)"/>
       <path d="M 409 0 
L 409 4581 
L 972 4581 
L 972 0 
L 409 0 
z
" id="ArialMT-6c" transform="scale(0.015625)"/>
      </defs>
      <use xlink:href="#ArialMT-72"/>
      <use x="33.300781" xlink:href="#ArialMT-65"/>
      <use x="88.916016" xlink:href="#ArialMT-63"/>
      <use x="138.916016" xlink:href="#ArialMT-61"/>
      <use x="194.53125" xlink:href="#ArialMT-6c"/>
      <use x="216.748047" xlink:href="#ArialMT-6c"/>
     </g>
    </g>
   </g>
   <g id="line2d_11">
    <path clip-path="url(#p62b6c8e8ec)" d="M 146.18984 63.118553 
L 157.968618 259.782746 
L 169.747397 254.740074 
L 181.526175 239.612059 
L 193.304954 252.218738 
L 205.083732 257.26141 
L 216.862511 247.176067 
L 228.641289 229.526716 
L 240.420068 244.654731 
L 252.198846 229.526716 
L 263.977625 259.782746 
L 275.756403 252.218738 
L 287.535182 234.569388 
L 299.31396 242.133395 
L 311.092739 229.526716 
L 322.871517 239.612059 
L 334.650296 232.048052 
L 346.429074 244.654731 
L 358.207853 234.569388 
L 369.986631 227.00538 
" style="fill:none;stroke:#edd1cb;stroke-linecap:round;stroke-width:1.5;"/>
   </g>
   <g id="line2d_12">
    <path clip-path="url(#p62b6c8e8ec)" d="M 146.18984 55.554545 
L 157.968618 237.090724 
L 169.747397 259.782746 
L 181.526175 274.910761 
L 193.304954 264.825417 
L 205.083732 249.697403 
L 216.862511 247.176067 
L 228.641289 249.697403 
L 240.420068 247.176067 
L 252.198846 242.133395 
L 263.977625 237.090724 
L 275.756403 224.484045 
L 287.535182 229.526716 
L 299.31396 224.484045 
L 311.092739 219.441373 
L 322.871517 244.654731 
L 334.650296 232.048052 
L 346.429074 234.569388 
L 358.207853 224.484045 
L 369.986631 199.270686 
" style="fill:none;stroke:#e3b5b7;stroke-linecap:round;stroke-width:1.5;"/>
   </g>
   <g id="line2d_13">
    <path clip-path="url(#p62b6c8e8ec)" d="M 146.18984 63.118553 
L 157.968618 252.218738 
L 169.747397 267.346753 
L 181.526175 242.133395 
L 193.304954 257.26141 
L 205.083732 244.654731 
L 216.862511 262.304082 
L 228.641289 237.090724 
L 240.420068 249.697403 
L 252.198846 232.048052 
L 263.977625 239.612059 
L 275.756403 221.962709 
L 287.535182 214.398701 
L 299.31396 219.441373 
L 311.092739 227.00538 
L 322.871517 234.569388 
L 334.650296 224.484045 
L 346.429074 189.185343 
L 358.207853 221.962709 
L 369.986631 204.313358 
" style="fill:none;stroke:#d499a7;stroke-linecap:round;stroke-width:1.5;"/>
   </g>
   <g id="line2d_14">
    <path clip-path="url(#p62b6c8e8ec)" d="M 146.18984 118.587941 
L 157.968618 274.910761 
L 169.747397 254.740074 
L 181.526175 257.26141 
L 193.304954 254.740074 
L 205.083732 242.133395 
L 216.862511 254.740074 
L 228.641289 234.569388 
L 240.420068 244.654731 
L 252.198846 249.697403 
L 263.977625 247.176067 
L 275.756403 239.612059 
L 287.535182 227.00538 
L 299.31396 234.569388 
L 311.092739 214.398701 
L 322.871517 216.920037 
L 334.650296 201.792022 
L 346.429074 214.398701 
L 358.207853 191.706679 
L 369.986631 181.621336 
" style="fill:none;stroke:#c27f9a;stroke-linecap:round;stroke-width:1.5;"/>
   </g>
   <g id="line2d_15">
    <path clip-path="url(#p62b6c8e8ec)" d="M 146.18984 176.578664 
L 157.968618 262.304082 
L 169.747397 267.346753 
L 181.526175 257.26141 
L 193.304954 259.782746 
L 205.083732 257.26141 
L 216.862511 252.218738 
L 228.641289 257.26141 
L 240.420068 264.825417 
L 252.198846 239.612059 
L 263.977625 232.048052 
L 275.756403 244.654731 
L 287.535182 219.441373 
L 299.31396 234.569388 
L 311.092739 227.00538 
L 322.871517 224.484045 
L 334.650296 214.398701 
L 346.429074 227.00538 
L 358.207853 204.313358 
L 369.986631 204.313358 
" style="fill:none;stroke:#a9678f;stroke-linecap:round;stroke-width:1.5;"/>
   </g>
   <g id="line2d_16">
    <path clip-path="url(#p62b6c8e8ec)" d="M 146.18984 191.706679 
L 157.968618 269.868089 
L 169.747397 259.782746 
L 181.526175 242.133395 
L 193.304954 237.090724 
L 205.083732 259.782746 
L 216.862511 257.26141 
L 228.641289 244.654731 
L 240.420068 244.654731 
L 252.198846 249.697403 
L 263.977625 214.398701 
L 275.756403 224.484045 
L 287.535182 239.612059 
L 299.31396 227.00538 
L 311.092739 224.484045 
L 322.871517 224.484045 
L 334.650296 199.270686 
L 346.429074 194.228015 
L 358.207853 184.142672 
L 369.986631 156.407978 
" style="fill:none;stroke:#8d5282;stroke-linecap:round;stroke-width:1.5;"/>
   </g>
   <g id="line2d_17">
    <path clip-path="url(#p62b6c8e8ec)" d="M 146.18984 232.048052 
L 157.968618 269.868089 
L 169.747397 257.26141 
L 181.526175 254.740074 
L 193.304954 264.825417 
L 205.083732 259.782746 
L 216.862511 244.654731 
L 228.641289 262.304082 
L 240.420068 252.218738 
L 252.198846 247.176067 
L 263.977625 259.782746 
L 275.756403 254.740074 
L 287.535182 244.654731 
L 299.31396 234.569388 
L 311.092739 227.00538 
L 322.871517 204.313358 
L 334.650296 209.35603 
L 346.429074 196.749351 
L 358.207853 156.407978 
L 369.986631 126.151948 
" style="fill:none;stroke:#6c3f70;stroke-linecap:round;stroke-width:1.5;"/>
   </g>
   <g id="line2d_18">
    <path clip-path="url(#p62b6c8e8ec)" d="M 146.18984 234.569388 
L 157.968618 257.26141 
L 169.747397 252.218738 
L 181.526175 244.654731 
L 193.304954 252.218738 
L 205.083732 257.26141 
L 216.862511 242.133395 
L 228.641289 249.697403 
L 240.420068 249.697403 
L 252.198846 252.218738 
L 263.977625 244.654731 
L 275.756403 244.654731 
L 287.535182 237.090724 
L 299.31396 249.697403 
L 311.092739 214.398701 
L 322.871517 219.441373 
L 334.650296 214.398701 
L 346.429074 189.185343 
L 358.207853 163.971985 
L 369.986631 116.066605 
" style="fill:none;stroke:#4c2e5a;stroke-linecap:round;stroke-width:1.5;"/>
   </g>
   <g id="line2d_19">
    <path clip-path="url(#p62b6c8e8ec)" d="M 146.18984 214.398701 
L 157.968618 229.526716 
L 169.747397 221.962709 
L 181.526175 227.00538 
L 193.304954 252.218738 
L 205.083732 254.740074 
L 216.862511 252.218738 
L 228.641289 249.697403 
L 240.420068 252.218738 
L 252.198846 239.612059 
L 263.977625 244.654731 
L 275.756403 247.176067 
L 287.535182 247.176067 
L 299.31396 219.441373 
L 311.092739 237.090724 
L 322.871517 229.526716 
L 334.650296 242.133395 
L 346.429074 216.920037 
L 358.207853 189.185343 
L 369.986631 85.810575 
" style="fill:none;stroke:#2d1e3e;stroke-linecap:round;stroke-width:1.5;"/>
   </g>
   <g id="line2d_20"/>
   <g id="line2d_21"/>
   <g id="line2d_22"/>
   <g id="line2d_23"/>
   <g id="line2d_24"/>
   <g id="patch_3">
    <path d="M 135 315 
L 135 43.2 
" style="fill:none;stroke:#ffffff;stroke-linecap:square;stroke-linejoin:miter;stroke-width:1.25;"/>
   </g>
   <g id="patch_4">
    <path d="M 381.176471 315 
L 381.176471 43.2 
" style="fill:none;stroke:#ffffff;stroke-linecap:square;stroke-linejoin:miter;stroke-width:1.25;"/>
   </g>
   <g id="patch_5">
    <path d="M 135 315 
L 381.176471 315 
" style="fill:none;stroke:#ffffff;stroke-linecap:square;stroke-linejoin:miter;stroke-width:1.25;"/>
   </g>
   <g id="patch_6">
    <path d="M 135 43.2 
L 381.176471 43.2 
" style="fill:none;stroke:#ffffff;stroke-linecap:square;stroke-linejoin:miter;stroke-width:1.25;"/>
   </g>
   <g id="text_13">
    <!-- SPC -->
    <g style="fill:#262626;" transform="translate(245.750735 37.2)scale(0.12 -0.12)">
     <defs>
      <path d="M 288 1472 
L 859 1522 
Q 900 1178 1048 958 
Q 1197 738 1509 602 
Q 1822 466 2213 466 
Q 2559 466 2825 569 
Q 3091 672 3220 851 
Q 3350 1031 3350 1244 
Q 3350 1459 3225 1620 
Q 3100 1781 2813 1891 
Q 2628 1963 1997 2114 
Q 1366 2266 1113 2400 
Q 784 2572 623 2826 
Q 463 3081 463 3397 
Q 463 3744 659 4045 
Q 856 4347 1234 4503 
Q 1613 4659 2075 4659 
Q 2584 4659 2973 4495 
Q 3363 4331 3572 4012 
Q 3781 3694 3797 3291 
L 3216 3247 
Q 3169 3681 2898 3903 
Q 2628 4125 2100 4125 
Q 1550 4125 1298 3923 
Q 1047 3722 1047 3438 
Q 1047 3191 1225 3031 
Q 1400 2872 2139 2705 
Q 2878 2538 3153 2413 
Q 3553 2228 3743 1945 
Q 3934 1663 3934 1294 
Q 3934 928 3725 604 
Q 3516 281 3123 101 
Q 2731 -78 2241 -78 
Q 1619 -78 1198 103 
Q 778 284 539 648 
Q 300 1013 288 1472 
z
" id="ArialMT-53" transform="scale(0.015625)"/>
      <path d="M 494 0 
L 494 4581 
L 2222 4581 
Q 2678 4581 2919 4538 
Q 3256 4481 3484 4323 
Q 3713 4166 3852 3881 
Q 3991 3597 3991 3256 
Q 3991 2672 3619 2267 
Q 3247 1863 2275 1863 
L 1100 1863 
L 1100 0 
L 494 0 
z
M 1100 2403 
L 2284 2403 
Q 2872 2403 3119 2622 
Q 3366 2841 3366 3238 
Q 3366 3525 3220 3729 
Q 3075 3934 2838 4000 
Q 2684 4041 2272 4041 
L 1100 4041 
L 1100 2403 
z
" id="ArialMT-50" transform="scale(0.015625)"/>
      <path d="M 3763 1606 
L 4369 1453 
Q 4178 706 3683 314 
Q 3188 -78 2472 -78 
Q 1731 -78 1267 223 
Q 803 525 561 1097 
Q 319 1669 319 2325 
Q 319 3041 592 3573 
Q 866 4106 1370 4382 
Q 1875 4659 2481 4659 
Q 3169 4659 3637 4309 
Q 4106 3959 4291 3325 
L 3694 3184 
Q 3534 3684 3231 3912 
Q 2928 4141 2469 4141 
Q 1941 4141 1586 3887 
Q 1231 3634 1087 3207 
Q 944 2781 944 2328 
Q 944 1744 1114 1308 
Q 1284 872 1643 656 
Q 2003 441 2422 441 
Q 2931 441 3284 734 
Q 3638 1028 3763 1606 
z
" id="ArialMT-43" transform="scale(0.015625)"/>
     </defs>
     <use xlink:href="#ArialMT-53"/>
     <use x="66.699219" xlink:href="#ArialMT-50"/>
     <use x="133.398438" xlink:href="#ArialMT-43"/>
    </g>
   </g>
   <g id="legend_1">
    <g id="patch_7">
     <path d="M 369.076471 57.5 
L 373.476471 57.5 
Q 375.676471 57.5 375.676471 55.3 
L 375.676471 50.9 
Q 375.676471 48.7 373.476471 48.7 
L 369.076471 48.7 
Q 366.876471 48.7 366.876471 50.9 
L 366.876471 55.3 
Q 366.876471 57.5 369.076471 57.5 
z
" style="fill:#eaeaf2;opacity:0.8;stroke:#cccccc;stroke-linejoin:miter;"/>
    </g>
   </g>
  </g>
  <g id="axes_2">
   <g id="patch_8">
    <path d="M 430.411765 315 
L 676.588235 315 
L 676.588235 43.2 
L 430.411765 43.2 
z
" style="fill:#eaeaf2;"/>
   </g>
   <g id="matplotlib.axis_3">
    <g id="xtick_5">
     <g id="line2d_25">
      <path clip-path="url(#p7bc88029a7)" d="M 441.601604 315 
L 441.601604 43.2 
" style="fill:none;stroke:#ffffff;stroke-linecap:round;"/>
     </g>
     <g id="text_14">
      <!-- −10 -->
      <g style="fill:#262626;" transform="translate(432.272229 332.373594)scale(0.11 -0.11)">
       <defs>
        <path d="M 3381 1997 
L 356 1997 
L 356 2522 
L 3381 2522 
L 3381 1997 
z
" id="ArialMT-2212" transform="scale(0.015625)"/>
       </defs>
       <use xlink:href="#ArialMT-2212"/>
       <use x="58.398438" xlink:href="#ArialMT-31"/>
       <use x="114.013672" xlink:href="#ArialMT-30"/>
      </g>
     </g>
    </g>
    <g id="xtick_6">
     <g id="line2d_26">
      <path clip-path="url(#p7bc88029a7)" d="M 497.550802 315 
L 497.550802 43.2 
" style="fill:none;stroke:#ffffff;stroke-linecap:round;"/>
     </g>
     <g id="text_15">
      <!-- −5 -->
      <g style="fill:#262626;" transform="translate(491.279943 332.373594)scale(0.11 -0.11)">
       <use xlink:href="#ArialMT-2212"/>
       <use x="58.398438" xlink:href="#ArialMT-35"/>
      </g>
     </g>
    </g>
    <g id="xtick_7">
     <g id="line2d_27">
      <path clip-path="url(#p7bc88029a7)" d="M 553.5 315 
L 553.5 43.2 
" style="fill:none;stroke:#ffffff;stroke-linecap:round;"/>
     </g>
     <g id="text_16">
      <!-- 0 -->
      <g style="fill:#262626;" transform="translate(550.441484 332.373594)scale(0.11 -0.11)">
       <use xlink:href="#ArialMT-30"/>
      </g>
     </g>
    </g>
    <g id="xtick_8">
     <g id="line2d_28">
      <path clip-path="url(#p7bc88029a7)" d="M 609.449198 315 
L 609.449198 43.2 
" style="fill:none;stroke:#ffffff;stroke-linecap:round;"/>
     </g>
     <g id="text_17">
      <!-- 5 -->
      <g style="fill:#262626;" transform="translate(606.390682 332.373594)scale(0.11 -0.11)">
       <use xlink:href="#ArialMT-35"/>
      </g>
     </g>
    </g>
    <g id="xtick_9">
     <g id="line2d_29">
      <path clip-path="url(#p7bc88029a7)" d="M 665.398396 315 
L 665.398396 43.2 
" style="fill:none;stroke:#ffffff;stroke-linecap:round;"/>
     </g>
     <g id="text_18">
      <!-- 10 -->
      <g style="fill:#262626;" transform="translate(659.281364 332.373594)scale(0.11 -0.11)">
       <use xlink:href="#ArialMT-31"/>
       <use x="55.615234" xlink:href="#ArialMT-30"/>
      </g>
     </g>
    </g>
    <g id="text_19">
     <!-- lag -->
     <g style="fill:#262626;" transform="translate(545.49375 347.149219)scale(0.12 -0.12)">
      <defs>
       <path d="M 319 -275 
L 866 -356 
Q 900 -609 1056 -725 
Q 1266 -881 1628 -881 
Q 2019 -881 2231 -725 
Q 2444 -569 2519 -288 
Q 2563 -116 2559 434 
Q 2191 0 1641 0 
Q 956 0 581 494 
Q 206 988 206 1678 
Q 206 2153 378 2554 
Q 550 2956 876 3175 
Q 1203 3394 1644 3394 
Q 2231 3394 2613 2919 
L 2613 3319 
L 3131 3319 
L 3131 450 
Q 3131 -325 2973 -648 
Q 2816 -972 2473 -1159 
Q 2131 -1347 1631 -1347 
Q 1038 -1347 672 -1080 
Q 306 -813 319 -275 
z
M 784 1719 
Q 784 1066 1043 766 
Q 1303 466 1694 466 
Q 2081 466 2343 764 
Q 2606 1063 2606 1700 
Q 2606 2309 2336 2618 
Q 2066 2928 1684 2928 
Q 1309 2928 1046 2623 
Q 784 2319 784 1719 
z
" id="ArialMT-67" transform="scale(0.015625)"/>
      </defs>
      <use xlink:href="#ArialMT-6c"/>
      <use x="22.216797" xlink:href="#ArialMT-61"/>
      <use x="77.832031" xlink:href="#ArialMT-67"/>
     </g>
    </g>
   </g>
   <g id="matplotlib.axis_4">
    <g id="ytick_7">
     <g id="line2d_30">
      <path clip-path="url(#p7bc88029a7)" d="M 430.411765 302.645455 
L 676.588235 302.645455 
" style="fill:none;stroke:#ffffff;stroke-linecap:round;"/>
     </g>
    </g>
    <g id="ytick_8">
     <g id="line2d_31">
      <path clip-path="url(#p7bc88029a7)" d="M 430.411765 252.218738 
L 676.588235 252.218738 
" style="fill:none;stroke:#ffffff;stroke-linecap:round;"/>
     </g>
    </g>
    <g id="ytick_9">
     <g id="line2d_32">
      <path clip-path="url(#p7bc88029a7)" d="M 430.411765 201.792022 
L 676.588235 201.792022 
" style="fill:none;stroke:#ffffff;stroke-linecap:round;"/>
     </g>
    </g>
    <g id="ytick_10">
     <g id="line2d_33">
      <path clip-path="url(#p7bc88029a7)" d="M 430.411765 151.365306 
L 676.588235 151.365306 
" style="fill:none;stroke:#ffffff;stroke-linecap:round;"/>
     </g>
    </g>
    <g id="ytick_11">
     <g id="line2d_34">
      <path clip-path="url(#p7bc88029a7)" d="M 430.411765 100.93859 
L 676.588235 100.93859 
" style="fill:none;stroke:#ffffff;stroke-linecap:round;"/>
     </g>
    </g>
    <g id="ytick_12">
     <g id="line2d_35">
      <path clip-path="url(#p7bc88029a7)" d="M 430.411765 50.511874 
L 676.588235 50.511874 
" style="fill:none;stroke:#ffffff;stroke-linecap:round;"/>
     </g>
    </g>
   </g>
   <g id="line2d_36">
    <path clip-path="url(#p7bc88029a7)" d="M 441.601604 279.474845 
L 452.791444 285.781257 
L 463.981283 276.462352 
L 475.171123 291.072234 
L 486.360963 291.88279 
L 497.550802 292.592027 
L 508.740642 290.51751 
L 519.930481 289.434705 
L 531.120321 290.602037 
L 542.31016 285.102827 
" style="fill:none;stroke:#edd1cb;stroke-linecap:round;stroke-width:1.5;"/>
   </g>
   <g id="line2d_37">
    <path clip-path="url(#p7bc88029a7)" d="M 441.601604 289.34727 
L 452.791444 290.756229 
L 463.981283 279.891936 
L 475.171123 292.790233 
L 486.360963 290.86064 
L 497.550802 288.901702 
L 508.740642 289.224226 
L 519.930481 294.115354 
L 531.120321 282.262563 
L 542.31016 295.487011 
" style="fill:none;stroke:#e3b5b7;stroke-linecap:round;stroke-width:1.5;"/>
   </g>
   <g id="line2d_38">
    <path clip-path="url(#p7bc88029a7)" d="M 441.601604 290.713207 
L 452.791444 292.510673 
L 463.981283 288.319683 
L 475.171123 292.812659 
L 486.360963 289.165279 
L 497.550802 286.1834 
L 508.740642 291.374648 
L 519.930481 291.58245 
L 531.120321 283.847583 
L 542.31016 289.51762 
" style="fill:none;stroke:#d499a7;stroke-linecap:round;stroke-width:1.5;"/>
   </g>
   <g id="line2d_39">
    <path clip-path="url(#p7bc88029a7)" d="M 441.601604 292.189915 
L 452.791444 291.658911 
L 463.981283 295.94308 
L 475.171123 292.189915 
L 486.360963 296.359771 
L 497.550802 293.720959 
L 508.740642 290.291182 
L 519.930481 288.561588 
L 531.120321 282.285229 
L 542.31016 288.048957 
" style="fill:none;stroke:#c27f9a;stroke-linecap:round;stroke-width:1.5;"/>
   </g>
   <g id="line2d_40">
    <path clip-path="url(#p7bc88029a7)" d="M 441.601604 291.28388 
L 452.791444 295.663978 
L 463.981283 291.755539 
L 475.171123 289.912202 
L 486.360963 288.187795 
L 497.550802 291.444226 
L 508.740642 295.16242 
L 519.930481 286.932479 
L 531.120321 282.562722 
L 542.31016 281.780912 
" style="fill:none;stroke:#a9678f;stroke-linecap:round;stroke-width:1.5;"/>
   </g>
   <g id="line2d_41">
    <path clip-path="url(#p7bc88029a7)" d="M 441.601604 290.429892 
L 452.791444 289.895518 
L 463.981283 291.025662 
L 475.171123 296.365204 
L 486.360963 296.292638 
L 497.550802 289.890345 
L 508.740642 291.60554 
L 519.930481 296.025643 
L 531.120321 289.403656 
L 542.31016 284.1922 
" style="fill:none;stroke:#8d5282;stroke-linecap:round;stroke-width:1.5;"/>
   </g>
   <g id="line2d_42">
    <path clip-path="url(#p7bc88029a7)" d="M 441.601604 291.246312 
L 452.791444 292.999435 
L 463.981283 296.649019 
L 475.171123 298.915388 
L 486.360963 291.999814 
L 497.550802 294.86221 
L 508.740642 287.643958 
L 519.930481 288.373058 
L 531.120321 287.514858 
L 542.31016 278.200245 
" style="fill:none;stroke:#6c3f70;stroke-linecap:round;stroke-width:1.5;"/>
   </g>
   <g id="line2d_43">
    <path clip-path="url(#p7bc88029a7)" d="M 441.601604 294.949517 
L 452.791444 292.250292 
L 463.981283 297.573 
L 475.171123 296.148909 
L 486.360963 292.619453 
L 497.550802 294.927572 
L 508.740642 289.234901 
L 519.930481 292.029485 
L 531.120321 281.538818 
L 542.31016 283.660396 
" style="fill:none;stroke:#4c2e5a;stroke-linecap:round;stroke-width:1.5;"/>
   </g>
   <g id="line2d_44">
    <path clip-path="url(#p7bc88029a7)" d="M 441.601604 296.696235 
L 452.791444 292.979659 
L 463.981283 299.890662 
L 475.171123 292.105426 
L 486.360963 295.941903 
L 497.550802 293.225079 
L 508.740642 291.374648 
L 519.930481 288.446723 
L 531.120321 286.753518 
L 542.31016 272.992382 
" style="fill:none;stroke:#2d1e3e;stroke-linecap:round;stroke-width:1.5;"/>
   </g>
   <g id="line2d_45"/>
   <g id="line2d_46"/>
   <g id="line2d_47"/>
   <g id="line2d_48"/>
   <g id="line2d_49"/>
   <g id="line2d_50">
    <path clip-path="url(#p7bc88029a7)" d="M 564.68984 282.361882 
L 575.879679 287.706018 
L 587.069519 288.564081 
L 598.259358 285.715833 
L 609.449198 285.03395 
L 620.639037 291.568934 
L 631.828877 292.870711 
L 643.018717 289.144824 
L 654.208556 283.389601 
L 665.398396 286.476018 
" style="fill:none;stroke:#edd1cb;stroke-linecap:round;stroke-width:1.5;"/>
   </g>
   <g id="line2d_51">
    <path clip-path="url(#p7bc88029a7)" d="M 564.68984 283.13189 
L 575.879679 285.355649 
L 587.069519 284.919935 
L 598.259358 287.869884 
L 609.449198 289.218986 
L 620.639037 292.885445 
L 631.828877 284.229246 
L 643.018717 288.050625 
L 654.208556 294.647669 
L 665.398396 279.600987 
" style="fill:none;stroke:#e3b5b7;stroke-linecap:round;stroke-width:1.5;"/>
   </g>
   <g id="line2d_52">
    <path clip-path="url(#p7bc88029a7)" d="M 564.68984 286.398549 
L 575.879679 281.605584 
L 587.069519 278.693403 
L 598.259358 288.312054 
L 609.449198 287.166286 
L 620.639037 288.596707 
L 631.828877 286.978458 
L 643.018717 286.483046 
L 654.208556 289.207566 
L 665.398396 294.333358 
" style="fill:none;stroke:#d499a7;stroke-linecap:round;stroke-width:1.5;"/>
   </g>
   <g id="line2d_53">
    <path clip-path="url(#p7bc88029a7)" d="M 564.68984 273.873068 
L 575.879679 277.662218 
L 587.069519 270.975342 
L 598.259358 280.851886 
L 609.449198 292.824521 
L 620.639037 284.967854 
L 631.828877 289.388431 
L 643.018717 292.039836 
L 654.208556 285.940308 
L 665.398396 286.752419 
" style="fill:none;stroke:#c27f9a;stroke-linecap:round;stroke-width:1.5;"/>
   </g>
   <g id="line2d_54">
    <path clip-path="url(#p7bc88029a7)" d="M 564.68984 258.230063 
L 575.879679 271.12643 
L 587.069519 282.382912 
L 598.259358 279.254749 
L 609.449198 284.680937 
L 620.639037 286.359493 
L 631.828877 291.127352 
L 643.018717 288.618305 
L 654.208556 284.983924 
L 665.398396 286.837079 
" style="fill:none;stroke:#a9678f;stroke-linecap:round;stroke-width:1.5;"/>
   </g>
   <g id="line2d_55">
    <path clip-path="url(#p7bc88029a7)" d="M 564.68984 246.906246 
L 575.879679 269.069601 
L 587.069519 273.981917 
L 598.259358 283.88034 
L 609.449198 277.333221 
L 620.639037 290.747585 
L 631.828877 285.251429 
L 643.018717 279.888661 
L 654.208556 285.136178 
L 665.398396 282.947519 
" style="fill:none;stroke:#8d5282;stroke-linecap:round;stroke-width:1.5;"/>
   </g>
   <g id="line2d_56">
    <path clip-path="url(#p7bc88029a7)" d="M 564.68984 216.235938 
L 575.879679 261.78333 
L 587.069519 280.423425 
L 598.259358 280.030876 
L 609.449198 282.407335 
L 620.639037 293.000639 
L 631.828877 291.003221 
L 643.018717 285.423215 
L 654.208556 293.09494 
L 665.398396 277.514493 
" style="fill:none;stroke:#6c3f70;stroke-linecap:round;stroke-width:1.5;"/>
   </g>
   <g id="line2d_57">
    <path clip-path="url(#p7bc88029a7)" d="M 564.68984 203.606937 
L 575.879679 267.723249 
L 587.069519 284.521929 
L 598.259358 290.646992 
L 609.449198 288.903039 
L 620.639037 294.05561 
L 631.828877 287.624063 
L 643.018717 286.256772 
L 654.208556 290.445443 
L 665.398396 298.893467 
" style="fill:none;stroke:#4c2e5a;stroke-linecap:round;stroke-width:1.5;"/>
   </g>
   <g id="line2d_58">
    <path clip-path="url(#p7bc88029a7)" d="M 564.68984 212.863797 
L 575.879679 281.719553 
L 587.069519 291.46738 
L 598.259358 291.39519 
L 609.449198 297.624613 
L 620.639037 282.786284 
L 631.828877 296.831415 
L 643.018717 291.556246 
L 654.208556 285.897451 
L 665.398396 285.770889 
" style="fill:none;stroke:#2d1e3e;stroke-linecap:round;stroke-width:1.5;"/>
   </g>
   <g id="line2d_59"/>
   <g id="line2d_60"/>
   <g id="line2d_61"/>
   <g id="line2d_62"/>
   <g id="line2d_63"/>
   <g id="patch_9">
    <path d="M 430.411765 315 
L 430.411765 43.2 
" style="fill:none;stroke:#ffffff;stroke-linecap:square;stroke-linejoin:miter;stroke-width:1.25;"/>
   </g>
   <g id="patch_10">
    <path d="M 676.588235 315 
L 676.588235 43.2 
" style="fill:none;stroke:#ffffff;stroke-linecap:square;stroke-linejoin:miter;stroke-width:1.25;"/>
   </g>
   <g id="patch_11">
    <path d="M 430.411765 315 
L 676.588235 315 
" style="fill:none;stroke:#ffffff;stroke-linecap:square;stroke-linejoin:miter;stroke-width:1.25;"/>
   </g>
   <g id="patch_12">
    <path d="M 430.411765 43.2 
L 676.588235 43.2 
" style="fill:none;stroke:#ffffff;stroke-linecap:square;stroke-linejoin:miter;stroke-width:1.25;"/>
   </g>
   <g id="text_20">
    <!-- Lag-CRP -->
    <g style="fill:#262626;" transform="translate(528.824062 37.2)scale(0.12 -0.12)">
     <defs>
      <path d="M 469 0 
L 469 4581 
L 1075 4581 
L 1075 541 
L 3331 541 
L 3331 0 
L 469 0 
z
" id="ArialMT-4c" transform="scale(0.015625)"/>
      <path d="M 203 1375 
L 203 1941 
L 1931 1941 
L 1931 1375 
L 203 1375 
z
" id="ArialMT-2d" transform="scale(0.015625)"/>
      <path d="M 503 0 
L 503 4581 
L 2534 4581 
Q 3147 4581 3465 4457 
Q 3784 4334 3975 4021 
Q 4166 3709 4166 3331 
Q 4166 2844 3850 2509 
Q 3534 2175 2875 2084 
Q 3116 1969 3241 1856 
Q 3506 1613 3744 1247 
L 4541 0 
L 3778 0 
L 3172 953 
Q 2906 1366 2734 1584 
Q 2563 1803 2427 1890 
Q 2291 1978 2150 2013 
Q 2047 2034 1813 2034 
L 1109 2034 
L 1109 0 
L 503 0 
z
M 1109 2559 
L 2413 2559 
Q 2828 2559 3062 2645 
Q 3297 2731 3419 2920 
Q 3541 3109 3541 3331 
Q 3541 3656 3305 3865 
Q 3069 4075 2559 4075 
L 1109 4075 
L 1109 2559 
z
" id="ArialMT-52" transform="scale(0.015625)"/>
     </defs>
     <use xlink:href="#ArialMT-4c"/>
     <use x="55.615234" xlink:href="#ArialMT-61"/>
     <use x="111.230469" xlink:href="#ArialMT-67"/>
     <use x="166.845703" xlink:href="#ArialMT-2d"/>
     <use x="200.146484" xlink:href="#ArialMT-43"/>
     <use x="272.363281" xlink:href="#ArialMT-52"/>
     <use x="344.580078" xlink:href="#ArialMT-50"/>
    </g>
   </g>
   <g id="legend_2">
    <g id="patch_13">
     <path d="M 618.398235 192.038594 
L 668.888235 192.038594 
Q 671.088235 192.038594 671.088235 189.838594 
L 671.088235 50.9 
Q 671.088235 48.7 668.888235 48.7 
L 618.398235 48.7 
Q 616.198235 48.7 616.198235 50.9 
L 616.198235 189.838594 
Q 616.198235 192.038594 618.398235 192.038594 
z
" style="fill:#eaeaf2;opacity:0.8;stroke:#cccccc;stroke-linejoin:miter;"/>
    </g>
    <g id="line2d_64">
     <path d="M 620.598235 57.123594 
L 642.598235 57.123594 
" style="fill:none;stroke:#edd1cb;stroke-linecap:round;stroke-width:1.5;"/>
    </g>
    <g id="line2d_65"/>
    <g id="text_21">
     <!-- 0.1 -->
     <g style="fill:#262626;" transform="translate(651.398235 60.973594)scale(0.11 -0.11)">
      <use xlink:href="#ArialMT-30"/>
      <use x="55.615234" xlink:href="#ArialMT-2e"/>
      <use x="83.398438" xlink:href="#ArialMT-31"/>
     </g>
    </g>
    <g id="line2d_66">
     <path d="M 620.598235 72.683437 
L 642.598235 72.683437 
" style="fill:none;stroke:#e3b5b7;stroke-linecap:round;stroke-width:1.5;"/>
    </g>
    <g id="line2d_67"/>
    <g id="text_22">
     <!-- 0.2 -->
     <g style="fill:#262626;" transform="translate(651.398235 76.533437)scale(0.11 -0.11)">
      <use xlink:href="#ArialMT-30"/>
      <use x="55.615234" xlink:href="#ArialMT-2e"/>
      <use x="83.398438" xlink:href="#ArialMT-32"/>
     </g>
    </g>
    <g id="line2d_68">
     <path d="M 620.598235 88.243281 
L 642.598235 88.243281 
" style="fill:none;stroke:#d499a7;stroke-linecap:round;stroke-width:1.5;"/>
    </g>
    <g id="line2d_69"/>
    <g id="text_23">
     <!-- 0.3 -->
     <g style="fill:#262626;" transform="translate(651.398235 92.093281)scale(0.11 -0.11)">
      <defs>
       <path d="M 269 1209 
L 831 1284 
Q 928 806 1161 595 
Q 1394 384 1728 384 
Q 2125 384 2398 659 
Q 2672 934 2672 1341 
Q 2672 1728 2419 1979 
Q 2166 2231 1775 2231 
Q 1616 2231 1378 2169 
L 1441 2663 
Q 1497 2656 1531 2656 
Q 1891 2656 2178 2843 
Q 2466 3031 2466 3422 
Q 2466 3731 2256 3934 
Q 2047 4138 1716 4138 
Q 1388 4138 1169 3931 
Q 950 3725 888 3313 
L 325 3413 
Q 428 3978 793 4289 
Q 1159 4600 1703 4600 
Q 2078 4600 2393 4439 
Q 2709 4278 2876 4000 
Q 3044 3722 3044 3409 
Q 3044 3113 2884 2869 
Q 2725 2625 2413 2481 
Q 2819 2388 3044 2092 
Q 3269 1797 3269 1353 
Q 3269 753 2831 336 
Q 2394 -81 1725 -81 
Q 1122 -81 723 278 
Q 325 638 269 1209 
z
" id="ArialMT-33" transform="scale(0.015625)"/>
      </defs>
      <use xlink:href="#ArialMT-30"/>
      <use x="55.615234" xlink:href="#ArialMT-2e"/>
      <use x="83.398438" xlink:href="#ArialMT-33"/>
     </g>
    </g>
    <g id="line2d_70">
     <path d="M 620.598235 103.803125 
L 642.598235 103.803125 
" style="fill:none;stroke:#c27f9a;stroke-linecap:round;stroke-width:1.5;"/>
    </g>
    <g id="line2d_71"/>
    <g id="text_24">
     <!-- 0.4 -->
     <g style="fill:#262626;" transform="translate(651.398235 107.653125)scale(0.11 -0.11)">
      <use xlink:href="#ArialMT-30"/>
      <use x="55.615234" xlink:href="#ArialMT-2e"/>
      <use x="83.398438" xlink:href="#ArialMT-34"/>
     </g>
    </g>
    <g id="line2d_72">
     <path d="M 620.598235 119.362969 
L 642.598235 119.362969 
" style="fill:none;stroke:#a9678f;stroke-linecap:round;stroke-width:1.5;"/>
    </g>
    <g id="line2d_73"/>
    <g id="text_25">
     <!-- 0.5 -->
     <g style="fill:#262626;" transform="translate(651.398235 123.212969)scale(0.11 -0.11)">
      <use xlink:href="#ArialMT-30"/>
      <use x="55.615234" xlink:href="#ArialMT-2e"/>
      <use x="83.398438" xlink:href="#ArialMT-35"/>
     </g>
    </g>
    <g id="line2d_74">
     <path d="M 620.598235 134.922812 
L 642.598235 134.922812 
" style="fill:none;stroke:#8d5282;stroke-linecap:round;stroke-width:1.5;"/>
    </g>
    <g id="line2d_75"/>
    <g id="text_26">
     <!-- 0.6 -->
     <g style="fill:#262626;" transform="translate(651.398235 138.772812)scale(0.11 -0.11)">
      <use xlink:href="#ArialMT-30"/>
      <use x="55.615234" xlink:href="#ArialMT-2e"/>
      <use x="83.398438" xlink:href="#ArialMT-36"/>
     </g>
    </g>
    <g id="line2d_76">
     <path d="M 620.598235 150.482656 
L 642.598235 150.482656 
" style="fill:none;stroke:#6c3f70;stroke-linecap:round;stroke-width:1.5;"/>
    </g>
    <g id="line2d_77"/>
    <g id="text_27">
     <!-- 0.7 -->
     <g style="fill:#262626;" transform="translate(651.398235 154.332656)scale(0.11 -0.11)">
      <defs>
       <path d="M 303 3981 
L 303 4522 
L 3269 4522 
L 3269 4084 
Q 2831 3619 2401 2847 
Q 1972 2075 1738 1259 
Q 1569 684 1522 0 
L 944 0 
Q 953 541 1156 1306 
Q 1359 2072 1739 2783 
Q 2119 3494 2547 3981 
L 303 3981 
z
" id="ArialMT-37" transform="scale(0.015625)"/>
      </defs>
      <use xlink:href="#ArialMT-30"/>
      <use x="55.615234" xlink:href="#ArialMT-2e"/>
      <use x="83.398438" xlink:href="#ArialMT-37"/>
     </g>
    </g>
    <g id="line2d_78">
     <path d="M 620.598235 166.0425 
L 642.598235 166.0425 
" style="fill:none;stroke:#4c2e5a;stroke-linecap:round;stroke-width:1.5;"/>
    </g>
    <g id="line2d_79"/>
    <g id="text_28">
     <!-- 0.8 -->
     <g style="fill:#262626;" transform="translate(651.398235 169.8925)scale(0.11 -0.11)">
      <use xlink:href="#ArialMT-30"/>
      <use x="55.615234" xlink:href="#ArialMT-2e"/>
      <use x="83.398438" xlink:href="#ArialMT-38"/>
     </g>
    </g>
    <g id="line2d_80">
     <path d="M 620.598235 181.602344 
L 642.598235 181.602344 
" style="fill:none;stroke:#2d1e3e;stroke-linecap:round;stroke-width:1.5;"/>
    </g>
    <g id="line2d_81"/>
    <g id="text_29">
     <!-- 0.9 -->
     <g style="fill:#262626;" transform="translate(651.398235 185.452344)scale(0.11 -0.11)">
      <defs>
       <path d="M 350 1059 
L 891 1109 
Q 959 728 1153 556 
Q 1347 384 1650 384 
Q 1909 384 2104 503 
Q 2300 622 2425 820 
Q 2550 1019 2634 1356 
Q 2719 1694 2719 2044 
Q 2719 2081 2716 2156 
Q 2547 1888 2255 1720 
Q 1963 1553 1622 1553 
Q 1053 1553 659 1965 
Q 266 2378 266 3053 
Q 266 3750 677 4175 
Q 1088 4600 1706 4600 
Q 2153 4600 2523 4359 
Q 2894 4119 3086 3673 
Q 3278 3228 3278 2384 
Q 3278 1506 3087 986 
Q 2897 466 2520 194 
Q 2144 -78 1638 -78 
Q 1100 -78 759 220 
Q 419 519 350 1059 
z
M 2653 3081 
Q 2653 3566 2395 3850 
Q 2138 4134 1775 4134 
Q 1400 4134 1122 3828 
Q 844 3522 844 3034 
Q 844 2597 1108 2323 
Q 1372 2050 1759 2050 
Q 2150 2050 2401 2323 
Q 2653 2597 2653 3081 
z
" id="ArialMT-39" transform="scale(0.015625)"/>
      </defs>
      <use xlink:href="#ArialMT-30"/>
      <use x="55.615234" xlink:href="#ArialMT-2e"/>
      <use x="83.398438" xlink:href="#ArialMT-39"/>
     </g>
    </g>
   </g>
  </g>
  <g id="axes_3">
   <g id="patch_14">
    <path d="M 725.823529 315 
L 972 315 
L 972 43.2 
L 725.823529 43.2 
z
" style="fill:#eaeaf2;"/>
   </g>
   <g id="matplotlib.axis_5">
    <g id="xtick_10">
     <g id="line2d_82">
      <path clip-path="url(#pe5712fabcb)" d="M 784.128483 315 
L 784.128483 43.2 
" style="fill:none;stroke:#ffffff;stroke-linecap:round;"/>
     </g>
     <g id="text_30">
      <!-- 5 -->
      <g style="fill:#262626;" transform="translate(781.069967 332.373594)scale(0.11 -0.11)">
       <use xlink:href="#ArialMT-35"/>
      </g>
     </g>
    </g>
    <g id="xtick_11">
     <g id="line2d_83">
      <path clip-path="url(#pe5712fabcb)" d="M 843.022375 315 
L 843.022375 43.2 
" style="fill:none;stroke:#ffffff;stroke-linecap:round;"/>
     </g>
     <g id="text_31">
      <!-- 10 -->
      <g style="fill:#262626;" transform="translate(836.905344 332.373594)scale(0.11 -0.11)">
       <use xlink:href="#ArialMT-31"/>
       <use x="55.615234" xlink:href="#ArialMT-30"/>
      </g>
     </g>
    </g>
    <g id="xtick_12">
     <g id="line2d_84">
      <path clip-path="url(#pe5712fabcb)" d="M 901.916268 315 
L 901.916268 43.2 
" style="fill:none;stroke:#ffffff;stroke-linecap:round;"/>
     </g>
     <g id="text_32">
      <!-- 15 -->
      <g style="fill:#262626;" transform="translate(895.799237 332.373594)scale(0.11 -0.11)">
       <use xlink:href="#ArialMT-31"/>
       <use x="55.615234" xlink:href="#ArialMT-35"/>
      </g>
     </g>
    </g>
    <g id="xtick_13">
     <g id="line2d_85">
      <path clip-path="url(#pe5712fabcb)" d="M 960.81016 315 
L 960.81016 43.2 
" style="fill:none;stroke:#ffffff;stroke-linecap:round;"/>
     </g>
     <g id="text_33">
      <!-- 20 -->
      <g style="fill:#262626;" transform="translate(954.693129 332.373594)scale(0.11 -0.11)">
       <use xlink:href="#ArialMT-32"/>
       <use x="55.615234" xlink:href="#ArialMT-30"/>
      </g>
     </g>
    </g>
    <g id="text_34">
     <!-- input -->
     <g style="fill:#262626;" transform="translate(835.902077 347.149219)scale(0.12 -0.12)">
      <use xlink:href="#ArialMT-69"/>
      <use x="22.216797" xlink:href="#ArialMT-6e"/>
      <use x="77.832031" xlink:href="#ArialMT-70"/>
      <use x="133.447266" xlink:href="#ArialMT-75"/>
      <use x="189.0625" xlink:href="#ArialMT-74"/>
     </g>
    </g>
   </g>
   <g id="matplotlib.axis_6">
    <g id="ytick_13">
     <g id="line2d_86">
      <path clip-path="url(#pe5712fabcb)" d="M 725.823529 302.645455 
L 972 302.645455 
" style="fill:none;stroke:#ffffff;stroke-linecap:round;"/>
     </g>
    </g>
    <g id="ytick_14">
     <g id="line2d_87">
      <path clip-path="url(#pe5712fabcb)" d="M 725.823529 252.218738 
L 972 252.218738 
" style="fill:none;stroke:#ffffff;stroke-linecap:round;"/>
     </g>
    </g>
    <g id="ytick_15">
     <g id="line2d_88">
      <path clip-path="url(#pe5712fabcb)" d="M 725.823529 201.792022 
L 972 201.792022 
" style="fill:none;stroke:#ffffff;stroke-linecap:round;"/>
     </g>
    </g>
    <g id="ytick_16">
     <g id="line2d_89">
      <path clip-path="url(#pe5712fabcb)" d="M 725.823529 151.365306 
L 972 151.365306 
" style="fill:none;stroke:#ffffff;stroke-linecap:round;"/>
     </g>
    </g>
    <g id="ytick_17">
     <g id="line2d_90">
      <path clip-path="url(#pe5712fabcb)" d="M 725.823529 100.93859 
L 972 100.93859 
" style="fill:none;stroke:#ffffff;stroke-linecap:round;"/>
     </g>
    </g>
    <g id="ytick_18">
     <g id="line2d_91">
      <path clip-path="url(#pe5712fabcb)" d="M 725.823529 50.511874 
L 972 50.511874 
" style="fill:none;stroke:#ffffff;stroke-linecap:round;"/>
     </g>
    </g>
   </g>
   <g id="line2d_92">
    <path clip-path="url(#pe5712fabcb)" d="M 737.013369 63.782062 
L 748.792147 302.645455 
L 760.570926 302.645455 
L 772.349704 299.991417 
L 784.128483 302.645455 
L 795.907261 302.645455 
L 807.68604 302.645455 
L 819.464818 302.645455 
L 831.243597 302.645455 
L 843.022375 302.645455 
L 854.801154 302.645455 
L 866.579932 302.645455 
L 878.358711 302.645455 
L 890.137489 302.645455 
L 901.916268 294.683341 
L 913.695046 302.645455 
L 925.473825 302.645455 
L 937.252603 299.991417 
L 949.031382 302.645455 
L 960.81016 302.645455 
" style="fill:none;stroke:#edd1cb;stroke-linecap:round;stroke-width:1.5;"/>
   </g>
   <g id="line2d_93">
    <path clip-path="url(#pe5712fabcb)" d="M 737.013369 86.167128 
L 748.792147 302.645455 
L 760.570926 302.645455 
L 772.349704 302.645455 
L 784.128483 302.645455 
L 795.907261 300.098651 
L 807.68604 297.551847 
L 819.464818 300.098651 
L 831.243597 302.645455 
L 843.022375 297.551847 
L 854.801154 302.645455 
L 866.579932 300.098651 
L 878.358711 300.098651 
L 890.137489 302.645455 
L 901.916268 302.645455 
L 913.695046 300.098651 
L 925.473825 297.551847 
L 937.252603 302.645455 
L 949.031382 297.551847 
L 960.81016 300.098651 
" style="fill:none;stroke:#e3b5b7;stroke-linecap:round;stroke-width:1.5;"/>
   </g>
   <g id="line2d_94">
    <path clip-path="url(#pe5712fabcb)" d="M 737.013369 175.305262 
L 748.792147 292.458239 
L 760.570926 297.551847 
L 772.349704 292.458239 
L 784.128483 300.098651 
L 795.907261 297.551847 
L 807.68604 297.551847 
L 819.464818 300.098651 
L 831.243597 302.645455 
L 843.022375 289.911435 
L 854.801154 297.551847 
L 866.579932 297.551847 
L 878.358711 302.645455 
L 890.137489 295.005043 
L 901.916268 302.645455 
L 913.695046 297.551847 
L 925.473825 292.458239 
L 937.252603 289.911435 
L 949.031382 295.005043 
L 960.81016 284.817828 
" style="fill:none;stroke:#d499a7;stroke-linecap:round;stroke-width:1.5;"/>
   </g>
   <g id="line2d_95">
    <path clip-path="url(#pe5712fabcb)" d="M 737.013369 236.294512 
L 748.792147 302.645455 
L 760.570926 299.991417 
L 772.349704 294.683341 
L 784.128483 297.337379 
L 795.907261 292.029304 
L 807.68604 299.991417 
L 819.464818 299.991417 
L 831.243597 294.683341 
L 843.022375 294.683341 
L 854.801154 289.375266 
L 866.579932 292.029304 
L 878.358711 297.337379 
L 890.137489 299.991417 
L 901.916268 286.721228 
L 913.695046 297.337379 
L 925.473825 292.029304 
L 937.252603 289.375266 
L 949.031382 278.759115 
L 960.81016 265.488927 
" style="fill:none;stroke:#c27f9a;stroke-linecap:round;stroke-width:1.5;"/>
   </g>
   <g id="line2d_96">
    <path clip-path="url(#pe5712fabcb)" d="M 737.013369 283.667658 
L 748.792147 297.223227 
L 760.570926 297.223227 
L 772.349704 297.223227 
L 784.128483 299.934341 
L 795.907261 297.223227 
L 807.68604 299.934341 
L 819.464818 297.223227 
L 831.243597 294.512113 
L 843.022375 294.512113 
L 854.801154 291.800999 
L 866.579932 291.800999 
L 878.358711 289.089886 
L 890.137489 289.089886 
L 901.916268 286.378772 
L 913.695046 283.667658 
L 925.473825 289.089886 
L 937.252603 278.245431 
L 949.031382 278.245431 
L 960.81016 264.689862 
" style="fill:none;stroke:#a9678f;stroke-linecap:round;stroke-width:1.5;"/>
   </g>
   <g id="line2d_97">
    <path clip-path="url(#pe5712fabcb)" d="M 737.013369 273.755148 
L 748.792147 300.019063 
L 760.570926 297.392672 
L 772.349704 300.019063 
L 784.128483 300.019063 
L 795.907261 302.645455 
L 807.68604 300.019063 
L 819.464818 297.392672 
L 831.243597 294.76628 
L 843.022375 289.513497 
L 854.801154 294.76628 
L 866.579932 297.392672 
L 878.358711 302.645455 
L 890.137489 300.019063 
L 901.916268 300.019063 
L 913.695046 286.887106 
L 925.473825 281.634323 
L 937.252603 276.38154 
L 949.031382 276.38154 
L 960.81016 229.106494 
" style="fill:none;stroke:#8d5282;stroke-linecap:round;stroke-width:1.5;"/>
   </g>
   <g id="line2d_98">
    <path clip-path="url(#pe5712fabcb)" d="M 737.013369 276.652302 
L 748.792147 300.046139 
L 760.570926 297.446824 
L 772.349704 297.446824 
L 784.128483 300.046139 
L 795.907261 297.446824 
L 807.68604 300.046139 
L 819.464818 302.645455 
L 831.243597 302.645455 
L 843.022375 297.446824 
L 854.801154 302.645455 
L 866.579932 302.645455 
L 878.358711 297.446824 
L 890.137489 292.248193 
L 901.916268 297.446824 
L 913.695046 289.648878 
L 925.473825 287.049563 
L 937.252603 279.251617 
L 949.031382 255.85778 
L 960.81016 224.665997 
" style="fill:none;stroke:#6c3f70;stroke-linecap:round;stroke-width:1.5;"/>
   </g>
   <g id="line2d_99">
    <path clip-path="url(#pe5712fabcb)" d="M 737.013369 289.234094 
L 748.792147 297.28091 
L 760.570926 299.963182 
L 772.349704 299.963182 
L 784.128483 302.645455 
L 795.907261 299.963182 
L 807.68604 299.963182 
L 819.464818 302.645455 
L 831.243597 299.963182 
L 843.022375 299.963182 
L 854.801154 297.28091 
L 866.579932 299.963182 
L 878.358711 299.963182 
L 890.137489 302.645455 
L 901.916268 294.598638 
L 913.695046 297.28091 
L 925.473825 291.916366 
L 937.252603 289.234094 
L 949.031382 249.000012 
L 960.81016 187.307753 
" style="fill:none;stroke:#4c2e5a;stroke-linecap:round;stroke-width:1.5;"/>
   </g>
   <g id="line2d_100">
    <path clip-path="url(#pe5712fabcb)" d="M 737.013369 292.354288 
L 748.792147 297.499871 
L 760.570926 300.072663 
L 772.349704 300.072663 
L 784.128483 300.072663 
L 795.907261 300.072663 
L 807.68604 302.645455 
L 819.464818 302.645455 
L 831.243597 302.645455 
L 843.022375 300.072663 
L 854.801154 302.645455 
L 866.579932 294.92708 
L 878.358711 300.072663 
L 890.137489 297.499871 
L 901.916268 302.645455 
L 913.695046 302.645455 
L 925.473825 302.645455 
L 937.252603 300.072663 
L 949.031382 276.917538 
L 960.81016 122.55004 
" style="fill:none;stroke:#2d1e3e;stroke-linecap:round;stroke-width:1.5;"/>
   </g>
   <g id="line2d_101"/>
   <g id="line2d_102"/>
   <g id="line2d_103"/>
   <g id="line2d_104"/>
   <g id="line2d_105"/>
   <g id="patch_15">
    <path d="M 725.823529 315 
L 725.823529 43.2 
" style="fill:none;stroke:#ffffff;stroke-linecap:square;stroke-linejoin:miter;stroke-width:1.25;"/>
   </g>
   <g id="patch_16">
    <path d="M 972 315 
L 972 43.2 
" style="fill:none;stroke:#ffffff;stroke-linecap:square;stroke-linejoin:miter;stroke-width:1.25;"/>
   </g>
   <g id="patch_17">
    <path d="M 725.823529 315 
L 972 315 
" style="fill:none;stroke:#ffffff;stroke-linecap:square;stroke-linejoin:miter;stroke-width:1.25;"/>
   </g>
   <g id="patch_18">
    <path d="M 725.823529 43.2 
L 972 43.2 
" style="fill:none;stroke:#ffffff;stroke-linecap:square;stroke-linejoin:miter;stroke-width:1.25;"/>
   </g>
   <g id="text_35">
    <!-- PFR -->
    <g style="fill:#262626;" transform="translate(836.911765 37.2)scale(0.12 -0.12)">
     <defs>
      <path d="M 525 0 
L 525 4581 
L 3616 4581 
L 3616 4041 
L 1131 4041 
L 1131 2622 
L 3281 2622 
L 3281 2081 
L 1131 2081 
L 1131 0 
L 525 0 
z
" id="ArialMT-46" transform="scale(0.015625)"/>
     </defs>
     <use xlink:href="#ArialMT-50"/>
     <use x="66.699219" xlink:href="#ArialMT-46"/>
     <use x="127.783203" xlink:href="#ArialMT-52"/>
    </g>
   </g>
   <g id="legend_3">
    <g id="patch_19">
     <path d="M 959.9 57.5 
L 964.3 57.5 
Q 966.5 57.5 966.5 55.3 
L 966.5 50.9 
Q 966.5 48.7 964.3 48.7 
L 959.9 48.7 
Q 957.7 48.7 957.7 50.9 
L 957.7 55.3 
Q 957.7 57.5 959.9 57.5 
z
" style="fill:#eaeaf2;opacity:0.8;stroke:#cccccc;stroke-linejoin:miter;"/>
    </g>
   </g>
  </g>
  <g id="text_36">
   <!-- ENCODING DRIFT RATE -->
   <g style="fill:#262626;" transform="translate(457.4565 17.50725)scale(0.144 -0.144)">
    <defs>
     <path d="M 506 0 
L 506 4581 
L 3819 4581 
L 3819 4041 
L 1113 4041 
L 1113 2638 
L 3647 2638 
L 3647 2100 
L 1113 2100 
L 1113 541 
L 3925 541 
L 3925 0 
L 506 0 
z
" id="ArialMT-45" transform="scale(0.015625)"/>
     <path d="M 488 0 
L 488 4581 
L 1109 4581 
L 3516 984 
L 3516 4581 
L 4097 4581 
L 4097 0 
L 3475 0 
L 1069 3600 
L 1069 0 
L 488 0 
z
" id="ArialMT-4e" transform="scale(0.015625)"/>
     <path d="M 309 2231 
Q 309 3372 921 4017 
Q 1534 4663 2503 4663 
Q 3138 4663 3647 4359 
Q 4156 4056 4423 3514 
Q 4691 2972 4691 2284 
Q 4691 1588 4409 1038 
Q 4128 488 3612 205 
Q 3097 -78 2500 -78 
Q 1853 -78 1343 234 
Q 834 547 571 1087 
Q 309 1628 309 2231 
z
M 934 2222 
Q 934 1394 1379 917 
Q 1825 441 2497 441 
Q 3181 441 3623 922 
Q 4066 1403 4066 2288 
Q 4066 2847 3877 3264 
Q 3688 3681 3323 3911 
Q 2959 4141 2506 4141 
Q 1863 4141 1398 3698 
Q 934 3256 934 2222 
z
" id="ArialMT-4f" transform="scale(0.015625)"/>
     <path d="M 494 0 
L 494 4581 
L 2072 4581 
Q 2606 4581 2888 4516 
Q 3281 4425 3559 4188 
Q 3922 3881 4101 3404 
Q 4281 2928 4281 2316 
Q 4281 1794 4159 1391 
Q 4038 988 3847 723 
Q 3656 459 3429 307 
Q 3203 156 2883 78 
Q 2563 0 2147 0 
L 494 0 
z
M 1100 541 
L 2078 541 
Q 2531 541 2789 625 
Q 3047 709 3200 863 
Q 3416 1078 3536 1442 
Q 3656 1806 3656 2325 
Q 3656 3044 3420 3430 
Q 3184 3816 2847 3947 
Q 2603 4041 2063 4041 
L 1100 4041 
L 1100 541 
z
" id="ArialMT-44" transform="scale(0.015625)"/>
     <path d="M 597 0 
L 597 4581 
L 1203 4581 
L 1203 0 
L 597 0 
z
" id="ArialMT-49" transform="scale(0.015625)"/>
     <path d="M 2638 1797 
L 2638 2334 
L 4578 2338 
L 4578 638 
Q 4131 281 3656 101 
Q 3181 -78 2681 -78 
Q 2006 -78 1454 211 
Q 903 500 622 1047 
Q 341 1594 341 2269 
Q 341 2938 620 3517 
Q 900 4097 1425 4378 
Q 1950 4659 2634 4659 
Q 3131 4659 3532 4498 
Q 3934 4338 4162 4050 
Q 4391 3763 4509 3300 
L 3963 3150 
Q 3859 3500 3706 3700 
Q 3553 3900 3268 4020 
Q 2984 4141 2638 4141 
Q 2222 4141 1919 4014 
Q 1616 3888 1430 3681 
Q 1244 3475 1141 3228 
Q 966 2803 966 2306 
Q 966 1694 1177 1281 
Q 1388 869 1791 669 
Q 2194 469 2647 469 
Q 3041 469 3416 620 
Q 3791 772 3984 944 
L 3984 1797 
L 2638 1797 
z
" id="ArialMT-47" transform="scale(0.015625)"/>
     <path id="ArialMT-20" transform="scale(0.015625)"/>
     <path d="M 1659 0 
L 1659 4041 
L 150 4041 
L 150 4581 
L 3781 4581 
L 3781 4041 
L 2266 4041 
L 2266 0 
L 1659 0 
z
" id="ArialMT-54" transform="scale(0.015625)"/>
     <path d="M -9 0 
L 1750 4581 
L 2403 4581 
L 4278 0 
L 3588 0 
L 3053 1388 
L 1138 1388 
L 634 0 
L -9 0 
z
M 1313 1881 
L 2866 1881 
L 2388 3150 
Q 2169 3728 2063 4100 
Q 1975 3659 1816 3225 
L 1313 1881 
z
" id="ArialMT-41" transform="scale(0.015625)"/>
    </defs>
    <use xlink:href="#ArialMT-45"/>
    <use x="66.699219" xlink:href="#ArialMT-4e"/>
    <use x="138.916016" xlink:href="#ArialMT-43"/>
    <use x="211.132812" xlink:href="#ArialMT-4f"/>
    <use x="288.916016" xlink:href="#ArialMT-44"/>
    <use x="361.132812" xlink:href="#ArialMT-49"/>
    <use x="388.916016" xlink:href="#ArialMT-4e"/>
    <use x="461.132812" xlink:href="#ArialMT-47"/>
    <use x="538.916016" xlink:href="#ArialMT-20"/>
    <use x="566.699219" xlink:href="#ArialMT-44"/>
    <use x="638.916016" xlink:href="#ArialMT-52"/>
    <use x="711.132812" xlink:href="#ArialMT-49"/>
    <use x="738.916016" xlink:href="#ArialMT-46"/>
    <use x="800" xlink:href="#ArialMT-54"/>
    <use x="859.333984" xlink:href="#ArialMT-20"/>
    <use x="887.117188" xlink:href="#ArialMT-52"/>
    <use x="959.333984" xlink:href="#ArialMT-41"/>
    <use x="1018.658203" xlink:href="#ArialMT-54"/>
    <use x="1079.742188" xlink:href="#ArialMT-45"/>
   </g>
  </g>
 </g>
 <defs>
  <clipPath id="p62b6c8e8ec">
   <rect height="271.8" width="246.176471" x="135" y="43.2"/>
  </clipPath>
  <clipPath id="p7bc88029a7">
   <rect height="271.8" width="246.176471" x="430.411765" y="43.2"/>
  </clipPath>
  <clipPath id="pe5712fabcb">
   <rect height="271.8" width="246.176471" x="725.823529" y="43.2"/>
  </clipPath>
 </defs>
</svg>
